/* XPM */
static char *result[] = {
/* columns rows colors chars-per-pixel */
"64 64 136 2 ",
"   c #20191C",
".  c #211520",
"X  c #271528",
"o  c #28152A",
"O  c #260336",
"+  c #27003A",
"@  c #28003C",
"#  c #2E1533",
"$  c #301635",
"%  c #301D32",
"&  c #371A3E",
"*  c #342B2B",
"=  c #352933",
"-  c #3A2B34",
";  c #432F3F",
":  c #463A3F",
">  c #2D0043",
",  c #34004D",
"<  c #381A40",
"1  c #371248",
"2  c #3F1D49",
"3  c #360050",
"4  c #390055",
"5  c #3D0558",
"6  c #3C1151",
"7  c #401E49",
"8  c #430D5E",
"9  c #401157",
"0  c #411158",
"q  c #4E1E5E",
"w  c #472F45",
"e  c #442949",
"r  c #453247",
"t  c #473449",
"y  c #4D374B",
"u  c #440463",
"i  c #460F61",
"p  c #4B066C",
"a  c #4D096E",
"s  c #4E116B",
"d  c #521E64",
"f  c #4F0372",
"g  c #4E0A70",
"h  c #56027C",
"j  c #521671",
"k  c #5C127D",
"l  c #5F2F69",
"z  c #A89A7F",
"x  c #570080",
"c  c #5D0386",
"v  c #5B0D82",
"b  c #5E008A",
"n  c #5D1280",
"m  c #61018E",
"M  c #641489",
"N  c #630192",
"B  c #680597",
"V  c #6B039D",
"C  c #6F0C9E",
"Z  c #6C1197",
"A  c #70119D",
"S  c #6F03A3",
"D  c #7204A6",
"F  c #750EA6",
"G  c #7505AA",
"H  c #7908AF",
"J  c #7611A6",
"K  c #7811A8",
"L  c #7F1CAD",
"P  c #7B08B1",
"I  c #7E12B1",
"U  c #830CBB",
"Y  c #821DB1",
"T  c #891ABE",
"R  c #8421B3",
"E  c #8929B7",
"W  c #8E2DBC",
"Q  c #975FB0",
"!  c #9E5FBC",
"~  c #931CCC",
"^  c #971AD2",
"/  c #9D1CDB",
"(  c #A11EDF",
")  c #9421C9",
"_  c #9821D0",
"`  c #9C20D8",
"'  c #A026DA",
"]  c #A41EE4",
"[  c #A71EE9",
"{  c #A622E6",
"}  c #A72DE1",
"|  c #AA2DE6",
" . c #AF2BEE",
".. c #AD39E5",
"X. c #AF22F2",
"o. c #B022F4",
"O. c #B22FF1",
"+. c #B726FD",
"@. c #B927FF",
"#. c #B437F0",
"$. c #A75CCA",
"%. c #AA51D5",
"&. c #AC5CD1",
"*. c #AB63CD",
"=. c #AB6CC9",
"-. c #AD71C9",
";. c #B16AD2",
":. c #B360DA",
">. c #B66ADA",
",. c #BA6CDF",
"<. c #B761E0",
"1. c #BD6BE4",
"2. c #BE63E9",
"3. c #C16EE9",
"4. c #C073E6",
"5. c #C37BE5",
"6. c #C370EA",
"7. c #C86FF2",
"8. c #C870F2",
"9. c #CC7CF3",
"0. c #8B8984",
"q. c #928E86",
"w. c #9C968A",
"e. c #AA9B82",
"r. c #AF9B88",
"t. c #AFA085",
"y. c #BCAD8E",
"u. c #BFB090",
"i. c #C1AD96",
"p. c #C2B094",
"a. c #C5B79A",
"s. c #CDBE9E",
"d. c #D3C39F",
"f. c #D7C6A2",
"g. c #D589FA",
"h. c #D98BFE",
/* pixels */
"f.f.f.f.f.f.f.f.f.f.f.f.f.f.f.f.f.f.f.f.f.f.f.f.f.f.f.f.f.f.f.f.f.f.f.f.f.f.f.f.f.f.f.f.f.f.f.f.f.f.f.f.f.f.f.f.f.f.f.f.f.f.f.f.",
"f.f.f.f.f.f.f.f.f.f.f.f.f.f.f.f.f.f.f.f.f.f.f.f.f.f.f.f.f.f.f.f.f.f.f.f.f.f.f.f.f.f.f.f.f.f.f.f.f.f.f.f.f.f.f.f.f.f.f.f.f.f.f.f.",
"f.f.f.f.f.f.f.f.f.f.f.f.f.f.f.f.f.f.f.f.f.f.f.f.f.f.f.f.f.f.f.f.f.f.f.f.f.f.f.f.f.f.f.f.f.f.f.f.f.f.f.f.f.f.f.f.f.f.f.f.f.f.f.f.",
"f.f.f.f.f.f.f.f.f.f.f.f.f.f.f.f.f.f.f.f.f.f.f.f.f.f.f.f.f.f.f.f.f.f.f.f.f.f.f.f.f.f.f.f.f.f.f.f.f.f.f.f.f.f.f.f.f.f.f.f.f.f.f.f.",
"f.f.f.f.f.f.f.f.s.s.s.f.f.f.f.f.f.f.f.f.f.f.f.f.f.f.f.f.f.f.f.f.f.f.f.f.f.f.s.s.f.f.f.f.f.f.f.f.f.f.f.f.f.f.f.f.f.f.f.f.f.f.f.f.",
"f.f.f.f.f.f.f.a.0.0.0.a.f.f.f.f.f.f.f.f.f.f.f.f.f.f.f.f.f.f.f.f.f.f.f.f.f.a.q.q.a.f.f.f.f.f.f.f.f.f.f.f.f.f.f.f.f.f.f.f.f.f.f.f.",
"f.f.f.f.f.f.d.w.0.0.0.w.s.f.f.f.f.f.f.f.f.f.f.f.f.f.f.f.f.f.f.f.f.f.f.f.s.w.0.0.w.s.f.f.f.f.f.f.f.f.f.f.f.f.f.f.f.f.f.f.f.f.f.f.",
"f.f.f.f.f.f.f.s.s.s.s.s.f.f.f.f.f.f.f.f.f.f.f.f.f.f.f.f.f.f.f.f.f.f.f.f.f.s.s.s.s.d.f.f.f.d.s.f.f.f.f.f.f.f.f.f.f.f.f.f.f.f.f.f.",
"f.f.f.f.f.f.f.f.f.f.f.f.f.f.f.f.f.f.f.f.f.f.f.f.f.f.f.f.f.d.u.u.d.f.f.f.f.f.f.f.f.f.f.f.a.0.q.a.f.f.f.f.f.f.f.f.f.f.f.f.f.f.f.f.",
"f.f.f.f.f.f.f.f.f.f.f.f.f.f.f.f.f.f.f.f.f.f.f.f.f.f.f.f.d.e.* : t.d.f.f.f.f.f.f.f.f.f.s.w.0.0.w.f.f.f.f.f.f.f.f.f.f.f.f.f.f.f.f.",
"f.f.f.f.f.f.f.f.f.f.f.f.f.f.f.f.f.s.s.d.f.f.f.f.f.f.f.f.p.* 1 Q : u.f.f.f.f.f.f.f.f.f.f.s.s.s.s.f.f.f.f.f.f.f.f.f.f.f.f.f.f.f.f.",
"f.f.f.f.f.f.f.f.f.f.f.f.f.f.f.f.a.q.q.a.f.f.f.f.f.f.f.d.z   6 -.t e.d.f.f.f.f.f.f.f.f.f.f.f.f.f.f.f.f.f.f.f.f.f.f.f.f.f.f.f.f.f.",
"f.f.f.f.f.f.f.f.f.f.f.f.f.f.f.s.w.0.0.w.s.f.f.f.f.f.f.u.* O 0 1.=.: u.f.f.f.f.f.f.f.f.f.f.f.f.f.f.f.f.f.f.f.f.f.f.f.f.f.f.f.f.f.",
"f.f.f.f.f.f.f.f.f.f.f.f.f.f.f.f.s.s.s.s.f.f.f.f.f.f.d.e.X @ 0 4...2 e.d.f.f.f.f.f.f.f.f.f.f.f.f.f.f.f.f.f.f.f.f.f.f.f.f.f.f.f.f.",
"f.f.f.f.f.f.f.f.f.f.f.f.f.f.f.f.f.f.f.f.f.f.f.f.f.f.u.- f , 0 4.O.) ; u.f.f.f.f.f.f.f.f.f.f.f.f.f.f.f.f.f.f.f.f.f.f.f.f.f.f.f.f.",
"f.f.f.f.f.f.f.f.f.f.f.f.f.f.f.f.f.f.f.f.f.f.f.f.f.d.e.# h , 0 >.T ` e e.d.f.f.f.f.f.f.f.f.f.f.s.a.s.f.f.f.f.f.f.f.f.f.f.f.f.f.f.",
"f.f.f.f.f.f.f.f.f.f.f.f.f.f.f.f.f.f.f.f.f.f.f.f.f.u.- h m , 9 :.I  .*.- u.f.f.f.f.f.f.f.f.f.a.q.0.q.a.f.f.f.f.f.f.f.f.f.f.f.f.f.",
"f.f.f.f.f.f.f.f.f.f.f.f.f.f.f.f.f.f.f.f.f.f.f.f.d.e.# b m , 5 ` P { } e t.d.f.f.f.f.f.f.f.d.w.0.0.0.w.s.f.f.f.f.f.f.f.f.f.f.f.f.",
"f.f.f.f.f.f.f.f.f.f.f.f.f.f.f.f.f.f.f.f.f.f.f.f.y.- h V N , 5 / H P #.=.: u.f.f.f.f.f.f.f.d.d.a.s.s.s.f.f.f.f.f.f.f.f.f.f.f.f.f.",
"f.f.f.f.f.f.f.f.f.f.f.f.f.f.f.f.f.f.f.f.f.f.f.f.z # b V N , 5 / G J 1.5.t t.d.f.f.f.f.f.f.f.f.f.f.f.f.f.f.f.f.f.f.f.f.f.f.f.f.f.",
"f.f.f.f.f.f.f.f.f.f.f.f.f.f.f.f.f.f.f.f.f.f.f.u.- h D V m , 5 ( I S L 9.-.: u.d.f.f.f.f.f.f.f.f.f.f.f.f.f.f.f.f.f.f.f.f.f.f.f.f.",
"f.f.f.f.f.f.f.f.f.f.f.f.f.f.f.f.f.f.f.f.f.f.d.e.# B / D m , 5 | 2.J J 9.,.r t.d.f.f.f.f.f.f.f.f.f.f.f.f.f.f.f.f.f.f.f.f.f.f.f.f.",
"f.f.f.f.f.f.f.f.f.f.f.f.f.f.f.f.f.f.f.f.f.f.y.- h H ] G N , 5 | 7.J J 1.g.=.: u.f.f.f.f.f.f.f.f.f.f.f.f.f.f.f.f.f.f.f.f.f.f.f.f.",
"f.f.f.f.s.s.f.f.f.f.f.f.f.f.f.f.f.f.f.f.f.d.e.# B [ o.H N , 8 ..8.J S R 5.g.t e.d.f.f.f.f.f.f.f.f.f.f.f.f.f.f.f.f.f.f.f.f.f.f.f.",
"f.f.f.a.q.q.a.f.f.f.f.f.f.f.f.f.f.f.f.f.f.p.- h D X.+.[ V , 0 6.9.J V R 9.h.-.: u.f.f.f.f.f.f.f.f.f.f.f.f.f.f.f.f.f.f.f.f.f.f.f.",
"f.f.s.w.0.0.w.s.f.f.f.f.f.f.f.f.f.f.f.f.d.z $ N G X.@.X.V , 0 5.9.Y K 1.h.h.g.t t.d.f.f.f.f.f.f.f.f.f.f.f.f.f.f.f.f.f.f.f.f.f.f.",
"f.f.f.s.s.s.s.f.f.f.f.f.f.f.f.f.f.f.f.f.i.- m / U o.@.o.C , 0 5.h.3.R 5.h.h.5.=.: u.f.f.f.f.f.f.f.f.f.f.f.f.f.f.f.f.f.f.f.f.f.f.",
"f.f.f.f.f.f.f.f.f.f.f.f.f.f.f.f.f.f.f.d.e.o B  .o.+.@.X.V 3 0 5.h.9.) g.h.1.E *.r e.d.f.f.f.f.f.f.f.f.f.f.f.f.f.f.f.f.f.f.f.f.f.",
"f.f.f.f.f.f.f.f.f.f.f.f.f.f.f.f.f.f.f.p.- m H o.@.@.@.X.V , 0 5.g.g.9.9.6.L S L ! : u.f.f.f.f.f.f.f.f.f.f.f.f.f.f.f.f.f.f.f.f.f.",
"f.f.f.f.f.f.f.f.f.f.f.f.f.f.f.f.f.f.d.z 7 _ o.+.@.@.@.X.V , 0 5.9.W <.L J V V L *.r e.d.f.f.f.f.f.f.f.f.f.f.f.f.f.f.f.f.f.f.f.f.",
"f.f.f.f.f.f.f.f.f.f.f.f.f.f.f.f.f.f.p.r ) +.@.@.@.@.+.] N , 0 5.1.J S V V V F %.E =.t p.f.f.f.f.f.f.f.f.f.f.f.f.f.f.f.f.f.f.f.f.",
"f.f.f.f.f.f.f.f.f.f.f.f.f.f.f.f.f.f.i.q { @.@.@.@.+.' a , > 0 ,.L S V V V V V F K ;.* u.f.f.f.f.f.f.f.f.f.f.f.f.f.f.f.f.f.f.f.f.",
"f.f.f.f.f.f.f.f.f.f.f.f.f.f.f.f.f.f.i.d { @.@.+.{ { V 3 > , i &.F b b m N J J J R ;.= y.f.f.f.f.f.f.f.f.f.f.f.f.f.f.f.f.f.f.f.f.",
"f.f.f.f.f.f.f.f.f.f.f.f.f.f.f.f.f.f.i.d { +.X.] v g u 5 4 b N J u 3 , , i $.1.1.,.;.= y.f.f.f.f.f.f.f.f.f.f.f.f.f.f.f.f.f.f.f.f.",
"f.f.f.f.f.f.f.f.f.f.f.f.f.f.f.f.f.f.i.l _ X.P U ] { ] ^ V V V / N , > > > i Z A s k - u.f.f.f.f.f.f.f.f.f.f.f.f.f.f.f.f.f.f.f.f.",
"f.f.f.f.f.f.f.f.f.f.f.f.f.f.f.f.f.f.f.r.2 ~ P [ +.@.X.H V N p / V 3 > > > > 4 b 3 X e.d.f.f.f.f.f.f.f.f.f.f.f.f.f.f.f.f.f.f.f.f.",
"f.f.f.f.f.f.f.f.f.f.f.f.f.f.f.f.f.f.f.u.- c D [ +.+.[ G V m u / V , > > > > , x f = u.f.f.f.f.f.f.f.f.f.f.f.f.f.f.f.f.f.f.f.f.f.",
"f.f.f.f.f.f.f.f.f.f.f.f.f.f.s.s.f.f.f.f.e.# b P X.o.P V V N u / V , > > > > > > X e.d.f.f.f.f.f.f.f.f.f.f.f.f.f.f.f.f.f.f.f.f.f.",
"f.f.f.f.f.f.f.f.f.f.f.f.f.a.q.0.a.f.f.f.y.- h H X.[ D V V B u / V 3 > > > > > O * u.f.f.f.f.f.f.f.f.f.f.f.f.f.f.d.f.f.f.f.f.f.f.",
"f.f.f.f.f.f.f.f.f.f.f.f.d.w.0.0.w.s.f.f.f.e.& / X.P V S G ^ a / V , > > , > @ . z d.f.f.f.f.f.f.f.f.f.f.f.f.f.a.w.a.f.f.f.f.f.f.",
"f.f.f.f.f.f.f.f.f.f.f.f.d.s.s.s.s.f.f.f.f.y.% ^ [ D D / P / g / V , > , h , +   y.f.f.f.f.f.f.f.f.f.f.f.f.f.s.w.0.w.s.f.f.f.f.f.",
"f.f.f.f.f.f.f.f.f.f.f.f.f.f.f.f.f.f.f.f.f.u.- c D V P / P / g / V 3 > , b , O * u.f.f.f.f.f.f.f.f.f.f.f.f.f.f.s.s.s.f.f.f.f.f.f.",
"f.f.f.f.f.f.f.f.f.f.f.f.f.f.f.f.f.f.f.f.f.f.e.# b D ( P G / f / C , > , c > . z d.f.f.f.f.f.f.f.f.f.f.f.f.f.f.f.f.f.f.f.f.f.f.f.",
"f.f.f.f.f.f.f.f.f.f.f.f.f.f.f.f.f.f.f.f.f.f.u.- h D ] G P / g / V 3 > , x > * u.f.f.f.f.f.f.f.f.f.f.f.f.f.f.f.f.f.f.f.f.f.f.f.f.",
"f.f.f.f.f.f.f.f.s.f.f.f.f.f.f.f.f.f.f.f.f.f.d.e.% V ( P [ { g ` V , > 3 x o e.d.f.f.f.f.f.f.f.f.f.f.f.f.f.f.f.f.f.f.f.f.f.f.f.f.",
"f.f.f.f.f.f.f.a.w.a.f.f.f.f.f.f.f.f.f.f.f.f.f.y.; Y G G o.{ g ` C , > 3 f = y.f.f.f.s.f.f.f.f.f.f.f.f.f.f.f.f.f.f.f.f.f.f.f.f.f.",
"f.f.f.f.f.f.s.w.0.w.s.f.f.f.f.f.f.f.f.f.f.f.f.f.z & m H o.{ j :.A , 4 h # e.f.f.f.a.w.a.f.f.f.f.f.f.f.f.f.f.f.f.f.f.f.f.f.f.f.f.",
"f.f.f.f.f.f.f.s.s.s.f.f.f.f.f.f.f.f.f.f.f.f.f.f.p.- m [ @.{ j >.A u x h - u.f.f.s.w.0.w.s.f.f.f.f.f.f.f.f.f.f.f.f.f.f.f.f.f.f.f.",
"f.f.f.f.f.f.f.f.f.f.f.f.f.f.f.f.f.f.f.f.f.f.f.f.d.e.< { @.{ j >.J N b # e.f.f.f.f.s.s.s.f.f.f.f.f.f.f.f.f.f.f.f.f.f.f.f.f.f.f.f.",
"f.f.f.f.f.f.f.f.f.f.f.f.f.f.f.f.f.f.f.f.f.f.f.f.f.y.; ) +.{ j >.J V h - y.f.f.f.f.f.f.f.f.f.f.f.f.f.f.f.f.f.f.f.f.f.f.f.f.f.f.f.",
"f.f.f.f.f.f.f.f.f.f.f.f.f.f.f.f.f.f.f.f.f.f.f.f.f.d.z 2 { { j >.J b # e.d.f.f.f.f.f.f.f.f.f.f.f.f.f.f.f.f.f.f.f.f.f.f.f.f.f.f.f.",
"f.f.f.f.f.f.f.f.f.f.f.f.f.f.f.f.f.f.f.f.f.f.f.f.f.f.u.; ) { j >.J h = u.f.f.f.f.f.f.f.f.f.f.f.f.f.f.f.f.f.f.f.f.f.f.f.f.f.f.f.f.",
"f.f.f.f.f.f.f.f.f.f.f.f.f.f.f.f.f.f.f.f.f.f.f.f.f.f.d.e.7 ~ j >.Z # e.d.f.f.f.f.f.f.f.f.f.f.f.f.f.f.f.f.f.f.f.f.f.f.f.f.f.f.f.f.",
"f.f.f.f.f.f.f.f.f.f.f.f.f.f.f.f.f.f.f.f.f.f.f.f.f.f.f.y.; Y j >.M - u.f.f.f.f.f.f.f.f.f.f.f.f.f.f.f.f.f.f.f.f.f.f.f.f.f.f.f.f.f.",
"f.f.f.f.f.f.f.f.f.f.f.f.f.f.f.f.f.f.f.f.f.f.f.f.s.s.s.d.r.w n ! y e.d.f.f.f.f.f.f.f.f.f.f.f.f.f.f.f.f.f.f.f.f.f.f.f.f.f.f.f.f.f.",
"f.f.f.f.f.f.f.f.f.f.f.f.f.f.f.f.f.f.f.f.f.f.f.a.q.0.q.a.d.e.- : t.d.f.f.f.f.f.f.f.f.f.f.f.f.f.f.f.f.f.f.f.f.f.f.s.s.f.f.f.f.f.f.",
"f.f.f.f.f.f.f.f.f.d.f.f.f.f.f.f.f.f.f.f.f.f.d.w.0.0.0.w.s.d.u.p.f.f.f.f.f.f.f.f.f.f.f.f.f.f.f.f.f.f.f.f.f.f.f.a.q.q.a.f.f.f.f.f.",
"f.f.f.f.f.f.f.f.a.w.a.f.f.f.f.f.f.f.f.f.f.f.f.s.s.s.s.s.f.f.f.f.f.f.f.f.f.f.f.f.f.f.f.f.f.f.f.f.f.f.f.f.f.f.s.w.0.0.w.s.f.f.f.f.",
"f.f.f.f.f.f.f.s.w.0.w.s.f.f.f.f.f.f.f.f.f.f.f.f.d.f.f.f.f.f.f.f.f.f.f.f.f.f.f.f.f.f.f.f.f.f.f.f.f.f.f.f.f.f.f.s.s.s.s.f.f.f.f.f.",
"f.f.f.f.f.f.f.f.s.s.s.f.f.f.f.f.f.f.f.f.f.f.f.f.f.f.f.f.f.f.f.f.f.f.f.f.f.f.f.f.f.f.f.f.f.f.f.f.f.f.s.s.f.f.f.f.f.f.f.f.f.f.f.f.",
"f.f.f.f.f.f.f.f.f.f.f.f.f.f.f.f.f.f.f.f.f.f.f.f.f.f.f.f.f.f.f.f.f.f.f.f.f.f.f.f.f.f.f.f.f.f.f.f.f.a.0.q.a.f.f.f.f.f.f.f.f.f.f.f.",
"f.f.f.f.f.f.f.f.f.f.f.f.f.f.f.f.f.f.f.f.f.f.f.f.f.f.f.f.f.f.f.f.f.f.f.f.f.f.f.f.f.f.f.f.f.f.f.f.s.w.0.0.w.s.f.f.f.f.f.f.f.f.f.f.",
"f.f.f.f.f.f.f.f.f.f.f.f.f.f.f.f.f.f.f.f.f.f.f.f.f.f.f.f.f.f.f.f.f.f.f.f.f.f.f.f.f.f.f.f.f.f.f.f.f.s.s.s.s.f.f.f.f.f.f.f.f.f.f.f.",
"f.f.f.f.f.f.f.f.f.f.f.f.f.f.f.f.f.f.f.f.f.f.f.f.f.f.f.f.f.f.f.f.f.f.f.f.f.f.f.f.f.f.f.f.f.f.f.f.f.f.f.f.f.f.f.f.f.f.f.f.f.f.f.f."
};
