/* XPM */
static char *result[] = {
/* columns rows colors chars-per-pixel */
"64 64 183 2 ",
"   c black",
".  c #010101",
"X  c #020202",
"o  c #030302",
"O  c gray1",
"+  c #040403",
"@  c #040404",
"#  c #050404",
"$  c #050504",
"%  c gray2",
"&  c #060505",
"*  c #060606",
"=  c #070606",
"-  c #070707",
";  c gray3",
":  c #090909",
">  c gray4",
",  c #0B0B0A",
"<  c #0B0B0B",
"1  c #0C0C0C",
"2  c #0D0D0C",
"3  c gray5",
"4  c #0E0E0E",
"5  c gray6",
"6  c #101010",
"7  c #111110",
"8  c #151410",
"9  c #161511",
"0  c #171511",
"q  c #171611",
"w  c #171716",
"e  c #181612",
"r  c #191713",
"t  c #1A1814",
"y  c #1A1914",
"u  c #1B1914",
"i  c #1B1915",
"p  c #1C1A15",
"a  c #1D1B16",
"s  c #1D1C17",
"d  c #1B1B1A",
"f  c #1C1C1B",
"g  c #1F1F1E",
"h  c gray12",
"j  c #22201B",
"k  c #20201F",
"l  c #252522",
"z  c #2B2820",
"x  c #2B2821",
"c  c #2C2922",
"v  c #2E2B23",
"b  c #2F2B23",
"n  c #282825",
"m  c #2B2B28",
"M  c #2C2D2A",
"N  c #2D2D2A",
"B  c #302C24",
"V  c #302D24",
"C  c #312D25",
"Z  c #322E25",
"A  c #312D26",
"S  c #332F27",
"D  c #31312F",
"F  c #33322F",
"G  c #35332D",
"H  c #36342E",
"J  c #36342F",
"K  c #353533",
"L  c #3C3A34",
"P  c #3C3B35",
"I  c #3F3D36",
"U  c #3F3E37",
"Y  c #373938",
"T  c #3D3E3C",
"R  c #443E34",
"E  c #464034",
"W  c #464135",
"Q  c #424039",
"!  c #44413B",
"~  c #40413F",
"^  c #3B3E40",
"/  c #404140",
"(  c #464643",
")  c #494945",
"_  c #4C4C49",
"`  c #575042",
"'  c #545451",
"]  c #69747D",
"[  c #807B71",
"{  c #90856D",
"}  c #88837A",
"|  c #8A847A",
" . c #9B917A",
".. c #A3977C",
"X. c #A4977C",
"o. c #A89A7E",
"O. c #A89B7F",
"+. c #75828D",
"@. c #76828E",
"#. c #77838E",
"$. c #7E878B",
"%. c #7B8894",
"&. c #7C8994",
"*. c #8A8883",
"=. c #8B8984",
"-. c #8D8A84",
";. c #8C8B88",
":. c #8C8B89",
">. c #928E86",
",. c #928F87",
"<. c #91908B",
"1. c #999388",
"2. c #9B958A",
"3. c #9C968A",
"4. c #808F9C",
"5. c #8E979E",
"6. c #A69A80",
"7. c #A99C81",
"8. c #AA9D80",
"9. c #AA9D81",
"0. c #AB9D81",
"q. c #AB9E81",
"w. c #AB9E82",
"e. c #AC9F83",
"r. c #AEA183",
"t. c #ABA087",
"y. c #ADA084",
"u. c #B4A78A",
"i. c #B8AA8B",
"p. c #B8AA8D",
"a. c #BCAD8E",
"s. c #A3A39D",
"d. c #B7AC92",
"f. c #B8AC92",
"g. c #BEAF90",
"h. c #BFB090",
"j. c #8795A2",
"k. c #8C96A0",
"l. c #939CA6",
"z. c #95A5B3",
"x. c #96A5B4",
"c. c #98A8B6",
"v. c #9EA9B4",
"b. c #A6ABAA",
"n. c #A3ACAE",
"m. c #ACAEA9",
"M. c #A8AEAC",
"N. c #A9AFAC",
"B. c #AFB1AB",
"V. c #B0B2AB",
"C. c #A0ABB7",
"Z. c #A1ACB7",
"A. c #BABAB3",
"S. c #BEBEB7",
"D. c #BFBFB9",
"F. c #C2B498",
"G. c #C5B79A",
"H. c #C4B79B",
"J. c #C6BA9F",
"K. c #CABB9B",
"L. c #CBBC9E",
"P. c #CCBC9C",
"I. c #CCBD9D",
"U. c #CDBE9E",
"Y. c #CFBF9E",
"T. c #C7BBA0",
"R. c #C9BEA5",
"E. c #CABFA5",
"W. c #D3C39F",
"Q. c #CFC1A3",
"!. c #CFC2A3",
"~. c #CEC1A4",
"^. c #D0C2A3",
"/. c #D5C5A1",
"(. c #D5C5A2",
"). c #D6C5A2",
"_. c #D7C6A2",
"`. c #C6C6BF",
"'. c #C1C1C1",
"]. c #D5D5CD",
"[. c #DCDCDA",
"{. c #ECECE3",
"}. c #EDEDE5",
/* pixels */
"_._._._._._._._._._._._._._._._._._._._._._._._._._._._._._._._._._._._._._._._._._._._._._._._._._._._._._._._._._._._._._._._.",
"_._._._._._._._._._._._._._._._._._._._._._._._._._._._._._._._._._._._._._._._._._._._._._._._._._._._._._._._._._._._._._._._.",
"_._._._._._._._._._._._._._._._._._._._._._._._._._._._._._._._._._._._._._._._._._._._._._._._._._._._._._._._._._._._._._._._.",
"_._._._._._._._._._._._._._._._._._._._._._._._._._._._._._._._._._._._._._._._._._._._._._._._._._._._._._._._._._._._._._._._.",
"_._._._._._._./.U.I.U./._._._._._._._._._._._._._._._._._._._._._._._._._./.U.U./._._._._._._._._._._._._._._._._._._._._._._._.",
"_._._._._._./.G.>.*.>.G./._._._._._._._._._._._._._._._._._._._._._._._./.G.>.>.G./._._._._._._._._._._._._._._._._._._._._._._.",
"_._._._._._.Y.3.=.*.=.3.Y._._._._._._._._._._._._._._._._._._._._._._._.Y.3.=.=.3.Y._._._._._._._._._._._._._._._._._._._._._._.",
"_._._._._._./.U.I.I.I.U./._._._._._._._._._._._._._._._._._._._._._._._./.U.I.I.U./._._./.U.U./._._._._._._._._._._._._._._._._.",
"_._._._._._._._._._._._._._._._._._._._._._._._._._._._._._._._._._._._._._._._._._._./.G.>.>.G./._._._.).^.)._._._._._._._._._.",
"_._._._._._._._._._._._._._._._._._._._._._._._._._._._._._._._._._._._._._._._._._._.Y.3.=.=.3.Y._._._.^.V.^._._._._._._._._._.",
"_._._._._._._._._._._._._._._._./.U.U./._._._._._._._._._._._._._._._._._._._._._._._./.U.I.I.U./._._._.).!.!.)._._._._._._._._.",
"_._._._._._._._._._._._._._._./.G.>.>.G./._._._._._._._._._._._._._._._._._._._._._._._._._._._._._._._._.^.V.^._._._._._._._._.",
"_._._._._._._._._._._._._._._.Y.3.=.=.3.Y._._._._._._._._._._._._._._._._._._._._._._._._._._._._._._._._.).^.)._._._._._._._._.",
"_._._._._._._._._._._._._._._./.U.I.I.U./._._._._._._._._._._._._._._._._._._._._._.).^.)._._._._._._._._._._.).^.)._._._._._._.",
"_._._._._._._._._._._._._._._._._._._._._._._._._._._._._._._._._._._._._._._._._._.^.V.^._.).^.)._._._._._._.^.V.^._._._._._._.",
"_._._._._._._._._._._._._._._._._._._._._._._._._._._._._._._._._._._._._._._._._._.).^.)._.Q.m.J.U./._._._._.).^.)._._._._._._.",
"_._._._._._._._._._._._._._._._._._._._._._._._._._._._._._._._._._._._._._._._._._._._._./.H.<.:.,.G./._._._._._._._._._._._._.",
"_._._._._._._._._._._._._._._._._._._._._._._._._._._._._._._._._._._._._._._._._._._._._.Y.3.;.5.;.3.Y._._._._._._._._._._._._.",
"_._._._._._._._._._._._._._._._._._._._._._._._._._._._._._.W.h.a.a.h.W._._._._._._._._._./.U.L.T.L.U./._._._._._._._._._._._._.",
"_._._._._._._._._._._._._._._._._._._._._._._._._._._._._.W.0.b u u b 0.W._._._._._._._._._._._._._._._._._._._._._._._._._._._.",
"_._._._._._._._._._._._._._._._._._._._._._._._._._._._.W.0.z = d h g S h._._._._._._._._._._._._._._._._._._._._._._._._._._._.",
"_._._._._._._._._._._._._._._._._._._._._._._._._._._._.h.b = D D.[.'.J a._._._._._._._._._._._._._._._._._._._._._._._._._._._.",
"_._._._._._._._._._._._._._._._._._._._._._._._._._._.W.o.0 w s.].}.D.H a._._._._._._._._._._._._._._._._._._._._._._._._._._._.",
"_._._./.U.U./._._._._._._._._._._._._._._._._._._._._.h.b o - K ' `._ j a._._._._._._._._._._._._._._._._._._._._._._._._._._._.",
"_._./.G.>.>.G./._._._._._._._._._._._._._._._._._._._.a.u   w s.].{.S.G a._._._._._._._._._._._._._._._._._._._._._._._._._._._.",
"_._.Y.3.=.=.3.Y._._._._._._._._._._._._._._._._._._._.a.u   O D S.].A.G a._._._._._._._._._._._._._._._._._._._._._._._._._._._.",
"_._./.U.I.I.U./._._._._._._._._._._._._._._._._._.W.h...9     % f k f i o.W._._._._._._._._._._._._._._._._._._._._._._._._._._.",
"_._._._._._._._._._._._._._._._._._._._._._._._.W.q.B e + . X > < < > % b h._._._._._._._._._._._._._._._._._._._._._._._._._._.",
"_._._._._._._._._._._._._._._._._._._._._._._.W.0.c > : < < < 1 3 3 1 > y O.W._._._._._._._._._._._._._._._._._._._._._._._._._.",
"_._._._._._._._._._._._._._._._._._._._._._.W.0.x % < 1 3 3 3 3 3 3 3 3 7 C h._._._._._._._._._._._._._._._._._._._._._._._._._.",
"_._._._._._._._._._._._._._._._._._._._._.W.0.x $ ; 1 3 3 3 3 3 3 3 3 3 5 a a._._._._._._._._._._._._._._._._._._._._._.).^.)._.",
"_._._._._._._._._._._._._._._._._._._._.W.0.x $ > 1 3 3 3 3 3 3 3 3 3 3 1 r o.W._._._._._._._._._._._._._._._._._._._._.^.V.^._.",
"_._._._._._._._._._._._._._._._._._._._.h.b $ ; 1 3 3 3 3 3 3 3 3 3 3 3 < @ b h._._._._._._._._._._._._._._._._._._._._.).^.)._.",
"_._._._._._._._._._._._._._._._._._._.W.O.r ; 1 3 3 3 3 3 3 3 3 3 3 3 3 < . u a._._._._._._._._._._._._._._._._._._._._.).^.)._.",
"_._._._._._._._._._._._._._._._._._._.h.B , 1 1 1 1 3 3 3 3 3 3 3 3 3 3 < . u a._._._._._._._._.).^.)._._._._._._._._._.^.V.^._.",
"_._._._._._._._._._._._._._._._._._.W.O.t < 3 < @ < 3 3 3 3 3 3 3 3 3 1 > X q o.W._._._._._._._.^.B.E.)._._._._._._._._.).^.)._.",
"_._._._._._._._._._._._._._._._._._.h.V 2 1 3 < O < 3 3 3 3 3 3 3 3 3 < O * $ b h._._._._._._._.).E.B.^._._._._._._._._._._._._.",
"_._._._._._._._._._._._._./.U.U./.W.O.t < 3 1 > @ < 3 3 3 3 3 3 3 3 3 < X - - p a._._._._._._._._.).^.)._._._._._._._._._._._._.",
"_._._._._._._._._._._._./.G.>.>.G.g.V 2 1 3 < @ > 1 3 3 3 3 3 3 3 3 3 < X ; ; p a._._._._._._._._.).^.)._._._./.Y./._._.).^.)._.",
"_._._._._._._._._._._._.Y.3.=.=.3.u.p > 1 1 > X < 3 3 3 3 3 3 3 3 3 1 > O ; ; p a._._._._._._._._.!.N.!._._./.G.2.G./._.!.N.!._.",
"_._._._._._._._._._._._./.U.I.I.U.g.b % > > X . < 3 3 3 3 3 3 3 3 3 < O - ; ; p a._._._._._._._._.~.n.~._._.Y.3.-.3.Y._.!.N.!._.",
"_._._._._._._._._._._._._._._._._.W.0.b p p q @ < 3 3 3 3 3 3 3 3 3 < X ; ; - p a._._._._._._._._.!.N.!._._./.U.I.U./.).!.!.)._.",
"_._._._._._._._._._._._._._._._._._.W.h.a.a.X.r < 3 3 3 3 3 3 3 3 3 < X - - X u a._._._._._._._._.).^.)._._._._._._._.!.N.!._._.",
"_._._._._._._._._._._._._._._._._._._._._._.a.p < 3 3 3 3 3 3 3 3 3 < # e p q t X.h.W._._._._._._._.).^.)._._._._._._.!.N.!._._.",
"_._._._._._._./.Y./._._._._._._._._._._._.W.O.t < 3 3 3 3 3 3 3 3 3 < 8 { i.o.Z Z W q.h.W._._._._._.^.V.^._._._._._._.(.E.(._._.",
"_._._._._._./.G.2.G./._._._._._._._._._._.h.B > 1 3 3 3 3 3 3 3 3 3 < & b h.W.h.a.8.R W q.h.W._._._.(.E.(._._._._._.).E.B.^._._.",
"_._._._._._.Y.3.-.3.Y._._._._._._._._._._.a.p ; 1 3 3 3 3 3 3 3 3 3 1 > p a._._./.F.}  .E W r.W._._.^.V.^._._._._._.!.M.R.)._._.",
"_._._._._._./.U.I.U./._._._._._._._._._.W.O.r : 1 3 3 3 3 3 3 3 3 3 3 < i O.W._.Y.3.-.1.p.q.` q.h.W.(.E.(._._._._._.~.n.~._._._.",
"_._._._._._._._._._._._._._._._._._._._.h.B > 1 3 3 3 3 3 3 3 3 3 3 3 3 7 C h._./.U.I.U./.W.r.W W q.d.b.!._._._._._.!.N.!._._._.",
"_._._._._._._._._._._._._._._._._._._._.a.p : 1 3 3 3 3 3 3 3 3 3 3 3 4 6 a a._._._._._._._.W.h.q.W I $.f.W._._._._.).^.)._._._.",
"_._._._._._._._._._._._._._._._._._._._.a.p < 3 3 3 3 3 3 3 3 3 3 3 3 3 5 a a._._._._._._._._._.W.h.9.L A o.h.W._._._._._._._._.",
"_._._._._._._._._._._._._._._._._._._._.a.p < 3 3 3 3 3 3 3 3 3 3 3 3 3 1 p a._._._._._._._._._._._.W.o.s m U y.W._._._._._._._.",
"_._._._._._._._._._._._._._._._._._._.W.o.r < 3 3 3 3 3 3 3 3 3 3 3 3 3 < p a._._._._._._._._._._._.W.w.T k.#.I h._._._._._._._.",
"_._._._._._._._._._._._._._._._._._._.h.b % < 3 3 3 3 3 3 3 3 3 3 3 3 3 < p a._._._._._._._._._._._.h.! l.c.4.N a._._._._._._._.",
"_._._._._._._._._._._._._._._._._._._.a.p - 1 3 3 3 3 3 3 3 3 3 3 3 3 3 1 p a._._._._._._._._._._._.a.F Z.z.+.I h._._._._._._._.",
"_._._._._._._._._._._._._._._._._._._.a.p ; 1 3 3 3 3 3 3 3 3 3 3 3 3 3 5 a a._._._._._._._._._._.W.w./ C.j.Y 7.K.U./._._._._._.",
"_._._._._._._._./.Y./._._._._._._._._.a.p : 1 3 3 3 3 3 3 3 3 3 3 3 3 3 5 a a._._._._._._._._._._.h.! l.c.4.M t.>.>.G./._._._._.",
"_._._._._._._./.G.2.G./._._._._._._._.a.p < 3 3 3 3 3 3 3 3 3 3 3 3 3 3 1 p a._._._._._._._._._._.a.F Z.z.+.P | =.=.3.Y._._._._.",
"_._._._._._._.Y.3.-.3.Y._._._._._._._.a.p < 3 3 3 3 3 3 3 3 3 3 3 3 3 3 < p a._._._._._._._._._.W.w./ C.j.Y 7.K.I.I.U./._._._._.",
"_._._._._._._./.U.I.U./._._._._._._._.a.p > 1 3 3 3 3 3 3 3 3 3 3 3 3 1 2 V h._._._._._._._._._.h.! l.x.@.I h._._._._._._._._._.",
"_._._._._._._._._._._._._._._._._._._.h.b % > < 1 3 3 3 3 3 3 3 1 < < 2 v q.W._._._._._._._._.W.9.~ v.%.( e.W._._._._._._._._._.",
"_._._._._._._._._._._._._._._._._._._.W.0.b p t 2 < < < < < < < > & r V q.W._._._._._._._._._.h.Q k.&.^ [ P._._._._._._._._._._.",
"_._._._._._._._._._._._._._._._._._._._.W.h.a.O.V p p p p p p p p b o.h.W._._._._._._._._._.W.o.n ] ) 6.K./._._._._._._._._._._.",
"_._._._._._._._._._._._._._._._._._._._._._._.W.h.a.a.a.a.a.a.a.a.h.W._._._._._._._._._._._.h.b % l 9.W._._._._._._._._._._._._."
};
