/* XPM */
static char *result[] = {
/* columns rows colors chars-per-pixel */
"64 64 12 1 ",
"  c #8A8883",
". c #8B8984",
"X c #8D8A84",
"o c #928E86",
"O c #9B958A",
"+ c #9C968A",
"@ c #C5B79A",
"# c #CCBD9D",
"$ c #CDBE9E",
"% c #CFBF9E",
"& c #D5C5A1",
"* c #D7C6A2",
/* pixels */
"****************************************************************",
"****************************************************************",
"****************************************************************",
"****************************************************************",
"*******&$#$&*************************&$$&***********************",
"******&@o o@&***********************&@oo@&**********************",
"******%+. .+%***********************%+..+%**********************",
"******&$###$&***********************&$##$&**&$$&****************",
"*******************************************&@oo@&***************",
"*******************************************%+..+%***************",
"****************&$$&***********************&$##$&***************",
"***************&@oo@&*******************************************",
"***************%+..+%*******************************************",
"***************&$##$&*******************************************",
"****************************************************************",
"**********************************************&$#$&*************",
"*********************************************&@o o@&************",
"*********************************************%+. .+%************",
"*********************************************&$###$&************",
"****************************************************************",
"****************************************************************",
"****************************************************************",
"****************************************************************",
"***&$$&*********************************************************",
"**&@oo@&********************************************************",
"**%+..+%********************&%&*********************************",
"**&$##$&*******************&@O@&********************************",
"***************************%+X+%********************************",
"***************************&$#$&********************************",
"****************************************************************",
"*********************************&$$&***************************",
"********************************&@oo@&**************************",
"********************************%+..+%**************************",
"********************************&$##$&**************************",
"****************************************************************",
"****************************************************************",
"****************************************************************",
"*************&$$&***********************************************",
"************&@oo@&*************************************&%&******",
"************%+..+%************************************&@O@&*****",
"************&$##$&************************************%+X+%*****",
"******************************************************&$#$&*****",
"****************************************************************",
"****************************************************************",
"*******&%&******************************************************",
"******&@O@&******************************&%&********************",
"******%+X+%*****************************&@O@&*******************",
"******&$#$&*****************************%+X+%*******************",
"****************************************&$#$&*******************",
"****************************************************************",
"****************************************************************",
"****************************************************************",
"****************************************************************",
"****************************************************************",
"***********************&$#$&************************************",
"**********************&@o o@&**************************&$$&*****",
"********&%&***********%+. .+%*************************&@oo@&****",
"*******&@O@&**********&$###$&*************************%+..+%****",
"*******%+X+%******************************************&$##$&****",
"*******&$#$&*************************************&$$&***********",
"************************************************&@oo@&**********",
"************************************************%+..+%**********",
"************************************************&$##$&**********",
"****************************************************************"
};
