/* XPM */
static char *result[] = {
/* columns rows colors chars-per-pixel */
"64 64 146 2 ",
"   c black",
".  c #010101",
"X  c #020202",
"o  c #030302",
"O  c gray1",
"+  c #040403",
"@  c #040404",
"#  c #050404",
"$  c #050504",
"%  c gray2",
"&  c #060505",
"*  c #060606",
"=  c #070606",
"-  c #070707",
";  c gray3",
":  c #090909",
">  c gray4",
",  c #0B0B0B",
"<  c #0C0C0C",
"1  c #0D0D0C",
"2  c gray5",
"3  c #0E0E0E",
"4  c gray6",
"5  c #14120F",
"6  c #101010",
"7  c #111110",
"8  c #171511",
"9  c #171611",
"0  c #171716",
"q  c #181612",
"w  c #181712",
"e  c #191713",
"r  c #1A1814",
"t  c #1A1914",
"y  c #1B1914",
"u  c #1B1915",
"i  c #1C1A15",
"p  c #1D1B16",
"a  c #1E1C16",
"s  c #1A1A19",
"d  c #1B1B1A",
"f  c #1C1C1B",
"g  c #1F1F1E",
"h  c gray12",
"j  c #20201F",
"k  c #212527",
"l  c #2B2820",
"z  c #2E2B23",
"x  c #2F2B23",
"c  c #292A2B",
"v  c #2D2D2A",
"b  c #2D2E2A",
"n  c #302C24",
"m  c #302D24",
"M  c #312D25",
"N  c #322F26",
"B  c #332F27",
"V  c #302F2B",
"C  c #32302B",
"Z  c #363228",
"A  c #31312F",
"S  c #32312E",
"D  c #33322F",
"F  c #36342F",
"G  c #353533",
"H  c #343535",
"J  c #3C3B34",
"K  c #3F3D36",
"L  c #373938",
"P  c #3D3F3F",
"I  c #433E32",
"U  c #413F39",
"Y  c #464135",
"T  c #4A4437",
"R  c #44413B",
"E  c #404140",
"W  c #494945",
"Q  c #4C4C49",
"!  c #555147",
"~  c #545451",
"^  c #7C786F",
"/  c #68737D",
"(  c #7B7874",
")  c #7D7A76",
"_  c #8D826A",
"`  c #90856D",
"'  c #93886F",
"]  c #9D927C",
"[  c #A4977C",
"{  c #A4987C",
"}  c #A79A7E",
"|  c #A89A7E",
" . c #A89B7F",
".. c #75828D",
"X. c #8A8883",
"o. c #8B8984",
"O. c #8D8A84",
"+. c #928E86",
"@. c #9A9488",
"#. c #9B958A",
"$. c #9C968A",
"%. c #848B92",
"&. c #808F9C",
"*. c #AA9D81",
"=. c #AB9D81",
"-. c #AB9E81",
";. c #AB9E82",
":. c #ADA084",
">. c #AEA184",
",. c #B8AA8B",
"<. c #BAAC8D",
"1. c #BCAD8E",
"2. c #A3A39D",
"3. c #BEAF90",
"4. c #BFB090",
"5. c #8492A0",
"6. c #8593A0",
"7. c #8694A0",
"8. c #8795A2",
"9. c #8E97A1",
"0. c #8F98A1",
"q. c #8F99A3",
"w. c #939CA6",
"e. c #92A2B0",
"r. c #95A5B3",
"t. c #98A8B6",
"y. c #A0ABB7",
"u. c #A1ACB7",
"i. c #BABAB3",
"p. c #BEBEB7",
"a. c #BFBFB9",
"s. c #C3B393",
"d. c #C5B79A",
"f. c #CABB9B",
"g. c #CCBD9D",
"h. c #CDBE9E",
"j. c #CFBF9E",
"k. c #D3C39F",
"l. c #D5C5A1",
"z. c #D7C6A2",
"x. c #C6C6BF",
"c. c #C1C1C1",
"v. c #D5D5CD",
"b. c #DCDCDA",
"n. c #ECECE3",
"m. c #EDEDE5",
/* pixels */
"z.z.z.z.z.z.z.z.z.z.z.z.z.z.z.z.z.z.z.z.z.z.z.z.z.z.z.z.z.z.z.z.z.z.z.z.z.k.4.1.1.1.1.1.1.1.1.4.k.z.z.z.z.z.z.z.z.z.z.z.z.z.z.z.",
"z.z.z.z.z.z.z.z.z.z.z.z.z.z.z.z.z.z.z.z.z.z.z.z.z.z.z.z.z.z.z.z.z.z.k.4.1.*.K v v v v b S D D R >.k.z.z.z.z.z.z.z.z.z.z.z.z.z.z.",
"z.z.z.z.z.z.z.z.z.z.z.z.z.z.z.z.z.z.z.z.z.z.z.z.z.z.z.z.z.z.z.z.z.k.:.K v L ..&.5.6.6.7.9.0.0.%.! s.z.z.z.z.z.z.z.z.z.z.z.z.z.z.",
"z.z.z.z.z.z.z.z.z.z.z.z.z.z.z.z.z.z.z.z.z.z.z.z.z.z.z.z.z.z.z.z.k.:.W ..&.8.r.t.y.u.u.w.E D D R >.k.z.z.z.z.z.z.z.z.z.z.z.z.z.z.",
"z.z.z.z.z.z.z.l.h.g.h.l.z.z.z.z.z.z.z.z.z.z.z.z.z.z.z.z.z.z.z.z.4.J / e.t.y.u.w.E D D R ;.1.1.4.k.z.z.z.z.z.z.z.z.z.z.z.z.z.z.z.",
"z.z.z.z.z.z.l.d.+.X.+.d.l.z.z.z.z.z.z.z.z.z.z.z.z.z.z.z.z.z.z.z.1.p k q.w.P c H ] <.1.4.k.z.z.z.z.z.z.z.z.z.z.z.z.z.z.z.z.z.z.z.",
"z.z.z.z.z.z.j.$.o.X.o.$.j.z.z.z.z.z.z.z.z.z.z.z.z.z.z.z.z.z.z.z.1.a t V U ^ ( ) @.j.z.z.z.z.z.z.z.z.z.z.z.z.z.z.z.z.z.z.z.z.z.z.",
"z.z.z.z.z.z.l.h.g.g.g.h.l.z.z.z.z.z.z.z.z.z.z.z.z.z.z.z.z.z.z.z.4.I ' ,.3.f.g.g.h.l.z.z.l.h.h.l.z.z.z.z.z.z.z.z.z.z.z.z.z.z.z.z.",
"z.z.z.z.z.z.z.z.z.z.z.z.z.z.z.z.z.z.z.z.z.z.z.z.z.z.z.z.z.z.z.z.k.-.Y 4.z.z.z.z.z.z.z.l.d.+.+.d.l.z.z.z.z.z.z.z.z.z.z.z.z.z.z.z.",
"z.z.z.z.z.z.z.z.z.z.z.z.z.z.z.z.z.z.z.z.z.z.z.z.z.z.z.z.z.z.z.z.z.1.Z 1.z.z.z.z.z.z.z.j.$.o.o.$.j.z.z.z.z.z.z.z.z.z.z.z.z.z.z.z.",
"z.z.z.z.z.z.z.z.z.z.z.z.z.z.z.z.l.h.h.l.z.z.z.z.z.z.z.z.z.z.z.z.z.4.Y -.k.z.z.z.z.z.z.l.h.g.g.h.l.z.z.z.z.z.z.z.z.z.z.z.z.z.z.z.",
"z.z.z.z.z.z.z.z.z.z.z.z.z.z.z.l.d.+.+.d.l.z.z.z.z.z.z.z.z.z.z.z.z.k.-.Y 4.z.z.z.z.z.z.z.z.z.z.z.z.z.z.z.z.z.z.z.z.z.z.z.z.z.z.z.",
"z.z.z.z.z.z.z.z.z.z.z.z.z.z.z.j.$.o.o.$.j.z.z.z.z.z.z.z.z.z.z.z.z.z.1.Z 1.z.z.z.z.z.z.z.z.z.z.z.z.z.z.z.z.z.z.z.z.z.z.z.z.z.z.z.",
"z.z.z.z.z.z.z.z.z.z.z.z.z.z.z.l.h.g.g.h.l.z.z.z.z.z.z.z.z.z.z.z.z.z.4.Y -.k.z.z.z.z.z.z.z.z.z.z.z.z.z.z.z.z.z.z.z.z.z.z.z.z.z.z.",
"z.z.z.z.z.z.z.z.z.z.z.z.z.z.z.z.z.z.z.z.z.z.z.z.z.z.z.z.z.z.z.z.z.z.k.-.Y 4.z.z.z.z.z.z.z.z.z.z.z.z.z.z.z.z.z.z.z.z.z.z.z.z.z.z.",
"z.z.z.z.z.z.z.z.z.z.z.z.z.z.z.z.z.z.z.z.z.z.z.z.z.z.z.z.z.z.z.z.z.z.z.1.Z 1.z.z.z.z.z.z.z.z.l.h.g.h.l.z.z.z.z.z.z.z.z.z.z.z.z.z.",
"z.z.z.z.z.z.z.z.z.z.z.z.z.z.z.z.z.z.z.z.z.z.z.z.z.z.z.z.z.z.z.z.z.z.z.4.Y -.k.z.z.z.z.z.z.l.d.+.X.+.d.l.z.z.z.z.z.z.z.z.z.z.z.z.",
"z.z.z.z.z.z.z.z.z.z.z.z.z.z.z.z.z.z.z.z.z.z.z.z.z.z.z.z.z.z.z.z.z.z.z.k.-.Y 4.z.z.z.z.z.z.j.$.o.X.o.$.j.z.z.z.z.z.z.z.z.z.z.z.z.",
"z.z.z.z.z.z.z.z.z.z.z.z.z.z.z.z.z.z.z.z.z.z.z.z.z.z.z.z.k.4.1.1.4.k.z.z.1.Z 1.z.z.z.z.z.z.l.h.g.g.g.h.l.z.z.z.z.z.z.z.z.z.z.z.z.",
"z.z.z.z.z.z.z.z.z.z.z.z.z.z.z.z.z.z.z.z.z.z.z.z.z.z.z.k.=.x y y x =.k.z.4.Y -.k.z.z.z.z.z.z.z.z.z.z.z.z.z.z.z.z.z.z.z.z.z.z.z.z.",
"z.z.z.z.z.z.z.z.z.z.z.z.z.z.z.z.z.z.z.z.z.z.z.z.z.z.k.=.l = d h g B 1.4.,.' I 4.z.z.z.z.z.z.z.z.z.z.z.z.z.z.z.z.z.z.z.z.z.z.z.z.",
"z.z.z.z.z.z.z.z.z.z.z.z.z.z.z.z.z.z.z.z.z.z.z.z.z.z.4.x = A a.b.c.F { N i q a 1.z.z.z.z.z.z.z.z.z.z.z.z.z.z.z.z.z.z.z.z.z.z.z.z.",
"z.z.z.z.z.z.z.z.z.z.z.z.z.z.z.z.z.z.z.z.z.z.z.z.z.k.| 8 0 2.v.m.a.C _ q - - q | k.z.z.z.z.z.z.z.z.z.z.z.z.z.z.z.z.z.z.z.z.z.z.z.",
"z.z.z.l.h.h.l.z.z.z.z.z.z.z.z.z.z.z.z.z.z.z.z.z.z.4.x o - G ~ x.Q > 5 $ ; ; + x 4.z.z.z.z.z.z.z.z.z.z.z.z.z.z.z.z.z.z.z.z.z.z.z.",
"z.z.l.d.+.+.d.l.z.z.z.z.z.z.z.z.z.z.z.z.z.z.z.z.z.1.y   0 2.v.n.p.s . - ; ; . y 1.z.z.z.z.z.z.z.z.z.z.z.z.z.z.z.z.z.z.z.z.z.z.z.",
"z.z.j.$.o.o.$.j.z.z.z.z.z.z.z.z.z.z.z.z.z.z.z.z.z.1.y   O A p.v.i.s . ; : ; + l -.k.z.z.z.z.z.z.z.z.z.z.z.z.z.z.z.z.z.z.z.z.z.z.",
"z.z.l.h.g.g.h.l.z.z.z.z.z.z.z.z.z.z.z.z.z.z.z.z.z.1.y     @ f j f % . ; ; - q ` Y 4.z.z.z.z.z.z.z.z.z.z.z.z.z.z.z.z.z.z.z.z.z.z.",
"z.z.z.z.z.z.z.z.z.z.z.z.z.z.z.z.z.z.z.z.z.z.z.z.k.| 9 . . X > , , > @ - - $ x { Z 1.z.z.z.z.z.z.z.z.z.z.z.z.z.z.z.z.z.z.z.z.z.z.",
"z.z.z.z.z.z.z.z.z.z.z.z.z.z.z.z.z.z.z.z.z.z.z.z.4.x $ - : , < 2 2 2 2 O - q | 1.Y -.k.z.z.z.z.z.z.z.z.z.z.z.z.z.z.z.z.z.z.z.z.z.",
"z.z.z.z.z.z.z.z.z.z.z.z.z.z.z.z.z.z.z.z.z.z.z.k.| w ; < < 2 2 2 2 2 < @ * i 1.k.-.Y 4.z.z.z.z.z.z.z.z.z.z.z.z.z.z.z.z.z.z.z.z.z.",
"z.z.z.z.z.z.z.z.z.z.z.z.z.z.z.z.z.z.z.z.z.z.z.4.x & , 2 2 2 2 2 2 2 2 3 O y 1.z.1.Z 1.z.z.z.z.z.z.z.z.z.z.z.z.z.z.z.z.z.z.z.z.z.",
"z.z.z.z.z.z.z.z.z.z.z.z.z.z.z.z.z.z.z.z.z.z.k.| w > < 2 2 2 2 2 2 2 2 4 X y 1.z.4.T 4.z.z.z.z.z.z.z.z.z.z.z.z.z.z.z.z.z.z.z.z.z.",
"z.z.z.z.z.z.z.z.z.z.z.z.z.z.z.z.z.z.z.z.z.z.4.x @ , 2 2 2 2 2 2 2 2 2 < @ z 4.z.k.s.k.z.z.z.z.z.z.z.z.z.z.z.z.z.z.z.z.z.z.z.z.z.",
"z.z.z.z.z.z.z.z.z.z.z.z.z.z.z.z.z.z.z.z.z.z.1.y X , 2 2 2 2 2 2 2 2 2 , q } k.z.z.z.z.z.z.z.z.z.z.z.z.z.z.z.z.z.z.z.z.z.z.z.z.z.",
"z.z.z.z.z.z.z.z.z.z.z.z.z.z.z.z.z.z.z.z.z.k. .r > < 2 2 2 2 2 2 2 2 2 , i 1.z.z.z.z.z.z.z.z.z.z.z.z.z.z.z.z.z.z.z.z.z.z.z.z.z.z.",
"z.z.z.z.z.z.z.z.z.z.z.z.z.z.z.z.z.z.z.z.z.4.m 1 < 2 2 2 2 2 2 2 2 2 2 , i 1.z.z.z.z.z.z.z.z.z.z.z.z.z.z.z.z.z.z.z.z.z.z.z.z.z.z.",
"z.z.z.z.z.z.z.z.z.z.z.z.z.z.z.z.z.z.z.z.z.1.i , 2 2 2 2 2 2 2 2 2 2 2 , i 1.z.z.z.z.z.z.z.z.z.z.z.z.z.z.z.z.z.z.z.z.z.z.z.z.z.z.",
"z.z.z.z.z.z.z.z.z.z.z.z.z.l.h.h.l.z.z.z.k. .r , 2 2 2 2 2 2 2 2 2 2 2 , i 1.z.z.z.z.z.z.z.z.z.z.z.z.z.z.z.z.z.z.z.z.z.z.z.z.z.z.",
"z.z.z.z.z.z.z.z.z.z.z.z.l.d.+.+.d.l.z.z.4.m 1 < < < < 2 2 2 2 2 2 2 2 , r  .k.z.z.z.z.z.z.z.z.z.z.z.z.z.z.z.z.l.j.l.z.z.z.z.z.z.",
"z.z.z.z.z.z.z.z.z.z.z.z.j.$.o.o.$.j.z.k. .r , 2 , @ , 2 2 2 2 2 2 2 2 < 1 m 4.z.z.z.z.z.z.z.z.z.z.z.z.z.z.z.l.d.#.d.l.z.z.z.z.z.",
"z.z.z.z.z.z.z.z.z.z.z.z.l.h.g.g.h.l.z.4.m 1 < < > @ , 2 2 2 2 2 2 2 2 2 , i 1.z.z.z.z.z.z.z.z.z.z.z.z.z.z.z.j.$.O.$.j.z.z.z.z.z.",
"z.z.z.z.z.z.z.z.z.z.z.z.z.z.z.z.z.z.z.1.i , 2 , @ > < 2 2 2 2 2 2 2 2 2 , i 1.z.z.z.z.z.z.z.z.z.z.z.z.z.z.z.l.h.g.h.l.z.z.z.z.z.",
"z.z.z.z.z.z.z.z.z.z.z.z.z.z.z.z.z.z.z.1.i , 2 , O , 2 2 2 2 2 2 2 2 2 2 , i 1.z.z.z.z.z.z.z.z.z.z.z.z.z.z.z.z.z.z.z.z.z.z.z.z.z.",
"z.z.z.z.z.z.z.z.z.z.z.z.z.z.z.z.z.z.z.1.i > , > X , 2 2 2 2 2 2 2 2 2 2 , i 1.z.z.z.z.z.z.z.z.z.z.z.z.z.z.z.z.z.z.z.z.z.z.z.z.z.",
"z.z.z.z.z.z.z.l.j.l.z.z.z.z.z.z.z.z.z.4.N i i w # , 2 2 2 2 2 2 2 2 2 2 , i 1.z.z.z.z.z.z.z.z.z.z.z.z.z.z.z.z.z.z.z.z.z.z.z.z.z.",
"z.z.z.z.z.z.l.d.#.d.l.z.z.z.z.z.z.z.z.k.4.1.1.[ e , 2 2 2 2 2 2 2 2 2 2 , i 1.z.z.l.j.l.z.z.z.z.z.z.z.z.z.z.z.z.z.z.z.z.z.z.z.z.",
"z.z.z.z.z.z.j.$.O.$.j.z.z.z.z.z.z.z.z.z.z.z.z.1.i , 2 2 2 2 2 2 2 2 2 2 , i 1.z.l.d.#.d.l.z.z.z.z.z.z.z.z.z.z.z.z.z.z.z.z.z.z.z.",
"z.z.z.z.z.z.l.h.g.h.l.z.z.z.z.z.z.z.z.z.z.z.z.1.i , 2 2 2 2 2 2 2 2 2 2 , i 1.z.j.$.O.$.j.z.z.z.z.z.z.z.z.z.z.z.z.z.z.z.z.z.z.z.",
"z.z.z.z.z.z.z.z.z.z.z.z.z.z.z.z.z.z.z.z.z.z.k. .r , 2 2 2 2 2 2 2 2 2 2 , i 1.z.l.h.g.h.l.z.z.z.z.z.z.z.z.z.z.z.z.z.z.z.z.z.z.z.",
"z.z.z.z.z.z.z.z.z.z.z.z.z.z.z.z.z.z.z.z.z.z.4.n > < 2 2 2 2 2 2 2 2 2 2 , u  .k.z.z.z.z.z.z.z.z.z.z.z.z.z.z.z.z.z.z.z.z.z.z.z.z.",
"z.z.z.z.z.z.z.z.z.z.z.z.z.z.z.z.z.z.z.z.z.z.1.i ; < 2 2 2 2 2 2 2 2 2 2 2 7 M 4.z.z.z.z.z.z.z.z.z.z.z.z.z.z.z.z.z.z.z.z.z.z.z.z.",
"z.z.z.z.z.z.z.z.z.z.z.z.z.z.z.z.z.z.z.z.z.z.1.i : < 2 2 2 2 2 2 2 2 2 2 3 6 p 1.z.z.z.z.z.z.z.z.z.z.z.z.z.z.z.z.z.z.z.z.z.z.z.z.",
"z.z.z.z.z.z.z.z.z.z.z.z.z.z.z.z.z.z.z.z.z.z.1.i , 2 2 2 2 2 2 2 2 2 2 2 2 4 p 1.z.z.z.z.z.z.z.z.z.z.z.z.z.z.z.z.z.z.z.z.z.z.z.z.",
"z.z.z.z.z.z.z.z.z.z.z.z.z.z.z.z.z.z.z.z.z.z.1.i , 2 2 2 2 2 2 2 2 2 2 2 2 < i 1.z.z.z.z.z.z.z.z.z.z.z.z.z.z.z.z.z.z.z.z.z.z.z.z.",
"z.z.z.z.z.z.z.z.z.z.z.z.z.z.z.z.z.z.z.z.z.k.| e , 2 2 2 2 2 2 2 2 2 2 2 2 , i 1.z.z.z.z.z.z.z.z.z.z.z.z.z.z.z.z.z.z.z.z.z.z.z.z.",
"z.z.z.z.z.z.z.z.z.z.z.z.z.z.z.z.z.z.z.z.z.4.x % , 2 2 2 2 2 2 2 2 2 2 2 2 , i 1.z.z.z.z.z.z.z.z.z.z.z.z.z.z.z.l.h.h.l.z.z.z.z.z.",
"z.z.z.z.z.z.z.z.l.j.l.z.z.z.z.z.z.z.z.z.k. .e ; < 2 2 2 2 2 2 2 2 2 2 2 2 < i 1.z.z.z.z.z.z.z.z.z.z.z.z.z.z.l.d.+.+.d.l.z.z.z.z.",
"z.z.z.z.z.z.z.l.d.#.d.l.z.z.z.z.z.z.z.z.4.n > < 2 2 2 2 2 2 2 2 2 2 2 2 2 4 p 1.z.z.z.z.z.z.z.z.z.z.z.z.z.z.j.$.o.o.$.j.z.z.z.z.",
"z.z.z.z.z.z.z.j.$.O.$.j.z.z.z.z.z.z.z.z.1.i : < 2 2 2 2 2 2 2 2 2 2 2 2 2 4 p 1.z.z.z.z.z.z.z.z.z.z.z.z.z.z.l.h.g.g.h.l.z.z.z.z.",
"z.z.z.z.z.z.z.l.h.g.h.l.z.z.z.z.z.z.z.z.1.i , 2 2 2 2 2 2 2 2 2 2 2 2 2 2 < i 1.z.z.z.z.z.z.z.z.z.l.h.h.l.z.z.z.z.z.z.z.z.z.z.z.",
"z.z.z.z.z.z.z.z.z.z.z.z.z.z.z.z.z.z.z.z.1.i , 2 2 2 2 2 2 2 2 2 2 2 2 2 2 , i 1.z.z.z.z.z.z.z.z.l.d.+.+.d.l.z.z.z.z.z.z.z.z.z.z.",
"z.z.z.z.z.z.z.z.z.z.z.z.z.z.z.z.z.z.z.z.1.i > < 2 2 2 2 2 2 2 2 2 2 2 2 < 1 m 4.z.z.z.z.z.z.z.z.j.$.o.o.$.j.z.z.z.z.z.z.z.z.z.z.",
"z.z.z.z.z.z.z.z.z.z.z.z.z.z.z.z.z.z.z.z.4.x % > , , , , , , , , , , , , 1 z -.k.z.z.z.z.z.z.z.z.l.h.g.g.h.l.z.z.z.z.z.z.z.z.z.z.",
"z.z.z.z.z.z.z.z.z.z.z.z.z.z.z.z.z.z.z.z.k.| 9 . . . . . . . . . . . . . e  .k.z.z.z.z.z.z.z.z.z.z.z.z.z.z.z.z.z.z.z.z.z.z.z.z.z."
};
