/* XPM */
static char *result[] = {
/* columns rows colors chars-per-pixel */
"64 64 185 2 ",
"   c black",
".  c #010101",
"X  c #020202",
"o  c #030302",
"O  c gray1",
"+  c #040403",
"@  c #040404",
"#  c #050404",
"$  c #050504",
"%  c gray2",
"&  c #060505",
"*  c #060606",
"=  c #070606",
"-  c #070707",
";  c gray3",
":  c #090909",
">  c gray4",
",  c #0B0B0A",
"<  c #0B0B0B",
"1  c #0C0C0B",
"2  c #0C0C0C",
"3  c #0D0D0C",
"4  c gray5",
"5  c #0E0D0D",
"6  c #0E0E0E",
"7  c gray6",
"8  c #101010",
"9  c #111110",
"0  c #161511",
"q  c #171511",
"w  c #171611",
"e  c #171716",
"r  c #181612",
"t  c #181712",
"y  c #191713",
"u  c #1A1814",
"i  c #1A1914",
"p  c #1B1914",
"a  c #1B1915",
"s  c #1C1A15",
"d  c #1D1B16",
"f  c #1B1B1A",
"g  c #1C1C1B",
"h  c #1F1F1E",
"j  c gray12",
"k  c #22201B",
"l  c #20201F",
"z  c #2B2820",
"x  c #2B2821",
"c  c #2C2922",
"v  c #2D2A23",
"b  c #2E2B23",
"n  c #2F2B23",
"m  c #2E2D2B",
"M  c #302C24",
"N  c #302D24",
"B  c #312D25",
"V  c #322E26",
"C  c #332F27",
"Z  c #31312F",
"A  c #34312D",
"S  c #35332D",
"D  c #36342E",
"F  c #36342F",
"G  c #353533",
"H  c #464135",
"J  c #424039",
"K  c #504A3F",
"L  c #4C4C49",
"P  c #575041",
"I  c #575042",
"U  c #545451",
"Y  c #7C776E",
"T  c #807B71",
"R  c #90856D",
"E  c #8A847A",
"W  c #A3977C",
"Q  c #A4977C",
"!  c #A4987E",
"~  c #A79A7E",
"^  c #A89A7E",
"/  c #A89B7F",
"(  c #8A8883",
")  c #8A8884",
"_  c #8B8984",
"`  c #8D8A84",
"'  c #8C8B89",
"]  c #8D8F8D",
"[  c #928E86",
"{  c #90918F",
"}  c #9B958A",
"|  c #9C968A",
" . c #9C968B",
".. c #9A968E",
"X. c #8D989F",
"o. c #9B9993",
"O. c #A99C81",
"+. c #AB9D81",
"@. c #AB9E81",
"#. c #ADA083",
"$. c #AEA183",
"%. c #B1A48A",
"&. c #B7A98C",
"*. c #BCAD8E",
"=. c #A3A39D",
"-. c #B6AC92",
";. c #BEB090",
":. c #BFB090",
">. c #BBB39F",
",. c #BEB49D",
"<. c #919EA9",
"1. c #929EA9",
"2. c #939FA9",
"3. c #97A4AD",
"4. c #96A4AF",
"5. c #9CA7AD",
"6. c #9DA7AD",
"7. c #9BA8AF",
"8. c #9EA8AD",
"9. c #9FA9AE",
"0. c #9FAAAE",
"q. c #91A2B1",
"w. c #92A2B1",
"e. c #92A3B1",
"r. c #93A3B1",
"t. c #92A3B2",
"y. c #94A4B1",
"u. c #98A6B0",
"i. c #99A6B0",
"p. c #99A7B0",
"a. c #9AA7B0",
"s. c #A0AAAE",
"d. c #A1AAAE",
"f. c #A1ABAE",
"g. c #A2ABAE",
"h. c #A3ACAE",
"j. c #A8AEAC",
"k. c #A9AFAC",
"l. c #BEB6A1",
"z. c #BFBAA7",
"x. c #BAB7A8",
"c. c #BABAB3",
"v. c #BEBEB7",
"b. c #BFBFB9",
"n. c #C2B498",
"m. c #C5B79A",
"M. c #C6BA9F",
"N. c #CABB9B",
"B. c #CBBC9E",
"V. c #CCBC9C",
"C. c #CCBD9D",
"Z. c #CCBD9E",
"A. c #CCBE9E",
"S. c #CDBE9E",
"D. c #CEBF9E",
"F. c #CFBF9E",
"G. c #C1B8A2",
"H. c #C4BBA3",
"J. c #C0BAA7",
"K. c #C1BBA7",
"L. c #C6BDA5",
"P. c #C7BDA5",
"I. c #C6BDA6",
"U. c #C8BCA0",
"Y. c #C8BEA4",
"T. c #C8BEA5",
"R. c #C9BEA5",
"E. c #D2C29F",
"W. c #D3C39F",
"Q. c #CEC1A3",
"!. c #CFC2A3",
"~. c #CDC1A4",
"^. c #CEC1A4",
"/. c #D0C2A3",
"(. c #D4C4A1",
"). c #D5C5A1",
"_. c #D5C5A2",
"`. c #D6C5A2",
"'. c #D7C6A2",
"]. c #C6C6BF",
"[. c #C1C1C1",
"{. c #D5D5CD",
"}. c #DCDCDA",
"|. c #ECECE3",
" X c #EDEDE5",
/* pixels */
"'.'.'.'.'.'.'.'.'.'.'.'.'.'.'.'.'.'.'.'.'.'.'.'.'.'.'.'.'.'.'.'.'.'.'.'.'.'.'.'.'.'.'.'.'.'.'.'.'.'.'.'.'.'.'.'.'.'.'.'.'.'.'.'.",
"'.'.'.'.'.'.'.'.'.'.'.'.'.'.'.'.'.'.'.'.'.'.'.'.'.'.'.'.'.'.'.'.'.'.'.'.'.'.'.'.'.'.'.'.'.'.'.'.'.'.'.'.'.'.'.'.'.'.'.'.'.'.'.'.",
"'.'.'.'.'.'.'.'.'.'.'.'.'.'.'.'.'.'.'.'.'.'.'.'.'.'.'.'.'.'.'.'.'.'.'.'.'.'.'.'.'.'.'.'.'.'.'.'.'.'.'.'.'.'.'.'.'.'.'.'.'.'.'.'.",
"'.'.'.'.'.'.'.'.'.'.'.'.'.'.'.'.'.'.'.'.'.'.'.'.'.'.'.'.'.'.'.'.'.'.'.'.'.'.'.'.'.'.'.'.'.'.'.'.'.'.'.'.'.'.'.'.'.'.'.'.'.'.'.'.",
"'.'.'.'.'.'.'.).S.C.S.).'.'.'.'.'.'.'.'.'.'.'.'.'.'.'.'.'.'.'.'.'.'.'.'.'.).S.S.).'.'.'.'.'.'.'.'.'.'.'.'.'.'.'.'.'.'.'.'.'.'.'.",
"'.'.'.'.'.'.).m.[ ( [ m.).'.'.'.'.'.'.'.'.'.'.'.'.'.'.'.'.'.'.'.'.'.'.'.).m.[ [ m.(.!.^.^.^.!.`.'.'.'.`./.`.'.'.'.'.'.'.'.'.'.'.",
"'.'.'.'.'.'.F.| _ ( _ | F.'.'.'.'.'.'.'.'.'.'.'.'.'.'.'.'.'.'.'.'.'.'.'.F.| _ _ | U.k.g.7.a.d.T.!.`.'.!.j.R.`.'.'.'.'.'.'.'.'.'.",
"'.'.'.'.'.'.).S.C.C.C.S.).'.'.'.'.'.'.'.'.'.'.'.'.'.'.'.'.'.'.'.'.'.'.'.).S.C.C.S.(.!.T.0.e.r.p.d.R.`.!.g.d.R.`.'.'.'.'.'.'.'.'.",
"'.'.'.'.'.'.'.'.'.'.'.'.'.'.'.'.'.'.'.'.'.'.'.'.'.'.'.'.'.'.'.'.'.'.'.'.'.'.'.'.'.'.'.(.>.<.q.t.r.s.R._.R.d.g.!.'.'.'.'.'.'.'.'.",
"'.'.'.'.'.'.'.'.'.'.'.'.'.'.'.'.'.'.'.'.'.'.'.'.'.'.'.'.'.'.'.'.'.'.'.'.'.'.'.'.'.'.'.F. .] <.w.t.r.s.R._.T.f.T.`.'.'.'.'.'.'.'.",
"'.'.'.'.'.'.'.'.'.'.'.'.'.'.'.'.).S.S.).'.'.'.'.'.'.'.'.'.'.'.'.'.'.'.'.'.'.'.'.'.`.!.Q.Z.B.G.9.r.t.r.s.R.^.g.g.!.'.'.'.'.'.'.'.",
"'.'.'.'.'.'.'.'.'.'.'.'.'.'.'.).m.[ [ m.).'.'.'.'.'.'.'.'.'.'.'.'.'.'.'.'.'.'.'.'./.k.j.R.^.^.P.p.t.t.r.s.T.P.g.^.'.'.'.'.'.'.'.",
"'.'.'.'.'.'.'.'.'.'.'.'.'.'.'.F.| _ _ | F.'.'.'.'.'.'.'.'.'.'.'.'.'.'.'.'.'.'.'.'.`.!.R.j.g.g.K.s.r.t.t.r.d.P.h.^.'.'.'.'.'.'.'.",
"'.'.'.'.'.'.'.'.'.'.'.'.'.'.'.).S.C.C.S.).'.'.'.'.'.'.'.'.'.'.'.'.'.'.'.'.'.'.'.'.'.'.`.!.T.d.s.x.u.t.t.t.p.z.g.^.'.'.'.'.'.'.'.",
"'.'.'.'.'.'.'.'.'.'.'.'.'.'.'.'.'.'.'.'.'.'.'.'.'.'.'.'.'.'.'.'.'.'.'.'.'.'.'.'.'.'.'.'.'.`.R.g.s.y.t.t.t.r.u.7.^.'.'.'.'.'.'.'.",
"'.'.'.'.'.'.'.'.'.'.'.'.'.'.'.'.'.'.'.'.'.'.'.'.'.'.'.'.'.'.'.'.'.'.'.'.'.'.'.'.'.'.'.'.'.'.(.M.l.6.r.t.t.t.t.a.^.'.'.'.'.'.'.'.",
"'.'.'.'.'.'.'.'.'.'.'.'.'.'.'.'.'.'.'.'.'.'.'.'.'.'.'.'.'.'.'.'.'.'.'.'.'.'.'.'.'.'.'.'.'.).m.[ ) { 4.t.t.t.t.a.^.'.'.'.'.'.'.'.",
"'.'.'.'.'.'.'.'.'.'.'.'.'.'.'.'.'.'.'.'.'.'.'.'.'.'.'.'.'.'.'.'.'.'.'.'.'.'.'.'.'.'.'.'.'.F.| _ ( ' 2.e.t.t.t.a.^.'.'.'.'.'.'.'.",
"'.'.'.'.'.'.'.'.'.'.'.'.'.'.'.'.'.'.'.'.'.'.'.'.'.'.'.'.'.'.W.:.*.*.:.W.'.'.'.'.'.'.'.'.'.).S.C.C.B.G.i.t.t.t.a.^.'.'.'.'.'.'.'.",
"'.'.'.'.'.'.'.'.'.'.'.'.'.'.'.'.'.'.'.'.'.'.'.'.'.'.'.'.'.W.+.n p p n +.W.'.'.'.'.'.'.'.'.'.'.'.'.'.^.a.t.t.t.p.T.`.'.'.'.'.'.'.",
"'.'.'.'.'.'.'.'.'.'.'.'.'.'.'.'.'.'.'.'.'.'.'.'.'.'.'.'.W.+.z = f j h C :.'.'.'.'.'.'.'.'.'.'.'.'.'.^.a.t.t.t.r.d.!.'.'.'.'.'.'.",
"'.'.'.'.'.'.'.'.'.'.'.'.'.'.'.'.'.'.'.'.'.'.'.'.'.'.'.'.:.n = Z b.}.[.F *.'.'.'.'.'.'.'.'.'.'.'.'.'.!.d.r.t.t.t.a.^.'.'.'.'.'.'.",
"'.'.'.'.'.'.'.'.'.'.'.'.'.'.'.'.'.'.'.'.'.'.'.'.'.'.'.W.^ q e =.{. Xb.D *.'.'.'.'.'.'.'.'.'.'.'.'.'.`.T.p.t.t.t.a.^.'.'.'.'.'.'.",
"'.'.'.).S.S.).'.'.'.'.'.'.'.'.'.'.'.'.'.'.'.'.'.'.'.'.:.n o - G U ].L k *.'.'.'.'.'.'.'.'.'.'.'.'.'.'.^.a.t.t.t.p.T.`.'.'.'.'.'.",
"'.'.).m.[ [ m.).'.'.'.'.'.'.'.'.'.'.'.'.'.'.'.'.'.'.'.*.p   e =.{.|.v.S *.'.'.'.'.'.'.'.'.'.'.'.'.'.'.^.a.t.t.t.r.d.!.'.'.'.'.'.",
"'.'.F.| _ _ | F.'.'.'.'.'.'.'.'.'.'.'.'.'.'.'.'.'.'.'.*.p   O Z v.{.c.S *.'.'.'.'.'.'.'.'.'.`./.`.'.'.^.a.t.t.t.t.a.^.'.'.'.'.'.",
"'.'.).S.C.C.S.).'.'.'.'.'.'.'.'.'.'.'.'.'.'.'.'.'.W.:.W 0     % g l g a ^ W.'.'.'.'.'.'.'.'.!.k.!.'.'.^.a.t.t.t.t.a.^.'.`./.`.'.",
"'.'.'.'.'.'.'.'.'.'.'.'.'.'.'.'.'.'.'.'.'.'.'.W.:./ M r + . X > < < > % n :.'.'.'.'.'.'.'.'.^.g.T.`.'.^.a.t.t.t.t.a.^.'.!.k.!.'.",
"'.'.'.'.'.'.'.'.'.'.'.'.'.'.'.'.'.'.'.'.'.'.W.@.M u > : < < < 2 4 4 2 > i / W.'.'.'.'.'.'.'.!.g.g.!.'.^.a.t.t.t.t.a.^.'.^.h.^.'.",
"'.'.'.'.'.'.'.'.'.'.'.'.'.'.'.'.'.'.'.'.'.W.+.c , < 2 2 4 4 4 4 4 4 4 4 9 B :.'.'.'.'.'.'.'.`.T.g.^.'.^.a.t.t.t.t.p.T.`.^.h.^.'.",
"'.'.'.'.'.'.'.'.'.'.'.'.'.'.'.'.'.'.'.'.W.+.x & < 4 4 4 4 4 4 4 4 4 4 4 7 d *.'.'.'.'.'.'.'.'.^.g.T.`.^.a.t.t.t.t.r.d.!.^.h.^.'.",
"'.'.'.'.'.'.'.'.'.'.'.'.'.'.'.'.'.'.'.'.:.n % > 2 4 4 4 4 4 4 4 4 4 4 4 2 s *.'.'.'.'.'.'.'.'.!.g.g.!.!.d.r.t.t.t.t.a.^.^.h.^.'.",
"'.'.'.'.'.'.'.'.'.'.'.'.'.'.'.'.'.'.'.W./ u > 2 4 4 4 4 4 4 4 4 4 4 4 4 < y ^ W.'.'.'.'.'.'.'.`.T.g.^.`.T.p.t.t.t.t.a.^.^.h.^.'.",
"'.'.'.'.'.'.'.'.'.'.'.'.'.'.'.'.'.'.W.@.b 5 2 4 4 4 4 4 4 4 4 4 4 4 4 4 < @ n :.'.'.'.'.'.'.'.'.^.g.T.`.^.a.t.t.t.t.a.^.^.h.^.'.",
"'.'.'.'.'.'.'.'.'.'.'.'.'.'.'.'.'.'.:.N 3 2 4 2 2 2 4 4 4 4 4 4 4 4 4 4 < . p *.'.'.'.'.'.'.'.'.!.g.g.!.^.a.t.t.t.t.a.^.^.h.^.'.",
"'.'.'.'.'.'.'.'.'.'.'.'.'.'.'.'.'.W./ u < 4 4 < @ < 4 4 4 4 4 4 4 4 4 2 > X p *.'.'.'.'.'.'.'.'.`.T.g.^.^.a.t.t.t.t.a.^.^.h.^.'.",
"'.'.'.'.'.'.'.'.'.'.'.'.'.'.'.'.'.:.N 3 2 4 4 < O < 4 4 4 4 4 4 4 4 4 < O * r ^ W.'.'.'.'.'.'.'.'.^.h.^.^.a.t.t.t.t.a.^.^.h.^.'.",
"'.'.'.'.'.'.'.'.'.'.'.'.'.).S.S.).*.s < 4 4 2 > @ < 4 4 4 4 4 4 4 4 4 < X - $ n :.'.'.'.'.'.'.'.'.^.h.^.^.a.t.t.t.t.a.~.T.g.^.'.",
"'.'.'.'.'.'.'.'.'.'.'.'.).m.[ [ n.~ u < 4 4 < @ > 2 4 4 4 4 4 4 4 4 4 < X - - s *.'.'.'.'.'.'.'.'.^.h.^.^.a.t.t.t.t.a.P.g.g.!.'.",
"'.'.'.'.'.'.'.'.'.'.'.'.F.| _ _ E v 1 2 4 2 > X < 4 4 4 4 4 4 4 4 4 2 > O ; ; s *.'.'.'.'.'.'.'.'.^.h.^.^.a.t.t.t.t.a.I.g.T.`.'.",
"'.'.'.'.'.'.'.'.'.'.'.'.).S.C.C.&.V u 3 < 3 0 # < 4 4 4 4 4 4 4 4 4 < O - ; ; s *.'.'.'.'.'.'.'.'.^.h.^.^.a.t.t.t.t.a.I.h.^.'.'.",
"'.'.'.'.'.'.'.'.'.'.'.'.'.'.'.'.W.:./ N s N R y < 4 4 4 4 4 4 4 4 4 < X ; : ; s *.'.'.'.'.'.'.'.'.^.g.T.~.a.t.t.t.r.d.P.h.^.'.'.",
"'.'.'.'.'.'.'.'.'.'.'.'.'.'.'.'.'.'.W.:.*.*.Q y < 4 4 4 4 4 4 4 4 4 < X ; ; - s *.'.'.'.'.'.'.'.'.!.g.g.P.a.t.t.t.p.P.P.g.^.'.'.",
"'.'.'.'.'.'.'.'.'.'.'.'.'.'.'.'.'.'.'.'.'.:.n % < 4 4 4 4 4 4 4 4 4 < X - - X p *.'.'.'.'.'.'.'.'.`.T.g.I.a.t.t.t.a.P.g.g.!.'.'.",
"'.'.'.'.'.'.'.).F.).'.'.'.'.'.'.'.'.'.'.W./ y ; 2 4 4 4 4 4 4 4 4 4 < . + r p n @.W.'.'.'.'.'.'.'.'.^.h.I.a.t.t.t.a.I.g.T.`.'.'.",
"'.'.'.'.'.'.).m.} m.).'.'.'.'.'.'.'.'.'.:.M , 2 4 4 4 4 4 4 4 4 4 4 < X w Q *.@.I #.V.).'.'.'.'.'.'.^.h.I.a.t.t.t.a.I.h.^.'.'.'.",
"'.'.'.'.'.'.F.| ` | F.'.'.'.'.'.'.'.'.W./ u < 4 4 4 4 4 4 4 4 4 4 4 2 > s *.'.W.#.K Y %.E.'.'.'.'.'.^.h.I.a.t.t.t.p.J.j.!.'.'.'.",
"'.'.'.'.'.'.).S.C.S.).'.'.'.'.'.'.'.'.:.M > 2 4 4 4 4 4 4 4 4 4 4 4 4 < a / W.'.V.T m A O.W.'.'.'.'.^.g.z.p.t.t.t.r.s.R.`.'.'.'.",
"'.'.'.'.'.'.'.'.'.'.'.'.'.'.'.'.'.'.'.*.s ; 2 4 4 4 4 4 4 4 4 4 4 4 4 4 9 B :.'.).N.&.! P $.W.'.'.'.!.g.p.r.t.t.t.t.a.^.'.'.'.'.",
"'.'.'.'.'.'.'.'.'.'.'.'.'.'.'.'.'.'.W./ y : 2 4 4 4 4 4 4 4 4 4 4 4 4 6 8 d *.'.'.'.'.W.$.I $.W.'.'.`.T.p.t.t.t.t.r.d.!.'.'.'.'.",
"'.'.'.'.'.'.'.'.'.'.'.'.'.'.'.'.'.'.:.M > 2 4 4 4 4 4 4 4 4 4 4 4 4 4 4 7 d *.'.'.'.'.'.W.$.I $.W.'.'.^.a.t.t.t.r.s.R.`.'.'.'.'.",
"'.'.'.'.'.'.'.'.'.'.'.'.'.'.'.'.'.'.*.s : 2 4 4 4 4 4 4 4 4 4 4 4 4 4 4 2 s *.'.'.'.'.'.'.W.$.I $.W.'.^.a.t.t.t.p.T.`.'.'.'.'.'.",
"'.'.'.'.'.'.'.'.'.'.'.'.'.'.'.'.'.W./ u < 4 4 4 4 4 4 4 4 4 4 4 4 4 4 4 < s *.'.'.'.'.'.'.'.W.$.I @.;.H.p.t.t.t.a.^.'.'.'.'.'.'.",
"'.'.'.'.'.'.'.'.'.'.'.'.'.'.'.'.'.:.M > 2 4 4 4 4 4 4 4 4 4 4 4 4 4 4 4 < s *.'.'.'.'.'.'.'.'.W.$.H J X.r.t.t.r.d.!.'.'.'.'.'.'.",
"'.'.'.'.'.'.'.'.'.'.'.'.'.'.'.'.'.*.s ; 2 4 4 4 4 4 4 4 4 4 4 4 4 4 4 2 3 N :.'.'.'.'.'.'.'.'.'.W.:.-.3.t.t.r.s.R.`.'.'.'.'.'.'.",
"'.'.'.'.'.'.'.'.'.'.'.'.'.'.'.'.'.*.s - 2 4 4 4 4 4 4 4 4 4 4 4 4 4 4 < u / W.'.'.'.'.'.'.'.'.'.'.`.T.p.t.t.p.L.Z.S.).'.'.'.'.'.",
"'.'.'.'.'.'.'.'.).F.).'.'.'.'.'.'.:.n % < 4 4 4 4 4 4 4 4 4 4 4 4 4 2 3 N :.'.'.'.'.'.'.'.'.'.'.'.!.d.r.t.t.a.,.[ [ m.).'.'.'.'.",
"'.'.'.'.'.'.'.).m.} m.).'.'.'.'.'.W.^ t > 2 4 4 4 4 4 4 4 4 4 4 4 2 5 b @.W.'.'.'.'.'.'.'.'.'.'.'.^.a.t.t.r.8..._ _ | F.'.'.'.'.",
"'.'.'.'.'.'.'.F.| ` | F.'.'.'.'.'.'.:.n & < 4 4 4 4 4 4 4 4 4 4 4 < u / W.'.'.'.'.'.'.'.'.'.'.'.`.T.p.t.t.p.P.A.C.C.S.).'.'.'.'.",
"'.'.'.'.'.'.'.).S.C.S.).'.'.'.'.'.'.W.^ t > 2 4 4 4 4 4 4 4 4 4 2 3 N :.'.'.'.'.'.'.'.'.'.'.'.'.!.d.r.t.r.d.!.'.'.'.'.'.'.'.'.'.",
"'.'.'.'.'.'.'.'.'.'.'.'.'.'.'.'.'.'.'.:.n % > < < < < < < < < < 3 b @.W.'.'.'.'.'.'.'.'.'.'.'.`.P.u.t.w.5.Y.`.'.'.'.'.'.'.'.'.'.",
"'.'.'.'.'.'.'.'.'.'.'.'.'.'.'.'.'.'.'.W.+.n s s s s s s s s s s N @.W.'.'.'.'.'.'.'.'.'.'.'.'.!.s.e.w.1.o.D.'.'.'.'.'.'.'.'.'.'.",
"'.'.'.'.'.'.'.'.'.'.'.'.'.'.'.'.'.'.'.'.W.:.*.*.*.*.*.*.*.*.*.*.:.W.'.'.'.'.'.'.'.'.'.'.'.'.`.T.p.r.9.G.A.).'.'.'.'.'.'.'.'.'.'.",
"'.'.'.'.'.'.'.'.'.'.'.'.'.'.'.'.'.'.'.'.'.'.'.'.'.'.'.'.'.'.'.'.'.'.'.'.'.'.'.'.'.'.'.'.'.'.!.d.r.p.T.`.'.'.'.'.'.'.'.'.'.'.'.'."
};
