/* XPM */
static char *result[] = {
/* columns rows colors chars-per-pixel */
"64 64 95 2 ",
"   c #1B1F12",
".  c #1D2213",
"X  c #232316",
"o  c #232E16",
"O  c #272318",
"+  c #242F18",
"@  c #2B2C1E",
"#  c #243117",
"$  c #263119",
"%  c #2A341B",
"&  c #2D381D",
"*  c #31341E",
"=  c #313B1F",
"-  c #2D2D20",
";  c #312E21",
":  c #2E3220",
">  c #323323",
",  c #3B3625",
"<  c #343D22",
"1  c #383A26",
"2  c #33362A",
"3  c #3C3728",
"4  c #3E3A2B",
"5  c #433D2D",
"6  c #443F30",
"7  c #673D3D",
"8  c #364023",
"9  c #3D4327",
"0  c #41422D",
"q  c #454B2C",
"w  c #494E2E",
"e  c #4A502F",
"r  c #444331",
"t  c #494230",
"y  c #494934",
"u  c #514A36",
"i  c #534B39",
"p  c #4E5332",
"a  c #505735",
"s  c #525A37",
"d  c #54523D",
"f  c #595A39",
"g  c #60603E",
"h  c #5B5441",
"j  c #754245",
"k  c #7D434A",
"l  c #605844",
"z  c #5B6C44",
"x  c #5E7246",
"c  c #616441",
"v  c #686946",
"b  c #7B6B4F",
"n  c #617549",
"m  c #63784B",
"M  c #717552",
"N  c #73726B",
"B  c #80464B",
"V  c #857455",
"C  c #8A7A57",
"Z  c #8D7C5A",
"A  c #917E5C",
"S  c #6E8053",
"D  c #708255",
"F  c #79875B",
"G  c #79885B",
"H  c #858F64",
"J  c #9D8763",
"K  c #9E8965",
"L  c #9D8E69",
"P  c #988E71",
"I  c #A5926E",
"U  c #8B8984",
"Y  c #928E86",
"T  c #9C968A",
"R  c #ADA081",
"E  c #B0A384",
"W  c #B3A78B",
"Q  c #B7A88A",
"!  c #BBAE8D",
"~  c #BFB08F",
"^  c #BFB690",
"/  c #C2B392",
"(  c #C8BC97",
")  c #C5B79A",
"_  c #CDBE9E",
"`  c #CCC196",
"'  c #CEC59B",
"]  c #D4C39F",
"[  c #D3C99D",
"{  c #D7C6A2",
"}  c #D5CCA1",
"|  c #DDD0A4",
" . c #D3D4AB",
".. c #E6DAAD",
"X. c #E8DFB3",
/* pixels */
"{ { { { { { { { { { { { { { { { { { { { { { { { { { { { { { { { { { { { { { { { { { { { { { { { { { { { { { { { { { { { { { { { ",
"{ { { { { { { { { { { { { { { { { { { { { { { { { { { { { { { { { { { { { { { { { { { { { { { { { { { { { { { { { { { { { { { { ",
"{ { { { { { { { { { { { { { { { { { { ( { { { { { { { { { { { { { { { { { { { { { { { { { { ( { { { { { { { { { { { { { { { { { ",
"{ { { { { { { { { { { { { { { { { { Q H ^ { { { { { { { { { { { { { { { { { { { { { { { ] ^ H Q ] { { { { { { { { { { { { { { { ",
"{ { { { { { { { _ _ _ { { { { { { / y z G ^ ] { { { { { { { { { { { { { { { _ _ { { { { ^ G z y ^ { { { { { { { { { { { { { { { ",
"{ { { { { { { ) Y U U ) { { { { { R 1 p x G ^ { { { { { { { { { { { { { { ) Y U ) { ] ^ F x p < R { { { { { { { { { { { { { { { ",
"{ { { { { { ] T U U U T _ { { { / r q p s n G / { { { { { { { { { { { { ' T U U T _ ^ G n s p q r / { { { { { { { { { { { { { { ",
"{ { { { { { { _ ( _ _ _ { { { { ^ 1 q p p x m G ~ { { { { { { { { { { { { _ _ _ _ ^ G m z s p w 1 ! { { { { { { { { { { { { { { ",
"{ { { { { { { { { { { { { { { { R > q p p s x n G ^ { { { { { { { { { { { { { { ^ G m x s p p q 1 R { { { { { { { { { { { { { { ",
"{ { { { { { { { { { { { { { { / 6 % w p p p s x m G ~ ( ( ( ( ( ) ( ( ( ( ( ( ^ G m z s p p p w % r / { { { { { { { { { { { { { ",
"{ { { { { { { { { { { { { { { ! > % e p p p p s x x S S D D D D D D D D D D S S x x s p p p p w + > / { { { { { { { { { { { { { ",
"{ { { { { { { { { { { { { { { ! % $ e p p p p p s s x n x x x x x x n x n x x x s s p p p p p w % - / { { { { { { { { { { { { { ",
"{ { { { { { { { { { { { { { { ! - # y a p a p a p p a a s s p s s p s s p s s p p p p p p p p w # - / { { { { { { { { { { { { { ",
"{ { { { { { { { { { { { { { { ! : # q e p e w e p p p p p p p p p p p p p p p p p p p w w p a e % > ! { { { { { { { { { { { { { ",
"{ { { { { { { { { { { { { { { / : # & q w q & = e p p p p p p p p p p p p p p p p p e < & q w 9 % - / { { { { { { { { { { { { { ",
"{ { { { { { { { { { { { { { { ! : # # # & & & q p p p p p p p p p p p p p p p p p p p q & % % % o > ! { { { { { { { { { { { { { ",
"{ { { { { { { { { { { { { { { / 4 - + # % q w p p p p p p p p p p p p p p p p p p p p p q & # # o 2 W { { { { { { { { { { { { { ",
"{ { { { { { { { { { { { { { { ] R : o & q p p p p p p p p p p p p p p p p p p p p p p p p q % # @ N T _ { { { { { { { { { { { { ",
"{ { { { { { { { { { { { { { { { ! : o q p p p p p p p p p p p a p p s p p p p p p p p p p e q & < W _ { { { { { { { { { { { { { ",
"{ { { { { { { { { { { { { { { { R 2 0 p p p p p p a p p p p p p p p p p p p p p p p p p p p p q 1 R ] { { { { { { { { { { { { { ",
"{ { { { { { { { { { { { { { { ^ y q p p p p p p p p p p p p p p p p p p p p p p p p p p p p p p q y / { { { { { { { { { { { { { ",
"{ { { { { { { { { { { { { { { R > q p p p p p p p p p p p p p p p p p p p p p p p p p p p p p p q 1 R { { { { { { { { { { { { { ",
"{ { { { { { { { { { { { { ] W 9 % q p p p p p p p p p p p p p p p p p p p p p p p p p p p p p p y 0 q E ] { { { { { { { { { { { ",
"{ { { { _ { { { { { { { ] E 9 # # % q p p p p p p p p p p p p p p p p p p p a p p p p p p p q q & # + 0 R { { { { { { { { { { { ",
"{ { { ) Y Y ) { { { { { R 4 # # # # & q q p p p p p p p p p p p p p p p p p p p p p p e q q & % # # o o r E { { { { { { { { { { ",
"{ { _ T U U T _ { { { / h + . % # # # % & q e w e p p p p p p p p p p p p p e e e q q & % % # # $ # $ o + d / { { { { { { { { { ",
"{ { { _ _ _ _ { { { { { E 6 : + o # # # # % % % & q w w w w w w e e w e w w q & % % % # # # # # # o o : r E { { { { { { { { { { ",
"{ { { { { { { { { { { { ] ^ R 6 : o o # # # # o # % % % % % % % % % % % % % % $ # # # # # # # # + % 6 R / ] { { { { { { { { { { ",
"{ { { { { { { { { { { { { { { ~ R r % + o o o o # # # # # # # # # # # # # # # # o # o o o o o : 6 R / ] { { { { { { { { { { { { ",
"{ { { { { { { { { { { { { { { { ] ^ R 6 > - > : # . o # # # # # # # # # # # # # o o : : : : r R / ] { { { { { { { { { { { { { { ",
"{ { { { { { { { { { { { { { { { { { ] / ! / ! R r : & + o o o o o o o o o o o % ; r R ! ! / / ] { { { { { { { { { { { { { { { { ",
"{ { { { { { { { { { { { { { { { { { { { { { { { / ~ P @ X O O O O O O O O O @ P ! / { { { { { { { { { { { { { { { { { { { { { { ",
"{ { { { { { { { { { { { { { { { { { { { { { { { ] E 5 * 7 j k B k k B k j 7 ; 5 E ] { { { { { { { { { { { { { { { { { { { { { { ",
"{ { { { { { { { { { { { { { { { { { { { { { { { E 0 o # * * j B B k B j , % $ o 0 E ] { { { { { { { { { { { { { { { { { { { { { ",
"{ { { { { { { { { { { { { { { { { { { { { { ] R 0 o # # $ $ * * = * * % $ # # # + 0 E ] { { { { { { { { { { { { { { { { { { { { ",
"{ { { { { { { { { { { { { { { { { { { { { { / r o o # # # # # # $ # # $ # # # # o o r / { { { { { { { { { { { { { { { { { { { { ",
"{ { { { { { { { { { { { { { { { { { { { { ] R > % % $ $ # # # # # # # # # $ # # % # 1 R ] { { { { { { { { { { { { { { { { { { { ",
"{ { { { { { { { { { { { { { _ _ { { { { { / r q w w q & % $ # # # # # $ # % % & q w 0 r / { { { { { { { { { { { { { { { { { { { ",
"{ { { { { { { { { { { { { ) Y U ) { { { { R 1 w p p e e w w = % % % % & q e e w p p q 1 R ] { { { { { { { { { { { { { { { { { { ",
"{ { { { { { { { { { { { _ T U U T _ { { / t q e p p p p p e w w w e e e e p p e p p p q r / { { { { { { { { { ) T ) { { { { { { ",
"{ { { { { { { { { { { { { _ _ _ _ { { ] R 1 w p p p p p p p p p e p p p p a c v s p p q 1 R { { { { { { { { _ T U T _ { { { { { ",
"{ { { { { { { { { { { { { { { { { { { / r q p p p p p p p p p p p p p p a M  . .M p p p 0 y / { { { { { { { { ] _ ( { { { { { { ",
"{ { { { { { { { { { { { { { { { { { { ~ , q p p p p p p a p p p p p p p c  .X.X. .c p p e 2 / { { { { { { { { { { { { { { { { { ",
"{ { { { { { { { { { { { { { { { { { ] R 1 q p p p p p p p p p p p p p p c } ....' z p p e 3 I ] { { { { { { { { { { { { { { { { ",
"{ { { { { { { { ] { { { { { { { { { / r # e p p p p p p p p p p p p p p c [ ..| L f p p w % 0 / { { { { { { { { { { { { { { { { ",
"{ { { { { { { ) T ) { { { { { { { { R : # y p p p p p a p p a p p a p p g [ ..} v p p p q % > R { { { { { { { { { { { { { { { { ",
"{ { { { { { ] T U T _ { { { { { ] R 9 + & e p p p p p p p p p p p p p p c [ ..[ g p p p w & o 0 E ] { { { { { { { { { { { { { { ",
"{ { { { { { { _ ( _ { { { { { { E 0 % & q p p p p p p p p p p p p p p p c [ ..[ c a p p p q & o 4 E { { { { { { { { { { { { { { ",
"{ { { { { { { { { { { { { { ] R r & q w p p p p p p p a a p p p p p p p g [ ..[ c e e p p e q & % 9 E { { { { { { { { { { { { { ",
"{ { { { { { { { { { { { { / E y q e p p p p p p p p e w e p p p p p p p g ` ..[ c e 8 e p p p e q : r R / { { { { { { { { { { { ",
"{ { { { { { { { { { { / R y 1 r p p p p p a p p e a e 8 e p p p p p p p g I [ ` g a e e a p p p p p r 1 r R / { { { { { { { { { ",
"{ { { { { { { { { { E r , q q p p p p p p e w p a p e w p p p p p e w a A K I K f a a p e e p p p p p q q 1 t E ] { { { { { { { ",
"{ { { { { { { { ] E y q q p e e p p p p p q < e a w 8 e e p p p q & $ q A K J Z f e a w 8 e p p q p p p p q q y E { { { { { { { ",
"{ { { { { { { { ( d 0 q y q 8 e p p p p e 8 q p p q q e p p e q & . * V J J C f e a a e e e e e 8 q p p p p q 0 h / { { { { { { ",
"{ { { { { { { { ] E r 1 % % 9 e p p e e p e p e q = = e e e q $ X , V J J C 9 & q w e a e 8 q y q 8 q w q q 1 r E ] { { { { { { ",
"{ { { { { { { { { ] / R 0 : % & q e q = q w w q & $ 0 q & $ $ X > t A J A u $ . o * q w q q = q e 9 & % > y R ^ ( _ { { { { { { ",
"{ { { { { { { { { _ ] ] / R 0 : % + % + % % # % o o + @     X 5 V A J J J V ;     # % % % % + % # : : 6 R ^ { ) Y Y ) { { { { { ",
"{ { { { { { { { ) T ) { { ] / R 6 * * o o o o o o       @ ; ; b A A A A V 6 ; @ X 1 # + o o + % : 4 E / ] { _ T U U T _ { { { { ",
"{ { { { { { { _ T U T _ { { { ] / / E t > - > > > - 3 3 3 ; 6 i u i u 5 5 5 3 ; 4 1 2 - : : r R ^ / ] { { { { _ _ _ _ { { { { { ",
"{ { { { { { { { _ _ _ { { { { { { ] ] / ! / ! / E d b V b h E / / / E h b V b l W ! ! ~ ~ ~ / ] { { _ ( { { { { { { { { { { { { ",
"{ { { { { { { { { { { { { { { { { { { { { { { { { Q l i l Q ] { { { ] Q l i l Q { { { { { { { { { ) Y Y ) { { { { { { { { { { { ",
"{ { { { { { { { { { { { { { { { { { { { { { { { { _ ) / ) ] { { { { { ] / / / ] { { { { { { { { _ T U U T _ { { { { { { { { { { ",
"{ { { { { { { { { { { { { { { { { { { { { { { { { { ] { { { { { { { { { { { { { { { { { { { { { { _ _ ( _ { { { { { { { { { { { ",
"{ { { { { { { { { { { { { { { { { { { { { { { { { { { { { { { { { { { { { { { { { { { { { { { { { { { { { { { { { { { { { { { { "
};
