/* XPM */
static char *result[] = {
/* columns rows colors chars-per-pixel */
"64 64 159 2 ",
"   c #1B1E11",
".  c #231F15",
"X  c #1B2012",
"o  c #212416",
"O  c #232E16",
"+  c #252E19",
"@  c #2C2B1D",
"#  c #37201D",
"$  c #332D1A",
"%  c #243117",
"&  c #273119",
"*  c #2A351B",
"=  c #2D381D",
"-  c #37301B",
";  c #2E2D20",
":  c #322A20",
">  c #2E3221",
",  c #323323",
"<  c #3A3527",
"1  c #333C21",
"2  c #383A26",
"3  c #3D3B2B",
"4  c #422725",
"5  c #4D322C",
"6  c #423D2D",
"7  c #463E30",
"8  c #5B3236",
"9  c #65353B",
"0  c #68373D",
"q  c #364124",
"w  c #3A4527",
"e  c #3E432A",
"r  c #40432C",
"t  c #454B2C",
"y  c #494E2F",
"u  c #4A502F",
"i  c #434331",
"p  c #4B4533",
"a  c #494833",
"s  c #544D3B",
"d  c #4E5332",
"f  c #505734",
"g  c #525B37",
"h  c #57583D",
"j  c #73502B",
"k  c #645236",
"l  c #57643A",
"z  c #62663D",
"x  c #5F5743",
"c  c #714647",
"v  c #665C45",
"b  c #5B6C42",
"n  c #5F7246",
"m  c #646C45",
"M  c #6A624B",
"N  c #687447",
"B  c #637449",
"V  c #6C7A4E",
"C  c #717346",
"Z  c #706A53",
"A  c #6D7C51",
"S  c #777D51",
"D  c #7E7A6F",
"F  c #845B31",
"G  c #945E39",
"H  c #856538",
"J  c #946439",
"K  c #86454E",
"L  c #8D4851",
"P  c #8D5256",
"I  c #847354",
"U  c #887151",
"Y  c #8C7C5C",
"T  c #A76E43",
"R  c #A87647",
"E  c #AC7B46",
"W  c #AB7D49",
"Q  c #B87D52",
"!  c #B26568",
"~  c #7A9F4E",
"^  c #6E8053",
"/  c #728155",
"(  c #768158",
")  c #79855B",
"_  c #7B895D",
"`  c #99825F",
"'  c #869D56",
"]  c #B9864C",
"[  c #BD8E53",
"{  c #B8955B",
"}  c #8CA155",
"|  c #938262",
" . c #9A8B66",
".. c #9D8C6A",
"X. c #9E946D",
"o. c #84817A",
"O. c #988E71",
"+. c #9C9174",
"@. c #A28E6C",
"#. c #A4956F",
"$. c #BE9A63",
"%. c #AB9772",
"&. c #AD9A74",
"*. c #B29E7A",
"=. c #AEA17A",
"-. c #B4A17C",
";. c #C58F52",
":. c #C69255",
">. c #C1925A",
",. c #CB9D63",
"<. c #CEA066",
"1. c #DBAF78",
"2. c #D6B77F",
"3. c #898782",
"4. c #8B8984",
"5. c #928E86",
"6. c #999284",
"7. c #9C968A",
"8. c #ADA181",
"9. c #B0A484",
"0. c #B9A680",
"q. c #BAA984",
"w. c #B6A88A",
"e. c #BCAD8D",
"r. c #BEB18E",
"t. c #A6A192",
"y. c #BFB690",
"u. c #C5A88E",
"i. c #C1B38E",
"p. c #CFAD93",
"a. c #C3B492",
"s. c #CDB597",
"d. c #CABD96",
"f. c #C5B79A",
"g. c #CDBE9D",
"h. c #D4BE90",
"j. c #D1BE9A",
"k. c #CDC29A",
"l. c #D3C39E",
"z. c #D4C99D",
"x. c #DACA9D",
"c. c #D7C6A2",
"v. c #D6CAA3",
"b. c #DACBA4",
"n. c #DCCDA8",
"m. c #DDD1A5",
"M. c #D7D3AC",
"N. c #DED1AB",
"B. c #DDDEB1",
"V. c #E5D5A7",
"C. c #E3D6AA",
"Z. c #E6DAAD",
"A. c #E2DEB7",
"S. c #E9DEB2",
"D. c #EAE0B4",
"F. c #EAE6BE",
"G. c #EFECC5",
"H. c #F5F4CA",
"J. c #F8F6CC",
/* pixels */
"c.c.c.c.c.c.c.c.c.c.c.c.c.c.c.c.c.c.c.c.c.c.c.c.c.c.c.c.c.c.c.c.c.c.c.c.c.c.c.c.c.c.c.c.c.c.c.c.c.c.c.c.c.c.c.c.c.c.c.c.c.c.c.c.",
"c.c.c.c.c.c.c.c.c.c.c.c.c.c.c.c.c.c.c.c.c.c.c.c.c.c.c.c.c.c.c.c.c.c.c.c.c.c.c.c.c.c.c.c.c.c.c.c.c.c.c.c.c.c.c.c.c.c.c.c.c.c.c.c.",
"c.c.c.c.c.c.c.c.c.c.c.c.c.c.c.c.c.c.c.c.c.c.c.c.c.c.c.c.c.c.c.c.c.c.c.c.c.c.c.c.c.c.c.c.c.c.c.c.c.c.c.c.c.c.c.c.c.c.c.c.c.c.c.c.",
"c.c.c.c.c.c.c.c.c.c.c.c.c.c.c.c.c.c.c.c.c.c.c.c.c.c.c.c.c.c.c.c.c.c.c.c.c.c.c.c.c.c.c.c.c.c.c.c.c.c.c.c.c.c.c.c.c.c.c.c.c.c.c.c.",
"c.c.c.c.c.c.c.c.g.g.g.c.c.c.c.c.c.c.c.c.c.c.c.c.c.c.c.c.c.c.c.c.c.c.c.c.c.c.g.g.v.c.c.c.c.c.c.c.c.c.c.c.c.c.c.c.c.c.c.c.c.c.c.c.",
"c.c.c.c.c.c.c.f.5.3.5.f.c.c.c.c.c.c.d.d.d.f.d.d.d.c.c.c.c.c.c.c.c.c.c.c.c.f.5.5.f.c.c.c.c.c.c.c.c.c.c.c.c.c.c.c.c.c.c.c.c.c.c.c.",
"c.c.c.c.c.c.l.7.4.3.3.7.g.c.c.c.c.d.( A A A A m ) r.f.l.c.c.c.c.c.c.c.c.g.7.4.4.7.g.c.c.c.c.c.c.c.c.c.c.c.c.c.c.c.c.c.c.c.c.c.c.",
"c.c.c.c.c.c.c.g.g.g.g.g.c.c.c.c.c.a.3 d f f g l n m ) r.d.c.c.c.c.c.c.c.c.g.g.g.g.v.c.c.c.g.g.c.c.c.c.c.c.c.c.c.c.c.c.c.c.c.c.c.",
"c.c.c.c.c.c.c.c.c.c.c.c.c.c.c.c.c.i., t a f f f g b n m ) r.d.c.c.c.c.c.c.c.c.c.c.c.c.c.f.5.5.f.c.c.c.c.c.c.c.c.c.c.c.c.c.c.c.c.",
"c.c.c.c.c.c.c.c.c.c.c.c.c.c.c.c.c.a.i * t d d f d f g b n m ) r.d.c.c.c.c.c.c.c.c.c.c.k.7.3.3.7.g.c.c.c.c.c.c.c.c.c.c.c.c.c.c.c.",
"c.c.c.c.c.c.c.c.c.c.c.c.c.c.c.c.c.f.7.> * t f u d d d f f b n b ) y.f.d.f.v.c.v.c.c.c.c.g.g.g.g.c.c.c.c.c.c.c.c.c.c.c.c.c.c.c.c.",
"c.c.c.c.c.c.c.c.c.c.c.c.c.c.c.c.g.5.o.3 + * t y d d d d d d f l n / ^ / _ y.d.l.c.c.c.c.c.c.c.c.c.c.c.c.c.c.c.c.c.c.c.c.c.c.c.c.",
"c.c.c.c.c.c.c.c.c.c.c.c.c.c.c.g.7.4.3.D > % % = t y d d d t = w b n n n n ^ ) y.d.c.c.c.c.c.c.c.c.c.c.c.c.c.c.c.c.c.c.c.n.c.c.c.",
"c.c.c.c.c.c.c.c.c.c.c.c.c.c.c.c.g.g.g.w.e % % % * > t y d 1 y u f g f f f g n ^ ) y.c.v.c.c.c.c.c.c.c.c.c.c.c.c.c.c.c.c.c.c.c.c.",
"c.c.c.c.c.c.c.c.c.c.c.c.c.c.c.c.c.c.c.l.8.> % % % % * 1 y u d d d d d d d d g g n _ y.l.c.c.c.c.c.c.c.c.c.c.c.c.c.c.c.c.c.c.c.c.",
"c.c.c.c.c.c.c.c.c.c.c.c.c.c.c.c.c.c.c.c.y.> % % % % * t d d d d d d d d d d d d g n _ g.c.c.c.g.g.g.c.c.c.c.c.c.c.c.c.c.c.c.c.c.",
"c.c.c.c.c.c.c.c.c.c.c.c.c.c.c.c.c.c.c.c.r.> + + * = y d d d d d d d d d d d g g B V _ f.c.c.f.5.4.5.f.c.c.c.c.c.c.c.c.c.c.c.c.c.",
"c.c.c.c.c.c.c.c.c.c.c.c.c.c.c.c.c.c.c.c.a.7 % * t y u d d d d d d d d f f g B V  .#.i.c.c.l.7.3.4.4.7.g.c.c.c.c.c.c.c.c.c.c.c.c.",
"c.c.c.c.c.c.c.c.c.c.c.c.c.c.c.c.c.c.c.c.l.+.2 e d d d d d d d d f u u g B (  .#.z.b.*.j.c.c.j.g.g.g.g.c.c.c.c.c.c.c.c.c.c.c.c.c.",
"c.c.c.c.c.c.c.c.c.c.c.c.c.c.c.c.c.c.c.c.y.a t d f d d d d d d d d f d N X.z.m.z.z.M.-.g.c.c.c.c.c.c.c.c.c.c.c.c.c.c.c.c.c.c.c.c.",
"c.c.c.c.c.c.c.c.c.c.c.c.c.c.c.c.c.c.c.c.8., y d d d f d d d d d d u g S d.V.V.&.M Z k.v.c.c.c.c.c.c.c.c.c.c.c.c.c.c.c.c.c.c.c.c.",
"c.c.c.c.c.c.c.c.c.c.c.c.c.c.c.c.c.c.c.y.3 > y d d d d d d d d d f f m E <.x.C.m.d.k.C.b.c.c.c.c.c.c.c.c.c.c.c.c.c.c.c.c.c.c.c.c.",
"c.c.c.c.c.c.c.c.c.c.c.c.c.c.c.c.c.c.c.8.> * y d d d d d d d d d u d N W ;.$.k.B.=.b.C.c.c.c.c.c.c.c.c.c.c.c.c.c.c.c.c.c.c.c.c.c.",
"c.c.c.c.g.g.c.c.c.c.c.c.c.c.c.c.c.l.8.a > t d d d d d d d d d u y w C [ W k l } m z.C.b.c.c.c.c.c.c.c.c.c.c.c.c.c.c.c.c.c.c.c.c.",
"c.c.c.f.5.5.f.c.c.c.c.c.c.c.c.c.l.9.i e u d d d d d d d d d d y w z R ;.;.$.' ~ l z.C.b.v.c.c.c.c.c.c.c.c.c.c.c.c.c.c.c.c.c.c.c.",
"c.c.l.7.4.4.7.g.c.c.c.c.c.c.c.c.8.e & > t f d d d d f d d d t w z H R ] ;.>.{ } N z.Z.k.f.c.c.c.c.c.c.c.c.c.c.c.c.c.c.c.c.c.c.c.",
"c.c.c.g.g.g.g.c.c.c.c.c.c.c.c.f.x & % % * w d d d d d d d y q l J R ;.;.:.,.1.2.z.Z.A.Z v f.z.c.c.c.c.c.c.c.c.c.c.c.c.n.c.c.c.c.",
"c.c.c.c.c.c.c.c.c.c.c.c.c.c.c.c.8.e % % % q e u d d d d d d y 1 - j J E [ x.V.V.Z.Z.Z.d...g.c.c.c.c.c.c.c.c.c.c.c.c.c.c.c.c.c.c.",
"c.c.c.c.c.c.c.c.c.c.c.c.c.c.c.c.l.8.e ; X * > 1 t d d d d d d t * $ G Q k.V.Z.Z.Z.Z.Z.z.0.g.c.c.c.c.c.c.c.c.c.c.c.c.c.c.c.c.c.c.",
"c.c.c.c.c.c.c.c.c.c.c.c.c.c.c.c.c.c.9.3 > % X % = t y y d d d d y = - U %.x.V.Z.Z.Z.x.0.s.c.c.c.c.c.c.c.c.c.c.c.c.c.c.c.c.c.c.c.",
"c.c.c.c.c.c.c.c.c.c.c.c.c.c.c.c.c.c.l.y.8.e > + % & & = t y y y y r + - I @.x.m.C.b.0.s.c.c.c.c.c.c.c.c.c.c.c.c.c.c.c.c.c.c.c.c.",
"c.c.c.c.c.c.c.c.c.c.c.c.c.c.c.c.c.c.c.c.c.y.8.i * + % % % & & & & & O O + , Y &.*.j.l.c.c.c.c.c.c.c.c.c.c.c.c.c.c.c.c.c.c.c.c.c.",
"c.c.c.c.c.c.c.c.c.c.c.c.c.c.c.c.c.c.c.c.c.c.c.a.8.i > ; X X X X X X       . 6 0.j.c.c.c.c.c.c.c.c.c.c.c.c.c.c.c.c.c.c.c.c.c.c.c.",
"c.c.c.c.c.c.c.c.c.c.c.c.c.c.c.c.c.c.c.c.c.c.c.c.c.a.e.O.* X O % O O O   # 8 c u.c.c.c.c.c.c.c.c.c.c.c.c.c.c.c.c.c.c.c.c.c.c.c.c.",
"c.v.c.c.c.c.c.c.c.c.c.c.c.c.c.c.c.c.c.c.c.c.c.c.c.c.a.r % % % % % % % X # 9 K ! p.c.c.c.c.c.c.c.c.c.c.c.c.c.c.c.c.c.c.c.c.c.c.c.",
"c.c.c.c.c.c.c.c.c.c.c.c.c.c.c.c.c.c.c.c.c.c.c.c.c.l.8.> % % & & & % O X @ 4 0 L ! j.c.c.c.c.c.c.c.c.c.c.c.c.c.c.c.c.c.c.c.c.c.c.",
"c.c.c.c.c.c.c.c.c.c.c.c.c.c.c.c.c.c.c.c.v.c.c.c.c.y.7 + % % & * r = +   : : 4 9 P p.c.c.c.c.c.c.c.c.c.c.c.c.c.c.c.c.c.c.c.c.c.c.",
"c.c.c.c.c.c.c.c.c.c.c.c.c.c.g.g.c.c.c.c.c.c.c.c.l.8.> X & = w = u t & X : < 7 5 k f.c.c.c.c.c.c.c.c.c.c.c.c.c.c.c.c.c.c.c.c.c.c.",
"c.c.c.c.c.c.c.c.c.c.c.c.c.f.5.5.f.c.c.c.c.c.c.c.a.i = * t y y = u t & X 6 Y i.@.e.c.c.c.c.c.c.c.c.c.c.c.c.c.c.c.g.c.c.c.c.c.c.c.",
"c.c.c.c.c.c.c.c.c.c.c.c.g.7.4.3.7.g.c.c.c.c.c.l.8.2 w 1 u u = y u u + @ I &.c.&.j.c.c.c.c.c.c.c.c.c.c.c.c.c.c.f.7.f.c.c.c.c.c.c.",
"c.c.c.c.c.c.c.c.c.c.c.c.c.g.g.g.g.c.c.c.c.c.c.a.i t d y d y = u f t o < ..m.F.q.k.c.c.c.c.c.c.c.c.c.c.c.c.c.g.7.4.7.g.c.c.c.c.c.",
"c.c.c.c.c.c.c.c.c.c.c.c.c.c.c.c.c.c.c.c.c.c.l.8.2 y d d d d y u u t o r i.Z.J.G.N.v.c.c.c.c.c.c.c.c.c.c.c.c.c.g.g.g.c.c.c.c.c.c.",
"c.c.c.c.c.c.c.c.c.c.c.c.c.c.c.c.c.c.c.c.c.c.a.i t d d d d y q u d y o <  .l.D.J.H.n.c.c.c.c.c.c.c.c.c.c.c.c.c.c.c.c.c.c.c.c.c.c.",
"c.c.c.c.c.c.c.c.c.c.c.c.c.c.c.c.c.c.c.c.c.c.8.2 y d d d d d y d f y o : p @.z.D.H.N.c.c.c.c.c.c.c.c.c.c.c.c.c.c.c.c.c.c.c.c.c.c.",
"c.c.c.c.c.c.c.c.g.c.c.c.c.c.c.c.c.c.c.c.l.9.a t d d d d f d d d y t o : s Y %.N.H.G.n.c.c.c.c.c.c.c.c.c.c.c.c.c.c.c.c.c.c.c.c.c.",
"c.c.c.c.c.c.c.f.7.f.c.c.c.c.c.c.c.c.c.c.8.a t d d d d d d d d d d y o p 8.M | l.N.-.f.c.c.c.c.c.c.c.c.c.c.c.c.c.c.c.c.c.c.c.c.c.",
"c.c.c.c.c.c.g.7.4.t.c.n.b.c.c.c.c.c.c.8.a t a f d d f d d d d d d t $ Y x.a.v  .z...6.f.c.c.c.c.c.c.c.c.c.c.c.c.c.c.c.c.c.c.c.c.",
"c.c.c.c.c.c.c.g.c.G.H.H.H.N.c.c.c.l.8.p y d d d d d d d d d d d f t $ Y x.b.` h =.M o.7.g.c.c.c.c.c.c.c.c.c.c.c.c.c.c.c.c.c.c.c.",
"c.c.c.c.c.c.c.n.G.S.S.S.S.G.N.c.c.8.a t d d y d d d d d d d d d d t $ T ,.h. .s v t.g.g.c.c.c.c.c.c.c.c.c.c.c.c.c.c.c.c.c.c.c.c.",
"c.c.c.c.c.c.c.c.Z.S.Z.Z.Z.S.G.v.8.a y d d a q y d d d u d d u d d t @ F E [ @.i.p.c.c.c.c.c.c.c.c.c.n.c.c.c.c.c.c.c.c.c.c.c.c.c.",
"c.c.n.c.c.c.c.c.c.Z.Z.C.V.b.N.f.a t d d d y y d d d u q u u q u d t $ J ,.h.&.j.c.c.c.c.c.c.c.c.c.c.c.c.c.c.c.c.c.c.c.c.c.c.c.c.",
"c.c.c.c.c.c.c.c.c.c.c.c.*. .@.9., e d d y q y d d d y y u d t u d d t 6 d.b.&.d.c.c.c.c.c.c.c.c.c.c.c.c.c.c.c.c.c.c.c.c.c.c.c.c.",
"c.c.c.c.c.c.c.c.c.c.c.c.r.x 6 6 X > t t 1 t d d d y q y d y 1 u d d t < k.x.&.j.c.c.c.c.c.c.c.c.c.c.c.c.c.c.c.c.c.c.c.c.c.c.c.c.",
"c.c.c.c.c.c.c.c.c.c.c.c.l.w.s 6 7 > * * a d d d d t = y d t 1 u d d t < k.V.&.l.c.c.c.c.c.c.c.c.c.c.c.c.c.c.c.c.c.c.c.c.c.c.c.c.",
"c.c.c.c.c.c.c.c.c.c.c.c.c.l.f.i.y.8.e % * e y y t = t d y 1 t d d d y 2 f.b.*.g.c.c.c.c.c.c.c.c.c.c.c.c.c.c.c.c.c.c.c.c.c.c.c.c.",
"c.c.c.c.c.c.c.c.c.c.c.c.c.c.c.c.c.c.9.i > * & + & % * t t * t u d d t q ..c.l.c.c.c.c.c.c.c.c.c.c.c.c.c.c.c.c.c.g.g.c.c.c.n.c.c.",
"c.c.c.c.c.c.c.c.c.g.c.c.c.c.c.c.c.c.c.y.8.7 ; ; ; o + & & + * t y t = 1  .-.v.b.c.c.c.c.c.c.c.c.c.c.c.c.c.c.c.f.5.5.f.c.c.c.c.c.",
"c.c.c.c.c.c.c.c.f.7.f.c.c.c.c.c.c.c.c.c.l.y.r.w.w.8.r ; , * + & & & O 2 r.z.F.F.N.c.c.c.c.c.c.c.c.c.c.c.c.c.g.7.4.4.7.g.c.c.c.c.",
"c.c.c.c.c.c.c.g.7.4.7.g.c.c.c.c.c.c.c.c.c.c.c.c.c.c.a.a.a.8.i , - , > 6 ..&.*.q.A.n.c.c.c.c.c.c.c.c.c.c.c.c.c.g.g.g.g.c.c.c.c.c.",
"c.c.c.c.c.c.c.c.g.g.g.c.c.c.c.c.c.c.c.c.c.c.c.c.c.c.c.c.c.j.a.i.a.e.y.a.g.j.j.j.n.c.c.c.c.c.c.c.c.c.g.g.c.c.c.c.c.c.c.c.c.c.c.c.",
"c.c.c.c.c.c.c.c.c.c.c.c.c.c.c.c.c.c.c.c.c.c.c.c.c.c.c.c.c.c.c.c.c.c.c.c.c.c.c.c.c.c.c.c.c.c.c.c.c.f.5.5.f.c.c.c.c.c.c.c.c.c.c.c.",
"c.c.c.c.c.c.c.c.c.c.c.c.c.c.c.c.c.c.c.c.c.c.c.c.c.c.c.c.c.c.c.c.c.c.c.c.c.c.c.c.c.c.c.c.c.c.c.c.g.7.4.4.7.g.c.c.c.c.c.c.c.c.c.c.",
"c.c.c.c.c.c.c.c.c.c.c.c.c.c.c.c.c.c.c.c.c.c.c.c.c.c.c.c.c.c.c.c.c.c.c.c.c.c.c.c.c.c.c.c.c.c.c.c.c.g.g.g.g.c.c.c.c.c.c.c.c.c.c.c.",
"c.c.c.c.c.c.c.c.c.c.c.c.c.c.c.c.c.c.c.c.c.c.c.c.c.c.c.c.c.c.c.c.c.c.c.c.c.c.c.c.c.c.c.c.c.c.c.c.c.c.c.c.c.c.c.c.c.c.c.c.c.c.c.c."
};
