/* XPM */
static char *result[] = {
/* columns rows colors chars-per-pixel */
"64 64 189 2 ",
"   c #1F354F",
".  c #1E3953",
"X  c #253750",
"o  c #243C56",
"O  c #263E58",
"+  c #2A3F59",
"@  c #2D415A",
"#  c #354557",
"$  c #3B4957",
"%  c #34435C",
"&  c #3A465C",
"*  c #3C4B5A",
"=  c #3E4760",
"-  c #3D4C61",
";  c #3C5164",
":  c #424C5A",
">  c #484E5B",
",  c #615558",
"<  c #454760",
"1  c #434A62",
"2  c #4D4C66",
"3  c #524D67",
"4  c #544E68",
"5  c #565266",
"6  c #5C5265",
"7  c #565068",
"8  c #5B516A",
"9  c #625665",
"0  c #685767",
"q  c #675867",
"w  c #695967",
"e  c #62556C",
"r  c #695768",
"t  c #675D6E",
"y  c #6C5B6B",
"u  c #735B65",
"i  c #7E5F62",
"p  c #725E6A",
"a  c #6D5D70",
"s  c #745E71",
"d  c #795F74",
"f  c #79646A",
"g  c #6F6372",
"h  c #746572",
"j  c #7D6275",
"k  c #A9725F",
"l  c #B3755C",
"z  c #B8775C",
"x  c #B5795C",
"c  c #BC7A5C",
"v  c #866766",
"b  c #8A6663",
"n  c #8C696E",
"m  c #9D6E67",
"M  c #94756F",
"N  c #836476",
"B  c #896674",
"V  c #856A71",
"C  c #8E6974",
"Z  c #866578",
"A  c #896779",
"S  c #8D697A",
"D  c #946C75",
"F  c #9B6E73",
"G  c #966D78",
"H  c #977070",
"J  c #9B7175",
"K  c #94737C",
"L  c #9B767E",
"P  c #9F7879",
"I  c #AE7465",
"U  c #A4726F",
"Y  c #AC766E",
"T  c #B27561",
"R  c #BC7B63",
"E  c #B17A6D",
"W  c #A27473",
"Q  c #AA7770",
"!  c #A77976",
"~  c #A0777A",
"^  c #A37A7C",
"/  c #C57D5C",
"(  c #C97F5C",
")  c #C17C60",
"_  c #AF837F",
"`  c #B58375",
"'  c #BB8876",
"]  c #CD815B",
"[  c #C9885E",
"{  c #D18259",
"}  c #D5895D",
"|  c #DB8B5A",
" . c #D6935E",
".. c #DE955D",
"X. c #DE985C",
"o. c #E08F5B",
"O. c #E4945D",
"+. c #E49A5E",
"@. c #EA9D5F",
"#. c #F09D5C",
"$. c #F4A15D",
"%. c #F9A55D",
"&. c #FFAA5E",
"*. c #C68467",
"=. c #CC8562",
"-. c #CC8B64",
";. c #C6866B",
":. c #CD8A6B",
">. c #D68B62",
",. c #DA8E61",
"<. c #D48F6A",
"1. c #D39164",
"2. c #DC9463",
"3. c #DD9963",
"4. c #D4926B",
"5. c #DB936A",
"6. c #DF986C",
"7. c #CB8E70",
"8. c #D89976",
"9. c #E39561",
"0. c #E59B63",
"q. c #EB9D60",
"w. c #E3A063",
"e. c #ECA164",
"r. c #E6A16C",
"t. c #EDA56A",
"y. c #F2A362",
"u. c #FEAD65",
"i. c #F1A76A",
"p. c #F3AA6D",
"a. c #F9AD6A",
"s. c #FFB067",
"d. c #FFB26C",
"f. c #E8A773",
"g. c #F1AC72",
"h. c #FFB673",
"j. c #FFB876",
"k. c #F2B17B",
"l. c #FFBA7B",
"z. c #977581",
"x. c #A57E80",
"c. c #A68388",
"v. c #D3AA86",
"b. c #D7AA8B",
"n. c #DDB797",
"m. c #DDBB9C",
"M. c #E5B285",
"N. c #EBB385",
"B. c #E4B78E",
"V. c #EBB98D",
"C. c #F1B684",
"Z. c #F4BA86",
"A. c #FABC83",
"S. c #F3BC8B",
"D. c #E1B392",
"F. c #E3BE95",
"G. c #ECBD95",
"H. c #E4BB98",
"J. c #E4BFA2",
"K. c #FFC285",
"L. c #FAC18B",
"P. c #EAC39B",
"I. c #F3C294",
"U. c #F9C492",
"Y. c #FFCB94",
"T. c #F1C69D",
"R. c #FDCD9B",
"E. c #FFD19E",
"W. c #DEC1A6",
"Q. c #E8C2A5",
"!. c #E3C9AD",
"~. c #F1C9A3",
"^. c #F2CAA7",
"/. c #F9CCA4",
"(. c #FFD3A3",
"). c #FFD6A9",
"_. c #FFD9AD",
"`. c #E5C9B5",
"'. c #EAD2BA",
"]. c #F4D1B5",
"[. c #F9D5B4",
"{. c #FFDBB5",
"}. c #F5D4B9",
"|. c #F9D7B8",
" X c #FEDEBB",
".X c #F9DCC1",
"XX c #FFE2C2",
"oX c #FFE6C9",
"OX c #FFE8CE",
/* pixels */
"! k. Xh.s.s.s.s.s.h.E.R.4.C 8 2 + 8 D ] :.c.k.(.(.).).(.j.s.d.s.d.d.d.d.h.d.s.d.d.s.s.s.s.s.s.s.s.s.s.s.d.d.d.u.s.s.u.u.h. Xk.! ",
"p.{.oX(.(.E.E.(.(. X).(.G.K j & % V *.4.}..XXXoXoXoXoXoXXXXXXXoXoXoXXXoXXX.X).XXXX).E.E.E.E.R.E.E.E.(.XXXXoXXX(.(.(.(.(.(.oX{.p.",
"u.(._.oXOXOXoXOXOXoX).(.T.L Z 8 8 K P.|.).).).).).).).).).).).oXXXOXoXoXOXOXOXOXoXoXoXoXXX).(.).XXXXXXoXoXoXoXXXoXoXOXOXXX_.(.u.",
"u.E.(._.OXOX{.oXoX_.(.(.R.7.D j e K ~.oX).(.(.(.(.(.(.(.(.(.E.l.l.E.l.l.(.).).).).).).).).(.(.(.(.l.j.h.d.j.s.l.(.).OXOX_.(.(.u.",
"d. X).(._.oX).).).(.(.(.R.G.K a Z L T._.oX(.(.(.(.(.(.(.(.(.(.E.E.(.E.R.(.).).).).).).).).).).(.(.R.E.Y.j.K.j.Y.)._.oX_.(.). Xd.",
"d. X).(.(.{.oX_.).(.R.Y.j.I.L N S z.T.(.oX{.).).).).(.E.E.E.E.{.).).).(.). XXXXXXXXXXXXXXXXXXXXX_.(.).).(.).(._.oXoX{.(.(.). Xd.",
"s.(.(.(.).oXoXXXXX{.h.u.d.I.z.N S L I.A.XXXXXX XXXXX{.h.s.s.u.j.{.XXXXXX{.h.d.d.d.d.d.d.s.d.s.j.{.XXXXXXXXXXXXXXoXoXoX).(.(.(.s.",
"d. X).(.).XXj.d.d.d.u.u.Y.T.L a N L T.(.XXl.d.d.d.d.s.u.&.&.&.&.d.s.d.h.s.u.&.&.&.&.&.&.&.&.&.u.d.d.s.d.d.d.s.d.s.j.XX).(.). Xd.",
"s.XX).(.).XXd.&.&.&.&.u.Y.T.L j e K I.).XXd.&.&.&.&.&.&.&.&.&.&.&.&.&.&.&.&.&.&.&.&.&.&.&.&.&.&.&.&.&.&.&.&.&.&.&.d.XX(.(.).XXd.",
"d.XX).(.)..Xd.&.&.&.&.&.d.I.z.N * C g.(.XXd.&.&.&.&.&.&.&.&.&.&.&.&.&.&.&.&.&.&.&.&.&.&.&.&.&.&.&.&.&.&.&.&.&.&.u.d.XX).(.).XXd.",
"d. X).(.(.{.u.&.&.&.&.&.d.I.z.N 1 C g.R.{.u.u.&.&.&.&.&.&.&.&.&.&.&.&.&.&.&.&.&.&.&.&.&.%.&.&.&.&.&.&.&.&.&.&.&.&.s.{.(.(.). Xd.",
"s.E.(.E.j.s.u.&.&.&.&.s.Y.T.L Z 8 K I.(.h.&.%.&.&.&.&.&.&.&.&.&.&.&.&.&.&.&.&.&.&.&.%.$.O.%.&.&.&.&.&.&.&.&.&.&.&.&.d.j.E.(.E.s.",
"s.E.(.(.Y.h.u.&.&.&.u.u.E.T.L N e K ^. Xu.%.O.%.&.&.&.&.&.&.&.&.&.&.&.&.&.&.&.&.&.%.9.2.Z.u.&.&.&.&.&.&.&.&.&.&.&.u.h.Y.E.(.E.s.",
"d. X).(.).).h.&.&.&.%.d.E.G.K y N L ~.[.a.%.#.| $.%.&.&.&.&.&.&.&.%.%.%.%.%.&.&.s.K.S.a.u.&.&.&.%.%.%.%.%.%.&.&.u.h.).).(.).{.d.",
"h.|._._. XA./.a.%.$.2.S.R.7.D N A L D.5.{ | { { | o.$.%.%.%.%.&.$.} } } } o.#.&.%.%.u.%.%.%.%.$.| { } { | | #.%.a./.A. X_._.).d.",
"G.8.]..X}.5.>.{ | { ( <.D.L A 8 Z S P ( { ( ( { { O.| ] { | { { ] ] ] ( ( ( { { } } ] ] ] ] { | { ( ( ( ( ( { | { >.5.'. X XoXT.",
"L J ;.:.:.) ( ( / R J G L S N 1 N S D / R F F / / ] ) U / / / c D D T m ) / c U ) ) F D D F ) ( / F D F R W R / / ( ( :.:.8.`.x.",
"Z S D D D D D G D D S S S S Z e j Z B A A B B A D A A B C A B 0 6 4 e e B B p N G G S S S S D D D C S S D S G G D G D D D G z.z.",
"e N S S S S S S S S S S S S S N e 8 8 8 8 8 8 8 8 8 8 4 4 4 3 4 6 4 4 8 8 e j e N Z S S S S S S S S S S S S S S S S S S Z z.d 8 ",
"4 e N Z S S S S S S S S S Z A Z 8 3 4 4 4 4 4 4 4 8 a & + o   3 d d 8 8 d Z N e 8 N Z Z Z Z A C S S S S S S S S S S S S Z d e 3 ",
"8 j e 8 N N S S S S J J F d G D y w w q r 0 w w w 6 8 3 @ X   2 e r r u f F F C p p p y p e e A F J J L S S S S S S N N 8 e d e ",
"A z.g g g h L z.K V 1.e.#.0.#.#.@.@.+.@.q.@.@.q.2.H e N s X : e n ) O.q.@.#.q.q.9.@.@.@.O.Y p ~ 0.p.p.r.^ K j L z.z.h g a s z.Z ",
"L Q.'.Q.P.H.T.~.P.m.P i.u.9.u.O.u.u.O.$.%.&.%.&.&.0.J N j X 3 n =.#.&.&.%.#.| | | #.%.%.#.#.#.a.I.U.U.U.G.G.P.T.T.T.P.P.P.P.H.L ",
":.|.). X).).(.R.R.}.'.I.U.I.A.A.L.V.} { | #.| $.%.&.2.p a = 6 c @.| $.$.o.{ ( { { { | { ( ( ( ( >.>.>.>.>.5.I.I.R.(.(.(.R.R.U.=.",
"<.}.h.h.R. X}.6.>.>.5.>.( ( o.o.>.>.{ ] { { { { | #.( , = y r ] #.{ ( | ( | ( ( { { { { { { { { | ( | ( ( { | | 5.I.(.Y.d.s.a.} ",
"<.).u.&.u.d.6.=.( { { ( { { ( ( ] { { { { { { { { | o., + 4 w 2.| { | ( ( ( ( ( { ( { { { { { { ( ( ( { { { { { { 5.L.d.u.s.A.>.",
">.h.u.u.&.u.^.>.{ ( { ( { { { { { { ( { { { { { ( o.#., % 2 w O.| { { { { { o.( ( ( ( { { { { { ( ( ( { { { { ( { #.u.u.K.s.a.{ ",
">./.u.&.u.d.[.5.{ { { { { ( { { ( ( { { { { { { ( #.O.u 2 4 w +.{ ( ( { ( { | ( ( ( z ( { { { { o.( { { { ( { { | u.&.&.u.s.L.>.",
">.I.u.y.u.s.U.>.{ ( ( o.#./ ( { { { ( ( ( | o.| o.#.@.r 8 3 w +.| | ( ( / / ( ( { { ( | { { { { ( | | { { ( { ( } L.u.&.&.s.L.>.",
">.L.u.9.A.d.U.>.( | ( o.( ( { { ( { ( | ( ( ( ( ( o.O.u 4 3 0 +.| | o.( o.z ( ( { { | { { { { | ( ( { { { { { { >.U.s.&.&.u.L.>.",
"} u.u.%.u.s.U.>.( | ( ( ( ( ( | { ( | ( ( ( ( ( | #.#., 4 4 0 @.#.{ o.( ( #.( ( { { { { { { ( | ( ( ( { { ( { { >.U.u.&.&.&.a.} ",
">.S.u.&.&.s.U.<.( ( ( ( ( ( ( o.{ { ( ( / ( ( ( ( o.O.u 8 4 0 +.| { ( ( ( ( o.( { { { { { { ( ( ( ( l ( { ] { { >.U.s.&.&.u.L.>.",
">.U.u.&.&.h.[.<.{ { { { { { { { ( | | O.Y ( { ( { | +.y d 8 r O.| { ( ( ( ( ( ( { { ( { ( { ( o.( O.I ( ( ( ( ( o.A.u.%.&.u.U.>.",
">.S.u.u.u.a./.5.>.>.{ { { { { { ( ( ( ( ( ( ( ( } $.@.y d 8 w q.#.{ ( ( ( ( ( ( { { { { ( { ( ( o.#.( ( / ( ( ( ( u.u.u.u.u.S.>.",
"| y.a.S.V.<.t.y.S.S.u.#.$.#.{ { ( ( ( ( / F F ) ( @.@.w 8 4 r q.#.( / U ( #.( ( { ( ( ( | ( ( ( ( ( ( ( F F ) ( o.9.,.V.S.a.u.{ ",
"{ q.>.! L F W ) W :.q.} ] ] ( / ( ( / F G S S D D Q -.q 4 4 e >.l m C D ( ( ( ( ( ) U c ( ( ( m G D F D S S D F / F G L ~ =.0.{ ",
"D F z T B N N G F F ) J G G G G I z F S S S S S S N r 4 4 4 8 Z N N N Z k D D D N N C D D D D S S S S S S S S S D N N N B A D C ",
"4 4 9 6 % % : k T A A A N N N A D D B Z Z Z Z N d e 4 4 4 4 2 % % + < N b Z N N = = j N N N d N N Z Z Z Z Z Z Z d = % % 4 8 4 4 ",
"+ % 2 4 4 3 3 9 9 8 8 8 8 8 8 6 8 8 8 8 8 8 8 4 & 3 4 4 4 4 3 3 2 2 2 4 < 4 3 + O 1 2 % + % % % + 8 8 8 8 8 8 8 8 4 4 4 8 3 & + ",
"@ e 1 d N d 8 8 4 4 4 4 4 3 7 5 4 4 4 4 4 4 4 4 2 3 4 4 2 2 2 3 3 3 3 3 2 3 3 < o O o O + 2 2 3 4 4 4 4 4 4 4 4 8 j Z N d N y + ",
"7 8 8 N t e j d 3 2 2 2 2 2 2 2 2 2 2 2 2 2 2 2 2 2 2 < + X + @ < 3 2 2 3 < + X o . O < 2 3 2 4 2 2 3 4 4 4 3 2 4 j C j 2 y = @ ",
"G G D S N C p w > : : : : : : $ : : & & & & $ & < X + & + + X X % % % % % X @ + + + + 2 3 2 + + @ % 2 4 4 4 2 % % 8 h 2 t 1 & s ",
"q.q.0.~ v 3.@.@.+.+.O.#.+.+.+.X.|  .c l l l l k N N b b I 8 + 8 d N N N N N b , 2 2 2 % 2 8 5 9 9 q q w w w q 9 e y D D J S N S ",
"} | >.M.w.e.%.u.u.&.&.#.%.%.$.| | ( U U F U F m D D C b F C C C D D D S D D B m r e 4 2 % h D 2.@.@.@.@.@.@.@.@.@.e.i.i.g.B.! ) ",
"=.N.>.| >.` >.S.j.A.o.o.{ | { { o.( ( ( ( ( ( ( z { z { / / z { ) / ( ( ( ( ( #.q.,.u 2 & j J y.&.&.&.&.&.&.&.&.d.K.Y.Y.L.d.] ] ",
"W >.y.%.u.C.y.2.( ( ( ( { { { { o.( ( ( ( ( ( ( { { { { { { { c ( ( ( ( #.( | #.u.a.2.9 & j J y.&.&.&.%.%.%.%.%.K.s.u.s.s.%. .] ",
"C q.&.&.u.y.| ( { { { { { { { { { { o.( ( | | ( { { { { { { { { ( ( ( ( ( ( ( o.>.S.y.9 % j L e.&.%.$.| } } } | a.&.&.&.&.u.S.>.",
": @.&.&.%.9.{ { { { { { { { { { { { ( ( ( ( ( ( { { { { { { { { ( ( ( ( ( ( ( o.>.A.t.9 % j J $.%.| } ] { { { { u.&.&.&.&.u.U.>.",
"$ O.&.&.u.C.} { { ( { { ( / / ( { { { { { { { { { { { { { { { { { { { / ( { ( { { u.@.9 % h F y.%.} ( ( ( ( ( ( j.&.&.&.&.u.U.>.",
"# [ $.&.&.5.{ ] { { { ( ( i , / ( ( { { { { { { { { { { { { { { { { z i ( ( ( { } %.@.w 2 1 D e.%.{ ( T ( ( o.o.K.&.&.&.&.s.U.>.",
"$  .O.%.u.S.} { ( { ( { / u 0 z / ( ( ( { { { { { c { { { / { { { { / b / b ( ( } %.@.w 8 d F y.&.{ } O.| ( ( ( t.&.&.&.&.s.U.>.",
"* +.%.&.u.L.} { { { { { ( z u u i z ( ( { { { { { { { { { { { { { { ( / ( / ( { } %.@.w 4 Z J y.%.| { { ( ( o.( E 0.%.&.&.s.U.>.",
"* F.s.&.&.u.} { { { ( ( ( { o./ u , , / { ( { ( { { / { { { { { { { { { { { { { { %.@., & j J y.%.{ { ( { | #.( U _ 2.%.&.s.L.>.",
"; !.s.&.&.y.{ { { { | | ( ( { ( / / / ( { { { { { { { { { { { { { { { { ( { ( { | %.@.9 % N W q.%.{ { ( ( ( | ( t.S.L.u.&.u.S.>.",
"* F.s.%.a.L.} { { { { ( { { { { { { { ( { ( { { { { { { { { { { / { { { { { { { | %.@.9 % V *.{ { { >.{ { ( ( o.L.d.s.&.&.%.5.{ ",
"; P.s.$.' G.2.{ { { { { ( { ( { ( { { { { { { { { { { { { { { / { { { { ( { { { { %.@.9 % K b.5.| 2.N.>.( | ( o.L.a.&.&.&.s.S.>.",
"; W.s.%.5.S.a.+.( { { { { ( { ( ( ( ( / / ( { { #.| ( ( { { ( / z z ( / / z / ( { a.@.9 & N ^ V.U.S.i.{ { { { { y.&.&.&.&.s.U.>.",
"# -.%.$.$.h.S.` b { { | { | { l Q ] Y ~ n ] { { ( ( { | { ( / i , i z b u u b z -.C.w.w 2 Z P r.t.>.=.( / ( ( [ @.O.%.&.&.s.S.-.",
"$ 3.%.O.5.M.5.@.o.%.%.%.%.%.%.$.@.#.y.C.V.q.{ ] ( { | #.#.{ ( c m m ( ( / ] | b U >.x 5 & j I W ! ^ W W W W W H W 9.y.a.s.L.:.D ",
"- M.u.a.N.M [ $.o.%.%.%.u.L.L.$.| { | o.y.| { { ( | #.#.| } Y } #.#.#.%.%.%.%.+.$.+.f & O 3 u W f.J.4.q.y.y.w.! J Q ` S.p.V.P 8 ",
"$ 6.d.Y.a.} $.%.u.s.&.%.} } } } ( { ( ( { { { ( ( ( ( o.| #.y.%.&.&.&.&.&.&.%.o.#...v.5 X # x f.Z.9.y.u.&.&.&.y.$.y.e.i.' 4.V % ",
"% M I.R.d.%.u.s.Y.(.a.| } } { } } } | ( { ( { } | | ( | @.%.%.&.&.&.&.&.&.&.&.%.| | 2.: @ # ` Q.6.} O.u.&.&.&.&.&.&.&.d.b.h 5 @ ",
"3 K n.P.V.e.@.e.F.f.@.+.O.+.+.+.O.+.O./ / / ( O.O.O.#.o.] ] [ +.@.@.@.@.@.@.@.@.+...x $ @ : 6 K 1.} b  .@.@.@.@.@.+.w.v.h 5 2 @ ",
"5 5 t t t w w w t w w w w w w w 0 0 w 9 9 , w w , u , i 9 9 9 w w w w w w w w , w w 9 2 2 2 @ @ $ * 3 : 9 w w w 9 * * * @ 2 2 2 "
};
