/* XPM */
static char *result[] = {
/* columns rows colors chars-per-pixel */
"64 64 236 2 ",
"   c #20191C",
".  c #211520",
"X  c #281927",
"o  c #271528",
"O  c #28152A",
"+  c #29152B",
"@  c #291929",
"#  c #2C192E",
"$  c #260336",
"%  c #27003A",
"&  c #28003B",
"*  c #28003C",
"=  c #2E1533",
"-  c #2F1635",
";  c #301635",
":  c #301D32",
">  c #321E34",
",  c #332B2A",
"<  c #342B2A",
"1  c #362D2D",
"2  c #392B33",
"3  c #3A2B34",
"4  c #3B2C36",
"5  c #3C2D36",
"6  c #382838",
"7  c #422F3D",
"8  c #422F3F",
"9  c #432F3F",
"0  c #44383C",
"q  c #45383D",
"w  c #473B3F",
"e  c #2C0042",
"r  c #2D0043",
"t  c #2E0342",
"y  c #2E0044",
"u  c #2E0045",
"i  c #2F0046",
"p  c #32004B",
"a  c #33004C",
"s  c #33004D",
"d  c #34004D",
"f  c #34004E",
"g  c #35004F",
"h  c #371248",
"j  c #3E1D48",
"k  c #360050",
"l  c #390055",
"z  c #3A0056",
"x  c #3B0057",
"c  c #3C0059",
"v  c #3D0259",
"b  c #3F005D",
"n  c #3C1151",
"m  c #401E49",
"M  c #431B4F",
"N  c #401157",
"B  c #411158",
"V  c #42115A",
"C  c #472B48",
"Z  c #473449",
"A  c #4D374B",
"S  c #420061",
"D  c #460067",
"F  c #4A046C",
"G  c #481162",
"H  c #4A1265",
"J  c #4F116C",
"K  c #51156E",
"L  c #4E0371",
"P  c #4F0372",
"I  c #520F71",
"U  c #56037C",
"Y  c #57037E",
"T  c #521670",
"R  c #551574",
"E  c #A89A7F",
"W  c #570080",
"Q  c #580081",
"!  c #590283",
"~  c #5A0084",
"^  c #5B0087",
"/  c #5D0686",
"(  c #5F0787",
")  c #5C0088",
"_  c #5D0088",
"`  c #5D0089",
"'  c #5E008B",
"]  c #5F008C",
"[  c #5D1280",
"{  c #60008E",
"}  c #61008F",
"|  c #641489",
" . c #610090",
".. c #620091",
"X. c #630092",
"o. c #640093",
"O. c #640492",
"+. c #650493",
"@. c #660394",
"#. c #670496",
"$. c #680597",
"%. c #680099",
"&. c #69009A",
"*. c #69039A",
"=. c #6A009C",
"-. c #6B009D",
";. c #6B029D",
":. c #6B049C",
">. c #6C059D",
",. c #6D0F99",
"<. c #6E0F9C",
"1. c #6F0F9D",
"2. c #6C1197",
"3. c #70119D",
"4. c #71119E",
"5. c #6F03A3",
"6. c #6E05A0",
"7. c #6F08A0",
"8. c #7103A5",
"9. c #7104A4",
"0. c #7204A6",
"q. c #7205A6",
"w. c #7204A7",
"e. c #760FA7",
"r. c #7404A8",
"t. c #7405A8",
"y. c #7505AA",
"u. c #7908AF",
"i. c #7211A0",
"p. c #7611A6",
"a. c #7711A7",
"s. c #7811A8",
"d. c #7913AA",
"f. c #7C1EA8",
"g. c #7A07B0",
"h. c #7A08B0",
"j. c #7B08B1",
"k. c #7B08B2",
"l. c #7C09B3",
"z. c #801EAE",
"x. c #840CBC",
"c. c #821EB1",
"v. c #831CB3",
"b. c #8E2EBC",
"n. c #975FB0",
"m. c #9E5FBC",
"M. c #8C1EC0",
"N. c #931DCB",
"B. c #931ACD",
"V. c #9716D5",
"C. c #971AD3",
"Z. c #991DD4",
"A. c #9D19DD",
"S. c #9D1ADC",
"D. c #9E1ADE",
"F. c #9F1DDE",
"G. c #9421C9",
"H. c #A222DF",
"J. c #A61DE7",
"K. c #A71EE9",
"L. c #A81FEA",
"P. c #A421E3",
"I. c #A422E3",
"U. c #A621E5",
"Y. c #A722E7",
"T. c #AD21F1",
"R. c #AD22F0",
"E. c #AE22F1",
"W. c #AF22F2",
"Q. c #B022F4",
"!. c #B123F5",
"~. c #B426F9",
"^. c #B626FB",
"/. c #B726FD",
"(. c #B927FF",
"). c #AC6CCB",
"_. c #AD71C9",
"`. c #B36CD5",
"'. c #B661DE",
"]. c #B56AD9",
"[. c #B66ADA",
"{. c #B66ADB",
"}. c #B76ADC",
"|. c #B76CDC",
" X c #B86CDC",
".X c #BC6EE1",
"XX c #BD6AE4",
"oX c #BE6AE6",
"OX c #BE6CE6",
"+X c #BF6CE7",
"@X c #C16EE9",
"#X c #C177E5",
"$X c #C07BE1",
"%X c #C079E3",
"&X c #C27DE3",
"*X c #C279E5",
"=X c #C47BE7",
"-X c #C370EA",
";X c #CA7BF0",
":X c #CB7BF1",
">X c #CC7BF2",
",X c #CD7DF4",
"<X c #8A8883",
"1X c #8B8984",
"2X c #8D8A84",
"3X c #928E86",
"4X c #999388",
"5X c #9B958A",
"6X c #9C968A",
"7X c #A79882",
"8X c #A99A81",
"9X c #A99A82",
"0X c #AB9B82",
"qX c #AB9D82",
"wX c #AC9D82",
"eX c #AD9D83",
"rX c #AFA085",
"tX c #AEA289",
"yX c #BCAD8E",
"uX c #BCAD8F",
"iX c #BFB090",
"pX c #C0AD94",
"aX c #C5B79A",
"sX c #CABB9B",
"dX c #CCBD9D",
"fX c #CDBE9E",
"gX c #CFBF9E",
"hX c #D2C29F",
"jX c #D3C39F",
"kX c #D5C5A1",
"lX c #D7C6A2",
"zX c #CF80F5",
"xX c #D488F9",
"cX c #D68AFB",
"vX c #D88AFD",
"bX c #DA8DFF",
/* pixels */
"lXlXlXlXlXlXlXlXlXlXlXlXlXlXlXlXlXlXlXlXlXlXlXlXlXlXlXlXlXlXlXlXlXlXlXlXlXlXlXlXlXlXlXlXlXlXlXlXlXlXlXlXlXlXlXlXlXlXlXlXlXlXlXlX",
"lXlXlXlXlXlXlXlXlXlXlXlXlXlXlXlXlXlXlXlXlXlXlXlXlXlXlXlXlXlXlXlXlXlXlXlXlXlXlXlXlXlXlXlXlXlXlXlXlXlXlXlXlXlXlXlXlXlXlXlXlXlXlXlX",
"lXlXlXlXlXlXlXlXlXlXlXlXlXlXlXlXlXlXlXlXlXlXlXlXlXlXlXlXlXlXlXlXlXlXlXlXlXlXlXlXlXlXlXlXlXlXlXlXlXlXlXlXlXlXlXlXlXlXlXlXlXlXlXlX",
"lXlXlXlXlXlXlXlXlXlXlXlXlXlXlXlXlXlXlXlXlXlXlXlXlXlXlXlXlXlXlXlXlXlXlXlXlXlXlXlXlXlXlXlXlXlXlXlXlXlXlXlXlXlXlXlXlXlXlXlXlXlXlXlX",
"lXlXlXlXlXlXlXkXfXdXfXkXlXlXlXlXlXlXlXlXlXlXlXlXlXlXlXlXlXlXlXlXlXlXlXlXlXkXfXfXkXlXlXlXlXlXlXlXlXlXlXlXlXlXlXlXlXlXlXlXlXlXlXlX",
"lXlXlXlXlXlXkXaX3X<X3XaXkXlXlXlXlXlXlXlXlXlXlXlXlXlXlXlXlXlXlXlXlXlXlXlXkXaX3X3XaXkXlXlXlXlXlXlXlXlXlXlXlXlXlXlXlXlXlXlXlXlXlXlX",
"lXlXlXlXlXlXgX6X1X<X1X6XgXlXlXlXlXlXlXlXlXlXlXlXlXlXlXlXlXlXlXlXlXlXlXlXgX6X1X1X6XgXlXlXlXlXlXlXlXlXlXlXlXlXlXlXlXlXlXlXlXlXlXlX",
"lXlXlXlXlXlXkXfXdXdXdXfXkXlXlXlXlXlXlXlXlXlXlXlXlXlXlXlXlXlXlXlXlXlXlXlXkXfXdXdXfXkXlXlXkXfXfXkXlXlXlXlXlXlXlXlXlXlXlXlXlXlXlXlX",
"lXlXlXlXlXlXlXlXlXlXlXlXlXlXlXlXlXlXlXlXlXlXlXlXlXlXlXlXlXlXlXlXlXlXlXlXlXlXlXlXlXlXlXkXaX3X3XaXkXlXlXlXlXlXlXlXlXlXlXlXlXlXlXlX",
"lXlXlXlXlXlXlXlXlXlXlXlXlXlXlXlXlXlXlXlXlXlXlXlXlXlXlXlXlXlXlXlXlXlXlXlXlXlXlXlXlXlXlXgX6X1X1X6XgXlXlXlXlXlXlXlXlXlXlXlXlXlXlXlX",
"lXlXlXlXlXlXlXlXlXlXlXlXlXlXlXlXkXfXfXkXlXlXlXlXlXlXlXlXlXjXiXiXjXlXlXlXlXlXlXlXlXlXlXkXfXdXdXfXkXlXlXlXlXlXlXlXlXlXlXlXlXlXlXlX",
"lXlXlXlXlXlXlXlXlXlXlXlXlXlXlXkXaX3X3XaXkXlXlXlXlXlXlXlXjXwX1 0 rXjXlXlXlXlXlXlXlXlXlXlXlXlXlXlXlXlXlXlXlXlXlXlXlXlXlXlXlXlXlXlX",
"lXlXlXlXlXlXlXlXlXlXlXlXlXlXlXgX6X1X1X6XgXlXlXlXlXlXlXlXiX, h n.w iXlXlXlXlXlXlXlXlXlXlXlXlXlXlXlXlXlXlXlXlXlXlXlXlXlXlXlXlXlXlX",
"lXlXlXlXlXlXlXlXlXlXlXlXlXlXlXkXfXdXdXfXkXlXlXlXlXlXlXjXE . n ).Z qXjXlXlXlXlXlXlXlXlXlXlXlXlXlXlXlXlXlXlXlXlXlXlXlXlXlXlXlXlXlX",
"lXlXlXlXlXlXlXlXlXlXlXlXlXlXlXlXlXlXlXlXlXlXlXlXlXlXlXiX< $ N %X_.w iXlXlXlXlXlXlXlXlXlXlXlXlXlXlXlXlXlXlXlXlXlXlXlXlXlXlXlXlXlX",
"lXlXlXlXlXlXlXlXlXlXlXlXlXlXlXlXlXlXlXlXlXlXlXlXlXlXjX8Xo * B =X&XZ qXjXlXlXlXlXlXlXlXlXlXlXkXfXdXfXkXlXlXlXlXlXlXlXlXlXlXlXlXlX",
"lXlXlXlXlXlXlXlXlXlXlXlXlXlXlXlXlXlXlXlXlXlXlXlXlXlXiX3 L p B =XcX_.w iXlXlXlXlXlXlXlXlXlXkXaX3X<X3XaXkXlXlXlXlXlXlXlXlXlXlXlXlX",
"lXlXlXlXlXlXlXlXlXlXlXlXlXlXlXlXlXlXlXlXlXlXlXlXlXjX8X= W d B =XbX&XZ qXjXlXlXlXlXlXlXlXlXgX6X1X<X1X6XgXlXlXlXlXlXlXlXlXlXlXlXlX",
"lXlXlXlXlXlXlXlXlXlXlXlXlXlXlXlXlXlXlXlXlXlXlXlXlXiX3 U { d B *XzXxX_.w iXlXlXlXlXlXlXlXlXkXfXdXdXdXfXkXlXlXlXlXlXlXlXlXlXlXlXlX",
"lXlXlXlXlXlXlXlXlXlXlXlXlXlXlXlXlXlXlXlXlXlXlXlXjX8X= ' ..d B |.b.-X$XZ qXjXlXlXlXlXlXlXlXlXlXlXlXlXlXlXlXlXlXlXlXlXlXlXlXlXlXlX",
"lXlXlXlXlXlXlXlXlXlXlXlXlXlXlXlXlXlXlXlXlXlXlXlXiX3 U %...d B [.d.c.;X_.w iXlXlXlXlXlXlXlXlXlXlXlXlXlXlXlXlXlXlXlXlXlXlXlXlXlXlX",
"lXlXlXlXlXlXlXlXlXlXlXlXlXlXlXlXlXlXlXlXlXlXlXjX8X= ' =...d B [.s.e.@X$XZ qXjXlXlXlXlXlXlXlXlXlXlXlXlXlXlXlXlXlXlXlXlXlXlXlXlXlX",
"lXlXlXlXlXlXlXlXlXlXlXlXlXlXlXlXlXlXlXlXlXlXlXiX3 Y 5.-...d B [.s.;.c.;X_.w iXlXlXlXlXlXlXlXlXlXlXlXlXlXlXlXlXlXlXlXlXlXlXlXlXlX",
"lXlXlXkXfXfXkXlXlXlXlXlXlXlXlXlXlXlXlXlXlXlXjX8X= #.A.w...d B [.s.=.s.>X&XZ qXjXlXlXlXlXlXlXlXlXlXlXlXlXlXlXlXlXlXlXlXlXlXlXlXlX",
"lXlXkXaX3X3XaXkXlXlXlXlXlXlXlXlXlXlXlXlXlXlXiX3 Y u.J.t...d B [.s.=.e.@XxX_.w iXlXlXlXlXlXlXlXlXlXlXlXlXlXlXlXlXlXlXlXlXlXlXlXlX",
"lXlXgX6X1X1X6XgXlXlXlXlXlXlXlXlXlXlXlXlXlXjX8X= #.K.W.j.X.d B [.s.=.;.c.,X&XZ qXjXlXlXlXlXlXlXlXlXlXlXlXlXlXlXlXlXlXlXlXlXlXlXlX",
"lXlXkXfXdXdXfXkXlXlXlXlXlXlXlXlXlXlXlXlXlXiX3 U q.W./.K.:.d B [.s.=.;.c.,XcX_.w iXlXlXlXlXlXlXlXlXlXlXlXlXlXlXlXlXlXlXlXlXlXlXlX",
"lXlXlXlXlXlXlXlXlXlXlXlXlXlXlXlXlXlXlXlXjX8X; @.y.W.(.W.>.d B [.s.=.e.@XvXbX&XZ qXjXlXlXlXlXlXlXlXlXlXlXlXlXlXlXlXlXlXlXlXlXlXlX",
"lXlXlXlXlXlXlXlXlXlXlXlXlXlXlXlXlXlXlXlXiX3 ( S.x.Q.(.W.>.d B [.s.=.s.>XbXbXcX_.w iXlXlXlXlXlXlXlXlXlXlXlXlXlXlXlXlXlXlXlXlXlXlX",
"lXlXlXlXlXlXlXlXlXlXlXlXlXlXlXlXlXlXlXjX8X= $.T.!./.(.W.>.d B [.s.;.c.,XbXbXbX&XZ qXjXlXlXlXlXlXlXlXlXlXlXlXlXlXlXlXlXlXlXlXlXlX",
"lXlXlXlXlXlXlXlXlXlXlXlXlXlXlXlXlXlXlXiX3 U 9.K./.(.(.W.>.d B [.s.e.@XvXbXbXbXcX_.w iXlXlXlXlXlXlXlXlXlXlXlXlXlXlXlXlXlXlXlXlXlX",
"lXlXlXlXlXlXlXlXlXlXlXlXlXlXlXlXlXlXjX8X= ' -.j.Q.(.(.W.>.f V {.s.s.>XbXbXbXbXbX&XZ qXjXlXlXlXlXlXlXlXlXlXlXlXlXlXlXlXlXlXlXlXlX",
"lXlXlXlXlXlXlXlXlXlXlXlXlXlXlXlXlXlXiX3 U %.=.w.J.W.E.F.O.a V  Xc.s.+X>X>X,XvXbXcX_.w iXlXlXlXlXlXlXlXlXlXlXlXlXlXlXlXlXlXlXlXlX",
"lXlXlXlXlXlXlXlXlXlXlXlXlXlXlXlXlXlXyX@ +.t.t.r.r.t.6.F c g G #X'.1.<.3.4.z..X:X>X`.6 uXlXlXlXlXlXlXlXlXlXlXlXlXlXlXlXlXlXlXlXlX",
"lXlXlXlXlXlXlXlXlXlXlXlXlXlXlXlXlXlXyX: Z.W.T.D.8.=.&.X.....4.OXf.v f f z ! I 2.a.,.M pXlXlXlXlXlXlXlXlXlXlXlXlXlXlXlXlXlXlXlXlX",
"lXlXlXlXlXlXlXlXlXlXlXlXlXlXlXlXlXlXyX> H./.L.j.w.-.=.=.=.=.s.oX3.f r r y l Q D ' ) # uXlXlXlXlXlXlXlXlXlXlXlXlXlXlXlXlXlXlXlXlX",
"lXlXlXlXlXlXlXlXlXlXlXlXlXlXlXlXlXlXiX9 G.R.l.g.V.8.=.=.=.&.i.XX3.f r r r a ^ ) b P 3 iXlXlXlXlXlXlXlXlXlXlXlXlXlXlXlXlXlXlXlXlX",
"lXlXlXlXlXlXlXlXlXlXlXlXlXkXfXfXkXlXjX0Xj B.k.D.h.-.=.=.=.X.J }.3.f r r r y z _ k O 8XjXlXlXlXlXlXlXlXlXlXlXlXlXlXlXlXlXlXlXlXlX",
"lXlXlXlXlXlXlXlXlXlXlXlXkXaX3X3XaXkXlXiX4 / 0.A.w.=.=.=.-.*.H [.3.g a a y r a ~ P 2 iXlXlXlXlXlXlXlXlXlXlXlXlXkXgXkXlXlXlXlXlXlX",
"lXlXlXlXlXlXlXlXlXlXlXlXgX6X1X1X6XgXlXjX8X= ] 8.-.=.=.-.g.C.K [.3.x ^ ^ a r y u O 8XjXlXlXlXlXlXlXlXlXlXlXlXkXaX5XaXkXlXlXlXlXlX",
"lXlXlXlXlXlXlXlXlXlXlXlXkXfXdXdXfXkXlXlXiX3 U %.=.=.=.w.K.U.T [.3.c ....f r e $ < iXlXlXlXlXlXlXlXlXlXlXlXlXgX6X2X6XgXlXlXlXlXlX",
"lXlXlXlXlXlXlXlXlXlXlXlXlXlXlXlXlXlXlXlXjX8X= ' =.=.-.j.Q.Y.T [.3.c ..X.z y & . E jXlXlXlXlXlXlXlXlXlXlXlXlXkXfXdXfXkXlXlXlXlXlX",
"lXlXlXlXlXlXlXlXlXlXlXlXlXlXlXlXlXlXlXlXlXyXX _ =.=.w.K./.Y.T [.3.c ..&.) a %   yXlXlXlXlXlXlXlXlXlXlXlXlXlXlXlXlXlXlXlXlXlXlXlX",
"lXlXlXlXlXlXlXlXlXlXlXlXlXlXlXlXlXlXlXlXlXiX3 U %.-.j.Q.(.Y.T [.3.c ..=...s $ < iXlXlXlXlXlXlXlXlXlXlXlXlXlXlXlXlXlXlXlXlXlXlXlX",
"lXlXlXlXlXlXlXkXgXkXlXlXlXlXlXlXlXlXlXlXlXjX8X= ' w.K./.(.Y.T [.3.c ..=...i . E jXlXlXlXlXlXlXlXlXlXlXlXlXlXlXlXlXlXlXlXlXlXlXlX",
"lXlXlXlXlXlXkXaX5XaXkXlXlXlXlXlXlXlXlXlXlXlXiX3 U q.W.(.(.Y.T [.3.c ..=. .t < iXlXkXgXkXlXlXlXlXlXlXlXlXlXlXlXlXlXlXlXlXlXlXlXlX",
"lXlXlXlXlXlXgX6X2X6XgXlXlXlXlXlXlXlXlXlXlXlXjX8X- 7.Q.(.(.Y.T [.3.c ..=.` + E jXkXaX5XaXkXlXlXlXlXlXlXlXlXlXlXlXlXlXlXlXlXlXlXlX",
"lXlXlXlXlXlXkXfXdXfXkXlXlXlXlXlXlXlXlXlXlXlXlXiX7 M.~.(.(.Y.T [.3.c ..%.U 3 iXlXgX6X2X6XgXlXlXlXlXlXlXlXlXlXlXlXlXlXlXlXlXlXlXlX",
"lXlXlXlXlXlXlXlXlXlXlXlXlXlXlXlXlXlXlXlXlXlXlXjX0Xm I.(.(.Y.T [.3.c ..' = 8XjXlXkXfXdXfXkXlXlXlXlXlXlXlXlXlXlXlXlXlXlXlXlXlXlXlX",
"lXlXlXlXlXlXlXlXlXlXlXlXlXlXlXlXlXlXlXlXlXlXlXlXiX9 G.^.(.Y.T [.4.S } U 3 iXlXlXlXlXlXlXlXlXlXlXlXlXlXlXlXlXlXlXlXlXlXlXlXlXlXlX",
"lXlXlXlXlXlXlXlXlXlXlXlXlXlXlXlXlXlXlXlXlXlXlXlXjX0Xm I.(.Y.T [.a.o.` = 8XjXlXlXlXlXlXlXlXlXlXlXlXlXlXlXlXlXlXlXlXlXlXlXlXlXlXlX",
"lXlXlXlXlXlXlXlXlXlXlXlXlXlXlXlXlXlXlXlXlXlXlXlXlXiX9 G.^.Y.T [.s.%.U 3 iXlXlXlXlXlXlXlXlXlXlXlXlXlXlXlXlXlXlXlXlXlXlXlXlXlXlXlX",
"lXlXlXlXlXlXlXlXlXlXlXlXlXlXlXlXlXlXlXlXlXlXlXlXlXjX0Xm I.Y.T [.s.' = 8XjXlXlXlXlXlXlXlXlXlXlXlXlXlXlXlXlXlXlXlXlXlXlXlXlXlXlXlX",
"lXlXlXlXlXlXlXlXlXlXlXlXlXlXlXlXlXlXlXlXlXlXlXlXlXlXiX9 G.P.T [.p.U 3 iXlXlXlXlXlXlXlXlXlXlXlXlXlXlXlXlXlXlXlXlXlXlXlXlXlXlXlXlX",
"lXlXlXlXlXlXlXlXlXlXlXlXlXlXlXlXlXlXlXlXlXlXlXkXfXdXsX9Xm N.T [.2.= 8XjXlXlXlXlXlXlXlXlXlXlXlXlXlXlXlXlXlXlXlXlXlXlXlXlXlXlXlXlX",
"lXlXlXlXlXlXlXlXlXlXlXlXlXlXlXlXlXlXlXlXlXlXkXaX3X<X3XtX8 v.R ].| 3 iXlXlXlXlXlXlXlXlXlXlXlXlXlXlXlXlXlXlXlXlXkXfXfXkXlXlXlXlXlX",
"lXlXlXlXlXlXlXlXkXgXkXlXlXlXlXlXlXlXlXlXlXlXgX6X1X<X1X4X7XC [ m.A eXjXlXlXlXlXlXlXlXlXlXlXlXlXlXlXlXlXlXlXlXkXaX3X3XaXkXlXlXlXlX",
"lXlXlXlXlXlXlXkXaX5XaXkXlXlXlXlXlXlXlXlXlXlXkXfXdXdXdXfXhXeX5 q rXjXlXlXlXlXlXlXlXlXlXlXlXlXlXlXlXlXlXlXlXlXgX6X1X1X6XgXlXlXlXlX",
"lXlXlXlXlXlXlXgX6X2X6XgXlXlXlXlXlXlXlXlXlXlXlXlXlXlXlXlXlXjXiXiXjXlXlXlXlXlXlXlXlXlXlXlXlXlXlXlXlXlXlXlXlXlXkXfXdXdXfXkXlXlXlXlX",
"lXlXlXlXlXlXlXkXfXdXfXkXlXlXlXlXlXlXlXlXlXlXlXlXlXlXlXlXlXlXlXlXlXlXlXlXlXlXlXlXlXlXlXlXlXlXlXlXlXkXfXfXkXlXlXlXlXlXlXlXlXlXlXlX",
"lXlXlXlXlXlXlXlXlXlXlXlXlXlXlXlXlXlXlXlXlXlXlXlXlXlXlXlXlXlXlXlXlXlXlXlXlXlXlXlXlXlXlXlXlXlXlXlXkXaX3X3XaXkXlXlXlXlXlXlXlXlXlXlX",
"lXlXlXlXlXlXlXlXlXlXlXlXlXlXlXlXlXlXlXlXlXlXlXlXlXlXlXlXlXlXlXlXlXlXlXlXlXlXlXlXlXlXlXlXlXlXlXlXgX6X1X1X6XgXlXlXlXlXlXlXlXlXlXlX",
"lXlXlXlXlXlXlXlXlXlXlXlXlXlXlXlXlXlXlXlXlXlXlXlXlXlXlXlXlXlXlXlXlXlXlXlXlXlXlXlXlXlXlXlXlXlXlXlXkXfXdXdXfXkXlXlXlXlXlXlXlXlXlXlX",
"lXlXlXlXlXlXlXlXlXlXlXlXlXlXlXlXlXlXlXlXlXlXlXlXlXlXlXlXlXlXlXlXlXlXlXlXlXlXlXlXlXlXlXlXlXlXlXlXlXlXlXlXlXlXlXlXlXlXlXlXlXlXlXlX"
};
