/* XPM */
static char *result[] = {
/* columns rows colors chars-per-pixel */
"64 64 121 2 ",
"   c #21191D",
".  c #281927",
"X  c #271528",
"o  c #28152A",
"O  c #2C192E",
"+  c #260336",
"@  c #270338",
"#  c #29013D",
"$  c #2E1533",
"%  c #301635",
"&  c #311E33",
"*  c #342B2B",
"=  c #352536",
"-  c #3A2B34",
";  c #3E2B3B",
":  c #432F3E",
">  c #473B3F",
",  c #2D0043",
"<  c #34004D",
"1  c #371048",
"2  c #3E1D48",
"3  c #360151",
"4  c #3A0155",
"5  c #3D0D55",
"6  c #3D0459",
"7  c #441951",
"8  c #411158",
"9  c #452A49",
"0  c #492C4B",
"q  c #473449",
"w  c #512B57",
"e  c #430062",
"r  c #491164",
"t  c #4F116C",
"y  c #51156E",
"u  c #531E6D",
"i  c #4F0372",
"p  c #4E0A70",
"a  c #510077",
"s  c #510A73",
"d  c #56037C",
"f  c #521670",
"g  c #A89A7F",
"h  c #570080",
"j  c #5A0184",
"k  c #5D008A",
"l  c #61008F",
"z  c #630092",
"x  c #680597",
"c  c #660A90",
"v  c #6A0F94",
"b  c #6A019C",
"n  c #6A1195",
"m  c #70119D",
"M  c #6F03A3",
"N  c #6F08A0",
"B  c #7204A6",
"V  c #7405A8",
"C  c #7608AA",
"Z  c #7B1EA6",
"A  c #7710A8",
"S  c #7812A9",
"D  c #7C1EA8",
"F  c #7A07B0",
"G  c #7B08B2",
"H  c #840CBC",
"J  c #821CB2",
"K  c #891CBC",
"L  c #8521B4",
"P  c #8E2EBC",
"I  c #9456B0",
"U  c #8C1EC0",
"Y  c #931CCC",
"T  c #971AD3",
"R  c #9A1ED5",
"E  c #9D1CDB",
"W  c #9421C9",
"Q  c #9628CB",
"!  c #A124DC",
"~  c #A228DC",
"^  c #A41DE5",
"/  c #A71EE9",
"(  c #A81FEA",
")  c #A622E6",
"_  c #AA2DE6",
"`  c #AF22F2",
"'  c #B022F4",
"]  c #B626FC",
"[  c #B927FF",
"{  c #A25EC2",
"}  c #A964C9",
"|  c #AD71C9",
" . c #B360DA",
".. c #B66ADA",
"X. c #B96DDE",
"o. c #BE6CE6",
"O. c #BE71E3",
"+. c #C16EE9",
"@. c #C27CE4",
"#. c #C370EA",
"$. c #CB73F5",
"%. c #CD7CF3",
"&. c #D27EFB",
"*. c #8B8984",
"=. c #928E86",
"-. c #9C968A",
";. c #A79882",
":. c #AA9B82",
">. c #AFA085",
",. c #AEA289",
"<. c #BCAD8E",
"1. c #BFB090",
"2. c #C2AD96",
"3. c #C2B094",
"4. c #C5B79A",
"5. c #CDBE9E",
"6. c #D3C39F",
"7. c #D7C6A2",
"8. c #D680FF",
"9. c #D589FA",
"0. c #DA8DFF",
/* pixels */
"7.7.7.7.7.7.7.7.7.7.7.7.7.7.7.7.7.7.7.7.7.7.7.7.7.7.7.7.7.7.7.7.7.7.7.7.7.7.7.7.7.7.7.7.7.7.7.7.7.7.7.7.7.7.7.7.7.7.7.7.7.7.7.7.",
"7.7.7.7.7.7.7.7.7.7.7.7.7.7.7.7.7.7.7.7.7.7.7.7.7.7.7.7.7.7.7.7.7.7.7.7.7.7.7.7.7.7.7.7.7.7.7.7.7.7.7.7.7.7.7.7.7.7.7.7.7.7.7.7.",
"7.7.7.7.7.7.7.7.7.7.7.7.7.7.7.7.7.7.7.7.7.7.7.7.7.7.7.7.7.7.7.7.7.7.7.7.7.7.7.7.7.7.7.7.7.7.7.7.7.7.7.7.7.7.7.7.7.7.7.7.7.7.7.7.",
"7.7.7.7.7.7.7.7.7.7.7.7.7.7.7.7.7.7.7.7.7.7.7.7.7.7.7.7.7.7.7.7.7.7.7.7.7.7.7.7.7.7.7.7.7.7.7.7.7.7.7.7.7.7.7.7.7.7.7.7.7.7.7.7.",
"7.7.7.7.7.7.7.7.5.5.5.7.7.7.7.7.7.7.7.7.7.7.7.7.7.7.7.7.7.7.7.7.7.7.7.7.7.7.6.5.7.7.7.7.7.7.7.7.7.7.7.7.7.7.7.7.7.7.7.7.7.7.7.7.",
"7.7.7.7.7.7.7.4.*.*.*.4.7.7.7.7.7.7.7.7.7.7.7.7.7.7.7.7.7.7.7.7.7.7.7.7.7.4.=.*.1.6.7.7.7.7.7.7.7.7.7.7.7.7.7.7.7.7.7.7.7.7.7.7.",
"7.7.7.7.7.7.6.-.*.*.*.-.5.7.7.7.7.7.7.7.7.7.7.7.7.7.7.7.7.7.7.7.7.7.7.7.6.-.*.*.-.6.7.7.7.7.7.7.7.7.7.7.7.7.7.7.7.7.7.7.7.7.7.7.",
"7.7.7.7.7.7.7.5.5.5.5.5.7.7.7.7.7.7.7.7.7.7.7.7.7.7.7.7.7.7.7.7.7.7.7.7.7.5.5.5.6.7.7.7.7.4.6.7.7.7.7.7.7.7.7.7.7.7.7.7.7.7.7.7.",
"7.7.7.7.7.7.7.7.7.7.7.7.7.7.7.7.7.7.7.7.7.7.7.7.7.7.7.7.7.7.7.7.7.7.7.7.7.7.7.7.7.7.7.7.4.=.=.4.7.7.7.7.7.7.7.7.7.7.7.7.7.7.7.7.",
"7.7.7.7.7.7.7.7.7.7.7.7.7.7.7.7.7.7.7.7.7.7.7.7.7.7.7.7.7.7.7.7.7.7.7.7.7.7.7.7.7.7.7.6.-.*.*.-.7.7.7.7.7.7.7.7.7.7.7.7.7.7.7.7.",
"7.7.7.7.7.7.7.7.7.7.7.7.7.7.7.7.7.5.5.7.7.7.7.7.7.7.7.7.7.6.1.1.6.7.7.7.7.7.7.7.7.7.7.6.6.4.4.6.7.7.7.7.7.7.7.7.7.7.7.7.7.7.7.7.",
"7.7.7.7.7.7.7.7.7.7.7.7.7.7.7.7.4.=.*.4.7.7.7.7.7.7.7.7.6.:.* > :.6.7.7.7.7.7.7.7.7.7.7.7.7.7.7.7.7.7.7.7.7.7.7.7.7.7.7.7.7.7.7.",
"7.7.7.7.7.7.7.7.7.7.7.7.7.7.7.5.-.*.*.-.6.7.7.7.7.7.7.7.<.* 1 I q 1.7.7.7.7.7.7.7.7.7.7.7.7.7.7.7.7.7.7.7.7.7.7.7.7.7.7.7.7.7.7.",
"7.7.7.7.7.7.7.7.7.7.7.7.7.7.7.7.5.5.5.5.7.7.7.7.7.7.7.6.g   3 Q 9 g 6.7.7.7.7.7.7.7.7.7.7.7.7.7.7.7.7.7.7.7.7.7.7.7.7.7.7.7.7.7.",
"7.7.7.7.7.7.7.7.7.7.7.7.7.7.7.7.7.7.7.7.7.7.7.7.7.7.7.3.* + 5 _ } > 1.6.7.7.7.7.7.7.7.7.7.7.7.7.7.6.7.7.7.7.7.7.7.7.7.7.7.7.7.7.",
"7.7.7.7.7.7.7.7.7.7.7.7.7.7.7.7.7.7.7.7.7.7.7.7.7.7.6.g X # 6 _ O.q >.6.7.7.7.7.7.7.7.7.7.7.7.6.5.6.7.7.7.7.7.7.7.7.7.7.7.7.7.7.",
"7.7.7.7.7.7.7.7.7.7.7.7.7.7.7.7.7.7.7.7.7.7.7.7.7.7.3.- i < 6 _ 9.| > 1.7.7.7.7.7.7.7.7.7.7.4.*.*.*.4.7.7.7.7.7.7.7.7.7.7.7.7.7.",
"7.7.7.7.7.7.7.7.7.7.7.7.7.7.7.7.7.7.7.7.7.7.7.7.7.6.g $ d < 6 _ 8.@.q g 6.7.7.7.7.7.7.7.7.6.-.*.*.*.-.6.7.7.7.7.7.7.7.7.7.7.7.7.",
"7.7.7.7.7.7.7.7.7.7.7.7.7.7.7.7.7.7.7.7.7.7.7.7.7.<.- d k < 6 _ $.9.| > 1.7.7.7.7.7.7.7.7.6.6.6.5.5.5.6.7.7.7.7.7.7.7.7.7.7.7.7.",
"7.7.7.7.7.7.7.7.7.7.7.7.7.7.7.7.7.7.7.7.7.7.7.7.6.:.$ k z < 6 E L 9.@.q >.6.7.7.7.7.7.7.7.7.7.7.6.7.7.7.7.7.7.7.7.7.7.7.7.7.7.7.",
"7.7.7.7.7.7.7.7.7.7.7.7.7.7.7.7.7.7.7.7.7.7.7.7.1.- d b l < 6 R G #.9.| > 1.6.7.7.7.7.7.7.7.7.7.7.7.7.7.7.7.7.7.7.7.7.7.7.7.7.7.",
"7.7.7.7.7.7.7.7.7.7.7.7.7.7.7.7.7.7.7.7.7.7.7.7.:.$ k b l < 6 ~ C D @.9.q >.6.7.7.7.7.7.7.7.7.7.7.7.7.7.7.7.7.7.7.7.7.7.7.7.7.7.",
"7.7.7.7.7.7.7.7.7.7.7.7.7.7.7.7.7.7.7.7.7.7.7.3.- d z b l < 8  .S S $.9.| > 1.7.7.7.7.7.7.7.7.7.7.7.7.7.7.7.7.7.7.7.7.7.7.7.7.7.",
"7.7.7.7.5.5.7.7.7.7.7.7.7.7.7.7.7.7.7.7.7.7.6.g $ k b b x < 8 ..S D %.0.O.q >.6.7.7.7.7.7.7.7.7.7.7.7.7.7.7.7.7.7.7.7.7.7.7.7.7.",
"7.7.7.4.=.=.4.7.7.7.7.7.7.7.7.7.7.7.7.7.7.7.3.- d x b b l < 8 ..L o.%.&.9.| > 1.7.7.7.7.7.7.7.7.7.7.7.7.7.7.7.7.7.7.7.7.7.7.7.7.",
"7.7.5.-.*.*.-.5.7.7.7.7.7.7.7.7.7.7.7.7.6.6.g % k b b B x < 8 ..L o.L L %.O.q ,.6.7.7.7.7.7.7.7.7.7.7.7.7.7.7.7.7.7.7.7.7.7.7.7.",
"7.7.7.5.5.5.5.7.7.7.7.7.7.7.7.7.7.7.7.7.7.3.- d b b B E b < 8  .L o.S J 9.9.| > 1.6.7.7.7.7.7.7.7.7.7.7.7.7.7.7.7.7.7.7.7.7.7.7.",
"7.7.7.7.7.7.7.7.7.7.7.7.7.7.7.7.7.7.7.7.6.;.O k b b B ^ b < 6 ! K o.D #.9.0.@.q >.6.7.7.7.7.7.7.7.7.7.7.7.7.7.7.7.7.7.7.7.7.7.7.",
"7.7.7.7.7.7.7.7.7.7.7.7.7.7.7.7.7.7.7.7.1.- d B B b B / b < 6 ~ U o.L %.9.0.9.| q 1.7.7.7.7.7.7.7.7.7.7.7.7.7.7.7.7.7.7.7.7.7.7.",
"7.7.7.7.7.7.7.7.7.7.7.7.7.7.7.7.7.7.7.6.:.$ x / / F B / b < 8 +.9.+.P %.0.0.0.O.q :.6.7.7.7.7.7.7.7.7.7.7.7.7.7.7.7.7.7.7.7.7.7.",
"7.7.7.7.7.7.7.7.7.7.7.7.7.7.7.7.7.7.7.1.- d B / ] ( H / b < 8 @.%.P #.9.%.%.9.@.| q 1.7.7.7.7.7.7.7.7.7.7.7.7.7.7.7.7.7.7.7.7.7.",
"7.7.7.7.7.7.7.7.7.7.7.7.7.7.7.7.7.7.6.:.% x B H ' ' ' ` m 4 r @.X.Z X.o.D m m D { = ,.7.7.7.7.7.7.7.7.7.7.7.7.7.7.7.7.7.7.7.7.7.",
"7.7.7.7.7.7.7.7.7.7.7.7.7.7.7.7.7.7.1.- c / ` ` ( H ' ` B x m X.u 3 r v e 3 4 3 5 , w 4.7.7.7.7.7.7.7.7.7.7.7.7.7.7.7.7.7.7.7.7.",
"7.7.7.7.7.7.7.7.7.7.7.7.7.7.7.7.7.7.<.& R ] [ ` G G ` / B b A ..r , 3 l k 6 a 4 < 3 2 2.7.7.7.7.7.7.7.7.7.7.7.7.7.7.7.7.7.7.7.7.",
"7.7.7.7.7.7.7.7.7.7.7.7.7.7.7.7.7.7.<.% ) ] ] / G ( ` G b b A o.n < < l b h e h l j 7 1.7.7.7.7.7.7.7.7.7.7.7.7.7.7.7.7.7.7.7.7.",
"7.7.7.7.7.7.7.7.7.7.7.7.7.7.7.7.7.7.1.& ! ] / G G ' ` B b b A o.m < < l z e j e k k O <.7.7.7.7.7.7.7.7.7.7.7.7.7.7.7.7.7.7.7.7.",
"7.7.7.7.7.7.7.7.7.7.7.7.7.7.7.7.7.7.1.: W ` G G ^ ] / B b b m o.m < < z z e j k e i - 1.7.7.7.7.7.7.7.7.7.7.7.7.7.7.7.7.7.7.7.7.",
"7.7.7.7.7.7.7.7.7.7.7.7.7.7.5.5.7.7.6.:.2 Y G E H / G b b z t ..m < < k b k e k 3 o ;.6.7.7.7.7.7.7.7.7.7.7.7.7.7.7.7.7.7.7.7.7.",
"7.7.7.7.7.7.7.7.7.7.7.7.7.4.=.*.4.7.7.1.- k B E H E B b b b r ..m < , 4 z z 4 h i - 1.7.7.7.7.7.7.7.7.7.7.7.7.7.5.7.7.7.7.7.7.7.",
"7.7.7.7.7.7.7.7.7.7.7.7.6.-.*.*.-.6.7.6.:.$ l G E G b b G T y ..m < , < z z 3 , o ;.6.7.7.7.7.7.7.7.7.7.7.7.7.4.-.4.7.7.7.7.7.7.",
"7.7.7.7.7.7.7.7.7.7.7.7.6.5.5.5.5.7.7.7.<.- d B ^ V b B / / f ..m < , < z z 4 @ * <.7.7.7.7.7.7.7.7.7.7.7.7.5.-.*.-.5.7.7.7.7.7.",
"7.7.7.7.7.7.7.7.7.7.7.7.7.7.7.7.7.7.7.7.6.;.$ x ^ V b G ' ) f ..m < , < l z a X ;.7.7.7.7.7.7.7.7.7.7.7.7.7.7.5.5.5.7.7.7.7.7.7.",
"7.7.7.7.7.7.7.7.7.7.7.7.7.7.7.7.7.7.7.7.6.<.. x E B B / ] ) f ..m < , < j 4 ,   <.7.7.7.7.7.7.7.7.7.7.7.7.7.7.7.7.7.7.7.7.7.7.7.",
"7.7.7.7.7.7.7.7.7.7.7.7.7.7.7.7.7.7.7.7.7.1.- d B b G ' [ ) f ..m < , < j < + * 1.7.7.7.7.7.7.7.7.7.7.7.7.7.7.7.7.7.7.7.7.7.7.7.",
"7.7.7.7.7.7.7.7.5.7.7.7.7.7.7.7.7.7.7.7.7.6.:.$ k B ) [ [ ) y ..m < , < j ,   ;.6.7.7.7.7.7.7.7.7.7.7.7.7.7.7.7.7.7.7.7.7.7.7.7.",
"7.7.7.7.7.7.7.4.-.4.7.7.7.7.7.7.7.7.7.7.7.7.1.- d B ' [ [ ) y  .m < , < j , * 1.7.7.6.7.7.7.7.7.7.7.7.7.7.7.7.7.7.7.7.7.7.7.7.7.",
"7.7.7.7.7.7.6.-.*.-.6.7.7.7.7.7.7.7.7.7.7.7.6.g % N ' [ [ ) t ~ M < , < h o ;.6.7.1.-.4.6.7.7.7.7.7.7.7.7.7.7.7.7.7.7.7.7.7.7.7.",
"7.7.7.7.7.7.7.5.5.5.7.7.7.7.7.7.7.7.7.7.7.7.7.1.: K ] [ [ ) p E b < , < i = 1.7.6.-.*.-.6.6.7.7.7.7.7.7.7.7.7.7.7.7.7.7.7.7.7.7.",
"7.7.7.7.7.7.7.7.7.7.7.7.7.7.7.7.7.7.7.7.7.7.7.6.:.2 ) [ [ ) s E b 3 , # o ;.6.7.7.5.5.5.7.7.7.7.7.7.7.7.7.7.7.7.7.7.7.7.7.7.7.7.",
"7.7.7.7.7.7.7.7.7.7.7.7.7.7.7.7.7.7.7.7.7.7.7.7.1.: W ] [ ) p E m 4 < # * 1.7.7.7.7.7.7.7.7.7.7.7.7.7.7.7.7.7.7.7.7.7.7.7.7.7.7.",
"7.7.7.7.7.7.7.7.7.7.7.7.7.7.7.7.7.7.7.7.7.7.7.7.6.:.2 ) [ ) p E B z j 5 :.7.7.7.7.7.7.7.7.7.7.7.7.7.7.7.7.7.7.7.7.7.7.7.7.7.7.7.",
"7.7.7.7.7.7.7.7.7.7.7.7.7.7.7.7.7.7.7.7.7.7.7.7.7.1.: W ] ) p R B b h ; 1.7.7.7.7.7.7.7.7.7.7.7.7.7.7.7.7.7.7.7.7.7.7.7.7.7.7.7.",
"7.7.7.7.7.7.7.7.7.7.7.7.7.7.7.7.7.7.7.7.7.7.7.7.7.6.:.9 ^ ) p E B k $ :.6.7.7.7.7.7.7.7.7.7.7.7.7.7.7.7.7.7.7.7.7.7.7.7.7.7.7.7.",
"7.7.7.7.7.7.7.7.7.7.7.7.7.7.7.7.7.7.7.7.7.7.7.7.7.7.1.: W ^ s E B d - 1.7.7.7.7.7.7.7.7.7.7.7.7.7.7.7.7.7.7.7.7.7.7.7.7.7.7.7.7.",
"7.7.7.7.7.7.7.7.7.7.7.7.7.7.7.7.7.7.7.7.7.7.7.7.5.5.4.:.2 Y p E x $ ;.7.7.7.7.7.7.7.7.7.7.7.7.7.7.7.7.7.7.7.7.7.7.7.7.7.7.7.7.7.",
"7.7.7.7.7.7.7.7.7.7.7.7.7.7.7.7.7.7.7.7.7.7.6.4.=.*.=.,.: J s E k - 1.7.7.7.7.7.7.7.7.7.7.7.7.7.7.7.7.7.7.7.7.7.5.5.7.7.7.7.7.7.",
"7.7.7.7.7.7.7.7.7.5.7.7.7.7.7.7.7.7.7.7.7.7.6.-.*.*.*.=.;.0 d K 0 >.6.7.7.7.7.7.7.7.7.7.7.7.7.7.7.7.7.7.7.7.7.4.=.=.4.7.7.7.7.7.",
"7.7.7.7.7.7.7.7.4.-.4.7.7.7.7.7.7.7.7.7.7.7.7.5.5.5.5.6.6.>.- : >.6.7.7.7.7.7.7.7.7.7.7.7.7.7.7.7.7.7.7.7.7.5.-.*.*.-.5.7.7.7.7.",
"7.7.7.7.7.7.7.5.-.*.-.5.7.7.7.7.7.7.7.7.7.7.7.7.7.7.7.7.7.6.1.1.6.7.7.7.7.7.7.7.7.7.7.7.7.7.7.7.7.7.7.7.7.7.7.5.5.5.5.7.7.7.7.7.",
"7.7.7.7.7.7.7.7.5.5.5.7.7.7.7.7.7.7.7.7.7.7.7.7.7.7.7.7.7.7.7.7.7.7.7.7.7.7.7.7.7.7.7.7.7.7.7.7.7.7.5.5.7.7.7.7.7.7.7.7.7.7.7.7.",
"7.7.7.7.7.7.7.7.7.7.7.7.7.7.7.7.7.7.7.7.7.7.7.7.7.7.7.7.7.7.7.7.7.7.7.7.7.7.7.7.7.7.7.7.7.7.7.7.7.4.=.=.4.7.7.7.7.7.7.7.7.7.7.7.",
"7.7.7.7.7.7.7.7.7.7.7.7.7.7.7.7.7.7.7.7.7.7.7.7.7.7.7.7.7.7.7.7.7.7.7.7.7.7.7.7.7.7.7.7.7.7.7.7.5.-.*.*.-.5.7.7.7.7.7.7.7.7.7.7.",
"7.7.7.7.7.7.7.7.7.7.7.7.7.7.7.7.7.7.7.7.7.7.7.7.7.7.7.7.7.7.7.7.7.7.7.7.7.7.7.7.7.7.7.7.7.7.7.7.7.5.5.5.5.7.7.7.7.7.7.7.7.7.7.7.",
"7.7.7.7.7.7.7.7.7.7.7.7.7.7.7.7.7.7.7.7.7.7.7.7.7.7.7.7.7.7.7.7.7.7.7.7.7.7.7.7.7.7.7.7.7.7.7.7.7.7.7.7.7.7.7.7.7.7.7.7.7.7.7.7."
};
