/* XPM */
static char *result[] = {
/* columns rows colors chars-per-pixel */
"64 64 118 2 ",
"   c #21191D",
".  c #211520",
"X  c #281927",
"o  c #271528",
"O  c #260336",
"+  c #270338",
"@  c #29013D",
"#  c #2E1533",
"$  c #301D32",
"%  c #342B2B",
"&  c #342832",
"*  c #3A2B34",
"=  c #3C2B3B",
"-  c #432F3E",
";  c #473B3F",
":  c #2D0043",
">  c #34004D",
",  c #371048",
"<  c #3E1D48",
"1  c #360050",
"2  c #3A0256",
"3  c #3D0459",
"4  c #401E49",
"5  c #411158",
"6  c #452A49",
"7  c #492C4B",
"8  c #473449",
"9  c #420161",
"0  c #491164",
"q  c #51136E",
"w  c #4F0372",
"e  c #4E0A70",
"r  c #510A73",
"t  c #56037D",
"y  c #521571",
"u  c #603B65",
"i  c #A89A7F",
"p  c #570080",
"a  c #5B0285",
"s  c #5D008A",
"d  c #61008F",
"f  c #600889",
"g  c #630192",
"h  c #680597",
"j  c #680F92",
"k  c #6B019C",
"l  c #6C1197",
"z  c #70119D",
"x  c #6F03A3",
"c  c #7204A6",
"v  c #760FA7",
"b  c #7405A9",
"n  c #7508A9",
"m  c #7710A8",
"M  c #7812A9",
"N  c #7A07B0",
"B  c #7B08B1",
"V  c #7D21A9",
"C  c #830CBB",
"Z  c #821DB2",
"A  c #891CBC",
"S  c #8521B4",
"D  c #8D24BE",
"F  c #8E2EBC",
"G  c #9456B0",
"H  c #8C1EC0",
"J  c #931CCC",
"K  c #971AD3",
"L  c #991DD4",
"P  c #9D1CDC",
"I  c #9421C9",
"U  c #9628CB",
"Y  c #A026DA",
"T  c #A228DC",
"R  c #A41CE5",
"E  c #A71EE9",
"W  c #A81FEA",
"Q  c #A622E6",
"!  c #AA2DE6",
"~  c #AE22F1",
"^  c #B022F4",
"/  c #B626FC",
"(  c #B927FF",
")  c #AC6FC8",
"_  c #AD71C9",
"`  c #B26CD4",
"'  c #B360DA",
"]  c #B66ADA",
"[  c #BA6CDF",
"{  c #B770D9",
"}  c #BE6BE6",
"|  c #BE71E3",
" . c #BF7BE0",
".. c #C16EE9",
"X. c #C37CE5",
"o. c #C370EA",
"O. c #C67BEA",
"+. c #C879EE",
"@. c #CB73F5",
"#. c #CC7CF3",
"$. c #D27EFB",
"%. c #8B8984",
"&. c #928E86",
"*. c #9C968A",
"=. c #AA9B82",
"-. c #AF9D89",
";. c #AFA085",
":. c #BCAD8E",
">. c #BEAF90",
",. c #BFB090",
"<. c #C2B094",
"1. c #C5B79A",
"2. c #CDBE9E",
"3. c #D3C39F",
"4. c #D7C6A2",
"5. c #D680FF",
"6. c #D589FA",
"7. c #D98CFE",
/* pixels */
"4.4.4.4.4.4.4.4.4.4.4.4.4.4.4.4.4.4.4.4.4.4.4.4.4.4.4.4.4.4.4.4.4.4.4.4.4.4.4.4.4.4.4.4.4.4.4.4.4.4.4.4.4.4.4.4.4.4.4.4.4.4.4.4.",
"4.4.4.4.4.4.4.4.4.4.4.4.4.4.4.4.4.4.4.4.4.4.4.4.4.4.4.4.4.4.4.4.4.4.4.4.4.4.4.4.4.4.4.4.4.4.4.4.4.4.4.4.4.4.4.4.4.4.4.4.4.4.4.4.",
"4.4.4.4.4.4.4.4.4.4.4.4.4.4.4.4.4.4.4.4.4.4.4.4.4.4.4.4.4.4.4.4.4.4.4.4.4.4.4.4.4.4.4.4.4.4.4.4.4.4.4.4.4.4.4.4.4.4.4.4.4.4.4.4.",
"4.4.4.4.4.4.4.4.4.4.4.4.4.4.4.4.4.4.4.4.4.4.4.4.4.4.4.4.4.4.4.4.4.4.4.4.4.4.4.4.4.4.4.4.4.4.4.4.4.4.4.4.4.4.4.4.4.4.4.4.4.4.4.4.",
"4.4.4.4.4.4.4.4.2.2.2.4.4.4.4.4.4.4.4.4.4.4.4.4.4.4.4.4.4.4.4.4.4.4.4.4.4.4.3.2.4.4.4.4.4.4.4.4.4.4.4.4.4.4.4.4.4.4.4.4.4.4.4.4.",
"4.4.4.4.4.4.4.1.%.%.%.1.4.4.4.4.4.4.4.4.4.4.4.4.4.4.4.4.4.4.4.4.4.4.4.4.4.1.&.&.1.4.4.4.4.4.4.4.4.4.4.4.4.4.4.4.4.4.4.4.4.4.4.4.",
"4.4.4.4.4.4.3.*.%.%.%.*.2.4.4.4.4.4.4.4.4.4.4.4.4.4.4.4.4.4.4.4.4.4.4.4.2.*.%.%.&.3.4.4.4.4.3.3.4.4.4.4.4.4.4.4.4.4.4.4.4.4.4.4.",
"4.4.4.4.4.4.4.2.2.2.2.2.4.4.4.4.4.4.4.4.4.4.4.4.4.4.4.4.4.4.4.4.4.4.4.4.4.2.3.1.3.4.4.3.3.3.3.3.4.4.4.4.4.4.4.4.4.4.4.4.4.4.4.4.",
"4.4.4.4.4.4.4.4.4.4.4.4.4.4.4.4.4.4.4.4.4.4.4.4.4.4.4.4.4.4.4.3.4.4.4.4.4.4.4.4.4.4.4.4.,.&.&.3.4.4.4.4.4.4.4.4.4.4.4.4.4.4.4.4.",
"4.4.4.4.4.4.4.4.4.4.4.4.4.4.4.4.4.4.4.4.4.4.4.4.4.4.4.4.4.3.,.,.3.4.4.4.4.4.4.4.4.4.4.3.&.%.%.*.3.4.4.4.4.4.4.4.4.4.4.4.4.4.4.4.",
"4.4.4.4.4.4.4.4.4.4.4.4.4.4.4.4.4.3.2.4.4.4.4.4.4.4.4.4.3.;.% ; ;.3.4.4.4.4.4.4.4.4.4.3.3.3.3.3.4.4.4.4.4.4.4.4.4.4.4.4.4.4.4.4.",
"4.4.4.4.4.4.4.4.4.4.4.4.4.4.4.4.1.&.%.1.3.4.4.4.4.4.4.3.,.% , G 8 ,.4.4.4.4.4.4.4.4.4.4.3.3.3.4.4.4.4.4.4.4.4.4.4.4.4.4.4.4.4.4.",
"4.4.4.4.4.4.4.4.4.4.4.4.4.4.4.2.*.%.%.*.3.4.4.4.4.4.4.3.i . 1 U 6 ;.3.4.4.4.4.4.4.4.4.4.4.4.4.4.4.4.4.4.4.4.4.4.4.4.4.4.4.4.4.4.",
"4.4.4.4.4.4.4.4.4.4.4.4.4.4.4.4.2.3.1.3.3.4.4.4.4.4.4.,.% O 3 ! ) = ,.4.4.4.4.4.4.4.4.4.4.4.4.4.4.4.4.4.4.4.4.4.4.4.4.4.4.4.4.4.",
"4.4.4.4.4.4.4.4.4.4.4.4.4.4.4.4.4.4.4.4.4.4.4.4.4.4.3.=.o @ 3 ! | 8 ;.3.4.4.4.4.4.4.4.4.4.4.4.4.4.3.4.4.4.4.4.4.4.4.4.4.4.4.4.4.",
"4.4.4.4.4.4.4.4.4.4.4.4.4.4.4.4.4.4.4.4.4.4.4.4.4.4.,.* e > 3 ! 5.) = ,.4.4.4.4.4.4.4.4.4.4.4.3.2.3.4.4.4.4.4.4.4.4.4.4.4.4.4.4.",
"4.4.4.4.4.4.4.4.4.4.4.4.4.4.4.4.4.4.4.4.4.4.4.4.4.3.=.# t > 3 ! 5. .8 ;.3.4.4.4.4.4.4.4.4.4.,.%.%.%.1.4.4.4.4.4.4.4.4.4.4.4.4.4.",
"4.4.4.4.4.4.4.4.4.4.4.4.4.4.4.4.4.4.4.4.4.4.4.4.4.:.* t s > 3 ! @.6._ ; >.4.4.4.4.4.4.4.4.3.*.%.%.%.*.3.4.4.4.4.4.4.4.4.4.4.4.4.",
"4.4.4.4.4.4.4.4.4.4.4.4.4.4.4.4.4.4.4.4.4.4.4.4.4.=.# s g > 3 P H 6. .8 ;.3.4.4.4.4.4.4.4.4.3.3.2.2.2.3.4.4.4.4.4.4.4.4.4.4.4.4.",
"4.4.4.4.4.4.4.4.4.4.4.4.4.4.4.4.4.4.4.4.4.4.4.4.>.* t h g > 3 P M } 6._ ; :.4.4.4.4.4.4.4.4.4.4.3.4.4.4.4.4.4.4.4.4.4.4.4.4.4.4.",
"4.4.4.4.4.4.4.4.4.4.4.4.4.4.4.4.4.4.4.4.4.4.4.4.i # s k d > 3 Y n V $. .8 ;.3.4.4.4.4.4.4.4.4.4.4.4.4.4.4.4.4.4.4.4.4.4.4.4.4.4.",
"4.4.4.4.4.4.4.4.4.4.4.4.4.4.4.4.4.4.4.4.4.4.4.<.* t h k g > 5 ' m m #.6._ ; >.4.4.4.4.4.4.4.4.4.4.4.4.4.4.4.4.4.4.4.4.4.4.4.4.4.",
"4.4.4.4.4.4.4.4.4.4.4.4.4.4.4.4.4.4.4.4.4.4.3.i # s k k g > 5 ] m V 5.6. .8 ;.3.4.4.4.4.4.4.4.4.4.4.4.4.4.4.4.4.4.4.4.4.4.4.4.4.",
"4.4.4.4.2.2.4.4.4.4.4.4.4.4.4.4.4.4.4.4.4.4.,.* t k k k d > 5 ] V } +.6.6._ ; >.4.4.4.4.4.4.4.4.4.4.4.4.4.4.4.4.4.4.4.4.4.4.4.4.",
"4.4.4.1.&.&.1.4.4.4.4.4.4.4.4.4.4.4.4.4.4.3.=.# s k k c g > 5 ] H } V H #.X.8 ;.3.4.4.4.4.4.4.4.4.4.4.4.4.4.4.4.4.4.4.4.4.4.4.4.",
"4.4.2.*.%.%.*.2.4.4.4.4.4.4.4.4.4.4.4.4.3.<.* t k k c P k > 5 ' S } m V #.6.) 8 >.3.4.4.4.4.4.4.4.4.4.4.4.4.4.4.4.4.4.4.4.4.4.4.",
"4.4.4.2.2.2.2.4.4.4.4.4.4.4.4.4.4.4.4.4.3.i # s k k c R z > 3 Y B } V } 7.7. .8 ;.3.4.4.4.4.4.4.4.4.4.4.4.4.4.4.4.4.4.4.4.4.4.4.",
"4.4.4.4.4.4.4.4.4.4.4.4.4.4.4.4.4.4.4.4.<.* t c c k b R h > 3 T U | H 6.7.7.6._ ; >.4.4.4.4.4.4.4.4.4.4.4.4.4.4.4.4.4.4.4.4.4.4.",
"4.4.4.4.4.4.4.4.4.4.4.4.4.4.4.4.4.4.4.3.i # h R E N b R k 1 5 ..$.} F $.7.7.7. .8 ;.3.4.4.4.4.4.4.4.4.4.4.4.4.4.4.4.4.4.4.4.4.4.",
"4.4.4.4.4.4.4.4.4.4.4.4.4.4.4.4.4.4.4.,.* t c E / E C E k > 5 X.#.F ..6.6.O.+.6.) 8 :.4.4.4.4.4.4.4.4.4.4.4.4.4.4.4.4.4.4.4.4.4.",
"4.4.4.4.4.4.4.4.4.4.4.4.4.4.4.4.4.4.3.i # s k B ^ / ^ ~ k > 5 O.#.S } ..V m m F { 8 -.4.4.4.4.4.4.4.4.4.4.4.4.4.4.4.4.4.4.4.4.4.",
"4.4.4.4.4.4.4.4.4.4.4.4.4.4.4.4.4.4.<.* t k c B ^ ( ^ P h > 5 X.#.S v v x x V } 6.{ u 1.4.4.4.4.4.4.4.4.4.4.4.4.4.4.4.4.4.4.4.4.",
"4.4.4.4.4.4.4.4.4.4.4.4.4.4.4.4.4.4.:.X s c P ~ / Q n 9 > : 5 O.6.o.V v M V ..7.7. .= >.4.4.4.4.4.4.4.4.4.4.4.4.4.4.4.4.4.4.4.4.",
"4.4.4.4.4.4.4.4.4.4.4.4.4.4.4.4.4.4.:.X g b C W W C x 2 > > 0 X.#.X.[ } } } +.+.#.` & :.4.4.4.4.4.4.4.4.4.4.4.4.4.4.4.4.4.4.4.4.",
"4.4.4.4.4.4.4.4.4.4.4.4.4.4.4.4.4.4.:.$ L ~ R N C W R k g g z } V 0 0 z z q j r l j X :.4.4.4.4.4.4.4.4.4.4.4.4.4.4.4.4.4.4.4.4.",
"4.4.4.4.4.4.4.4.4.4.4.4.4.4.4.4.4.4.,.6 I ~ B N R / E c k h z } z 1 > g g 9 s s 3 w * >.4.4.4.4.4.4.4.4.4.4.4.4.4.4.4.4.4.4.4.4.",
"4.4.4.4.4.4.4.4.4.4.4.4.4.4.4.4.4.4.3.=.< J B P C E N k k g q [ z > > s k s 9 s 1 o =.4.4.4.4.4.4.4.4.4.4.4.4.4.4.4.4.4.4.4.4.4.",
"4.4.4.4.4.4.4.4.4.4.4.4.4.4.2.2.3.4.4.,.= a b P C P c k k k 0 ] z > : 2 g g 2 p w & ,.4.4.4.4.4.4.4.4.4.4.4.4.4.4.4.4.4.4.4.4.4.",
"4.4.4.4.4.4.4.4.4.4.4.4.4.1.&.%.1.4.4.3.=.# s N P N x k B K q ] z > : > g g 1 : o =.4.4.4.4.4.4.4.4.4.4.4.4.4.4.2.4.4.4.4.4.4.4.",
"4.4.4.4.4.4.4.4.4.4.4.4.3.*.%.%.*.3.4.4.>.* t c E c k c Q Q q ] z > : > g g 2 + % ,.4.4.4.4.4.4.4.4.4.4.4.4.4.1.*.1.4.4.4.4.4.4.",
"4.4.4.4.4.4.4.4.4.4.4.4.3.2.2.2.2.3.4.4.3.=.# h R b k B ^ Q y ] z > : > g g w o =.3.4.4.4.4.4.4.4.4.4.4.4.4.2.*.%.*.2.4.4.4.4.4.",
"4.4.4.4.4.4.4.4.4.4.4.4.4.4.4.4.4.4.4.4.4.:.X g P c c E ( Q y ] z > : > s 2 :   :.4.4.4.4.4.4.4.4.4.4.4.4.4.4.2.2.2.4.4.4.4.4.4.",
"4.4.4.4.4.4.4.4.4.4.4.4.4.4.4.4.4.4.4.4.4.,.* t c k N ^ ( Q y ] z > : > a > O % >.4.4.4.4.4.4.4.4.4.4.4.4.4.4.4.4.4.4.4.4.4.4.4.",
"4.4.4.4.4.4.4.4.4.4.4.4.4.4.4.4.4.4.4.4.4.3.=.# s c E / ( Q y ] z > : > a : . i 3.4.4.4.4.4.4.4.4.4.4.4.4.4.4.4.4.4.4.4.4.4.4.4.",
"4.4.4.4.4.4.4.4.2.4.4.4.4.4.4.4.4.4.4.4.4.4.,.* t c ^ ( ( Q y ' z > : > a : % ,.4.4.4.4.4.4.4.4.4.4.4.4.4.4.4.4.4.4.4.4.4.4.4.4.",
"4.4.4.4.4.4.4.1.*.1.4.4.4.4.4.4.4.4.4.4.4.4.3.=.$ c ^ ( ( Q e Y k > : > t X i 3.4.4.2.4.4.4.4.4.4.4.4.4.4.4.4.4.4.4.4.4.4.4.4.4.",
"4.4.4.4.4.4.3.*.%.*.3.4.4.4.4.4.4.4.4.4.4.4.4.,.- A / ( ( Q e L k 1 : > w * ,.4.3.1.*.1.4.4.4.4.4.4.4.4.4.4.4.4.4.4.4.4.4.4.4.4.",
"4.4.4.4.4.4.4.2.2.2.4.4.4.4.4.4.4.4.4.4.4.4.4.3.i 4 Q ( ( Q e Y k 1 : @ o =.3.4.2.*.%.*.2.4.4.4.4.4.4.4.4.4.4.4.4.4.4.4.4.4.4.4.",
"4.4.4.4.4.4.4.4.4.4.4.4.4.4.4.4.4.4.4.4.4.4.4.4.,.- I / ( Q e P k 2 > : % >.4.4.4.2.2.2.4.4.4.4.4.4.4.4.4.4.4.4.4.4.4.4.4.4.4.4.",
"4.4.4.4.4.4.4.4.4.4.4.4.4.4.4.4.4.4.4.4.4.4.4.4.3.=.< Q / Q e P n g s , =.4.4.4.4.4.4.4.4.4.4.4.4.4.4.4.4.4.4.4.4.4.4.4.4.4.4.4.",
"4.4.4.4.4.4.4.4.4.4.4.4.4.4.4.4.4.4.4.4.4.4.4.4.4.,.- I / Q e P n k t = >.4.4.4.4.4.4.4.4.4.4.4.4.4.4.4.4.4.4.4.4.4.4.4.4.4.4.4.",
"4.4.4.4.4.4.4.4.4.4.4.4.4.4.4.4.4.4.4.4.4.4.4.4.4.3.=.4 Q Q e P b s # =.4.4.4.4.4.4.4.4.4.4.4.4.4.4.4.4.4.4.4.4.4.4.4.4.4.4.4.4.",
"4.4.4.4.4.4.4.4.4.4.4.4.4.4.4.4.4.4.4.4.4.4.4.4.4.4.,.- I Q e P c t * ,.4.4.4.4.4.4.4.4.4.4.4.4.4.4.4.4.4.4.4.4.4.4.4.4.4.4.4.4.",
"4.4.4.4.4.4.4.4.4.4.4.4.4.4.4.4.4.4.4.4.4.4.4.4.4.4.4.=.< J e P h # =.3.4.4.4.4.4.4.4.4.4.4.4.4.4.4.4.4.4.4.4.4.4.4.4.4.4.4.4.4.",
"4.4.4.4.4.4.4.4.4.4.4.4.4.4.4.4.4.4.4.4.4.4.4.4.2.2.2.,.- Z r P f * :.4.4.4.4.4.4.4.4.4.4.4.4.4.4.4.4.4.4.4.4.4.4.4.4.4.4.4.4.4.",
"4.4.4.4.4.4.4.4.4.4.4.4.4.4.4.4.4.4.4.4.4.4.3.1.&.%.&.<.=.6 a D 7 =.3.4.4.4.4.4.4.4.4.4.4.4.4.4.4.4.4.4.4.4.4.4.2.2.4.4.4.4.4.4.",
"4.4.4.4.4.4.4.4.4.2.4.4.4.4.4.4.4.4.4.4.4.4.3.*.%.%.%.*.2.=.* - ;.3.4.4.4.4.4.4.4.4.4.4.4.4.4.4.4.4.4.4.4.4.4.1.&.&.1.4.4.4.4.4.",
"4.4.4.4.4.4.4.4.1.*.1.4.4.4.4.4.4.4.4.4.4.4.4.2.2.2.2.3.3.3.<.<.3.4.4.4.4.4.4.4.4.4.4.4.4.4.4.4.4.4.4.4.4.4.2.*.%.%.*.2.4.4.4.4.",
"4.4.4.4.4.4.4.2.*.%.*.2.4.4.4.4.4.4.4.4.4.4.4.4.3.4.4.4.4.4.4.4.4.4.4.4.4.4.4.4.4.4.4.4.4.4.4.4.4.4.4.4.4.4.4.2.2.2.2.4.4.4.4.4.",
"4.4.4.4.4.4.4.4.2.2.2.4.4.4.4.4.4.4.4.4.4.4.4.4.4.4.4.4.4.4.4.4.4.4.4.4.4.4.4.4.4.4.4.4.4.4.4.4.4.4.2.2.4.4.4.4.4.4.4.4.4.4.4.4.",
"4.4.4.4.4.4.4.4.4.4.4.4.4.4.4.4.4.4.4.4.4.4.4.4.4.4.4.4.4.4.4.4.4.4.4.4.4.4.4.4.4.4.4.4.4.4.4.4.4.1.%.&.1.4.4.4.4.4.4.4.4.4.4.4.",
"4.4.4.4.4.4.4.4.4.4.4.4.4.4.4.4.4.4.4.4.4.4.4.4.4.4.4.4.4.4.4.4.4.4.4.4.4.4.4.4.4.4.4.4.4.4.4.4.2.*.%.%.*.2.4.4.4.4.4.4.4.4.4.4.",
"4.4.4.4.4.4.4.4.4.4.4.4.4.4.4.4.4.4.4.4.4.4.4.4.4.4.4.4.4.4.4.4.4.4.4.4.4.4.4.4.4.4.4.4.4.4.4.4.4.2.2.2.2.4.4.4.4.4.4.4.4.4.4.4.",
"4.4.4.4.4.4.4.4.4.4.4.4.4.4.4.4.4.4.4.4.4.4.4.4.4.4.4.4.4.4.4.4.4.4.4.4.4.4.4.4.4.4.4.4.4.4.4.4.4.4.4.4.4.4.4.4.4.4.4.4.4.4.4.4."
};
