/* XPM */
static char *result[] = {
/* columns rows colors chars-per-pixel */
"64 64 219 2 ",
"   c #434B17",
".  c #43471A",
"X  c #444C19",
"o  c #53491F",
"O  c #46501C",
"+  c #4C531A",
"@  c #545A1C",
"#  c #5B611F",
"$  c #62661F",
"%  c #484222",
"&  c #504A21",
"*  c #4B5323",
"=  c #47592B",
"-  c #575724",
";  c #525D30",
":  c #5D6321",
">  c #46633A",
",  c #566437",
"<  c #616622",
"1  c #656924",
"2  c #6A6F24",
"3  c #6D7125",
"4  c #727526",
"5  c #757927",
"6  c #797C27",
"7  c #73772A",
"8  c #7B7D29",
"9  c #65673C",
"0  c #707034",
"q  c #4E5249",
"w  c #53554E",
"e  c #54584F",
"r  c #58584E",
"t  c #4D5A54",
"y  c #545750",
"u  c #575A51",
"i  c #5A5B52",
"p  c #546E4E",
"a  c #5C7749",
"s  c #5D6156",
"d  c #5B665A",
"f  c #6E7049",
"g  c #616156",
"h  c #64655A",
"j  c #68695A",
"k  c #6B6A5C",
"l  c #5C6D61",
"z  c #4A7568",
"x  c #5F7567",
"c  c #4E7671",
"v  c #666660",
"b  c #646C61",
"n  c #6E6D61",
"m  c #716F62",
"M  c #627366",
"N  c #637669",
"B  c #677769",
"V  c #6B7C6C",
"C  c #747264",
"Z  c #7A7767",
"A  c #77766A",
"S  c #7A7768",
"D  c #727A6B",
"F  c #7C7A6B",
"G  c #697E70",
"H  c #7C7B72",
"J  c #817D6E",
"K  c #837F70",
"L  c #7F8227",
"P  c #7E8229",
"I  c #768438",
"U  c #79904B",
"Y  c #68845B",
"T  c #4D8372",
"R  c #538C72",
"E  c #698A67",
"W  c #67816F",
"Q  c #678272",
"!  c #698673",
"~  c #6C8D7A",
"^  c #738572",
"/  c #748C79",
"(  c #7A8A78",
")  c #78947C",
"_  c #71A27B",
"`  c #82842A",
"'  c #848428",
"]  c #8A8A2C",
"[  c #95942F",
"{  c #868437",
"}  c #918F31",
"|  c #949331",
" . c #989632",
".. c #9D9A32",
"X. c #A19E34",
"o. c #AAA538",
"O. c #B3AC3A",
"+. c #B8AF3D",
"@. c #BCB33D",
"#. c #C1B73F",
"$. c #C5BB3F",
"%. c #858B4C",
"&. c #85816E",
"*. c #88836F",
"=. c #948E64",
"-. c #999269",
";. c #848271",
":. c #8A8471",
">. c #868B78",
",. c #918B76",
"<. c #948D78",
"1. c #84937B",
"2. c #97917A",
"3. c #9B947D",
"4. c #9F987A",
"5. c #A29979",
"6. c #A0997F",
"7. c #90A377",
"8. c #ACA27E",
"9. c #C0B441",
"0. c #C6BC41",
"q. c #CABF41",
"w. c #CBC042",
"e. c #448785",
"r. c #509284",
"t. c #6D9784",
"y. c #779883",
"u. c #7C9D85",
"i. c #7DA086",
"p. c #7BA58B",
"a. c #75B38F",
"s. c #7BAD94",
"d. c #75B797",
"f. c #7AB096",
"g. c #7DB499",
"h. c #7BBC9B",
"j. c #5EB7B3",
"k. c #5EC6C8",
"l. c #5FCBCE",
"z. c #5FCAD0",
"x. c #61CAC5",
"c. c #61CCCE",
"v. c #66D0CE",
"b. c #6BD3CE",
"n. c #72D8CE",
"m. c #73D9CE",
"M. c #60CBD0",
"N. c #67D1D0",
"B. c #6DD4D0",
"V. c #71D7D1",
"C. c #74DAD1",
"Z. c #7ADED1",
"A. c #7EE2D1",
"S. c #898782",
"D. c #8B8984",
"F. c #928E86",
"G. c #839582",
"H. c #849984",
"J. c #899C86",
"K. c #9A9982",
"L. c #9B958A",
"P. c #A29A81",
"I. c #A89D84",
"U. c #85A38B",
"Y. c #8AA48B",
"T. c #89A88C",
"R. c #9CA98D",
"E. c #98B987",
"W. c #86AC93",
"Q. c #89AA91",
"!. c #97AE91",
"~. c #85B296",
"^. c #88B696",
"/. c #84B599",
"(. c #84BA9C",
"). c #89BD9F",
"_. c #95B094",
"`. c #9CB597",
"'. c #96BD9D",
"]. c #9CBC9D",
"[. c #AEA387",
"{. c #B5A98C",
"}. c #BDB08E",
"|. c #86BEA0",
" X c #94BFA1",
".X c #C1B38F",
"XX c #C2B494",
"oX c #C7B895",
"OX c #C5B79A",
"+X c #CCBD9C",
"@X c #90C79A",
"#X c #A4D79E",
"$X c #BEE59F",
"%X c #82C1A4",
"&X c #8DC4A5",
"*X c #88C6A9",
"=X c #8CCBAB",
"-X c #95C6A7",
";X c #9DCEAE",
":X c #9ED0AF",
">X c #8BD6B6",
",X c #8FDBB9",
"<X c #9BD8B6",
"1X c #99E2BD",
"2X c #D1C19E",
"3X c #C5E89D",
"4X c #D7C6A2",
"5X c #83DFC9",
"6X c #86E2CA",
"7X c #99E9C5",
"8X c #99E9C6",
"9X c #9DF3CD",
"0X c #82E5D1",
"qX c #87E9D2",
"wX c #8DEDD3",
"eX c #93F2D4",
"rX c #9BF6D2",
"tX c #9EFAD4",
"yX c #A0FBD4",
/* pixels */
"4X4X4X4X4X4X4X4X4X4X4X4X4X4X4X4X4X4X4X4X4X4X4X4X4X4X4X4X4X4X4X2X2X4X4X4X4X4X4X4X4X4X4X4X4X4X4X4X4X4X4X4X4X4X4X4X4X4X4X4X4X4X4X4X",
"4X4X4X4X4X4X4X4X4X4X4X4X4X4X4X4X4X4X4X4X4X4X4X4X4X4X4X4X4X2X}.,.,.2X4X4X4X4X4X4X4X4X4X4X4X4X4X4X4X4X4X4X4X4X4X4X4X4X4X4X4X4X4X4X",
"4X4X4X4X4X4X4X4X4X4X4X4X4X4X4X4X4X4X4X4X4X4X4X4X4X4X4X4X2XoX,.s d [.2X4X4X4X4X4X4X4X4X4X4X4X4X4X4X4X4X4X4X4X4X4X4X4X4X4X4X4X4X4X",
"4X4X4X4X4X4X4X4X4X4X4X4X4X4X4X4X4X4X4X4X4X4X4X4X4X4X4X4X2Xs 7.$Xd.d :.2X4X4X4X4X4X4X4X4X4X4X4X4X4X4X4X4X4X4X4X4X4X4X4X4X4X4X4X4X",
"4X4X4X4X4X4X4X4X+X+X+X4X4X4X4X4X4X4X4X4X4X4X4X4X4X4X4X4X4Xi 7.3Xh.d :.4X4X4X2X2X4X4X4X4X4X4X4X4X4X4X4X4X4X4X4X4X4X4X4X4X4X4X4X4X",
"4X4X4X4X4X4X4XOXF.D.F.OX4X4X4X4X4X4X4X4X4X4X4X4X4X4X4XOX4.<.E.#Xh.! ( K.4XOXF.D.OX4X4X4X4X4X4X4X4X4X4X4X4X4X4X4X4X4X4X4X4X4X4X4X",
"4X4X4X4X4X4X4XL.D.D.D.L.4X4X4X4X4X4X4X4X4X4X4X4X4X4X+XI.q 3X#X%Xh.h.~ i OXL.D.D.L.+X4X4X4X4X4X4X4X4X4X4X4X4X4X4X4X4X4X4X4X4X4X4X",
"4X4X4X4X4X4X4X+X+X+X+X+X4X4X4X4X4X4X4X2X4X4X4X4X4Xr r y q 3X#Xh.h.r.z q e w F +X+X4X4X4X4X+X+X4X4X4X4X4X4X4X4X4X4X4X4X4X4X4X4X4X",
"4X4X4X4X4X4X4X4X4X4X4X4X4X4X4X4X4X4XJ J 2.2X<.J J &.&.C q @X*Xh.h.e.c t n m C J J [.+XJ J A F.OX4X4X4X4X4X4X4X4X4X4X4X4X4X4X4X4X",
"4X4X4X4X4X4X4X4X4X4X4X4X4X4X4X4X+X{.g g Z }.C g h 3.3.*.e p.a.d.d.T z i J J C i i ,.I.i u v H L.2X4X4X4X4X4X4X4X4X4X4X4X4X4X4X4X",
"4X4X4X4X4X4X4X4X4X4X4X4X4X4X4X4XP.r P.P.:.w ,.P.4.&.J J ^ w ! d.e.t h J K J J J J h i K J m r +X4X4X4X4X4X4X4X4X4X4X4X4X4X4X4X4X",
"4X4X4X4X4X4X4X4X4X4X4X4X4X4X4X4XP.w J J J J g k ;.F g g J w ! d.e.t h A w m H J i v F J J m r +X4X4X4X4X4X4X4X4X4X4X4X4X4X4X4X4X",
"4X4X4X4X4X4X4X4X4X4X4X4X4X4X4X[.F m J H J J i v ^ J m M D b ! t.c x b A b A J J u n J J J m i 6.XX4X4X4X4X4X4X4X4X4X4X4X4X4X4X4X",
"4X4X4X4X4X4X4X4X4X2XXXXX}.OXXXF n P.K F S J g h J J G.) x H./ N N G./ B u.S.H H u n H F F C h w P.XXXXXXXXXX4X4X4X4X4X4X4X4X4X4X",
"4X4X4X4X4X4X4X4X4X{.i i u u u y k P.K h i K J D N H.Y.J.~ Y.Q.Q.W.Q.u.t.Q.H.y.M F J F q h k k w y r y r i n 4X4X4X4X4X4X4X4X4X4X",
"4X4X4X4X4X4X4X4XP.F g g g g g s h m J C n g M G ! U.W./.s./.^./././.W.s./.Q.y.G V b g g k h i g g g g g h v ,.2X4X4X4X4X4X4X4X4X",
"4X4X4X4X4X4X4X{.K k m C m m m m k i m F F g G ~ y.~./././.h./.h././././././.U.t.! M d k h h j m m m m m C n w <.XX4X4X4X4X4X4X4X",
"4X4X4X4X4X4X4Xi J 6.J J K J J J S k q k ( G.Q.W.f.^.h.g.g.g.g.g.g.g.h.g.g./.g.g.W.Y.G.k w m P.J K K J K J F k u :.4X4X4X4X4X4X4X",
"4X4X4X4X4X4X2Xy J 6.6.6.6.6.P.6.6.6.q B H.Q././.s.f.1XtXtX9XtX9XrXrXrXrXtX*Xs.s.).W.T.^ i n P.6.P.P.P.P.P.6.6.h :.4X4X4X4X4X4X4X",
"4X4X4X4X4X}.<.F J *.*.*.*.*.*.*.K *.k ^ u.~.g.*X>X>XZ.A.0XrXtXrXA.A.wX9X0X5X>X>X(./.W.^ ^ ^ *.*.*.*.*.K *.&.*.j C <.2X4X4X4X4X4X",
"4X4X4X4X4XK.q P.J j k n n n n k C A ( t.y.|.h.>XeXeXZ.v.z.wXeXqXl.l.m.eXl.A.eXeX*X(.g.t.!.J.k n m k n n m n C m g r OX4X4X4X4X4X",
"4X4X4X4X2XP.q P.J m J J J J J J >.R.u.p.g.f.8XA.c.l.wXwXl.c.l.c.l.l.l.l.l.c.c.l.eX>Xs.s.'.Q.^ J J J J K J K P.S g r oX4X4X4X4X4X",
"4X4X4X4X2XP.q P.J k K s i i i ^ J.]./.g.|.8XC.N.c.eXZ.b.z.l.l.c.l.l.l.l.l.l.n.eXn.6X7Xs.-X'.u.1.n i i i n ;.I.S g w +X4X4X4X4X4X",
"4X4X4X4X+X3.q P.F n K h h k j ( Y.].(.g.*XtX0XB.c.tXV.l.l.l.l.l.l.l.N.C.l.l.b.qXc.0XeXs.-X'.u.H.n d g g m K P.S g y +X4X4X4X4X4X",
"4X4X4XOXF.H y F.J m J ;.>.H.H.H.!.].)./.%XyXtX0Xc.rXV.l.l.l.l.l.v.l.A.eXl.z.l.l.z.0XeXg.-X&Xi.H.;.( J J J :.I.Z g w +X4X4X4X4X4X",
"4X4X2XL.D.S.F.i K P.[.`.].].].].].].(.g.%XyXn.A.rXv.c.l.l.z.l.v.rXv.M.v.l.z.l.l.c.c.b.9X%X).;X].`.[.P.5.P.6.6.Z g r oX4X4X4X4X4X",
"4X4X4X+X+X+X+Xy D 1.T.).^.W.).'.^.Q.~.=X6XZ.c.A.tXl.l.l.l.l.C.qXZ.l.l.l.l.l.l.l.l.l.v.yX%X/.&XT.H.>.J Z J Z J g Z I.+X4X4X4X4X4X",
"4X4X4X4X4X4X4Xy D ) p.%X/.T.&X&X~.p.f.,XwXz.c.Z.eXl.l.l.l.l.A.qXl.l.l.l.z.l.l.l.b.v.v.yX%X~.).i./ V j j k C k r :.4X4X4X4X4X4X4X",
"4X4X4X4X4X4X4XN U.].(.9X1X=XtX1X-X|.f.,XwXc.l.c.l.l.c.z.l.l.l.l.l.l.l.l.l.l.l.c.eXA.c.tX%X).;Xi.W d q q Z 3.k u ,.4X4X4X4X4X4X4X",
"4X4X4X4X4X4X4XB Y.@X(.9X9X9X-X-X X(.f.,XwXc.l.l.l.l.l.l.l.eXA.l.l.l.l.v.eXC.l.l.N.0XrXyX%X|.:Xi.) >.D y S 3.h r :.4X4X4X4X4X4X4X",
"4X4X4X4X4X4X4XB Y.]./.rXtXtX1X:X-X(.f.,XrX0Xc.c.l.l.l.v.A.A.V.l.l.l.v.l.A.b.l.l.l.0XtXtX%X).;Xu.H.( h j K 3.h r :.4X4X4X4X4X4X4X",
"4X4X4X4X4X4X4XM J.]./.8X9X9X9X<X-X(.f.,XtXyXb.c.l.l.l.n.tXv.l.l.l.v.v.v.l.l.l.l.l.A.rXtX%X).;Xu.H.( y F <.3.k r :.4X4X4X4X4X4X4X",
"4X4X4X4X4X4X4Xy ( !.u.&X=X&X-X-X@X(.f.,XtXtXV.l.l.l.l.n.tXv.c.c.l.eXrXeXl.l.l.l.c.c.b.tX%X).;Xi.H.1.F K ,.3.h r :.4X4X4X4X4X4X4X",
"4X4X4X4X4X4X4Xw &.K./ y.y.y.Q Q. X(.f.,XeXn.l.l.l.c.A.qXb.c.l.N.eXtXyXtXeXV.l.c.l.l.v.tX%X).:Xi.! M i u J 3.j r :.4X4X4X4X4X4X4X",
"4X4X4X4X4X4X4Xw &.3.^ / / ~ x U.].(.f.,XwXl.l.l.l.c.wXwXl.l.c.N.tXtXtXtXtXC.l.l.l.l.v.yX%X).:Xi.Q b i w F 3.j u :.4X4X4X4X4X4X4X",
"4X4X4X4X4X4X4Xe &.2.k ( G.G.N U.'.(.f.,XwXl.l.z.c.c.wXeXl.l.c.b.tXtXtXtXtXA.c.l.l.c.v.yX%X|.:Xi.Q M F y S 3.j r :.4X4X4X4X4X4X4X",
"4X4X4X4X4X4X4Xw &.2.k i B H.G._.'.(.f.,XqXc.z.z.c.eXtXeXl.l.A.rXyXb.A.tXtXrXqXl.l.l.v.yX%X|.:Xi.G l y C ,.3.k r ,.4X4X4X4X4X4X4X",
"4X4X4X4X4X4X4Xw &.2.k w i B ^ Q.'.(.f.,XeXM.A.B.v.tXtXwXl.l.A.rXA.v.b.0XtXtXwXl.l.l.v.yX%X).:Xi./ V n h J K.k r :.4X4X4X4X4X4X4X",
"4X4X4X4X4X4X4Xe &.2.j i w y B Y.].(.f.,XqXz.qXA.c.tXtXwXl.l.A.qXz.c.l.v.tXtXqXl.l.N.n.tX%X).:Xi.u.( A q S 3.h u *.4X4X4X4X4X4X4X",
"4X4X4X4X4X4X2Xe &.2.k F n u H._.'.(.f.,XeXz.c.c.c.yXyXwXl.c.l.l.l.l.l.v.tXtXqXl.l.0XtXtX%X).:Xi.V d w q Z 3.h u m OX4X4X4X4X4X4X",
"4X4X4X4X4X4X4Xy &.2.j J F A H._.'.(.f.,XrXwXb.l.c.tXtXwXz.l.Z.0Xl.l.c.v.tXtXqXl.l.b.m.tX%X).;Xi.) ( m C :.3.j u v L.4X4X4X4X4X4X",
"4X4X4X4X4X4X4Xy J 2.k k n n G._.'.(.g.,XtXyXb.l.v.tXtXeXl.z.C.0XC.c.N.Z.tXeXZ.l.l.l.v.yX%X|.;Xu.H.1.D m :.3.j e K 2X4X4X4X4X4X4X",
"4X4X4X4X4X4X2Xw &.2.k w e i u._.'.(.f.,XtXrXb.l.c.rXrXeXv.c.l.b.rXv.A.tXtXC.l.l.l.l.v.yX%X).;Xi.y.( x t F 3.j e :.4X4X4X4X4X4X4X",
"4X4X4X4X4X4X4Xy &.3.k w h F x U.'.(.f.,XwXc.l.c.l.c.wXtXtXc.l.l.c.l.A.tXtXZ.l.l.l.l.v.yX%X|.:Xi.G V H.x ;.3.j i :.4X4X4X4X4X4X4X",
"4X4X4X4X4X4X4Xw &.2.k w u h x Y.'.(.f.,XeXz.l.l.c.l.wXtXtXv.l.l.z.0XeXrXZ.N.l.l.l.Z.wXyX%X).;Xi.G N y.y.J.L.k e :.4X4X4X4X4X4X4X",
"4X4X4X4X4X4X4Xw &.2.k i i i G Y.'.(.f.,XwXl.l.N.b.l.0XeXtXm.b.n.n.eXrXqXl.l.l.l.l.0XtXtX%X).:Xi.~ ~ y.W._.R.n s :.4X4X4X4X4X4X4X",
"4X4X4X4X4X4X+Xw &.2.k F H ;.H._.'.(.f.,XeXl.l.A.tXl.l.V.tXyXtXtXyXtX0Xl.z.l.l.l.l.0XtXyX%X|.;Xi.).-X-X&X-X].^ s :.4X4X4X4X4X4X4X",
"4X4X4X4X4X4X2Xw &.2.k F n s H._.'.(.f.,XwXl.l.A.tXl.c.c.b.tXtXtXtXZ.c.c.l.l.l.l.l.N.V.tX|.).:X/.<X9X9XeX<X-X^ s :.4X4X4X4X4X4X4X",
"4X4X4X4X4X4X2Xw J <.k J C k ! Q.'.(.f.,XwXl.l.V.A.A.N.v.l.A.A.A.A.v.l.l.l.l.l.z.l.c.v.yX|.@X:X(.7XtXtX,X;X].) M <.2X4X4X4X4X4X4X",
"4X4X4X4X4X4X4Xy K 3.k Z F F M Y.'.).f.,XeXc.l.l.c.tXV.l.l.l.l.l.l.l.c.N.z.l.l.v.c.l.v.yX%X%X:X(.7XtX9X;X-X].y.W K.4X4X4X4X4X4X4X",
"4X4X4X4X4X4X4Xy K 2.k w w w x U.'.(.a.,XtXeXV.l.c.tXC.l.l.l.l.c.l.l.Z.eXl.l.Z.rXv.l.v.yX%X).:X(.7X9X=X9X1X;Xy.W K.4X4X4X4X4X4X4X",
"4X4X4X4X4X4X2Xy *.2.k m m n = , Y ).d.>XeXn.v.z.c.n.qXA.l.l.l.l.l.z.v.V.l.l.m.tXv.c.v.tXh./.:Xs.&X/., a a a i.E J.2X4X4X4X4X4X4X",
"4X4X2X4X8.5.-.y J 3.J f f f @ + > E E _ d.c.c.l.l.l.Z.A.l.l.l.l.l.l.l.l.l.n.Z.qXv.l.x.a.E E _ p.) Y   # + = ) b f 5.2X4X4X4X4X4X",
"4X4X2X+X0 + X q J 6.P.* X + ` @ .       p k.k.k.l.l.l.l.l.c.c.c.l.l.l.z.l.qXqXl.l.k.j.      + 7.,   O L < * ! ; + + +X2X4X4X4X4X",
"4X4X+X; 4 8 7 * + * * 4 | +.` @ X   X X X = = r.M.l.l.c.l.eXA.l.l.l.l.l.l.v.v.l.l.R *   X # L =   + L ` : X * 2 1 * oX2X4X4X4X4X",
"4X4X4X5.0 2 ` 2 2 3 1 o.@.#.` 5 #   X : : X   > T x.c.l.l.n.A.qXqXv.l.l.l.l.l.l.l.T X   # 3 L 3 2 L o.# 1 3 2 L 2 + +X4X4X4X4X4X",
"4X4X4X2Xf - P ] ] ` L #.0.$.] ' 2 o   $ 4 +   * > M.z.z.c.M.Z.eXeXN.c.z.l.z.z.z.c.R ;   4 L L ] ] [ 9.@ 2 ] ] ' 2 * [.+X2X4X4X4X",
"4X4X4X+Xf < ' q.q.@.` $.q.q.0...` P     + ` @ R x.M.x.x.c.x.x.x.x.x.c.c.x.c.x.x.x.qX1X  5 L L w.q.+.` ` X.q.q.| P P + 4.2X2X2X4X",
"4X4X+X9 5 } #.0.w.$.@.$.q.q.q.#.#.+.5 5 6 ` 5 I U U U U U U U U U U U U U U U U U U %.5 P [ @.w.q.0.9.@.0.q.q.9.X.P 5 { %.9 oX2X",
"2X}.=.: ] O.q.q.q.q.w.w.q.w.w.$.$.q.X.X...X... .X. .........X.X.........X. .X. ...........o.w.w.q.q.q.q.q.q.q.q.+.......] P =..X",
"2X=.+ ` +.q.q.$.q.q.q.0.0.0.0.q.q.q.q.q.q.q.q.q.#.0.0.0.$.q.w.q.0.0.0.0.0.0.0.0.w.w.w.$.0.0.0.0.q.0.q.q.q.q.0.0.0.w.q.0.$.$.# =.",
"9 1 ` $.q.q.q.' O.q.q.] ` ` ' O.q.q.q.q.q.q.q.X.' ' ` ' ' $.q.#.` ` ` ` ` P ' ' #.0.$.` ` ` ` ' +.q.q.q.X.` ' ' X.q.w...' ' ` < ",
"4 5 ' $.q.+...` o.#.X.` 4 $ P } o.q.q.q.q.X.X.8 : : # # #  .O.#.P < @ : : 4 ` 8 #.O. .` < # @ ` [ o.w.w.} < ` P X.0.X.] 5 : 6 : ",
"5 6 6 $.@.X.P 4 | X.P 3 - O 5 6 } o.q.9.X.3 4 - % & % % o 2 } o.2 - & & % < 4 4 o. .8 4 + . . 4 6 } @.q.` + P 3 { o.5 6 2 X 2 0 "
};
