/* XPM */
static char *result[] = {
/* columns rows colors chars-per-pixel */
"64 64 164 2 ",
"   c #40441C",
".  c #454D1A",
"X  c #484F1B",
"o  c #4A521B",
"O  c #51561D",
"+  c #545B1D",
"@  c #5C621F",
"#  c #60651E",
"$  c #464321",
"%  c #4B4521",
"&  c #464C26",
"*  c #4A4C20",
"=  c #524C21",
"-  c #4D5323",
";  c #4E542C",
":  c #565829",
">  c #5A5E2F",
",  c #4D5139",
"<  c #5B5F32",
"1  c #5C5F3C",
"2  c #5C6221",
"3  c #5F6333",
"4  c #626621",
"5  c #666A22",
"6  c #6A6F24",
"7  c #66692D",
"8  c #6C692A",
"9  c #6D7225",
"0  c #727526",
"q  c #767927",
"w  c #797C27",
"e  c #727629",
"r  c #757929",
"t  c #7B7E28",
"y  c #656831",
"u  c #636639",
"i  c #6F703D",
"p  c #4F524B",
"a  c #52544C",
"s  c #56584F",
"d  c #4D5650",
"f  c #565750",
"g  c #565A51",
"h  c #5B5C52",
"j  c #5E6156",
"k  c #5B6458",
"l  c #646540",
"z  c #6D6D43",
"x  c #64664B",
"c  c #696A4C",
"v  c #767649",
"b  c #616256",
"n  c #696A54",
"m  c #656559",
"M  c #68675A",
"N  c #6B695C",
"B  c #706E5F",
"V  c #7D7A59",
"C  c #4A6A65",
"Z  c #48706D",
"A  c #6E6D61",
"S  c #6E6E69",
"D  c #716F62",
"F  c #747264",
"G  c #797566",
"H  c #7B7A66",
"J  c #75736A",
"K  c #797768",
"L  c #7D7A6B",
"P  c #7D7C75",
"I  c #827F55",
"U  c #817F61",
"Y  c #817D6E",
"T  c #837E70",
"R  c #7E8129",
"E  c #5F8878",
"W  c #63816E",
"Q  c #678673",
"!  c #828227",
"~  c #82842A",
"^  c #8A892B",
"/  c #93922F",
"(  c #98962F",
")  c #8F8933",
"_  c #87873B",
"`  c #959330",
"'  c #999732",
"]  c #9D9933",
"[  c #A39E35",
"{  c #A6A236",
"}  c #AAA537",
"|  c #ACA639",
" . c #AEA938",
".. c #B2AB39",
"X. c #B7B13D",
"o. c #BBB33D",
"O. c #C2B73E",
"+. c #C5BB3F",
"@. c #928F47",
"#. c #929047",
"$. c #88845C",
"%. c #86826E",
"&. c #88836F",
"*. c #8D8968",
"=. c #9B936C",
"-. c #878270",
";. c #898471",
":. c #8F8A75",
">. c #88887B",
",. c #928C77",
"<. c #948E79",
"1. c #988F79",
"2. c #889972",
"3. c #9F9770",
"4. c #97917B",
"5. c #9C947D",
"6. c #9F987F",
"7. c #A59C75",
"8. c #A0977F",
"9. c #A29A7E",
"0. c #A99F7C",
"q. c #C1B740",
"w. c #C6BC40",
"e. c #CABF41",
"r. c #CBC042",
"t. c #438381",
"y. c #478A86",
"u. c #70A387",
"i. c #72A58A",
"p. c #6BAC94",
"a. c #7AB797",
"s. c #7BBC9B",
"d. c #898782",
"f. c #8B8984",
"g. c #928E86",
"h. c #9E9780",
"j. c #9F9880",
"k. c #9C968A",
"l. c #A29A81",
"z. c #A89E84",
"x. c #ADA285",
"c. c #AFA389",
"v. c #B2A782",
"b. c #B6AA86",
"n. c #B0A489",
"m. c #B6AA8D",
"M. c #B9AC8F",
"N. c #BDB194",
"B. c #C3B595",
"V. c #C7B895",
"C. c #CBBC97",
"Z. c #C5B79A",
"A. c #C7B898",
"S. c #CCBD9C",
"D. c #83C29B",
"F. c #91CA9D",
"G. c #9CD19C",
"H. c #AFCA8A",
"J. c #B0CA8B",
"K. c #A2CA93",
"L. c #B3E29E",
"P. c #D3C29F",
"I. c #D7C6A2",
"U. c #CFF2A2",
/* pixels */
"I.I.I.I.I.I.I.I.I.I.I.I.I.I.I.I.I.I.I.I.I.I.I.I.I.I.I.I.I.I.I.P.P.I.I.I.I.I.I.I.I.I.I.I.I.I.I.I.I.I.I.I.I.I.I.I.I.I.I.I.I.I.I.I.",
"I.I.I.I.I.I.I.I.I.I.I.I.I.I.I.I.I.I.I.I.I.I.I.I.I.I.I.I.P.P.z.,.4.P.P.I.I.I.I.I.I.I.I.I.I.I.I.I.I.I.I.I.I.I.I.I.I.I.I.I.I.I.I.I.",
"I.I.I.I.I.I.I.I.I.I.I.I.I.I.I.I.I.I.I.I.I.I.I.I.I.I.I.I.P.B.H k k N.P.I.I.I.I.I.I.I.I.I.I.I.I.I.I.I.I.I.I.I.I.I.I.I.I.I.I.I.I.I.",
"I.I.I.I.I.I.I.I.I.I.I.I.I.I.I.I.I.I.I.I.I.I.I.I.I.I.I.I.P.h H.L.a.j 5.P.I.I.I.I.I.I.I.I.I.I.I.I.I.I.I.I.I.I.I.I.I.I.I.I.I.I.I.I.",
"I.I.I.I.I.I.I.I.S.S.S.I.I.I.I.I.I.I.I.I.I.I.I.I.I.I.I.I.S.a J.L.s.d h.I.I.I.P.S.I.I.I.I.I.I.I.I.I.I.I.I.I.I.I.I.I.I.I.I.I.I.I.I.",
"I.I.I.I.I.I.I.Z.g.f.g.Z.I.I.I.I.I.I.I.I.I.I.I.I.I.I.I.M.6.2.K.G.s.Q >.z.I.A.g.f.Z.I.I.I.I.I.I.I.I.I.I.I.I.I.I.I.I.I.I.I.I.I.I.I.",
"I.I.I.I.I.I.P.k.f.f.f.k.P.I.I.I.I.I.I.I.I.I.I.I.I.P.P.;.s U.F.s.s.s.W D S.k.f.f.k.S.I.I.I.I.I.I.I.I.I.I.I.I.I.I.I.I.I.I.I.I.I.I.",
"I.I.I.I.I.I.I.S.S.S.S.S.I.I.I.I.I.I.I.I.I.I.I.I.n.g f s h U.F.s.s.y.C p f g ,.S.S.I.I.I.I.S.P.I.I.I.I.I.I.I.I.I.I.I.I.I.I.I.I.I.",
"I.I.I.I.I.I.I.I.I.I.I.I.I.I.I.I.I.S.Y Y z.I.;.%.%.%.%.m g G.D.s.s.t.Z p A D L Y Y N.M.Y Y T g.Z.I.I.I.I.I.I.I.I.I.I.I.I.I.I.I.I.",
"I.I.I.I.I.I.I.I.I.I.I.I.I.I.I.I.A.c.b b &.m.A b D h.5.G h i.a.s.p.E C k T L A g h 6.1.h h S P k.P.I.I.I.I.I.I.I.I.I.I.I.I.I.I.I.",
"I.I.I.I.I.I.I.I.I.I.I.I.I.I.I.I.5.h l.l.Y a 5.9.4.L P Y P d u.p.t.d A Y P L L L T b m Y T b m S.P.I.I.I.I.I.I.I.I.I.I.I.I.I.I.I.",
"I.I.I.I.I.I.I.I.I.I.I.I.I.I.I.I.,.g -.-.Y L g F %.P h A L p u.p.t.d A F f L T L a A L Y Y b N P.I.I.I.I.I.I.I.I.I.I.I.I.I.I.I.I.",
"I.I.I.I.I.I.I.I.I.I.I.I.I.I.I.l.L F L T L Y f A Y Y M N A b Q Q Z k M A b L Y L p F P Y Y m m z.S.I.I.I.I.I.I.I.I.I.I.I.I.I.I.I.",
"I.I.I.I.I.I.I.I.I.S.B.B.N.Z.Z.h G h.L L L P f A L L P m a Y b a f Y m h T P L J s F L L L D N s c.B.B.B.B.C.I.I.I.I.I.I.I.I.I.I.",
"I.I.I.I.I.I.I.I.I.1.h h g g g p G 6.T h m Y T b j -.%.m a Y Y Y L T m h T T M f L T A a N N N p f f h h h Y I.I.I.I.I.I.I.I.I.I.",
"I.I.I.I.I.I.I.I.5.F b b b b b b m F P F N b k g h L G M b D D D D D M m F L M a k b b b N h g b b b j j b D f.I.I.I.I.I.I.I.I.I.",
"I.I.I.I.I.I.I.c.Y N B D D D D D m h D Y D h b f h G M b b m m b b m m m b G m a b h m N m m N D D D D D D N b z.A.I.I.I.I.I.I.I.",
"I.I.I.I.I.I.A.a :.<.Y Y Y T Y T G N p D Y Y L b h N h h h h h h s h h h h N h s L Y G N a Y h.Y Y T Y T Y Y N a 8.I.I.I.I.I.I.I.",
"I.I.I.I.I.P.A.a ,.0.l.l.l.l.l.0.8.1.p D Y T D g a f m.S.S.S.S.S.S.S.S.S.A.m a a N L G N a Y 0.l.l.l.l.l.l.9.5.s 5.P.I.I.I.I.I.I.",
"I.I.I.I.I.m.,.G T T T T T &.T &.T Y h m A D b Y 1.1.A.I.I.I.I.I.I.I.I.I.S.8.,.:.b N N h G Y T &.T ;.T T &.T Y b Y 8.I.I.I.I.I.I.",
"I.I.I.I.I.:.f z.G N D A A A A D B B N h h m D n.I.I.I.I.I.I.I.I.I.I.I.I.I.I.I.S.A m h a 1.Y N B B B B B D D F N h N I.I.I.I.I.I.",
"I.I.I.I.P.,.h l.G J Y Y Y Y Y T ,.8.M f p a B.I.I.I.I.I.I.I.I.I.I.I.I.I.I.I.I.I.I.G a s 1.Y N Y T T Y Y Y T 8.D h B I.I.I.I.I.I.",
"I.I.I.I.P.,.s z.G F Y h h h h K ,.5.N f K m.I.I.I.I.I.I.I.I.I.I.I.I.I.I.I.I.I.I.I.B.,.a 1.Y A Y m h h f G :.l.B h B I.I.I.I.I.I.",
"I.I.I.I.S.;.g l.G D Y m b b b Y ,.5.m h ;.I.I.I.I.I.I.I.I.I.I.I.I.I.I.I.I.I.I.I.I.P.l.a <.Y N Y M m b m Y T l.N h N I.I.I.I.I.I.",
"I.I.I.A.g.S b l.G F T T Y T Y Y ,.5.N h ;.I.I.I.I.I.I.I.I.I.I.I.I.I.I.I.I.I.I.I.I.I.n.b 1.U A Y T T Y Y T ;.8.D h B I.I.I.I.I.I.",
"I.I.S.k.d.d.f.s :.6.l.l.l.l.l.l.l.5.m h T I.I.I.I.I.I.I.P.P.I.I.I.I.I.I.I.I.I.I.I.I.P.B.N Y h.l.l.l.l.l.l.l.l.B h N I.I.I.I.I.I.",
"I.I.I.S.S.S.B.p D U Y H Y H U L U G h ,.B.P.I.I.I.I.I.I.Z.k.Z.I.I.I.I.I.I.I.I.I.I.I.I.S.b D Y U Y G Y U Y H U h ;.n.I.I.I.I.I.I.",
"I.I.I.I.I.I.A.a N B N m N N m D D m p c.I.I.I.I.I.I.I.S.k.f.k.P.I.I.I.I.I.I.I.I.I.I.I.S.m M B N m m m m B B N a 8.I.I.I.I.I.I.I.",
"I.I.I.I.I.I.A.a :.-.N p D D a 5.T M a n.I.I.I.I.I.I.I.I.S.S.P.I.I.I.I.I.I.I.I.I.I.I.I.S.m Y 5.N f a a p :.,.m a 8.I.I.I.I.I.I.I.",
"I.I.I.I.I.I.A.p ,.-.N p a b K h.T m a x.I.I.I.I.I.I.I.I.I.I.I.I.I.I.I.I.I.I.I.I.I.I.I.P.m Y 5.N G G G a ,.,.N a 8.I.I.I.I.I.I.I.",
"I.I.I.I.I.I.S.p :.-.N p a f M 5.&.M a n.I.I.I.I.I.I.I.I.I.I.I.I.I.I.S.P.I.I.I.I.I.I.P.S.m T 5.M L F m m ,.,.N a 8.P.I.I.I.I.I.I.",
"I.I.I.I.I.I.S.a ,.-.N s f s f 5.&.M a x.I.I.I.I.I.I.I.I.I.I.I.I.I.Z.g.g.A.I.I.I.I.I.I.S.m T 5.M L A h Y 5.,.m a 8.I.I.I.I.I.I.I.",
"I.I.I.I.I.I.A.a ,.-.M T L P L h.Y N a c.I.I.I.I.I.I.I.I.I.I.I.I.S.k.d.f.k.S.I.I.I.I.I.S.b &.5.N L Y Y Y 5.,.m a 6.I.I.I.I.I.I.I.",
"I.I.I.I.I.I.A.p :.;.M h g h h 5.&.m a n.I.I.I.I.I.I.I.I.I.I.I.I.I.P.S.S.S.I.I.I.I.I.I.P.m &.5.N h g g h ,.,.N a 6.I.I.I.I.I.I.I.",
"I.I.I.I.I.I.Z.a :.-.M h h g p 5.&.N s n.I.I.I.I.I.I.I.I.I.I.I.I.I.I.I.I.I.I.I.I.I.I.I.S.m %.5.M a s h a :.,.N a 6.I.I.I.I.I.I.I.",
"I.I.I.I.I.I.S.p :.;.M L T G a 5.T m f M.I.I.I.I.I.I.I.I.I.I.I.I.I.I.I.I.I.I.I.I.I.I.I.S.m %.4.M a b L s ,.,.m a 6.I.I.I.I.I.I.I.",
"I.I.I.I.I.I.C.a :.;.M g D T L h.&.M a n.I.I.I.I.I.I.I.I.I.I.I.I.I.I.I.I.I.I.I.I.I.I.I.P.m %.4.N s a f L 4.,.M s 8.I.I.I.I.I.I.I.",
"I.I.I.I.I.I.C.p :.;.M p k M M h.&.M a n.I.I.I.I.I.I.I.I.I.I.I.I.I.I.I.I.I.I.I.I.I.I.I.P.m Y 5.N M m A m ,.,.m s 8.I.I.I.I.I.I.I.",
"I.I.I.I.I.I.A.a ,.&.M h a a g 5.&.m a n.I.I.I.I.I.I.I.I.I.I.I.I.I.I.I.I.I.I.I.I.I.I.P.S.m Y 5.N J K F a :.,.M a 1.I.I.I.I.I.I.I.",
"I.I.I.I.I.I.C.p :.&.N P j h Y j.&.m p n.I.I.I.I.I.I.I.I.I.I.I.I.I.I.I.I.I.I.I.I.I.I.I.P.b %.5.N s p p p :.,.M a P Z.I.I.I.I.I.I.",
"I.I.I.I.I.I.S.a :.;.N L K G Y j.T M a n.P.I.I.I.I.I.I.I.I.I.I.I.I.I.I.I.I.I.I.I.I.I.I.I.m Y 5.N D F J D 1.,.N a J k.S.I.I.I.I.I.",
"I.I.I.I.I.I.A.a :.;.M D D D Y j.&.M a n.I.I.I.I.I.I.I.I.I.I.I.I.I.I.I.I.I.I.I.I.I.I.I.P.m &.5.n L K A A 1.,.N a 1.S.I.I.I.I.I.I.",
"I.I.I.I.I.I.S.a :.;.M p p j K j.&.M p n.I.I.I.I.I.I.I.I.I.I.I.I.I.I.I.I.I.I.I.I.I.I.I.P.m T 5.m K A s p ;.1.m a l.I.I.I.I.I.I.I.",
"I.I.I.I.I.I.V.a :.;.N a D J p 5.&.M a n.I.I.I.I.I.I.I.I.I.I.I.I.I.I.I.I.I.I.I.I.I.I.I.S.m T 5.N f b K p :.,.N s h.I.I.I.I.I.I.I.",
"I.I.I.I.I.I.S.p :.%.M a h h a 4.T m a n.I.I.I.I.I.I.I.I.I.I.I.I.I.I.I.I.I.I.I.I.I.I.I.S.A P 5.N f f k D ,.,.N a 8.I.I.I.I.I.I.I.",
"I.I.I.I.I.I.A.p ,.&.M h h h h 5.&.N a n.I.I.I.I.I.I.I.I.I.I.I.I.I.I.I.I.I.I.I.I.I.I.P.S.m Y 5.m h h h P 5.,.m a 8.I.I.I.I.I.I.I.",
"I.I.I.I.I.I.B.a :.%.N Y Y Y Y 8.&.M a n.I.I.I.I.I.I.I.I.I.I.I.I.I.I.I.I.I.I.I.I.I.Z.k.N.m Y 6.N L Y Y Y 5.,.N a 8.I.I.I.I.I.I.I.",
"I.I.I.I.I.I.A.p ,.&.N Y m m Y 8.&.M a n.I.I.I.I.I.I.I.I.I.I.I.I.I.I.I.I.I.I.I.I.P.k.f.g.b Y 5.N h h g g ,.,.m a 8.I.I.I.I.I.I.I.",
"I.I.I.I.I.I.S.p :.-.N Y D A m 5.&.N a n.I.I.I.I.I.I.I.I.I.I.I.I.I.I.I.I.I.I.I.I.I.P.S.Z.m %.4.N s p a A <.,.M a l.I.I.I.I.I.I.I.",
"I.I.I.I.I.I.A.a ,.;.N K L D p 5.Y N a c.I.I.I.I.I.I.I.I.I.I.I.I.I.I.I.I.I.I.I.I.I.I.I.S.m Y 5.M s a s F 1.,.M f 6.I.I.I.I.I.I.I.",
"I.I.I.I.I.I.A.p :.&.M s a a a 5.&.m f n.I.I.I.I.I.I.I.I.I.I.I.I.I.I.I.I.I.I.I.I.I.I.I.S.m %.5.N f k G * *.,.N a 5.I.I.I.I.I.I.I.",
"I.I.I.I.I.I.Z.p :.&.N D F b & < x m p n.I.I.I.I.I.I.I.I.I.I.I.I.I.I.I.I.I.I.I.I.I.I.I.S.1 I 5.N D x > 9 3 u N s l.I.I.I.I.I.I.I.",
"I.I.P.I.7.3.3.p :.,.Y c c l @ . ; 1 , I b.I.I.I.I.I.I.I.I.I.I.I.I.I.I.I.I.I.I.I.I.I.B.=.7 v V D n u 2 ~ + ; N , V 0.I.I.I.I.I.I.",
"I.I.P.C.y X X a *.5.5.. X + ~ o . . . . I C.C.P.I.I.I.I.I.I.I.I.I.I.I.I.I.I.I.I.I.S.=.. t + o Y ; 2 ~ R + ; b o . u P.I.I.I.I.I.",
"I.I.v.> r w e   - - - w [  .R . # w t + - > < 0.S.S.S.I.I.I.I.I.I.I.I.I.I.I.I.I.P.I 7 w t t 0 - 0 ( o.! + . X r : y I.I.I.I.I.I.",
"I.I.A.7.y 0 ! 6 9 9 9 | O.X.R ' [ { + 6 # 6 6 i B f.g.Z.I.I.I.I.I.I.I.I.I.I.I.I.I.v @ ~ } ..{ 6 [ X.q.@ 5 6 6 R 4 u I.I.I.I.I.I.",
"I.I.I.P.3 5 ~ ^ ^ ! ! e.+.X.^ +.+...O 9 ! ! w 4 x f.f.k.P.I.I.I.I.I.I.I.I.I.I.I.I.I 7 t X.w.O.^ O.+.X.o w ^ ~ ! 4 < m.P.I.I.I.I.",
"I.I.I.P.3 6 ^ r.r.{ ! e.r.r.r.e.{ ^ r.9 : ! o =.A.A.S.A.P.P.P.P.P.I.S.I.I.P.S.I.P.P.3.. w ..e.e.+. .! ~ o.r.w.^ R r X v.P.P.I.I.",
"I.I.v.u e ' o.r.r.+.o.e.e.e.+.r.+.O.+.o.X.O.w _ #.#.@.@.#.@.#.#.@.@.@.@.@.@.@.@.@.@._ q ..w.e.e.r.+.o.o.+.e.e.O.' t r _ v z C.I.",
"I.b.$.2 ` ..e.e.e.e.e.e.+.e.r.r.r.r.r.r.+.r.[ ] ] ] ] ] ] ] ] ] [ ] ] ] ] ] ] ] ] ] ] [ +.e.e.e.+.e.e.r.e.e.e.e...] ] ] ^ t =.V.",
"S.V @ ~ +.e.e.+.e.r.+.+.e.+.e.e.+.r.r.r.r.+.+.+.w.w.r.w.+.e.r.e.+.e.w.w.e.w.w.w.e.r.e.w.e.w.w.w.r.r.+.r.w.w.w.w.e.r.r.w.r.O.O 7.",
"o 6 ( +.+.e.w.! o.r.r.~ ~ ~ ~ +.r.r.r.+.r.e.r.[ ~ ~ ~ ~ ^ e.e...~ ~ ~ ~ ~ ~ ~ ^ e.e...~ ~ ~ ~ ~ O.e.r.r./ ~ ~ ~ } r.r.( ~ ~ R 2 ",
"6 r ( r.e...' ! o...] ! 6 5 ~ ' ..+.+.r.o.] ] 0 @ 2 @ @ 4 ] o...R @ 2 2 @ w ~ ^ +.} / t # : # ~ ' ..+.r.r 5 ~ R } O.( ~ 9 @ R : ",
"~ w ) e.o.' t 0 ] / R 8 O o e t / ..r.o.] 0 0 : $ = $ % = 0 { [ 9 O = % $ 6 0 r X./ w 0 o .   0 t ( o.e.5 + R 8 ) ] 9 R 5 X 9 i "
};
