/* XPM */
static char *result[] = {
/* columns rows colors chars-per-pixel */
"60 60 176 2 ",
"   c #464E1B",
".  c #47521E",
"X  c #4A521B",
"o  c #545A1D",
"O  c #595F1F",
"+  c #5B611F",
"@  c #484F23",
"#  c #4B5323",
"$  c #4F5E26",
"%  c #535E26",
"&  c #515631",
"*  c #545933",
"=  c #5B5F38",
"-  c #576327",
";  c #5D6320",
":  c #53652A",
">  c #586A2B",
",  c #576F32",
"<  c #5B7334",
"1  c #5F7E39",
"2  c #616621",
"3  c #656A23",
"4  c #686D23",
"5  c #636729",
"6  c #6D7226",
"7  c #61722D",
"8  c #697128",
"9  c #717525",
"0  c #767A27",
"q  c #787B27",
"w  c #767A28",
"e  c #7A7D29",
"r  c #63663B",
"t  c #657E37",
"y  c #4E524B",
"u  c #55564E",
"i  c #55594E",
"p  c #5A5B4C",
"a  c #4B5E5A",
"s  c #575750",
"d  c #565A51",
"f  c #5C5C54",
"g  c #605F55",
"h  c #5C6353",
"j  c #5D6C52",
"k  c #56665E",
"l  c #5E7253",
"z  c #686946",
"x  c #657D4E",
"c  c #74734D",
"v  c #626256",
"b  c #616B56",
"n  c #686D54",
"m  c #65655A",
"M  c #68675C",
"N  c #6B6A5E",
"B  c #706E5F",
"V  c #617554",
"C  c #647A55",
"Z  c #687D55",
"A  c #6B765D",
"S  c #6B7C5B",
"D  c #546E65",
"F  c #4C746D",
"G  c #6E6D61",
"H  c #706E61",
"J  c #647566",
"K  c #747264",
"L  c #797565",
"P  c #767D65",
"I  c #7B7967",
"U  c #777568",
"Y  c #7A7768",
"T  c #7D7A6B",
"R  c #807D63",
"E  c #817E6D",
"W  c #827F70",
"Q  c #7F822A",
"!  c #65813A",
"~  c #7A8534",
"^  c #688941",
"/  c #6E984A",
"(  c #759E4A",
")  c #6A8457",
"_  c #6B8659",
"`  c #6D8D59",
"'  c #718E5B",
"]  c #6E915A",
"[  c #72935A",
"{  c #749C5C",
"}  c #7BAD54",
"|  c #79A75D",
" . c #7DB35B",
".. c #4D837C",
"X. c #688864",
"o. c #798266",
"O. c #788864",
"+. c #7D9B66",
"@. c #678974",
"#. c #6B937C",
"$. c #78A661",
"%. c #7DB162",
"&. c #7FBD65",
"*. c #82842B",
"=. c #87892C",
"-. c #8B8B2D",
";. c #908F2D",
":. c #818E37",
">. c #82923A",
",. c #969431",
"<. c #999632",
"1. c #9C9933",
"2. c #A29D35",
"3. c #A4A136",
"4. c #AAA537",
"5. c #ABA538",
"6. c #AFA939",
"7. c #B2AB3A",
"8. c #B7B03C",
"9. c #BBB33D",
"0. c #C0B73F",
"q. c #C2B93F",
"w. c #81A75C",
"e. c #83BA5D",
"r. c #86816E",
"t. c #8A856D",
"y. c #8D896B",
"u. c #868271",
"i. c #898573",
"p. c #8E8976",
"a. c #918C76",
"s. c #928D79",
"d. c #96907A",
"f. c #9B947D",
"g. c #9F987F",
"h. c #81B563",
"j. c #84BB64",
"k. c #88BC63",
"l. c #90A276",
"z. c #C5BB40",
"x. c #C9BE42",
"c. c #88C15F",
"v. c #85C466",
"b. c #89C665",
"n. c #87CB67",
"m. c #8CCD67",
"M. c #85C669",
"N. c #89C669",
"B. c #86CA6A",
"V. c #8CCD69",
"C. c #91CE66",
"Z. c #91CE69",
"A. c #8ED167",
"S. c #8ED169",
"D. c #8FD869",
"F. c #92D267",
"G. c #98D566",
"H. c #9AD867",
"J. c #92D269",
"K. c #98D669",
"L. c #94D869",
"P. c #9ADA69",
"I. c #CCC142",
"U. c #4A8C86",
"Y. c #54988D",
"T. c #60A18E",
"R. c #75A78A",
"E. c #76B99B",
"W. c #7CBE9C",
"Q. c #9E9780",
"!. c #9F9880",
"~. c #A19A81",
"^. c #93AE80",
"/. c #89C59D",
"(. c #A7D095",
"). c #B5E3A2",
/* pixels */
"G.J.V.S.J.G.J.J.J.S.V.N.B.V.S.S.F.F.S.B.S.J.S.V.V.S.J.J.J.J.Z.J.J.J.P.J.J.B.M.B.B.N.V.Z.V.F.m.V.F.V.m.F.J.S.S.J.D.J.S.B.",
"F.J.V.S.Z.J.Z.V.Z.A.V.B.M.B.V.V.m.B.B.V.J.S.J.J.J.L.S.S.S.S.Z.P.P.J.J.P.L.B.B.B.B.Z.B.J.V.S.V.S.J.F.Z.F.J.G.L.J.D.S.J.B.",
"A.Z.J.V.m.S.J.V.Z.F.F.J.V.V.S.G.S.n.B.V.S.L.J.G.K.Z.J.S.J.S.Z.J.J.F.V.J.J.L.J.J.G.J.F.J.S.n.V.Z.V.Z.Z.m.J.F.J.S.S.S.F.J.",
"S.B.B.V.V.A.J.K.V.S.J.J.J.J.V.J.S.S.S.J.S.J.S.J.V.B.J.S.B.j.h.N.K.P.J.J.J.P.J.J.J.V.S.K.S.S.V.B.V.Z.m.m.n.F.F.J.S.n.A.F.",
"V.m.m.n.m.m.B.F.V.Z.V.V.V.J.F.Z.S.S.V.F.J.V.S.V.B.B.S.B.$.h h e.G.G.J.S.S.S.J.S.B.Z.F.P.K.Z.V.B.V.V.m.Z.Z.C.A.V.S.V.m.V.",
"G.G.J.F.m.A.F.G.F.K.K.J.J.S.V.V.V.m.C.F.Z.B.S.S.S.B.V.{ O.(.R.X.w.P.J.S.S.V.B.S.V.K.B.Z.V.N.S.B.N.V.F.F.Z.F.D.A.J.V.V.m.",
"V.J.F.F.F.B.n.F.G.J.J.F.J.S.V.V.V.Z.C.m.J.J.V.V.S.L.D.] O.)./.k ' G.L.Z.V.V.Z.J.S.S.S.K.Z.N.V.Z.Z.m.Z.Z.J.S.F.A.F.Z.C.m.",
"A.F.Z.Z.S.m.B.V.F.F.F.J.V.J.V.m.V.Z.G.V.V.Z.B.V.S.L.%.+.^.).^.#.X.h.P.J.Z.J.Z.m.S.S.S.J.P.J.K.K.J.V.B.m.F.J.J.m.V.V.C.Z.",
"A.A.A.V.Z.F.m.Z.m.F.F.F.Z.F.J.Z.V.V.F.A.A.V.S.N.%.%.j l.).W.W.E.J l h.j.N.J.Z.m.Z.F.G.m.C.V.Z.F.m.M.B.m.V.S.J.V.V.m.V.S.",
"n.m.F.V.m.m.Z.Z.m.V.m.m.F.V.Z.V.V.N.m.b.F.N.V.| h k u l.).W.W.Y.F s k h h.V.N.m.N.b.m.V.V.V.C.G.V.B.F.F.F.S.F.m.B.B.S.S.",
"B.B.S.S.F.F.G.G.A.J.C.F.J.B.m.A.S.{ j V b._ k H s.s.g @./.W.W.Y.F s U U M j _ v.V b { m.K.C.Z.F.m.V.F.F.S.S.S.J.B.m.S.D.",
"J.V.n.V.Z.F.Z.J.J.F.S.V.F.S.S.Z.{ o.E T _ o.T T s.s.K J #.W.T.F D U W W H G J _ N N A { Z.Z.S.A.m.m.m.F.S.L.L.V.m.b.B.J.",
"J.S.V.B.V.V.A.Z.F.G.m.n.F.F.J.m.V K f.p.G U Q.Q.T G T m J E.U.a G U G T W U G m E u.m l b.V.V.S.A.V.S.G.J.Z.F.Z.m.m.N.B.",
"S.V.J.V.V.V.C.Z.Z.V.Z.m.C.Z.m.%.S G W E T f g T T f K m J R...a G G f T W m f W W E M j j.V.S.J.J.S.J.V.V.Z.J.S.F.Z.F.Z.",
"S.S.S.J.K.Z.F.Z.V.V.m.b.b.n.%.j i.p.E T T m G T T T h G G k d U G f T W T m f W T E K m j j.N.Z.V.A.G.V.V.m.V.V.F.V.V.F.",
"B.B.B.V.Z.Z.F.V.V.j.V j j j h u i.s.U v T U G G W o.f M T U U T G f T T m G T T f M H m u j j j j V b.A.B.B.B.S.m.M.M.B.",
"B.B.B.S.S.B.V.S.j.) g f f g g g G T T G m M f v T U m G K U U K N m L E f f G k g M g g f g f f f h ) &.V.V.S.S.B.S.V.B.",
"S.B.S.S.S.V.S.v.O.H K H H U H H v m K Y m v d h U m h v g g g g h v m K f f v v N m M B H U U K K K f ` k.Z.S.A.S.S.S.F.",
"J.D.S.V.S.J.J.] N g.p.i.p.i.i.i.E g f T W T m i v j j l V b j b b b j m u M E T N u I g.i.i.i.i.i.i.L f ` J.S.J.L.J.S.V.",
"J.J.L.S.J.L.V.] N !.Q.Q.Q.~.~.g.~.K k T T K h i j j.V.n.m.b.m.b.N.m.k.h i h K T N f I ~.Q.Q.Q.~.~.Q.f.m ` m.A.F.D.J.S.B.",
"V.B.J.S.F.Z._ P i.I U L U L L L L N v f B f _ h.h.M.V.A.A.S.m.B.V.V.J.j.k._ f M f E E L L L Y K U L L M m ] S.S.S.A.S.S.",
"S.V.J.F.F.m.l L s.N U I Y Y U Y i.Y v u p ` j.S.S.S.V.Z.F.S.m.m.S.S.V.J.S.j.[ d u i.t.N L Y Y Y L Y i.K f V S.S.S.A.n.S.",
"m.J.J.S.F.b.l I s.N T K H H H W f.W m p Z k.J.V.J.V.b.m.Z.Z.Z.V.V.F.S.J.S.L.k.Z u i.r.A E H H H K u.g.I h C S.S.S.S.S.J.",
"A.F.S.L.A.m.l L s.K T m f f g E f.W v v b.F.V.B.F.V.V.V.m.m.Z.Z.m.F.A.F.G.G.J.j.p i.r.K Y g f f M W g.I h l B.S.S.S.D.D.",
"n.V.V.S.S.S.V L a.B E E E E E E f.r.h h b.F.S.V.m.C.F.V.m.V.F.G.Z.m.J.F.m.F.F.k.h t.t.B W T E T E u.g.I f C m.V.F.J.V.S.",
"n.A.m.m.n.n.j.' K d.g.f.f.f.f.g.~.r.v h b.S.B.V.V.J.S.J.J.m.m.Z.A.m.B.Z.F.J.Z.m.h.S E f.g.f.g.g.Q.Q.g.I f V S.V.B.S.B.V.",
"S.m.S.m.m.m.m.] v E E E E E E R E N j | n.F.m.m.Z.m.F.m.M.m.F.m.S.m.B.n.B.J.G.A.m.C M E E E E E E E E m Z  .V.m.B.m.m.B.",
"A.F.A.F.m.A.m.] f L N m N N m I B f l m.Z.F.A.V.m.F.m.V.B.m.F.A.m.F.V.V.m.m.F.A.C.Z m L M v v v M L N s ] S.Z.n.B.F.Z.Z.",
"A.A.F.F.m.F.C.[ N d.K p M G m f.I f V m.G.A.F.J.V.V.Z.J.A.A.m.J.F.m.V.m.F.A.G.F.C.C I a.N f f u N f.B s ` J.J.V.V.V.S.F.",
"F.A.A.Z.S.S.F.[ M d.N d u h T g.I f l v.m.V.V.V.Z.B.V.V.F.V.J.G.F.C.F.V.m.V.S.C.G.C I d.H Y Y m N g.K s ` S.J.Z.V.V.V.J.",
"F.m.Z.m.Z.F.F.[ M f.N u y u m f.Y f l B.V.Z.V.V.V.J.C.J.F.S.J.P.J.V.S.m.J.V.m.m.m.C I d.H T m M t.g.B s [ D.J.S.J.F.S.S.",
"G.F.Z.m.m.C.F.[ G d.H G G G U g.Y f l B.J.J.J.V.S.J.F.V.J.S.J.F.J.J.S.V.V.A.m.m.Z.C I d.H W K K p.g.K f X.J.Z.V.V.J.S.J.",
"m.m.A.m.V.V.Z.[ G s.G N G G U g.Y f n V.S.J.F.Z.V.S.S.J.A.S.S.A.S.A.m.V.m.F.S.S.F.C Y d.N G G G E f.B s ' C.F.J.V.S.J.F.",
"Z.m.m.m.B.V.V.[ G f.H f f u f f.T s V C.Z.Z.C.C.Z.V.Z.B.V.S.S.A.A.m.Z.J.m.Z.J.F.G.Z Y d.M i u u B f.H s ' Z.S.J.m.V.V.V.",
"G.F.m.M.B.V.V.` M d.H U T G h Q.R f V C.F.V.V.B.m.m.A.B.m.m.V.V.m.S.J.F.S.J.J.V.m.) U d.M u N M B f.B s [ m.m.b.S.G.m.B.",
"F.C.Z.B.V.V.A.] M f.H f H T T Q.Y g V B.J.B.B.Z.n.m.Z.Z.Z.A.S.Z.V.V.S.A.m.V.J.V.V.l Y d.M u d M u.g.H u [ G.m.F.S.J.J.C.",
"Z.Z.A.F.F.m.S.[ M f.G d f m G Q.R s n N.F.Z.S.B.m.V.J.S.S.V.V.V.V.A.G.J.V.S.G.V.S.C Y d.N N G M Y f.H f ] J.Z.J.S.S.S.S.",
"C.F.F.G.F.F.V.] M f.N m f s G Q.Y f C V.V.V.V.V.J.m.S.S.S.V.S.S.V.V.F.V.V.S.J.J.F.Z Y d.N H G h N f.K s [ F.J.S.S.m.S.S.",
"N.m.V.S.F.V.N.] G d.H T G v W Q.I f V m.F.m.V.V.B.B.S.S.J.J.S.S.V.V.Z.G.J.F.J.V.F.Z Y d.M d d d H f.H d [ F.F.M.V.V.n.B.",
"B.n.n.V.G.S.V.[ M f.G U Y T u.Q.I f V m.A.A.V.J.J.J.S.S.V.V.B.S.Z.m.m.V.B.m.V.G.J.Z Y d.G T T U i.f.H d ` G.S.m.B.A.S.S.",
"b.G.F.m.K.S.J.[ M f.B h f m W ~.I f V N.V.Z.V.Z.P.L.D.S.B.V.V.J.G.J.m.F.F.F.Z.K.G.C Y d.H T M d H g.H s [ G.F.V.M.m.S.F.",
"F.Z.Z.m.J.K.L.] M f.B u v G G f.Y f V m.C.V.V.V.L.L.J.S.S.V.V.G.G.J.F.S.V.V.J.F.P.C Y d.G m G h N f.H s [ F.A.Z.m.V.V.F.",
"Z.m.B.n.V.S.S.] M d.G s v m f f.Y f V C.C.J.F.J.S.V.F.J.S.V.V.L.S.V.L.J.S.V.B.K.S.C Y d.M y m G L f.B s [ S.J.K.F.J.V.F.",
"m.F.S.V.V.B.S.[ G f.G h f f m g.R f V C.Z.Z.K.J.J.V.m.Z.S.V.S.G.S.n.S.J.G.A.Z.J.V.C Y d.M f d G p.g.K s ' G.J.F.J.G.S.F.",
"S.m.A.A.Z.Z.F.[ M d.G Y T T W Q.I f V C.F.J.F.J.F.J.Z.m.B.V.V.S.S.V.m.F.m.V.G.B.B.C Y d.H T T T p.g.H s ] V.V.V.S.A.S.F.",
"S.G.m.V.C.V.Z.[ N f.G T G v i.Q.I f V b.V.F.Z.S.J.V.J.V.V.V.V.F.S.Z.V.V.n.m.V.B.B.C Y d.N f f f H f.H s ` S.V.M.B.m.F.G.",
"J.m.V.B.V.Z.V.[ N f.H T U G G f.Y f V m.J.S.V.S.S.m.m.S.V.V.m.F.Z.F.V.m.A.A.S.S.S.l Y d.M y y f E f.H d ` n.V.B.B.m.m.m.",
"J.m.J.S.S.V.V.] M d.H G G m f Q.I f V F.F.J.G.J.A.A.m.F.V.J.J.J.V.m.m.V.V.S.J.L.S.l I d.N u f M R g.K d [ S.Z.S.S.S.N.m.",
"F.J.S.n.S.S.S.] N f.N g f u p y.B g V b.Z.Z.F.F.C.Z.Z.G.Z.C.F.S.S.V.m.B.B.S.V.S.G.x L d.M f N r r y.B s [ A.J.F.C.C.m.Z.",
"V.V.J.V.B.M.&.` N f.K K I n # # z p V j.m.Z.m.G.G.F.Z.Z.F.m.V.V.J.B.B.B.B.V.B.B.m.< c s.A L = 3 9 # v u ) b.V.J.C.C.C.Z.",
"V.n.B.B.&., : y N ~.f.r # % 6     @ @ < v.m.m.H.F.V.b.N.V.V.S.V.F.F.C.S.V.A.B.j.< 8 5 r K * 4 e 4 . v & # ! m.F.C.C.b.B.",
"S.n.V. .! 3 4 $ * z z 8 Q ;.q X % 4 2 X 1 ! } G.m.B.B.m.F.J.J.V.V.C.Z.J.S.S.e.! 4 q 9 5 r 3 ,.<.9   * 3 O < Z.Z.Z.m.B.m.",
"F.F.A. .! 7 Q 6 + O + -.9.7.*.e ,.*.2 ; + + t } N.C.N.m.S.J.F.A.m.m.m.m.F.Z.} X e <.2.-.3 <.9.1.2 ; ; w 2 < J.F.C.C.F.Z.",
"A.F.m.A.c.$ 9 =.;.-.*.8.I.8.<.z.z.=.2 w Q e 7 ! G.C.Z.Z.V.A.F.F.J.S.n.F.J.Z.e.> w 3.x.9.<.z.z.=.2 -.-.*.4 < e.m.C.C.G.Z.",
"m.m.v.A.c.$ 9 3.q.9.;.9.I.I.q.I.1.5.2.; *.; ^ n.G.C.C.C.N.n.m.m.m.m.b.n.c.C.b.w.- 0 6.x.z.I.3.*.<.z.z.,.*.6 : e.b.m.m.Z.",
"B.n.v.} > 0 4.z.I.x.0.q.I.I.I.I.z.z.z.7.9.-.Q >.>.>.>.>.>.:.>.>.>.>.>.>.>.>.>.:.q 3.q.I.I.I.q.9.0.I.x.z.2.e q :.7 / B.N.",
"n.S.} ! 6 3.q.I.I.I.I.I.I.I.I.I.x.x.I.I.I.7.5.4.4.4.4.4.4.4.4.4.4.4.4.4.4.4.4.4.4.q.I.I.I.I.I.I.I.I.I.I.9.5.5.5.<.~ / V.",
"A.} ! 6 3.q.I.0.8.I.I.8.6.6.7.I.x.x.I.I.x.x.0.7.7.7.7.9.I.x.7.7.7.7.7.7.7.9.I.x.7.7.7.7.7.z.I.I.q.7.5.7.9.I.I.7.7.-.7 ( ",
" .> 4 1.I.x.q.1.1.x.0.;.e e =.9.x.I.I.x.z.z.<.w w q 0 1.q.q.-.e 0 0 q Q Q 4.q.8.=.q w q =.9.I.I.7.q *.Q 3.x.9.=.e e 9 . ",
"$ 9 e 1.x.x.1.*.<.9.;.*.2 + *.=.9.I.x.z.;.=.4 X X X X 4 2.0.-.O X X o e *.6.9.-.Q +   ; Q -.7.I.2.o q Q 3.8.-.Q % 3 6   "
};
