/* XPM */
static char *result[] = {
/* columns rows colors chars-per-pixel */
"60 60 211 2 ",
"   c #444B16",
".  c #444C1A",
"X  c #484E1B",
"o  c #46501D",
"O  c #4B531C",
"+  c #555C1E",
"@  c #565C1E",
"#  c #5B601E",
"$  c #4A5422",
"%  c #4A5827",
"&  c #545C2C",
"*  c #596628",
"=  c #566737",
"-  c #5C7434",
";  c #606621",
":  c #656A23",
">  c #676E29",
",  c #6D7125",
"<  c #717626",
"1  c #757927",
"2  c #797D28",
"3  c #63663C",
"4  c #657B36",
"5  c #53564D",
"6  c #4B5D59",
"7  c #575A51",
"8  c #5B5C53",
"9  c #52684A",
"0  c #567247",
"q  c #5B6353",
"w  c #5C6C52",
"e  c #5D6359",
"r  c #586759",
"t  c #4C7454",
"y  c #5F7153",
"u  c #6B6D4F",
"i  c #616157",
"p  c #65655A",
"a  c #68675C",
"s  c #646A5C",
"d  c #6A6A5D",
"f  c #617454",
"g  c #68775B",
"h  c #506D67",
"j  c #656D60",
"k  c #6D6D61",
"l  c #716F61",
"z  c #697466",
"x  c #637A6B",
"c  c #6B7C6D",
"v  c #757364",
"b  c #787565",
"n  c #7A7769",
"m  c #757968",
"M  c #7D7A6B",
"N  c #697E70",
"B  c #817D6E",
"V  c #827F70",
"C  c #7E812A",
"Z  c #7B8634",
"A  c #7C8D41",
"S  c #6B9044",
"D  c #698658",
"F  c #6D8D59",
"G  c #70825F",
"H  c #718D5A",
"J  c #6E915A",
"K  c #71935B",
"L  c #72995B",
"P  c #79A758",
"I  c #7DB25B",
"U  c #548669",
"Y  c #69826C",
"T  c #759B65",
"R  c #6D8272",
"E  c #6A8977",
"W  c #728775",
"Q  c #7C8373",
"!  c #738B78",
"~  c #7B8E7B",
"^  c #6C9174",
"/  c #7A937D",
"(  c #78A464",
")  c #7EB263",
"_  c #7FBB63",
"`  c #84852B",
"'  c #87882C",
"]  c #898A2D",
"[  c #92912F",
"{  c #949331",
"}  c #989632",
"|  c #9D9A33",
" . c #A29D35",
".. c #A6A237",
"X. c #A9A437",
"o. c #ACA739",
"O. c #B2AB39",
"+. c #B6B03D",
"@. c #BBB33D",
"#. c #C1B83F",
"$. c #84B459",
"%. c #84816E",
"&. c #838272",
"*. c #8A8574",
"=. c #8B8A77",
"-. c #918B77",
";. c #938D79",
":. c #82937C",
">. c #9B957D",
",. c #9B957E",
"<. c #89A86F",
"1. c #83B563",
"2. c #82BA64",
"3. c #C5BB41",
"4. c #C9BE42",
"5. c #86C365",
"6. c #8AC566",
"7. c #8CCD67",
"8. c #85C669",
"9. c #89C769",
"0. c #86CA6A",
"q. c #8BCD69",
"w. c #91CE66",
"e. c #91CE69",
"r. c #8ED167",
"t. c #8DD169",
"y. c #8FD869",
"u. c #93D266",
"i. c #98D566",
"p. c #92D269",
"a. c #94D869",
"s. c #9AD968",
"d. c #CCC142",
"f. c #4D8A84",
"g. c #54998C",
"h. c #729481",
"j. c #7C9C84",
"k. c #5AA394",
"l. c #7AA58B",
"z. c #7BB588",
"x. c #7AA790",
"c. c #7DAC92",
"v. c #7FB599",
"b. c #7AB99A",
"n. c #5DB7B0",
"m. c #67C3B9",
"M. c #65C3BB",
"N. c #75CEBA",
"B. c #5FCBCF",
"V. c #5FCBD0",
"C. c #61CCCF",
"Z. c #66D1CF",
"A. c #69D2CF",
"S. c #74D9CF",
"D. c #61CDD0",
"F. c #66D0D0",
"G. c #6BD4D0",
"H. c #70D7D1",
"J. c #73DAD1",
"K. c #79DED1",
"L. c #7DE2D2",
"P. c #839682",
"I. c #859984",
"U. c #9E9780",
"Y. c #9C9981",
"T. c #A09981",
"R. c #83A48C",
"E. c #86A78C",
"W. c #9AA68B",
"Q. c #83AD92",
"!. c #8AAC92",
"~. c #99AD91",
"^. c #85B296",
"/. c #88B796",
"(. c #82B69A",
"). c #89B599",
"_. c #82B99C",
"`. c #8EBD9E",
"'. c #94B496",
"]. c #95B598",
"[. c #97B89A",
"{. c #9BBA9C",
"}. c #81BDA1",
"|. c #8BBFA2",
" X c #9ABFA1",
".X c #86C39D",
"XX c #A6CD94",
"oX c #84C4A6",
"OX c #8CC3A4",
"+X c #85C6A8",
"@X c #8AC9AA",
"#X c #96C4A5",
"$X c #97C8A9",
"%X c #91D7A9",
"&X c #8DD3B2",
"*X c #99D7B6",
"=X c #91E0BE",
"-X c #BCE8A2",
";X c #C3E99E",
":X c #87E1C9",
">X c #9AEAC5",
",X c #97EDCA",
"<X c #9CF3CD",
"1X c #81E5D2",
"2X c #85E8D3",
"3X c #8BECD3",
"4X c #8FF0D4",
"5X c #95F3D3",
"6X c #9AF6D3",
"7X c #9DFAD4",
"8X c #A1FDD5",
/* pixels */
"i.p.q.t.p.i.p.p.p.r.q.9.0.q.t.p.p.p.q.q.t.p.t.q.q.a.t.p.p.p.e.p.p.p.s.a.t.9.8.0.9.0.e.q.q.i.9.q.u.t.t.w.p.p.t.p.y.p.q.q.",
"u.p.q.t.p.p.p.9.7.p.q.0.8.0.q.7.7.7.8.q.p.t.p.t.t.p.a.p.t.t.e.s.s.e.p.s.a.0.0.8.0.e.0.p.t.t.q.t.e.p.w.p.p.i.p.p.y.y.p.0.",
"r.t.p.q.7.t.t.p.7.p.p.p.q.q.t.p.t.0.0.q.t.a.i.i.p.e.e.t.p.t.e.p.e.i.q.p.p.y.p.p.i.p.p.p.t.0.q.q.q.7.w.7.p.p.p.y.t.t.u.p.",
"t.9.9.q.q.r.t.i.q.r.p.i.p.p.e.p.t.t.y.t.t.t.t.p.p.q.q.t.9.1.) 9.s.s.p.p.a.s.p.p.p.q.p.p.t.q.q.9.7.p.7.7.7.w.p.p.t.0.r.u.",
"r.7.7.6.7.7.0.p.9.t.q.q.t.p.p.p.t.t.q.i.t.0.t.t.q.0.q.9.( 7 9 $.i.i.p.t.y.y.p.q.q.e.p.s.p.p.e.0.9.7.9.e.7.w.r.7.r.7.q.7.",
"i.i.p.u.7.w.p.i.p.i.s.t.p.q.q.q.q.6.w.u.e.q.0.y.y.0.q.T Y XXl.g P s.i.q.q.0.q.t.q.p.q.e.9.q.t.q.9.q.p.i.w.p.y.y.p.q.7.q.",
"7.y.p.p.p.0.0.p.p.i.p.p.p.t.7.q.q.e.w.7.p.p.q.q.q.y.a.F m ;X.Xr F i.s.e.q.q.e.p.a.q.t.p.e.9.e.p.p.r.e.w.p.r.p.7.p.e.e.7.",
"7.p.w.r.p.7.0.7.p.i.w.p.e.p.q.7.q.p.i.q.q.e.9.q.t.i.) T <.XX.X^ Y ) s.p.e.e.w.t.y.q.t.p.s.p.p.s.y.q.9.7.p.p.u.7.q.7.e.t.",
"7.r.7.7.w.u.7.q.w.u.u.e.e.i.p.e.q.7.u.r.p.q.t.9.) ) w <.;X.Xb.b.N r 1.) 0.p.p.7.e.i.i.q.7.7.e.u.7.0.9.7.q.p.p.q.7.q.q.t.",
"0.r.u.7.w.7.w.w.q.q.7.7.w.q.q.q.q.7.6.6.q.9.7.P q 8 5 :.-X_.b.g.h 5 7 q 1.q.8.9.9.7.9.q.e.7.e.i.9.9.r.i.r.t.p.7.9.0.t.y.",
"0.0.t.p.p.u.i.i.r.p.u.u.t.0.7.w.t.L q f 5.D 8 s ;.;.a ^ .XN.b.g.h 8 n v a q D 5.f q F q.i.i.7.u.7.q.r.u.p.t.y.p.q.q.r.y.",
"t.q.0.q.e.p.p.e.p.u.t.9.i.t.t.7.L m B M D M V V -.=.n z ^ b.k.h h v V V l k k D k k g K e.e.p.p.r.7.7.u.t.a.p.q.9.5.8.p.",
"p.t.q.0.q.q.7.p.i.i.q.7.p.p.r.7.f v >.-.k v *.-.M k M a w b.f.6 j n k B V n k p M &.k w 5.7.q.q.r.q.q.i.i.q.e.w.r.7.6.9.",
"t.q.u.9.q.q.p.w.7.7.7.7.w.w.7.) g k V M V 8 k V M e v k j x.f.6 k v i M V a 8 V M V k w 2.7.y.t.t.y.t.q.e.e.y.t.u.p.p.p.",
"t.t.p.p.i.e.p.w.q.t.6.6.5.5.) q *.=.B M M p k V &.j.N W h.N U ~ W c P.&.M k i V M B b i w 1.6.q.6.7.i.e.q.0.q.q.w.7.9.r.",
"0.0.9.t.t.e.u.q.q.2.y w w w q 5 *.;.v i M n v c P.R.! j.!.x.I.!.j.h.R.I.N z M M i a k p 5 q w q w f 5.r.9.q.0.t.r.8.9.0.",
"0.8.8.t.t.0.q.y.2.g i i 8 i i i d n M d p z N ! R.).c.^.).).)._.^.c.(.E.! N z p i a p 8 8 i i i i i D 1.q.q.q.t.0.q.t.9.",
"y.0.t.t.t.q.t.2.H l l l v v v v p p v B j R h.l.).(.(.(.v.(.(.(.(.v.(.^.l.h.N j k i p l v v v v l l 8 D 2.q.p.7.y.r.t.p.",
"i.y.t.q.t.p.p.J d T.-.*.*.*.*.*.M i 8 &.I.!.^.v.}.oXoXoXoXoX+X+XOXoX.X^.v.(.!.P.c 7 v U.*.*.*.*.*.*.b 8 H p.y.p.p.a.t.9.",
"i.t.p.y.p.a.0.F d T.,.U.U.T.,.,.U.m e I.!._.v.b.}.,X6X6X7X6X6X6X7X6X,XN.v.v.(.!.! e v T.U.U.U.U.T.,.,.a F 7.r.p.y.y.t.0.",
"q.0.y.q.p.q.D m *.b b b v b b v b m R h.(.v.&X,X,XS.A.2X8X6XS.G.1X4XS.,X,X&X(.(.h.I.=.v b v v b b b v d e D 7.r.t.r.t.q.",
"t.q.i.p.i.6.w b ;.l b b n n n n =.P.j.x.v.&X:XJ.J.3XG.G.K.J.C.B.G.H.Z.J.J.:X&Xv.x.].E.m n n n n n n *.b 8 y r.p.t.q.q.t.",
"7.p.p.t.e.6.f b ;.d B l k k l &.~.'.c.v.@X:XJ.F.L.2XG.C.B.B.C.C.B.B.V.V.J.L.:X@X(.#X!./ &.v k k v *.T.B 8 y 9.y.t.q.t.u.",
"q.p.e.y.i.6.w b ;.l M p 8 e s :.].`.(._.<XL.F.J.5XF.C.B.C.C.C.B.F.G.B.F.2XL.S.<X}.$X`.I.~ i 8 8 p B ,.B 8 y 0.t.t.y.y.y.",
"9.r.q.r.r.q.y v -.l %.%.&.I.I.I.'.#X/.(.<X7XL.H.5XF.B.C.B.D.Z.B.L.2XD.V.Z.B.J.5XoX$X#XI.I.V V B B *.,.B 8 f 0.9.r.p.t.y.",
"0.r.7.7.q.0.2.H v ;.W.~.].[.].{.{.`.(.N.<XL.L.3XA.B.C.C.B.A.3XG.F.G.B.D.B.B.C.H.:X+X|.#X].W.Y.,.,.,.,.B 8 u t.q.0.t.0.0.",
"r.7.p.7.r.7.7.J e :.E.).).!.`.`.!.Q.oX&XL.F.L.5XD.C.C.B.G.2XL.F.B.B.B.C.C.C.B.Z.6XoX).|.E.I.V B B B B p f I q.7.9.r.7.9.",
"r.r.r.r.7.q.q.J j I.R.@XOX_.&X#X/.c.+X5XF.B.L.L.C.C.C.C.G.L.C.B.C.C.B.B.V.G.J.A.6X@X_.).j.R j 8 p b u 7 F r.r.0.9.u.p.w.",
"7.r.u.p.7.w.w.T ! {.OX>X>X*X>X*X.Xv.oX5XA.B.B.B.C.B.C.A.G.B.C.Z.B.A.G.C.C.K.2XJ.6XoXOX#Xj.R e 5 p >.l 7 F p.e.q.q.7.p.p.",
"u.r.r.w.t.p.i.( ! {.`.,X8X<X$X X[.(.+X6XG.F.V.B.C.B.Z.L.2XZ.B.B.B.J.4XF.B.D.J.6X7XoX|.#Xj.P.Q j a >.l 7 F p.p.e.q.q.q.t.",
"p.w.e.7.q.w.e.( ! {.`.>X8X8X<X*XOX(.oX7X6XH.B.B.B.Z.1X1XF.B.B.B.B.C.G.C.C.B.J.7X7X+X|.#Xj.I.j k V ,.l 7 H y.t.t.p.p.q.y.",
"i.p.w.7.7.e.i.L c ~.!.&X*X*X*X$X`.v.oX7X8XJ.B.B.B.B.4X1XB.B.D.L.3XK.B.C.B.D.A.L.6XoX|.#XI.P.m n *.,.l 8 F p.p.q.q.e.t.u.",
"7.7.r.7.q.q.e.K d W.j.l.c.x.j.{.`.(.+X6X2XA.B.C.D.K.1XJ.B.F.L.6X8X5XL.F.C.C.B.F.5X+X_.#Xj.! z d b ,.l 7 H w.i.q.q.t.p.p.",
"w.7.7.7.9.q.q.F a ,.Q ! h.E x ].`.v.+X5XA.B.C.C.A.6XJ.V.B.A.5X8X7X8X6XG.B.C.C.F.5X+XOX#Xj.x e 5 p ,.l 7 H w.p.p.r.q.7.7.",
"u.w.9.8.0.q.q.F a ,.v Q P.~ N ].`.v.oX5XC.B.C.C.G.6XJ.C.D.G.6X7X7X8X6XH.C.C.C.Z.5X+XOX#Xh.x m i d ,.l 5 H 7.7.5.t.i.7.9.",
"u.i.e.q.q.q.r.J d ,.v q c P.P.{.`.(.+X5XG.D.B.G.5X8XJ.B.G.5X7XJ.1X8X7X5XH.B.C.Z.5X+XOX#Xj.x e a V ,.l 7 H i.7.w.y.t.p.p.",
"w.p.r.r.p.7.q.F a U.l 7 7 z E ].`.(.+X5XG.K.J.H.7X8XJ.C.J.6XL.A.G.2X7X7XJ.V.V.Z.5X+X|.#Xj.~ m p v >.l 7 F p.p.p.q.t.t.t.",
"7.u.i.u.i.u.r.F a U.l a 8 8 W ].`.v.+X5XD.K.J.J.7X8XJ.V.G.L.D.D.V.J.8X7XJ.V.F.L.6X+X|.#Xj.! z 8 p >.l 7 F u.p.q.t.7.t.t.",
"9.7.7.q.p.q.0.F a ,.v M l j I.{.`.v.+X6XJ.D.B.G.7X7XJ.V.D.G.C.C.V.J.7X7XJ.B.H.5X7X+X|.#Xj.N e 8 d ,.l 7 H p.p.0.q.t.q.q.",
"9.0.q.t.i.t.7.H a U.l n M &.I.{.`.v.+X7X7XJ.B.S.7X8XK.V.G.3XG.D.C.K.7X6XH.B.C.G.5X+X|.#Xj.P.Q n %.>.l 7 F i.7.7.7.0.t.0.",
"7.u.u.7.p.p.p.K a ,.l 8 7 j I.{.`.v.+X7X7XJ.B.H.7X7XK.C.C.H.4XG.L.6X6XH.C.C.V.G.5X+X|.#XI.I.R r k ,.l 7 G i.p.r.0.7.p.w.",
"w.w.w.7.p.p.i.F a ,.v 7 i v R ].`.(.+X6XK.C.C.D.L.6X5XK.B.C.H.F.L.8X6XG.C.B.C.D.5X+X|.#Xj.R ! x z U.l 7 H u.t.u.7.q.q.p.",
"w.q.0.0.t.r.t.J a U.v 7 8 j x ].`.v.oX5XA.B.C.B.Z.6X7XL.B.B.V.J.3X6X1XD.C.B.G.L.6X+X|.#Xj.x ! h.h.Y.l 7 H t.p.u.w.p.9.u.",
"7.p.r.7.q.q.q.J a ,.v 8 8 s R ].`.(.+X5XA.B.G.G.Z.2X7X2XH.J.J.4X6X1XC.C.C.B.J.7X8X+X|.#Xj.! h.R.].~.m 8 H u.p.i.p.i.y.p.",
"p.7.r.r.e.e.e.K a ,.l n M Q I.{.`.v.oX5XZ.C.L.4XZ.Z.2X7X7X7X7X7X1XD.D.V.C.B.H.7X8XoX|.$Xc.#X@X#X#X{.~ e F q.q.q.t.t.t.r.",
"t.i.0.q.e.e.e.K a U.v M v s I.{.`.v.+X6XZ.C.L.4XC.C.F.1X7X7X7XL.F.V.C.B.C.C.C.H.5X@X|.$X}.>X<X<X>X#X~ 8 F t.q.8.7.7.u.i.",
"p.7.7.9.7.e.q.J a ,.v M M v W ].`.v.+X6XF.C.F.L.2XZ.C.G.J.J.J.F.B.B.C.B.B.C.C.A.5XoX|.$XOX<X7X>X*X{.j.x L 0.q.0.0.7.7.7.",
"p.r.t.p.t.0.q.F p U.l k k j x ].`.b.+X7XL.F.B.J.5XZ.B.C.B.B.V.B.G.J.C.D.J.H.C.C.5X@XOX$X@X6X>X>X*X#Xl.R ( t.t.p.r.q.9.7.",
"u.p.t.0.y.q.t.J a ,.v i q q f :./.(.N.<X,XA.C.A.3XJ.F.C.C.C.C.B.K.1XC.D.5X2XB.F.5XN..X$X.X>X/./..X/.l.c ( y.q.t.w.w.7.w.",
"q.q.p.0.0._ _ D d ,.M v b u $ $ ^ l.b.=XA.C.B.Z.F.4XJ.B.C.V.C.C.D.D.D.G.3XL.C.C.=Xz.<.`.l./.0 O O & / x F 5.e.e.w.w.w.e.",
"q.0.7.0._ = % % a ,.>.3 O # < O $ % % 0 B.V.C.C.C.Z.B.B.C.C.C.C.C.V.F.3XJ.F.C.n.0 % % y :.= . ; , % Y = % - 7.p.w.w.0.9.",
"t.0.q.I - > > * % 3 3 , ` { 2 O     . $ 9 t k.D.B.B.B.L.L.V.C.C.C.C.C.J.F.D.n.t o   @ > = O * 2 < o = : @ * 7.w.w.r.9.q.",
"u.u.r.I 4 : C < ; ; ; [ @.+.C : o   O #     9 g.B.C.B.J.2XL.L.G.V.V.V.V.V.D.k.o   # < 1 ; * { ` ; ; ; 1 ; * p.p.w.w.u.w.",
"r.p.7.r.5.% , ] [ [ ' +.d.@.[ ' ; o + , @ X % U C.D.V.C.H.4X4XJ.V.V.V.F.D.D.n.0 O , C ] [ { O.C ; [ [ ' : - P 7.u.w.u.u.",
"7.7.5.7.I * 1 X.4.@.[ +.d.d.#.[ ' > o + C @ U M.M.M.M.M.C.m.m.M.M.M.M.M.m.C.N.%X= , ' | #.d. .' } #.d.| ` < * $.5.6.q.7.",
"0.0.8.P * 1 o.3.d.d.#.4.d.d.4.3.#.} < C C C Z Z A A A A A Z A Z A A A A Z A A Z C C | #.d.d.3.@.#.d.d.#.| C C Z * S 0.0.",
"7.r.P * , X.3.d.d.d.d.d.d.d.d.4.d.@.O.O.O.O.O.O.O.O.O.O.o.O.O.O.O.O.O.O.O.o.O.O.O.O.@.d.d.d.d.d.d.d.d.d.#.o.O.O. .Z S 9.",
"r.P 4 , ..4.d.@.O.4.4.O.....X.4.d.d.d.d.d.d.@.X.X.o.X.@.d.d.o.X.o.X.X.X.X.+.d.d.o.X.X.X.o.d.d.d.3.X.X.X.@.d.4.o.o.` > S ",
"P * : [ 4.4.@.| { 4.@.[ C < C O.3.d.d.d.@.@.[ < < < < [ @.3.] 1 < < < C C ..d.O.' 1 < 1 ] O.d.d.O.1 C C ..4.O.' 1 2 > X ",
"o , C [ 4.d.| C } 3.[ C > # C ' +.d.d.#.] ' : o X X O : } @.] @ . . O C C ..O.] C # . # C ' O.d...+ 2 ` X.@.' C @ : > X "
};
