/* XPM */
static char *result[] = {
/* columns rows colors chars-per-pixel */
"60 60 23 1 ",
"  c #86C767",
". c #89C667",
"X c #87CA67",
"o c #8CCD67",
"O c #85C669",
"+ c #88C769",
"@ c #86CA6A",
"# c #8CCD69",
"$ c #91CE66",
"% c #91CE69",
"& c #8ED167",
"* c #87D16A",
"= c #8DD169",
"- c #8FD869",
"; c #93D266",
": c #98D566",
"> c #95D867",
", c #9AD966",
"< c #92D269",
"1 c #99D669",
"2 c #95D869",
"3 c #9ADA69",
"4 c #A0DF69",
/* pixels */
"1;#=<1=<<<#@@#=<$<=+;==##-=<%1#<<%31*@@+@##%#;o#<#=o<<<%2-#@",
";<#=<<%##;#@OO###XO==<<<<<-<<=%14%11<@@@+#+<o;#%<;$;<22<-<<#",
"&=<#o=%;o;;<##=<&*@#<2<11#<==#%<<<#=2-==;;<<**#=#$$#<;<==#;;",
"=++##o=1o=<;<<<<====*<=<%##===##;,1<13<<<#<<=&@+o$o#.;;<**&;",
"#ooX#oX;#%#o=<;<<##;<#<##@#o#@@211<===<<#<<11%#++#o%o;&#####",
"1:<;&o;:<:1<1#*+#X%$%#*==@#*#=<343<<*##*#<#%##=@+#%;$<-=<%oo",
"#;<;;+X;:<<<<###%%%$=<##=2<=#=<<<<3%#%%<<==<%@%1<&<%<%;&;%%#",
"&;$=<o+*<<;;#<###<;o#%+##2=<<#<2%<<<#%o&<*<<1<%1<#+o;=<&*o$%",
"&&&#$;#%o;;%%<<%##;=;**#+##<<@*<<##==<;#%;;o##%;X@+o==<####=",
"X#;oo$$$##ooo&$%##<#<#$;=&##<##@%%#;1<@#=1##%%%:o+;;;*;#X+==",
"@O==;;;:&<$;<+#;#=-=#==##<<*=%<#3;<;==###*#o1$o;&#;;===<+#=2",
"=###%<;<<;=#<==$##@#O#&@<1#<<<<3>;<;=#<1##X$$$=;oX#;=22## @<",
"<=#@###%;;oX;;%%1#*<%#;#<$<;%%=<<<;;%#*2<<#oXo##;##1<$;$oo.+",
"=#1++#;$$$&o$$#O+<<<<%$;;o%<<%<*<#*#%%#*22<O#==<<&<#o%<=;;<;",
"==<%1;;$###%#XX@+###$$$;%#*1<#<<%+#<<#<#@;=@+##1=<<=#@##$o+&",
"@*@#=%<###;XO##1;X@+o$#$#=###@##;<O+*#*#=1<=;+O#=&&&+##*&O+@",
"OO#*#*#==&=#==#&;o&##<=#%o##o#=#=<#%oo=;<;;<;$#=<*#+##%*@*#+",
"=#===##=%o<<<=#++;;&===&;;oo1;<=#%1#$##;; +=;;;===#*;#<&2==;",
"2-=*=<<=#O++<=<+;$$#&<<;o#o;;;&<%<;<;#*=;X+;%o<=##==o<==<<<#",
"<<<<<2*#OOO@o##X$$###12<<==*;;o##%%+#@#=;;#&#<+#%$$##o&;-<#@",
"#@-=;;;#%#+#<=;.$$%$X<=o=++&<=#++#1<<oXO#;X##@@X+##XO<===;=*",
"=#<1;#$<%%%<*oooX#<<o$+==%*;<=o#&<===<%.X##+==*&+#oX@#=2=*#=",
"+<<=<$$$#<;1=o#==#;<$$=#<#o.$<<o#;=1=;$X**=;;;==Xo+X@@-=*==;",
"<<%<<%%#==<#%X;;;o:1;<##;#%o++%%X;&>>;$#;;=;;#=<%O#<==@=<=-<",
"@##&&=>;<=##&#%o&;=&;;*#o%;%#o::%$<;=<$o=;=<;#<<%OX;<1*+<<*-",
"X&##XX$$;%##oX%##<=+;$@##$=<;Xoo&X+#;;$o#o*##X+oX%#;;%<#+*+*",
"=&=#ooXooX=&o*%#<;@@#&#o$o;#X#$oo;X@+=;&$X$+#oo;;&#$$**#+&#+",
";&&;oooooo##$<<o1##X&;&#o;o#@#;&#;##o&>;:$<&;;;;$&#Xo&o#+;;%",
"o&;;o$$$;#=##;$<=#=o;;;;#+%<ooo=;##&&&;<$;$##=oo#=#@#%<o##=;",
";=;$<<;;o;o+#;1$=<o@oo##<+##;<<1;$&oo#<<;4;o#@@O##1#$=<%###=",
";o%o$;%<<<#@#%##o&o#o%##==%<<=;3<$<o;#oo;$;$;.####=<<-<#1;=*",
";;ooo$;$#=<+#O$;X#@@<<<#=<<#<<<;<#=##&&+$o;o#@$1<<#%1#1###<1",
"$$&###%##;=o<-%<o+$;#%;<#;=;;==;;&&#o;#<;;:=##@#;&&=;$<<##;;",
"$Xo++##%#%<;<=%<%%%$o<<###=+#==*##o;o%<;;1;<-#+@&;>o#%%;o###",
":$o+####$%;o<=o$$<%;<###X#o+#o###=<;=<;#o<<<1;<+#$;&### <;o#",
";<%##X#o;$##&;++++oo<++#X#;;o%=%##<#&+<#*#<<&o;##;,<:;;;=<#<",
"$$;;;o#$$%o==<#+=<##;o=###<<=#=#o&;<=<1o<<=&#ooo++;;;#%;&=<<",
"$;;;;;$.#<=<=#&##;%####+;$#==#=<o#;##=<=;<;=;$o$+O#1:;<===#*",
"+X&=1#+Xoo<;;#$=o#$$;#o#+#*=<<#*##$;<;<#1;:%$;$$;o<<3;;@##*@",
"+@##;=#$;&+<&#;###%&&o=<=<-=##@=%o#%+o#1<3;#;:$$#=2<#<#oX&=#",
".;;&;<<;;o#=#@#oX######%222*+##<:%&;$;;11#;o##=21;:1%1;=O#<&",
";$$o1;<#<;<;<=##;#=oo=##22<<*#o<1<<=#=#<3<<o*+@*%+%%%$o<Xo#<",
"$#@X&&#<;;oo&<*=&$:;%<<<=#;===<2*o2<=##1;21====##@+11#<1;<#<",
"o;&##+#;;;;$.##;$$$;%%1<<##;%#<;@#&;2&#<*@@@*2=<%<%$$%<;;1=;",
"<<o&%%%=<&$oo+@@+@;;;<<<<%%o@##=<#o<o#1#**@@@<;>%<:%o###;&=;",
"=;##%o%#++X#o$@#=+#+#;==<%;####;<;o#XXo+#=&=@+#1#;%##=@O@o;:",
"<&#+#%#XXo%$o&&##%$o;=#<&#o=##&;%$#X&&&<#@;==##@+##*#+#@+ooo",
"<o;==+##&##o#=#&1:$;;<;;&;o=#%<=#o#$#&;<=+#1*=<=#%<&;<<<==+X",
"<==***##*#@@==&&&;#o$$;;$o%;;%;<=#X#@#==22<;&><<<<-==*<%$$o$",
"##;+@@@#@*=##o;oX&oX+<;::;$$$%##<+@@@*++<<+1=*;>1<<###%<$$$$",
"#+X@@@#=#&;o+#&#ooXX#o#:;#.#%#=#;;$=#o+@#<###==<=;#@###<$$@+",
"*###@@@-o##&##&#;:;;o#o;##Xo<=<#=$$<<==***##&3;1+<=#+%<%$$+#",
";;oo====#=#o#@@#;;;<=<&<+#.+=<<=<#+#<$#*#@*#=><<#=%#+#<$$$;#",
"=%$$<<*&==<=oo#<&=<=;;*<1$$#*%<<%%#$<%oo;=;#;-=<###<==#%;;;<",
"## o<<=%;=<#o;;#<<=;;1%o1$<<+o==*$Xoo;$o%#&<==<<=<<%1<#$o$#$",
"XXOX#+=<1<=&oXo*;*=++;%#%$<<#<#=*#XXX##+<o2=;;#=#=#<<=%++#++",
"*&<<;&<<<;*o###&%&#@#*#+&o2=##-*;;$ @#<$<;1;<&X%=##=<=#=*#oo",
"&;,=>o==<&=<&<1<#<X*=<&#**=*#==*==;+@<1=<;<;<+%%<%#+;+#X*;$;",
"+%2<;o%#;==<=#<<<;##<;%<o<&*#11#%=*#Xo#;1$$%##<=<;;<2=*=$$;%",
"=##<#%<==<#&##=<<=&+#<%###%<#<#<1<1##o#<<#:<#%##=<3<<1<=%$%#"
};
