/* XPM */
static char *result[] = {
/* columns rows colors chars-per-pixel */
"64 64 149 2 ",
"   c black",
".  c #010101",
"X  c #020202",
"o  c #030302",
"O  c gray1",
"+  c #040403",
"@  c #040404",
"#  c #050404",
"$  c #050504",
"%  c gray2",
"&  c #060505",
"*  c #060605",
"=  c #060606",
"-  c #070606",
";  c #070707",
":  c gray3",
">  c #090909",
",  c gray4",
"<  c #0B0B0A",
"1  c #0B0B0B",
"2  c #0C0C0B",
"3  c #0C0C0C",
"4  c #0D0D0C",
"5  c gray5",
"6  c #0E0E0E",
"7  c gray6",
"8  c #111110",
"9  c #161511",
"0  c #171511",
"q  c #171611",
"w  c #171716",
"e  c #181612",
"r  c #191713",
"t  c #1A1814",
"y  c #1B1914",
"u  c #1B1915",
"i  c #1C1A15",
"p  c #1D1B16",
"a  c #1B1B1A",
"s  c #1D1C18",
"d  c #1C1C1B",
"f  c #1F1F1E",
"g  c gray12",
"h  c #211F19",
"j  c #22201B",
"k  c #20201F",
"l  c #2B2820",
"z  c #2C2821",
"x  c #2C2921",
"c  c #2D2A22",
"v  c #2E2A23",
"b  c #2E2B23",
"n  c #2F2B23",
"m  c #2D2D2A",
"M  c #2F2E2A",
"N  c #302C24",
"B  c #302D24",
"V  c #312D25",
"C  c #322E25",
"Z  c #332F27",
"A  c #363228",
"S  c #31312F",
"D  c #32312E",
"F  c #33322F",
"G  c #35332D",
"H  c #36342E",
"J  c #36342F",
"K  c #303031",
"L  c #353533",
"P  c #3D3B35",
"I  c #3F3D36",
"U  c #3F3E37",
"Y  c #373938",
"T  c #383A39",
"R  c #3A3B3A",
"E  c #464135",
"W  c #44413B",
"Q  c #404140",
"!  c #484844",
"~  c #4A4A45",
"^  c #4C4C49",
"/  c #545451",
"(  c #77746E",
")  c #7D7A76",
"_  c #93886F",
"`  c #888379",
"'  c #938870",
"]  c #A4977C",
"[  c #A79A7E",
"{  c #A89A7E",
"}  c #A89B7F",
"|  c #6C7781",
" . c #747A80",
".. c #75828D",
"X. c #77838E",
"o. c #7A8691",
"O. c #898782",
"+. c #8A8883",
"@. c #8B8984",
"#. c #8D8A84",
"$. c #928E86",
"%. c #9B958A",
"&. c #9C968A",
"*. c #808F9C",
"=. c #A99C81",
"-. c #AA9D81",
";. c #AB9D81",
":. c #AB9E81",
">. c #AB9E82",
",. c #AC9F83",
"<. c #ADA084",
"1. c #B7AA8D",
"2. c #B8AA8B",
"3. c #B8AA8D",
"4. c #BAAC8D",
"5. c #BCAD8E",
"6. c #A3A39D",
"7. c #BEAF90",
"8. c #BFB090",
"9. c #8795A2",
"0. c #8796A3",
"q. c #8996A3",
"w. c #8C96A0",
"e. c #939CA6",
"r. c #95A5B3",
"t. c #9BA5B1",
"y. c #98A8B6",
"u. c #9EA9B4",
"i. c #A0ABB7",
"p. c #A1ACB7",
"a. c #BABAB3",
"s. c #BEBEB7",
"d. c #BFBFB9",
"f. c #C3B393",
"g. c #C2B498",
"h. c #C5B79A",
"j. c #CCBD9D",
"k. c #CDBE9E",
"l. c #CFBF9E",
"z. c #D2C29F",
"x. c #D3C39F",
"c. c #D5C5A1",
"v. c #D7C6A2",
"b. c #C6C6BF",
"n. c #C1C1C1",
"m. c #D5D5CD",
"M. c #DCDCDA",
"N. c #ECECE3",
"B. c #EDEDE5",
/* pixels */
"v.v.v.v.v.v.v.v.v.v.v.v.v.v.v.v.v.v.v.v.v.v.v.v.v.v.v.v.v.v.v.v.v.v.v.v.v.v.v.v.v.v.v.v.v.v.v.v.v.v.v.v.v.v.v.v.v.v.v.v.v.v.v.v.",
"v.v.v.v.v.v.v.v.v.v.v.v.v.v.v.v.v.v.v.v.v.v.v.v.v.v.v.v.v.v.v.v.v.v.v.v.v.v.v.v.v.v.v.v.v.v.v.v.v.v.v.v.v.v.v.v.v.v.v.v.v.v.v.v.",
"v.v.v.v.v.v.v.v.v.v.v.v.v.v.v.v.v.v.v.v.v.v.v.v.v.v.v.v.v.v.v.v.v.v.v.v.v.v.v.v.v.v.v.v.v.v.v.v.v.v.v.v.v.v.v.v.v.v.v.v.v.v.v.v.",
"v.v.v.v.v.v.v.v.v.v.v.v.v.v.v.v.v.v.v.v.v.v.v.v.v.v.v.v.v.v.v.v.v.v.v.v.v.v.v.v.v.v.v.v.v.v.v.v.v.v.v.v.v.v.v.v.v.v.v.v.v.v.v.v.",
"v.v.v.v.v.v.v.c.k.j.k.c.v.v.v.v.v.v.v.v.v.v.v.v.v.v.v.v.v.v.v.v.v.v.v.v.v.c.k.k.c.v.v.v.v.v.v.v.v.v.v.v.v.v.v.v.v.v.v.v.v.v.v.v.",
"v.v.v.v.v.v.c.h.$.+.$.h.c.v.v.v.v.v.v.v.v.v.v.v.v.v.v.v.v.v.v.v.v.v.v.v.c.h.$.$.h.c.v.v.v.v.v.v.v.v.v.v.v.v.v.v.v.v.v.v.v.v.v.v.",
"v.v.v.v.v.v.l.&.@.+.@.&.l.v.v.v.v.v.v.v.v.v.v.v.v.v.v.v.v.v.v.v.v.v.v.v.l.&.@.@.&.l.v.v.v.v.v.v.v.v.v.v.v.v.v.v.v.v.v.v.v.v.v.v.",
"v.v.v.v.v.v.c.k.j.j.j.k.c.v.v.v.v.v.v.v.v.v.v.v.v.v.v.v.v.v.v.v.v.v.v.v.c.k.j.j.k.c.v.v.c.k.k.c.v.v.v.v.v.v.v.v.v.v.v.v.v.v.v.v.",
"v.v.v.v.v.v.v.v.v.v.v.v.v.v.v.v.v.v.v.v.v.v.v.v.v.v.v.v.v.v.v.v.v.v.v.v.v.v.v.v.v.v.v.c.h.$.$.h.c.v.v.v.v.v.v.v.v.v.v.v.v.v.v.v.",
"v.v.v.v.v.v.v.v.v.v.v.v.v.v.v.v.v.v.v.v.v.v.v.v.v.v.v.v.v.v.v.v.v.v.v.v.v.v.v.v.v.v.v.l.&.@.@.&.l.v.v.v.v.v.v.v.v.v.v.v.v.v.v.v.",
"v.v.v.v.v.v.v.v.v.v.v.v.v.v.v.v.c.k.k.c.v.v.v.v.v.v.v.v.v.v.v.v.v.v.v.v.v.v.v.v.v.v.v.c.k.j.j.k.c.v.v.v.v.v.v.v.v.v.v.v.v.v.v.v.",
"v.v.v.v.v.v.v.v.v.v.v.v.v.v.v.c.h.$.$.h.c.v.v.v.v.v.v.v.v.v.v.v.v.v.v.v.v.v.v.v.v.v.v.v.v.v.v.v.v.v.v.v.v.v.v.v.v.v.v.v.v.v.v.v.",
"v.v.v.v.v.v.v.v.v.v.v.v.v.v.v.l.&.@.@.&.l.v.v.v.v.v.v.v.v.v.v.v.v.v.v.v.v.v.v.v.v.v.v.v.v.v.v.v.v.v.v.v.v.v.v.v.v.v.v.v.v.v.v.v.",
"v.v.v.v.v.v.v.v.v.v.v.v.v.v.v.c.k.j.j.k.c.v.v.v.v.v.v.v.v.v.v.v.v.v.v.v.v.v.v.v.v.v.v.v.v.v.v.v.v.v.v.v.v.v.v.v.v.v.v.v.v.v.v.v.",
"v.v.v.v.v.v.v.v.v.v.v.v.v.v.v.v.v.v.v.v.v.v.v.v.v.v.v.v.v.v.v.v.v.v.v.v.v.v.v.v.v.v.v.v.v.v.v.v.v.v.v.v.v.v.v.v.v.v.v.v.v.v.v.v.",
"v.v.v.v.v.v.v.v.v.v.v.v.v.v.v.v.v.v.v.v.v.v.v.v.v.v.v.v.v.v.v.v.v.v.v.v.v.v.v.v.v.v.v.v.v.v.c.k.j.k.c.v.v.v.v.v.v.v.v.v.v.v.v.v.",
"v.v.v.v.v.v.v.v.v.v.v.v.v.v.v.v.v.v.v.v.v.v.v.v.v.v.v.v.v.v.v.v.v.v.v.v.v.v.v.v.v.v.v.v.v.c.h.$.+.$.h.c.v.v.v.v.v.v.v.v.v.v.v.v.",
"v.v.v.v.v.v.v.v.v.v.v.v.v.v.v.v.v.v.v.v.v.v.v.v.v.v.v.v.v.v.v.v.v.v.v.v.v.v.v.v.v.v.v.v.v.l.&.@.+.@.&.l.v.v.v.v.v.v.v.v.v.v.v.v.",
"v.v.v.v.v.v.v.v.v.v.v.v.v.v.v.v.v.v.v.v.v.v.v.v.v.v.v.v.v.v.x.8.5.5.8.x.v.v.v.v.v.v.v.v.v.c.k.j.j.j.k.c.v.v.v.v.v.v.v.v.v.v.v.v.",
"v.v.v.v.v.v.v.v.v.v.v.v.v.v.v.v.v.v.v.v.v.v.v.v.v.v.v.v.v.x.;.n y y n ;.x.v.v.v.v.v.v.v.v.v.v.v.v.v.v.v.v.v.v.v.v.v.v.v.v.v.v.v.",
"v.v.v.v.v.v.v.v.v.v.v.v.v.v.v.v.v.v.v.v.v.v.v.v.v.v.v.v.x.;.l - a g f Z 8.v.v.v.v.v.v.v.v.v.v.v.v.v.v.v.v.v.v.v.v.v.v.v.v.v.v.v.",
"v.v.v.v.v.v.v.v.v.v.v.v.v.v.v.v.v.v.v.v.v.v.v.v.v.v.v.v.8.n - S d.M.n.J 5.v.v.v.v.v.v.v.v.v.v.v.v.v.v.v.v.v.v.v.v.v.v.v.v.v.v.v.",
"v.v.v.v.v.v.v.v.v.v.v.v.v.v.v.v.v.v.v.v.v.v.v.v.v.v.v.x.{ 0 w 6.m.B.d.H 5.v.v.v.v.v.v.v.v.v.v.v.v.v.v.v.v.v.v.v.v.v.v.v.v.v.v.v.",
"v.v.v.c.k.k.c.v.v.v.v.v.v.v.v.v.v.v.v.v.v.v.v.v.v.v.v.8.n o ; L / b.^ j 5.v.v.v.v.v.v.v.v.v.v.v.v.v.v.v.v.v.v.v.v.v.v.v.v.v.v.v.",
"v.v.c.h.$.$.h.c.v.v.v.v.v.v.v.v.v.v.v.v.v.v.v.v.v.v.v.5.y   w 6.m.N.s.G 5.v.v.v.v.v.v.v.v.v.v.v.v.v.v.v.v.v.v.v.v.v.v.v.v.v.v.v.",
"v.v.l.&.@.@.&.l.v.v.v.v.v.v.v.v.v.v.v.v.v.v.v.v.v.v.v.5.y   O S s.m.a.G 5.v.v.v.v.v.v.v.v.v.v.v.v.v.v.v.v.v.v.v.v.v.v.v.v.v.v.v.",
"v.v.c.k.j.j.k.c.v.v.v.v.v.v.v.v.v.v.v.v.v.v.v.v.v.v.x.[ 9     % d k d u { x.v.v.v.v.v.v.v.v.v.v.v.v.v.v.v.v.v.v.v.v.v.v.v.v.v.v.",
"v.v.v.v.v.v.v.v.v.v.v.v.v.v.v.v.v.v.v.v.v.v.v.v.v.x.:.x + . X , 1 1 , * n 8.v.v.v.v.v.v.v.v.v.v.v.v.v.v.v.v.v.v.v.v.v.v.v.v.v.v.",
"v.v.v.v.v.v.v.v.v.v.v.v.v.v.v.v.v.v.v.v.v.v.v.v.x.:.v < 1 1 1 3 5 5 5 5 u } x.v.v.v.v.v.v.v.v.v.v.v.v.v.v.v.v.v.v.v.v.v.v.v.v.v.",
"v.v.v.v.v.v.v.v.v.v.v.v.v.v.v.v.v.v.v.v.v.v.v.x.:.v 4 3 5 5 5 5 5 5 5 6 8 V 8.v.v.v.v.v.v.v.v.v.v.v.v.v.v.v.v.v.v.v.v.v.v.v.v.v.",
"v.v.v.v.v.v.v.v.v.v.v.v.v.v.v.v.v.v.v.v.v.v.x.:.v < 3 5 5 5 5 5 5 5 5 5 7 p 5.v.v.v.v.v.v.v.v.v.v.v.v.v.v.v.v.v.v.v.v.v.v.v.v.v.",
"v.v.v.v.v.v.v.v.v.v.v.v.v.v.v.v.v.v.v.v.v.x.:.v 4 3 5 5 5 5 5 5 5 5 5 5 3 r { x.v.v.v.v.v.v.v.v.v.v.v.v.v.v.v.v.v.v.v.v.v.v.v.v.",
"v.v.v.v.v.v.v.v.v.v.v.v.v.v.v.v.v.v.v.v.x.:.c < 3 5 5 5 5 5 5 5 5 5 5 5 1 @ n 8.v.v.v.v.v.v.v.v.v.v.v.v.v.v.v.v.v.v.v.v.v.v.v.v.",
"v.v.v.v.v.v.v.v.v.v.v.v.v.v.v.v.v.v.v.v.8.N < 3 5 5 5 5 5 5 5 5 5 5 5 5 1 . y 5.v.v.v.v.v.v.v.v.v.v.v.v.v.v.v.v.v.v.v.v.v.v.v.v.",
"v.v.v.v.v.v.v.v.v.v.v.v.v.v.v.v.v.v.v.v.5.i 1 3 3 3 5 5 5 5 5 5 5 5 5 5 1 . y 5.v.v.v.v.v.v.v.v.v.v.v.v.v.v.v.v.v.v.v.v.v.v.v.v.",
"v.v.v.v.v.v.v.v.v.v.v.v.v.v.v.v.v.v.v.x.} t 1 1 @ 1 5 5 5 5 5 5 5 5 5 3 , X q { x.v.v.v.v.v.v.v.v.v.v.v.v.v.v.v.v.v.v.v.v.v.v.v.",
"v.v.v.v.v.v.v.v.v.v.v.v.v.v.v.v.v.v.v.8.B 4 3 1 O 1 5 5 5 5 5 5 5 5 5 1 O = $ n 8.v.v.v.v.v.v.v.v.v.v.v.v.v.v.v.v.v.v.v.v.v.v.v.",
"v.v.v.v.v.v.v.v.v.v.v.v.v.c.k.k.c.v.v.5.i 1 3 , @ 1 5 5 5 5 5 5 5 5 5 1 X ; ; i 5.v.v.v.v.v.v.v.v.v.v.v.v.v.v.v.v.v.v.v.v.v.v.v.",
"v.v.v.v.v.v.v.v.v.v.v.v.c.h.$.$.h.c.v.5.i 1 1 @ , 3 5 5 5 5 5 5 5 5 5 1 X : : i 5.v.v.v.v.v.v.v.v.v.v.v.v.v.v.c.l.c.v.v.v.v.v.v.",
"v.v.v.v.v.v.v.v.v.v.v.v.l.&.@.@.&.l.v.5.i 1 , X 1 5 5 5 5 5 5 5 5 5 3 , O : : i 5.v.v.v.v.v.v.v.v.v.v.v.v.v.c.h.%.h.c.v.v.v.v.v.",
"v.v.v.v.v.v.v.v.v.v.v.v.c.k.j.j.k.c.v.8.B 2 X . 1 5 5 5 5 5 5 5 5 5 1 O ; : ; i 5.v.v.v.v.v.v.v.v.v.v.v.v.v.l.&.#.&.l.v.v.v.v.v.",
"v.v.v.v.v.v.v.v.v.v.v.v.v.v.v.v.v.v.v.x.:.N q @ 1 5 5 5 5 5 5 5 5 5 1 X ; ; $ n 8.v.v.v.v.v.v.v.v.v.v.v.v.v.c.k.j.k.c.v.v.v.v.v.",
"v.v.v.v.v.v.v.v.v.v.v.v.v.v.v.v.v.v.v.v.x.8.] r 1 5 5 5 5 5 5 5 5 5 1 # e i z _ 2.8.x.v.v.v.v.v.v.v.v.v.v.v.v.v.v.v.v.v.v.v.v.v.",
"v.v.v.v.v.v.v.v.v.v.v.v.v.v.v.v.v.v.v.v.v.v.5.i 1 5 5 5 5 5 5 5 5 5 1 r ] 5.:.E A E :.5.8.x.v.v.v.v.v.v.v.v.v.v.v.v.v.v.v.v.v.v.",
"v.v.v.v.v.v.v.c.l.c.v.v.v.v.v.v.v.v.v.v.v.v.5.i 1 5 5 5 5 5 5 5 5 5 1 i 5.v.x.8.5.:.E A E :.5.8.x.v.v.v.v.v.v.v.v.v.v.v.v.v.v.v.",
"v.v.v.v.v.v.c.h.%.h.c.v.v.v.v.v.v.v.v.v.v.x.} t 1 5 5 5 5 5 5 5 5 5 1 i 5.v.v.v.v.z.1.4.:.E A E :.5.8.x.v.v.v.v.v.v.v.v.v.v.v.v.",
"v.v.v.v.v.v.l.&.#.&.l.v.v.v.v.v.v.v.v.v.v.8.N , 3 5 5 5 5 5 5 5 5 5 1 u } x.v.v.c.h.%.h.z.8.5.:.E A E :.5.5.5.8.x.v.v.v.v.v.v.v.",
"v.v.v.v.v.v.c.k.j.k.c.v.v.v.v.v.v.v.v.v.v.5.i > 3 5 5 5 5 5 5 5 5 5 5 8 V 8.v.v.l.&.#.&.l.v.v.x.8.5.:.E C h M U <.x.v.v.v.v.v.v.",
"v.v.v.v.v.v.v.v.v.v.v.v.v.v.v.v.v.v.v.v.v.5.i 1 5 5 5 5 5 5 5 5 5 5 5 7 p 5.v.v.c.k.j.k.c.v.v.v.v.v.x.5.' R w.X.I 8.v.v.v.v.v.v.",
"v.v.v.v.v.v.v.v.v.v.v.v.v.v.v.v.v.v.v.v.v.5.i 1 5 5 5 5 5 5 5 5 5 5 5 3 i 5.v.v.v.v.v.v.v.v.v.v.v.v.v.8.W e.y.*.m 5.v.v.v.v.v.v.",
"v.v.v.v.v.v.v.v.v.v.v.v.v.v.v.v.v.v.v.v.v.5.i 1 5 5 5 5 5 5 5 5 5 5 5 1 i 5.v.v.v.v.v.v.v.v.v.v.v.v.v.5.F p.r...I 8.v.v.v.v.v.v.",
"v.v.v.v.v.v.v.v.v.v.v.v.v.v.v.v.v.v.v.v.x.} t 1 5 5 5 5 5 5 5 5 5 5 5 1 t } x.v.v.v.v.v.v.v.v.v.v.v.x.>.Q i.9.Y -.x.v.v.v.v.v.v.",
"v.v.v.v.v.v.v.v.v.v.v.v.v.v.v.v.v.v.v.v.8.B 4 3 5 5 5 5 5 5 5 5 5 5 5 3 4 B 8.v.v.v.v.v.v.v.v.v.v.v.8.W e.y.*.m 5.v.v.v.v.v.v.v.",
"v.v.v.v.v.v.v.v.v.v.v.v.v.v.v.v.v.v.v.v.5.i 1 5 5 5 5 5 5 5 5 5 5 5 5 5 1 i 5.v.v.v.v.v.v.v.v.v.v.v.5.F p.r...I 8.v.v.v.v.v.v.v.",
"v.v.v.v.v.v.v.v.v.v.v.v.v.v.v.v.v.v.v.x.} t 1 5 5 5 5 5 5 5 5 5 5 5 5 5 3 i 5.v.v.v.v.v.v.v.v.v.v.v.5.F p.0.Y -.x.v.v.v.v.v.v.v.",
"v.v.v.v.v.v.v.v.v.v.v.v.v.v.v.v.v.v.v.8.N , 3 5 5 5 5 5 5 5 5 5 5 5 5 5 7 p 5.v.v.v.v.v.v.v.v.v.v.x.>.Q u.o.I 7.k.k.c.v.v.v.v.v.",
"v.v.v.v.v.v.v.v.c.l.c.v.v.v.v.v.v.v.v.5.i > 3 5 5 5 5 5 5 5 5 5 5 5 5 5 7 p 5.v.v.v.v.v.v.v.v.v.v.8.W e.q.T =.g.$.$.h.c.v.v.v.v.",
"v.v.v.v.v.v.v.c.h.%.h.c.v.v.v.v.v.v.v.5.i 1 5 5 5 5 5 5 5 5 5 5 5 5 5 5 3 i 5.v.v.v.v.v.v.v.v.v.v.5.D t.o.I 1.&.@.@.&.l.v.v.v.v.",
"v.v.v.v.v.v.v.l.&.#.&.l.v.v.v.v.v.v.v.5.i 1 5 5 5 5 5 5 5 5 5 5 5 5 5 5 1 i 5.v.v.v.v.v.v.v.v.v.x.>.R | ~ <.z.k.j.j.k.c.v.v.v.v.",
"v.v.v.v.v.v.v.c.k.j.k.c.v.v.v.v.v.v.v.5.i , 3 5 5 5 5 5 5 5 5 5 5 5 5 3 4 B 8.v.v.v.v.v.v.v.v.x.;.P  .! ,.x.v.v.v.v.v.v.v.v.v.v.",
"v.v.v.v.v.v.v.v.v.v.v.v.v.v.v.v.v.v.v.8.n % , 1 3 5 5 5 5 5 5 5 3 1 1 4 b :.x.v.v.v.v.v.v.v.v.f.E s K ( g.c.v.v.v.v.v.v.v.v.v.v.",
"v.v.v.v.v.v.v.v.v.v.v.v.v.v.v.v.v.v.v.x.;.n i t 4 1 1 1 1 1 1 1 , & r B :.x.v.v.v.v.v.v.v.v.v.x.3.` ) O.&.l.v.v.v.v.v.v.v.v.v.v.",
"v.v.v.v.v.v.v.v.v.v.v.v.v.v.v.v.v.v.v.v.x.8.5.} B i i i i i i i i n { 8.x.v.v.v.v.v.v.v.v.v.v.v.c.k.j.j.k.c.v.v.v.v.v.v.v.v.v.v.",
"v.v.v.v.v.v.v.v.v.v.v.v.v.v.v.v.v.v.v.v.v.v.v.x.8.5.5.5.5.5.5.5.5.8.x.v.v.v.v.v.v.v.v.v.v.v.v.v.v.v.v.v.v.v.v.v.v.v.v.v.v.v.v.v."
};
