/* XPM */
static char *result[] = {
/* columns rows colors chars-per-pixel */
"64 64 162 2 ",
"   c #1B1E11",
".  c #231F15",
"X  c #1A2011",
"o  c #222416",
"O  c #232E16",
"+  c #252E19",
"@  c #2E2C1E",
"#  c #37201D",
"$  c #243117",
"%  c #273119",
"&  c #2A351B",
"*  c #2D381D",
"=  c #303B1F",
"-  c #2D2E21",
";  c #322A20",
":  c #2E3220",
">  c #323322",
",  c #3C3223",
"<  c #333C21",
"1  c #383927",
"2  c #383A2B",
"3  c #422725",
"4  c #413625",
"5  c #4D322C",
"6  c #423D2D",
"7  c #443F30",
"8  c #5B3236",
"9  c #68373D",
"0  c #364124",
"q  c #3A4627",
"w  c #3D4628",
"e  c #40442C",
"r  c #4C402E",
"t  c #454B2C",
"y  c #494E2F",
"u  c #4A502F",
"i  c #434331",
"p  c #4A4734",
"a  c #494833",
"s  c #4D493E",
"d  c #544D3B",
"f  c #4E5332",
"g  c #4F5439",
"h  c #505734",
"j  c #525A37",
"k  c #56563C",
"l  c #79532E",
"z  c #55653B",
"x  c #504B41",
"c  c #525143",
"v  c #5F5743",
"b  c #714647",
"n  c #665C45",
"m  c #635D4A",
"M  c #605951",
"N  c #576940",
"B  c #5A6B42",
"V  c #5E6946",
"C  c #5F7246",
"Z  c #626C45",
"A  c #6A624B",
"S  c #637349",
"D  c #6C794E",
"F  c #716A53",
"G  c #677653",
"H  c #6D7C51",
"J  c #707D52",
"K  c #6F6660",
"L  c #746A61",
"P  c #7C7666",
"I  c #7F7C77",
"U  c #86454E",
"Y  c #8D4851",
"T  c #8D5256",
"R  c #847455",
"E  c #837855",
"W  c #8B7B5C",
"Q  c #A56B41",
"!  c #A16D48",
"~  c #A3714A",
"^  c #B67649",
"/  c #83796E",
"(  c #85796D",
")  c #B26568",
"_  c #6E8053",
"`  c #708255",
"'  c #768259",
"]  c #79865B",
"[  c #7B895D",
"{  c #7BA050",
"}  c #7F8174",
"|  c #B6834E",
" . c #BB8A56",
".. c #8E8360",
"X. c #958362",
"o. c #9B8C67",
"O. c #988568",
"+. c #92896F",
"@. c #848078",
"#. c #938775",
"$. c #9C9174",
"%. c #A28F6C",
"&. c #A3946F",
"*. c #AD956E",
"=. c #A69770",
"-. c #AB9772",
";. c #AD9974",
":. c #A59A7E",
">. c #B29E7A",
",. c #94B26B",
"<. c #AEA17A",
"1. c #B4A17C",
"2. c #CCA06A",
"3. c #D1A56B",
"4. c #8B8984",
"5. c #928E86",
"6. c #999589",
"7. c #9C968A",
"8. c #ADA181",
"9. c #B0A484",
"0. c #B9A680",
"q. c #BAA984",
"w. c #B5A688",
"e. c #BBAC8C",
"r. c #BEB18E",
"t. c #BFB491",
"y. c #C1A980",
"u. c #C5A88E",
"i. c #C1B28E",
"p. c #CFAD93",
"a. c #C3B492",
"s. c #CDB597",
"d. c #C7BC97",
"f. c #CABC97",
"g. c #C5B79A",
"h. c #CDBE9D",
"j. c #D1BE9A",
"k. c #CCC29A",
"l. c #D3C39E",
"z. c #D5C99D",
"x. c #D8CA9F",
"c. c #D7C6A2",
"v. c #D6CBA4",
"b. c #DACBA4",
"n. c #DCCDA8",
"m. c #DDD0A5",
"M. c #D5D4AB",
"N. c #DED2AB",
"B. c #D8DCB1",
"V. c #E3D6AA",
"C. c #E6D9AD",
"Z. c #E5DDB3",
"A. c #E9DEB2",
"S. c #EAE1B5",
"D. c #E6E1BB",
"F. c #EBE7BF",
"G. c #E7EDBD",
"H. c #EFEDC5",
"J. c #F1ECC3",
"K. c #F5F3CA",
"L. c #F8F6CC",
"P. c #F8F9CE",
/* pixels */
"c.c.c.c.c.c.c.c.c.c.c.c.c.c.c.c.c.c.c.c.c.c.c.c.c.c.c.c.c.c.c.c.c.c.c.c.c.c.c.c.c.c.c.c.c.c.c.c.c.c.c.c.c.c.c.c.c.c.c.c.c.c.c.c.",
"c.c.c.c.c.c.c.c.c.c.c.c.c.c.c.c.c.c.c.c.c.c.c.c.c.c.c.c.c.b.c.c.c.c.c.c.c.c.c.c.c.c.c.c.c.c.c.c.c.c.c.c.c.c.c.c.c.c.c.c.c.c.c.c.",
"c.c.c.c.c.c.c.c.c.c.c.c.c.c.c.c.c.c.c.c.c.c.c.c.c.c.c.c.c.c.c.c.c.c.c.c.c.c.c.c.c.c.c.c.c.c.c.c.c.c.c.c.c.c.c.c.c.c.c.c.c.c.c.c.",
"c.c.c.c.c.c.c.c.c.c.c.c.c.c.c.c.c.c.c.c.c.c.c.c.c.c.c.c.c.c.c.c.c.c.c.c.c.c.c.c.c.c.c.c.c.c.c.c.c.c.c.c.c.c.c.c.c.c.c.c.c.c.c.c.",
"c.c.c.c.c.c.c.c.h.h.h.c.c.c.c.c.c.c.c.c.c.c.c.c.c.c.c.c.c.c.c.c.c.c.c.c.c.c.h.h.c.c.c.c.c.c.c.c.c.c.c.c.c.c.c.c.c.c.c.c.c.c.c.c.",
"c.c.c.c.c.c.c.g.5.4.4.g.c.c.c.c.c.c.c.c.c.c.c.c.c.c.c.c.c.c.c.c.c.c.c.c.c.g.5.4.e.d.d.d.d.d.c.c.c.c.c.c.c.c.c.c.c.c.c.c.c.c.c.c.",
"c.c.c.c.c.c.l.7.4.4.4.7.h.c.c.c.c.c.c.c.c.c.c.c.c.c.c.c.c.c.c.c.c.c.c.c.h.5.} G V H H H H ' d.c.c.c.c.c.c.c.c.c.c.c.c.c.c.c.c.c.",
"c.c.c.c.c.c.c.h.h.h.h.h.c.c.c.c.c.c.c.c.c.c.c.c.c.c.c.c.c.c.c.c.c.c.c.f.r.' Z C B j j f f 2 e.c.c.c.c.c.c.c.c.c.c.b.c.c.c.c.c.c.",
"c.c.c.c.c.c.c.c.c.c.c.c.c.c.c.c.c.c.c.c.c.c.c.c.c.c.c.c.c.c.c.l.l.f.r.] Z C B j h f f f e : @.g.c.c.c.c.c.c.c.c.c.c.c.c.c.c.c.c.",
"c.c.c.c.c.c.c.c.c.c.c.c.c.c.c.c.c.c.c.c.c.c.c.c.c.c.c.c.c.c.l.k.r.] Z C B j h f f f f t % 2 I 7.l.c.c.c.c.c.c.c.c.c.c.c.c.c.c.c.",
"c.c.c.c.c.c.c.c.c.c.c.c.c.c.c.c.c.h.h.c.c.c.c.c.c.c.c.k.f.d.t.] Z C N j h f f f f f t & : :.g.h.c.c.c.c.c.c.c.c.c.c.c.c.c.c.c.c.",
"c.c.c.c.c.c.c.c.c.c.c.c.c.c.c.c.g.5.5.g.c.c.c.c.l.d.t.[ ` ` ` S z j f f f f f f u t & $ i a.c.c.c.c.c.c.c.c.c.c.c.c.c.c.c.c.c.c.",
"c.c.c.c.c.c.c.c.c.c.c.c.c.c.c.h.7.4.4.7.k.c.c.d.r.[ D C Z C C B q < t f f f y t * & O : 8.l.c.c.c.c.c.c.b.c.c.c.c.c.c.c.c.c.c.c.",
"c.c.c.c.c.c.c.c.c.c.c.c.c.c.c.c.h.h.h.h.c.l.t.[ _ C j j h h h f y t 0 y y t * & $ $ O i a.c.c.c.c.c.c.c.c.c.c.c.c.c.c.c.c.c.c.c.",
"c.c.c.c.c.c.c.c.c.c.c.c.c.c.c.c.c.c.c.c.c.t.] C j j f f f h f f f f y y * & $ $ $ $ < 8.l.c.c.c.c.c.c.c.c.c.c.c.c.c.c.c.c.c.c.c.",
"c.c.c.c.c.c.c.c.c.c.c.c.c.c.c.c.c.c.c.c.d.[ C z f f f f f f f f f f f f t * $ $ $ X : r.c.c.c.h.h.h.c.c.c.c.c.c.c.c.c.c.c.c.c.c.",
"c.c.c.c.c.c.c.c.c.c.c.c.c.c.c.c.c.c.c.c.h.[ G S j h h a h f f f f f f f u t & & $ O - r.c.c.g.5.4.4.g.c.c.c.c.c.c.c.c.c.c.c.c.c.",
"c.c.c.c.c.c.c.c.c.c.c.c.c.c.c.c.c.c.c.c.c.i.&.o.D S j h h f f f h f f f h f a y * O i a.c.h.7.4.4.4.7.h.c.c.c.c.c.c.c.c.c.c.c.c.",
"c.c.c.c.c.c.c.c.c.c.c.c.c.c.c.c.c.c.c.c.j.1.b.z.=...S B h f f f f f f f f f f f t > $.l.c.c.h.h.h.h.h.c.c.c.c.c.c.c.c.c.c.c.c.c.",
"c.c.c.c.c.c.c.c.c.c.c.c.c.c.c.c.c.c.c.c.l.1.M.l.f.#.L c B h f h f f f f f f f f f t i a.c.c.c.c.c.c.c.c.c.c.c.c.c.c.c.c.c.c.c.c.",
"c.c.c.c.c.c.c.c.c.c.c.c.c.c.c.c.c.c.c.c.c.f.F A ;.d./ L B j f f f f f f f f f f f y > 8.j.c.c.c.c.c.c.c.c.c.c.c.c.c.c.c.c.c.c.c.",
"c.c.c.c.c.c.c.c.c.c.c.c.c.c.c.c.c.c.c.c.c.V.l.k.m.k./ L c B h h f f h f f f f f f a & i a.c.c.c.c.c.c.c.c.c.c.c.c.c.c.c.c.c.c.c.",
"c.c.c.c.c.c.c.c.c.c.c.c.c.c.c.c.c.c.c.c.x.C.m.<.B.@.L / P S f u f f f f f f f f f y & : 8.c.c.c.c.c.c.c.c.c.c.c.c.c.c.c.c.c.c.c.",
"c.c.c.c.h.h.c.c.v.v.c.c.c.c.c.c.c.c.c.c.b.C.z.z { g v d.k.J q t f f f f f f f f f f t * i 8.c.c.c.c.c.c.c.c.c.c.c.c.c.c.c.c.c.c.",
"c.c.c.g.5.5.g.c.c.c.c.c.c.c.c.c.c.c.c.c.b.V.z.z { ,.B.S.V.&.Z q y u f f f f f f f f f t w t 8.c.c.c.c.c.c.c.c.c.c.c.c.c.c.c.c.c.",
"c.c.h.7.4.4.7.h.c.c.c.c.c.c.c.c.c.c.l.d.k.C.z.S ,.G.P.K.C.z.o.Z q y f f f f f f f f f t : $ i 9.c.c.c.c.c.c.c.c.c.c.c.c.c.c.c.c.",
"c.c.c.h.h.h.h.c.c.c.c.c.c.c.c.c.c.c.a.n F Z.C.m.G.K.S.A.C.z.%.E z 0 u f f f f f f f t * $ $ $ c s.c.c.c.c.c.c.c.c.c.c.c.c.c.c.c.",
"c.c.c.c.c.c.c.c.c.c.c.c.c.c.c.c.c.c.j.%.k.C.C.C.A.A.C.V.x.-.R , < y u f f f f f u t * & $ $ w 9.l.c.c.c.c.c.c.c.v.c.c.c.c.c.c.c.",
"c.c.c.c.c.c.c.c.c.c.c.c.c.c.c.c.c.c.j.>.x.C.C.C.C.C.C.x.-.R * * t y f f h f f t * & $ X + 7 w.l.c.c.c.c.c.c.c.c.c.c.c.c.c.c.c.c.",
"c.c.c.c.c.c.c.c.c.c.c.c.c.c.c.c.c.c.c.f.0.x.V.V.C.C.x.*.R , & t h h f f u y t * & X $ : 7 9.l.c.c.c.c.c.c.c.c.c.c.c.c.c.c.c.c.c.",
"c.c.c.c.c.c.c.c.c.c.c.c.c.c.c.c.c.c.c.c.j.0.n.V.m.z.o.R > % e u t y y t * % & O O : i 8.t.c.c.c.c.c.c.c.c.c.c.c.c.c.c.c.c.c.c.c.",
"c.c.c.c.c.c.c.c.c.c.c.c.c.c.c.c.c.c.c.c.l.j.l.>.;...* o O O % % % % % % O O O & 7 8.a.j.c.c.c.c.c.c.c.c.c.c.c.c.c.c.c.c.c.c.c.c.",
"c.c.c.c.c.c.c.c.c.c.c.c.c.c.c.c.c.c.c.c.c.c.c.j.e.4 . .   X X X   X X X + - i 8.a.l.c.c.c.c.c.c.c.c.c.c.c.c.c.c.c.c.c.c.c.c.c.c.",
"c.c.c.c.c.c.c.c.c.c.c.c.c.c.c.c.c.c.c.c.c.c.c.c.u.b 8 #   O O O O O O @ +.e.a.l.c.c.c.c.c.c.c.c.c.c.c.c.c.c.c.c.c.c.c.c.c.c.c.c.",
"c.c.c.c.c.c.c.c.c.c.c.c.c.c.c.c.c.c.c.c.c.c.c.p.) U 8 #   O $ $ $ $ $ O 6 a.c.c.c.c.c.c.c.c.c.c.c.c.c.c.c.c.c.c.c.c.c.c.c.c.c.c.",
"c.c.c.c.c.c.c.c.c.c.c.c.c.c.c.c.c.c.c.c.c.c.j.) Y 9 3 @ X O $ & $ $ $ O : 8.l.c.c.c.c.c.c.c.c.c.b.c.c.c.c.c.c.c.c.c.c.c.c.c.c.c.",
"c.c.c.c.c.c.c.c.c.c.c.c.c.c.c.c.c.c.c.c.c.c.s.T 9 3 ; # X O * e & $ $ $ O i a.c.c.c.c.c.c.c.c.c.c.c.c.c.c.c.c.c.c.c.c.c.c.c.c.c.",
"c.c.c.c.c.c.c.c.c.c.c.c.c.c.h.h.c.c.c.c.c.c.s.d 5 6 4 - X % t y & t & % O : 8.l.c.c.c.c.c.c.c.c.c.c.c.c.c.c.c.c.c.c.c.c.c.c.c.c.",
"c.c.c.c.c.c.c.c.c.c.c.c.c.g.5.4.s.c.c.c.c.c.j.i.%.y.! 4 X % y y = y y t & + i a.c.c.c.c.c.c.c.c.c.c.c.c.c.c.c.c.l.c.c.c.c.c.c.c.",
"c.v.c.c.c.c.c.c.c.c.c.c.h.7.4.4.7.j.c.c.c.c.c.h.*.2.^ l o + y f y * y y < w 1 8.l.c.c.c.c.c.c.c.c.c.c.c.c.c.c.s.6.g.c.c.c.c.c.c.",
"c.c.c.c.c.c.c.c.c.c.c.c.c.h.h.h.h.c.c.c.c.c.c.j.2.D. .Q 1 X t f y = u f u f t p a.c.c.c.c.c.c.c.c.c.c.c.c.c.l.7.4.7.h.c.c.c.c.c.",
"c.c.c.c.c.c.c.c.c.c.c.c.c.c.c.c.c.c.c.c.c.c.c.N.J.F.3.| 4 o t f f t f f f f t 1 8.l.c.c.c.c.c.c.c.c.c.c.c.c.c.h.h.h.c.c.c.c.c.c.",
"c.c.c.c.c.c.c.c.c.c.c.c.c.c.c.c.c.c.c.c.c.c.n.K.L.A.l.~ , o y f y 0 y f f f f t i a.c.c.c.c.c.c.c.c.c.c.c.c.c.c.c.c.c.c.c.c.c.c.",
"c.c.c.c.c.c.c.c.c.c.c.c.c.c.c.c.c.c.c.c.c.c.N.K.A.x.%.r ; o y f u u f f f f f y 1 8.l.c.c.c.c.c.c.c.c.c.c.c.c.c.c.c.c.c.c.c.c.c.",
"c.c.c.c.c.b.c.c.l.c.c.c.c.c.c.c.c.c.c.c.c.n.J.J.V.*.W p @ o y f h f f f f h f f t p 9.l.c.c.c.c.c.c.c.c.c.c.c.c.c.c.c.c.c.c.c.c.",
"c.c.c.c.c.c.c.g.7.g.c.c.c.c.c.c.c.c.c.c.c.h.0.n.z.X.A <.p o t f f f f f f f f f f t p 9.l.c.c.c.c.c.c.c.c.c.c.c.c.c.c.c.c.c.c.c.",
"c.c.c.c.c.c.h.7.4.7.j.c.c.c.c.c.c.c.c.c.l.j.=.l.O.n i.x.W @ t f f f f f f f f f h u t i 9.l.c.c.c.c.c.n.n.n.n.c.c.c.c.c.c.c.c.c.",
"c.c.c.c.c.c.c.h.h.h.c.c.c.c.c.c.c.c.c.c.c.g.F 8.k X.m.m.o.@ y f f f f f f f f f a h h t p 9.l.c.c.c.N.H.K.L.H.N.c.c.c.c.c.c.c.c.",
"c.c.c.c.c.c.c.c.c.c.c.c.c.c.c.c.c.c.c.c.c.c.w.m d o.n.m.O.@ y f f f f f f f f f f u f f t p 8.c.c.N.H.A.A.A.S.J.n.c.c.c.c.c.c.c.",
"c.c.c.c.c.c.c.c.c.c.c.c.c.c.c.c.c.c.c.c.c.c.c.g.e.-.V.n.O.@ t f f y f f u f f f y 0 u f f t p 8.c.H.A.Z.C.C.C.C.c.c.c.c.c.c.c.c.",
"c.c.c.c.c.c.c.c.c.c.c.c.c.c.c.c.c.c.c.c.c.c.c.c.l.-.x.x.W @ a f u 0 y u 0 u f f f y a f f f t p a.n.n.m.V.V.V.c.c.c.c.c.c.c.c.c.",
"c.c.c.c.c.c.c.c.c.c.c.c.c.c.c.c.c.c.c.c.c.c.c.c.f.*.z.z.e t f f u t f f y y f f f u < t f f t 1 9.%.%.>.l.c.c.c.c.c.c.c.c.c.c.c.",
"c.c.c.c.c.c.c.c.c.n.c.c.c.c.c.c.c.c.c.c.c.c.c.c.j.%.#.g.1 y f f u * u f y < u f f f y < t t % o 6 6 v i.c.c.c.c.c.c.c.c.c.c.c.c.",
"c.c.c.c.c.c.c.c.c.c.c.c.c.c.c.c.c.c.c.c.c.c.c.c.j.O.( t.1 t f f y < y f y * t f f f f w < : : 2 e d w.c.c.c.c.c.c.c.c.c.c.c.c.c.",
"c.c.c.c.c.c.c.c.c.c.c.c.c.c.c.c.c.c.c.c.c.c.c.c.a.m / 9.1 t f f f t * u f t = t y y t & + 2 8.a.a.a.c.c.c.c.c.c.c.c.c.c.c.c.c.c.",
"c.c.c.c.c.c.c.c.c.c.c.c.c.c.c.c.c.c.c.c.c.c.c.g.5.I K x * t f f f t * t t * O % % % % * 7 9.l.c.c.c.c.c.c.c.c.c.h.l.c.c.c.c.c.c.",
"c.c.c.c.c.c.c.c.c.h.c.c.c.c.c.c.c.c.c.c.c.c.h.7.6.5.M s & & y a t & O % % + : : - > 7 8.r.l.c.c.c.c.c.c.c.c.c.g.5.5.g.c.c.c.c.c.",
"c.c.c.c.c.c.c.c.g.7.g.c.c.c.c.c.c.c.c.c.c.c.c.v.D.D.d.w.0 $ $ % % $ : > : i 8.t.r.r.g.l.c.c.c.c.c.c.c.c.c.c.h.7.4.4.6.h.c.c.c.c.",
"c.c.c.c.c.c.c.h.7.4.7.h.c.c.c.c.c.c.c.c.c.c.n.D.q.>.;.%.e > ; > : i 8.r.e.a.l.c.c.c.c.c.c.c.c.c.c.c.c.c.c.c.c.h.h.h.h.c.c.c.c.c.",
"c.c.c.c.c.c.c.c.h.h.h.c.c.c.c.c.c.c.c.c.c.c.c.b.l.h.j.h.i.r.i.a.r.a.l.c.c.c.c.c.c.c.c.c.c.c.c.c.c.c.h.h.c.c.c.c.c.c.c.c.c.c.c.c.",
"c.c.c.c.c.c.c.c.c.c.c.c.c.c.c.c.c.c.c.c.c.c.c.c.c.c.c.c.c.c.c.c.c.c.c.c.c.c.c.c.c.c.c.c.c.c.c.c.c.g.5.5.g.c.c.c.c.c.c.c.c.c.c.c.",
"c.c.c.c.c.c.c.c.c.c.c.c.c.c.c.c.c.c.c.c.c.c.c.c.c.c.c.c.c.c.c.c.c.c.c.c.c.c.c.c.c.c.c.c.c.c.c.c.h.7.4.4.7.h.c.c.c.c.c.c.c.c.c.c.",
"c.c.c.c.c.c.c.c.c.c.c.c.c.c.c.c.c.c.c.c.c.c.c.c.c.c.c.c.c.c.c.c.c.c.c.c.c.c.c.c.c.c.c.c.c.c.c.c.c.h.h.h.h.c.c.c.c.c.c.c.c.c.c.c.",
"c.c.c.c.c.c.c.c.c.c.c.c.c.c.c.c.c.c.c.c.c.c.c.c.c.c.c.c.c.c.c.c.c.c.c.c.c.c.c.c.c.c.c.c.c.c.c.c.c.c.c.c.c.c.c.c.c.c.c.c.c.c.c.c."
};
