/* XPM */
static char *result[] = {
/* columns rows colors chars-per-pixel */
"60 60 237 2 ",
"   c #1E0608",
".  c #180C12",
"X  c #1E1112",
"o  c #270809",
"O  c #230A0C",
"+  c #340B0C",
"@  c #35110D",
"#  c #3C140D",
"$  c #280E11",
"%  c #2C1817",
"&  c #3B1815",
"*  c #382212",
"=  c #131127",
"-  c #0E1C3B",
";  c #1C1934",
":  c #2A162C",
">  c #371429",
",  c #192838",
"<  c #342B2D",
"1  c #3C2E2E",
"2  c #282C39",
"3  c #3A3437",
"4  c #363538",
"5  c #4C0F0F",
"6  c #44140E",
"7  c #590C1B",
"8  c #451B15",
"9  c #561718",
"0  c #720D0E",
"q  c #77150C",
"w  c #660A16",
"e  c #6B0C14",
"r  c #640B19",
"t  c #690B18",
"y  c #720F14",
"u  c #65141A",
"i  c #761716",
"p  c #7B1312",
"a  c #4A261B",
"s  c #542B1D",
"d  c #573319",
"f  c #652B17",
"g  c #7C241C",
"h  c #4D1C27",
"j  c #561A24",
"k  c #671A23",
"l  c #781C22",
"z  c #4E292B",
"x  c #5B3427",
"c  c #4C3A33",
"v  c #652827",
"b  c #692F2E",
"n  c #673927",
"m  c #783A2A",
"M  c #783C31",
"N  c #4C472D",
"B  c #7B462B",
"V  c #6E4F33",
"C  c #764A33",
"Z  c #77663B",
"A  c #102D4F",
"S  c #1A344A",
"D  c #0B345C",
"F  c #253D43",
"G  c #2F364F",
"H  c #373447",
"J  c #3C3F44",
"K  c #0C3966",
"L  c #453949",
"P  c #5E3947",
"I  c #254242",
"U  c #3C4045",
"Y  c #3F4946",
"T  c #3D4759",
"R  c #2D5359",
"E  c #134568",
"W  c #12496F",
"Q  c #254968",
"!  c #29586F",
"~  c #3A6362",
"^  c #454547",
"/  c #424B4A",
"(  c #4E5947",
")  c #4C5A4D",
"_  c #584B55",
"`  c #5D575F",
"'  c #4D684A",
"]  c #536952",
"[  c #577854",
"{  c #6E6F4C",
"}  c #4C7D62",
"|  c #566574",
" . c #6D6D6F",
".. c #85180C",
"X. c #8C1C0C",
"o. c #901D0C",
"O. c #851812",
"+. c #921F10",
"@. c #8D210B",
"#. c #92240D",
"$. c #942B0C",
"%. c #992C0C",
"&. c #9E300D",
"*. c #872517",
"=. c #8D2B15",
"-. c #962913",
";. c #893219",
":. c #9C3313",
">. c #9B3717",
",. c #9F3814",
"<. c #A1380E",
"1. c #A13612",
"2. c #A43D13",
"3. c #A73D16",
"4. c #852C24",
"5. c #853727",
"6. c #903830",
"7. c #95421F",
"8. c #AA430E",
"9. c #A74215",
"0. c #AA4413",
"q. c #AD4A14",
"w. c #AB461B",
"e. c #B14D1A",
"r. c #AF5116",
"t. c #B3521D",
"y. c #B9581D",
"u. c #BD611F",
"i. c #844C28",
"p. c #8A4A37",
"a. c #855836",
"s. c #A74B25",
"d. c #A45026",
"f. c #BA5B23",
"g. c #A54B38",
"h. c #AC553A",
"j. c #8B7429",
"k. c #866639",
"l. c #8B733A",
"z. c #C26424",
"x. c #C76929",
"c. c #CB722B",
"v. c #904B42",
"b. c #AA5549",
"n. c #986A49",
"m. c #877741",
"M. c #8E6753",
"N. c #BD634E",
"B. c #BA6956",
"V. c #B3725C",
"C. c #9B6C65",
"Z. c #987975",
"A. c #C66D5A",
"S. c #CA745D",
"D. c #C77964",
"F. c #D17E65",
"G. c #588156",
"H. c #718F4B",
"J. c #658859",
"K. c #6E9A5C",
"L. c #7B9455",
"P. c #719C5B",
"I. c #77A45B",
"U. c #4D8163",
"Y. c #528462",
"T. c #6D976A",
"R. c #729967",
"E. c #77A962",
"W. c #7DB265",
"Q. c #A9922B",
"!. c #86894A",
"~. c #88904C",
"^. c #AE9D46",
"/. c #87A85B",
"(. c #90AF5A",
"). c #88B45D",
"_. c #92AF6D",
"`. c #84BE65",
"'. c #89BD62",
"]. c #83B768",
"[. c #CF8165",
"{. c #D38467",
"}. c #DF9677",
"|. c #E4987C",
" X c #86C466",
".X c #8AC466",
"XX c #87CA67",
"oX c #8CCD67",
"OX c #85C669",
"+X c #88C66A",
"@X c #86CA6A",
"#X c #8CCD69",
"$X c #91C464",
"%X c #91CE66",
"&X c #91CE69",
"*X c #8ED167",
"=X c #8DD169",
"-X c #8AD469",
";X c #93D266",
":X c #98D466",
">X c #95D867",
",X c #99D966",
"<X c #92D269",
"1X c #99D669",
"2X c #94D869",
"3X c #9BDB69",
"4X c #145785",
"5X c #19678F",
"6X c #2A718E",
"7X c #1C7DA2",
"8X c #707885",
"9X c #2B87A5",
"0X c #48888F",
"qX c #7A8694",
"wX c #8A918F",
"eX c #838C94",
"rX c #AC9D95",
"tX c #8E9AA2",
"yX c #9CAAB1",
"uX c #A5B1BB",
"iX c #EC9F82",
"pX c #D5A997",
"aX c #EAA186",
"sX c #EEAA89",
"dX c #F1A78B",
"fX c #F1A98B",
"gX c #EBB69E",
"hX c #DCBEB1",
"jX c #E6CCB7",
"kX c #A9B8C2",
"lX c #BECDD4",
"zX c #C8CED8",
"xX c #C9D4DA",
"cX c #C1DBE0",
"vX c #DBE2E6",
"bX c #E5EAEC",
"nX c #F1F7F6",
/* pixels */
":X<X#X=X<X:X<X<X<X=X#X#XOX#X<X=X%X;X#X#X-X<X=X#X=X=X2X=X<X<X&X<X<X1X1X1X=X@XOX@X@X#X#X&X#X<XoX#X:X#X=X<X<X<X=X<X2X=X-X+X",
";X<X#X=X&X<X&X#X&X%X#X@XOXOX#X#X&X@X@X#X<X<X<X<X<X<X=X<X<X=X&X1X3X&X<X1X1X@X@XOX#X#X@X&X=X=X#X#X<X;X%X%X&X2X:X<X2X<X<X#X",
"*X<X#X#XoX=X&X<XoX;X;X<X#X-X#X<X=X#X@X#X<X<X:X:X1X&X<X=X=X#X&X<X<X<X%X%X2X=X=X=X:X<X<X<X=XXX@X#X#XoX;XoX<X;X<X=X=X#X;X<X",
"=X@X#X#X#X=X=X:XoX=X<X;X<X<X<X<X=X-X-X=X#X=X-X<X&X@X#X=X=X=X#X#X:X3X:X:X2X3X2X<X<X#X=X:X=X=X#XXX#X%XoX#XXX;X<X<X-X@X*X:X",
"#XoXoXXXoXoXXX=X&X&X#X=X=X<X;X<X=X#X#X:X=X#X<X=X#XXX@X#X#X#X@X(.!.!.!.!.~.'.<X*X#X<X<X1X:X&X#X#X@X#XoX&X%X%X*X#X=XoX@XXX",
":X:X<X;XoX%X;X:X<X:X:X=X<X#X#X#X#XoX&X%X&X#X#X-X-X#X#X#X-X#X'.l.+.+.o.o.O.!.'.'.'.$X'.&X+X#X=X#X+X&X%X<XoX;X2X-X<X#X;X#X",
"#X<X<X<X<XXXXX;X1X;X<X;X<X=X#X#X&X&X%X%X=X<X#X@X=X2X<X<X#X'.i.d.x.x.e.:.0 g 5.5.4.;.i.'.&X+X&X<X<XoX%X&X<X=X;X*X;X#X&X&X",
"*X;X%X=X&X#XXX=X<X<X%X<X#X<X#XoX#X&X;XoX#X&X#XXX!.m.m.m.m.m.d.f.c.y.e.2.q >.w.w.<.X.l ).3X1X<X:X<X#X@XoX;X<X<XoX#X%XoX#X",
"*X*X*X@X%X;X#X#X%X;X;X&X&X;X<X&X#X=X;X*XoXoXXX/.i.X.X.o.X.-.z.x.u.q.3.,.-.f.c.x.r.=.k /.#X#X&X;XXX+X@X%X#X<X<X#X#X#X#X#X",
"XXoX;X%XoX#X%X%X#X#X%XXX%X#X&X#X@X#X<X#X;X%X/.5.>.9.8.2.9.0.q.q.w.w.%.:.z.c.z.q.q.=.v /.&X&X&X:XoX@X;X:X;X=X;X#XXX@X-X-X",
"@X@X=X<X%X:X:X:X;X=X;X;X<X@X#X=X#X<X=X=X#X!.i.O.#.-.%.9.0.0.0.0.0.0.<.2.t.y.t.9.=.B H.'.1X;X#X;X%X#X*X;X-X=X-X<X#X#X;X<X",
"=X#XXX#X&X<X;X<X=X;X=X#X<X=X<X%X=X@X#X X/.i.#.#.X.X.#.9.0.0.0.0.0.8.0.0.w.8.0.,.q Z @X%X%X&X<X*X;XXXXX;X;X2X<X#XXXOXXX:X",
"<X=X#X#X#X#X#X&X;X:XoXXX;X;X&X&X:X@X=X/.;.,.0.3.#.$.3.0.0.q.0.0.0.0.q.0.8.3.2.X...a.oXXX XoX#X=X*X#X#X:X<X&X<X&XoXoX X#X",
"=X#X<X#X#X#X;X%X%X%XoXoX%X&X#X@X#X<X~.i.,.t.z.z.3.2.0.0.0.8.0.y.z.z.r.2.%.f.u.t.1.7.k.].#X%X=X<X<X-X=X#X<X&X<X=X<X&X<X&X",
"=X=X<X<X<X&X;X&X#X#X#X;X#XoXXXXX#X#Xk.#.r.x.c.z.e.9.8.0.8.0.<.e.x.c.u.0.$.w.z.c.y.3.=.H.].oX#X:X=X<X2X<X@XoXoX#X;X#X#X<X",
"@X@X@X#X&X&X<X#X@XoX;X@XOX#XoX<X;XXXa.-.x.c.z.q.9.0.q.0.0.3.X.:.t.x.c.z.8.$.1.c.c.u.3.o.l.@XOX=XoXoXoX;X@X@X@X=X%XOXOXXX",
"@XOX@X-X#X-X#X#X=X;X*X#X#X<X#X#XoX=Xk.-.c.y.e.0.%.2.x.q.1.#.X.%.w.r.z.x.8.-.X.>.z.f.3.o.l.%X#X#X-X=XXXXX#X#X&X=X#X#X#X@X",
"-X#X=X=X-X#X=X=X#X%X#X<X<X-X#XXX XK.C -.f.r.2.1.,.e.x.e.=.O...$.,.9.y.y.0.@...X.s.e.3.o.l.<X;X&X=X=X#X=X;X&X#X*X<X-X=X<X",
"1X<X-X#X#X<X=X=X#X@X+X#X<X#X=X+XE.Q z +.9.0.<.X.f.c.x.q.*.r O...@.3.8.q.9.i q O...-.3.X.l.<X#X<X#X#X#X=XoX<X-X<X<X2X=X@X",
"<X<X2X=X<X1X=X#XOXOXOX@X@X<X<XY.! 6XL p 9.q.1.X.f.x.e.%.j : r ..X.@.1.w.w.i e e e 0 y 0 Z <X#X#X&X&X<X#XoXoX=X<X-X<X=X@X",
"#X@X=X=X;X;X;X#X&X#X+X&X=X*X-X} K 5XL y 3.1.%.X.e.e.:.X.h - : 7 p p O.=.=.y 7 > V Z Z { H.@X@XXX@X#XoXoXOX<X<X<X-X*X=X=X",
"=X#X<X:X;X#X%X<X&X&X<X<X=XoX;X} K W H u 1.+.O.O.:.&.X.i h ; - > t k r 7 7 t j 2 K.-X#X#X#X<X=XoX@X@X#X XXX@X=X-X<X=X#X#X",
"#X<X<X=X<X%X%X<X#X&X;X:X=XoX%X} K A - : t O.i y O.X.p > h z ; h l B.x . X v.N.M W.-XoX;X;X<X=X-XXXoX#XXX#XXX=X-X=X=X-X:X",
"=X<X<X=X<X&X&X#X=X=X=X#X#X#X;XU.K K A = r y y t y p k h v.B.b j l D.C.] S C.B.5.).;X-X;X%X&X-X;X&X+X#X&X#X-X#X=X=X-X2X-X",
"#XoX#X-X-X;X:X;X<X=X#X#X*XoX;XU.K 4XK ; r e w w w w t 4.N.|.g.l l F.pXuX5XZ.B.5.(.;X=X<X&XoX&X<X&XOX@X;X<X<X=X#X<X<X#X=X",
"XX*XoXoXoX@XoXoX;X#X#X#XoX@X*X} E 7XE ; 7 w w w w w t *.h.F.F.6.i A.jXcX0XrXD.6./.#X#X@X#XXX@XoX@X%X#X;X%X;X=X#X@X=XXX-X",
"=XoX<XoX%XXXXX&XoXoX#X;XoX#X=X} K 9XE 2 { n w w w r t b.h.g.S.D.D.}.gXhXrXpXaXD.M.~.;XXX#XoX;X;X;X*XoX%XoX*X#X#X+XoXXX@X",
"*X*X*X*XoXoX%X#XoXoX#X#X;X<X<X} K 7XE F .X{ v u w y 4.A.A.g.F.|.dXdXsXfXfXfXiX{.n.!.&X*X;X:X;X;X%X*X#XXXoX=X<XXX#X;X;X&X",
"oX*X;X;XoX%X%X%X;X#X#X@X=X<X<X} W 9XW S .XoX~.u e 6.S.F.S.{.dXdXfXfXsXsXsXdXF.p.(.%X;XXX#X=X#X#X<X=X#X#X#X<X%X#X#X#X=X<X",
";X=X;X%X=X<X;X;X%X<XoX#X#X=X:XU.K 4XD I +X#X X ._ `  . .Z.|.dXdXfXfXsXsXdXB.n./.oX3X;X%X#XXXXXOX#X#X<X#X#X=X<X&X#X#X#X<X",
";XoX&XoX%X;X&X&X<X=X#XOX#X#X#X} K W D I OX&X_.T.8XeXqXqXwX[.|.|.|.{.F.F.F.n.!.#X*X;X&X;X;X+X#X#X#X#X=X<X<X=X<X=X<X;X=X=X",
":X;XoXoXoX%X;X;X#X<X#X#X#X#X-XU.K 4XD I @X-X_. .kXzXzXxXeX^ V.[.V.6.m 4.4./.<X@X%XoX%XoX#X@X%X<X<X<X#X<X:X<X&X#X#X<X=X<X",
"%X%XoXoX#X&X&X#X#X;X#X=X=X=X<XU.D 4XD 2 OXW.wXlXvXnXbXcXyX8X_ | 0X6X4XG $ H.-X-X>X>X:X=X#X@X@X=X-X;X;X#X;X%X<X#X#X#X<X;X",
"oXXXoX@X+X#X#X&X#X&X:X;X<X<X-XR.~ E R [ +XT.qXvXnXnXbXxXkXqXT ! 7X9X0X[ . H.>X>X>X*X:X<X=X=X@XXX;X;X>XoX&XoX<X<X*X#X%X#X",
";X%X#X+X@X#XoX@X%XoX;XoX=X<XoX%XE.A G.;X<XT.eXbXbXvXxXzXuXqXT Q 5X6X_.^.* H.XX*XoX;X<X;X:X<X<X@X#XoX;X*X#X#XXX X=X:XoX#X",
":X<X&X&X#X#XoX%X;X&X#X#X=X;X@X#XE., G.=X<XR. .8X8XtXlXyXtXqXT Q W 3 j.Q.Q.Y ' *X*XXX=X<X=XoX%X&X#X;X,X<X:X:X;X;X-X<X=X&X",
"%X%X*X<X;XoX#X%X&X&X#X<X=X<XoX#X`.[ I.#X%X'. .P M.Z.tX .| | Q G 2 @ d V [ 4 2 ' ).2X-X*X#XoXoXoXOX+X;X:X%X&X<X<X=X=X=X<X",
"oX;X:X:X;X;X%XXXoX;X=X=X#X#XoX#X#X&X=X=XXXoXL.l A.Z.` _ L H Q 2 @ O . ; E A = X I.<X:X=X;X%X.X%X#X+X#X1X:X<X<X#X=XoX#X=X",
"@XXX#X#X<X#X+XXXoXoX<X;X;X#X;X#X#X%X<X#X;X*X/.5.{.|.D.D.v.r h $ o   S E X % + $ I.,X:X&X&X:X%X%X;XXX<X<X>X<X;XXX#X#X-XXX",
"@XXXoX=X:X=X#X%X;X*XoX#X*X#X<X&X#X#X&X%X;XoX'.~.M.C M B p.v.7 + . S ^ n 5 B M 5 I.>X*XoX<X:X;X%XoX=X2X<X&X<X#X#X@X*X#X#X",
"oX;X;XoX:X<X<X;X;XoX@X&X#XXX#X#X@X#X#X#X#X#X<X XN # 6 8 C b.i 5 > T C =.w b.b.C (.oX;X&X#X@X=X<X<X:X:X:X&X<X;X=X+XoX<X;X",
"%X%X%X%X<X;X<X#X-X;X<X<X<X=X#XoX;XoX=XoX#X=X&X XN a x d s 9 r y *.>.g e w r V '.2X;X<X#X=XXX@X-X#X#X&X&X&X<X=X&XoX#X#X&X",
"%X#X@XOX=X*X=X;X:X;XoX%XoX<X=X-X;X%X;X:X&X<X<X$Xd # a 8 C V.4.O.q f 9 6 + h ] :X>X<X:X=X-X-X-X#X#X+X+X:X:X&X<X:X;X<X#X;X",
"oX;X*XoX#X@X#X;X;X;X;X%X.XoX#X=X%X%X%X%X&X<X&XI.N a 9 5 p.F.g.-.q @ + o   : ( E.E.W.XX@X#X:X-X<X&X<X<X%X&X<X<X;X<X:X-X<X",
"=X#X*X*X&X&X&X#X*X%X&XoX#XXX@X#X@X@X<X;X;X&XE./ U c 4.;.;.5.x.9.q o   o O O % Y U [ OXOX@X<X:X:X&X%X1X&XoX#X#X#X=X*X=X;X",
"<X:XoX#X&X&X&X#X@X@X@XoX&XoXXX#X#X#XoX+XoXJ.) J U < # n m n i.f 6 o   o s n x % 4 T ] W.@X#X#X<X#X<X&X&X#X=X#XOX@XoX;X:X",
"<X#X#XXX#X&X@XoXXXoX%X%X%X=X#X=X&X&XoX`.P.) J J J < o a s a a # @ o   o a x z   3 J U J.W.=X#X@X#X@X#X#X#X@X#X@X@XoXoXoX",
";X#X<X=X#X#X#X#XoXoX#XoX#X-X#XoX;X:X<X]./ ^ U J J 1 # 6 @ o o + @ O   O O O   $ 3 U U J J.<X=X=X#X&X=X*X;X<X&X<X*X&X@XXX",
"<X<X-X#X-X-X#X@X-XXX@XXX-X<X*X*X*X;X#XE./ J J J J 1 6 s V C C s & 3 4 4 3 4 4 4 J U J H J.-X<X<X<X<X=X<X-X=X=X&X%X%XoX%X",
"#X#X<XXX@X@X@X#X@X=X=X#X#X#X;XoX@X*X=XI.^ J J U U 1 & d n C a.V x 1 3 U U ^ U J U U J J J.*X;X>X1X<X<X=X#X#X&X<X%X%X%X%X",
"#XXX@X@X@X@X#X=X#X#X;XoX@XoX;X#XoX*XXXW.) U U U U 3 8 d n n C a.C & 1 U U J J J J J U / J.;X-X-X<X;X#X@X#X#X#X;X%X%XOX@X",
"=XXX#X#X@X@X-X=XoX#X=XoX@XoXoXoX;X:X;XoXW.] J U U J 3 & a n B n d & 1 J U J J L J J / R.XX>X:X:X@X<X#X#X@X&X<X&X%X%X@X#X",
";X;X#XoX#X=X=X=X#X<X#XoX#XXXXXoX;X;X;X<X<XE.[ U J J J 1 c c c c c 1 3 U U U U 4 J ) J.`.<X2X<X:X#X<X&X#X+X#X<X%X%X%X;X&X",
"=X%X%X;X<X<X#X=X=X<X=X=XoX#X#X<X=X=X<XoX<X2XW.) ) / J J J U U U U U U U U U Y ) ) J.&X<X;X-X=X-X=X@X#X<X=X=X#X&X;X%X;X;X",
"oXoX XoX<X<X=X#X;X-X<X#X#X;X*X#X<X<X<X<X<X:X#X`.$XK.U J J U U U U U U U L U ]  X X+X*X;X<X=X<X<X=X<X1X&X<X<X#X%X%XoX#XoX",
"XXXXOXXX#X@X=X<X:X<X=X=X#XXXoX=X=XoX#X#X@X<X&X#X<X`.P.I.P.P.K.R.P.K.K.K.K.K.I.XX<X#X:X-X:X=X#X=X#X#X#X<X<X&X#X#X@X#X@X+X",
"-X#X-X<X;X=X-X<X<X<X#XoX#X#X#X=X&XoX#XXX#X=X#XXX#X#X2X-X#X=X2X-X>X;X%XXX@X=X=X&X<X;X:X;X<X#XoX&X=X#X#X=X<X=X#X=X=X#XoXoX",
"#X:X3X<X:X*X<X=X;X*X*X<X*X<X:X<X=X;XXX-X=X<X*XXX-X=X-X-X#X=X=X-X=X=X-X#XXX<X1X=X<X<X:X<X<X+X#X%X<X&X#X@X<X@X#XXX-X*XoX;X",
"#X&X:X-X;XoX&X#X;X-X-X<X<X#X<X<X:X<X@X#X<X%X&X&X#X<X<XXX#X1X:X#X&X=X#X#XoXoX#X<X<X&X&X&X#X#X<X=X<X;X;X;X<X<X#X#X%X&X;X&X",
"=X#X#X<X#X&X<X#X=X<X#X=X#X#X#X<X<X#X#X#X<X<X#X-X#X#X&X<X#X<X=X<X1X<X:X#X#X#X#X<X:X#X:X<X<X#X#X#X=X<X3X<X2X:X<X-X&X%X%X&X"
};
