/* XPM */
static char *result[] = {
/* columns rows colors chars-per-pixel */
"60 60 232 2 ",
"   c #1F0506",
".  c #1D050B",
"X  c #1B0F19",
"o  c #230607",
"O  c #240907",
"+  c #250709",
"@  c #2B0B0B",
"#  c #37090C",
"$  c #39160D",
"%  c #390D13",
"&  c #281618",
"*  c #361512",
"=  c #381717",
"-  c #3A1914",
";  c #171827",
":  c #0C1C3C",
">  c #171A38",
",  c #2B1B21",
"<  c #2E162A",
"1  c #3E1328",
"2  c #291B33",
"3  c #19263D",
"4  c #2E222D",
"5  c #35282A",
"6  c #292C38",
"7  c #3D383A",
"8  c #44090B",
"9  c #4C0F0D",
"0  c #46150D",
"q  c #590D17",
"w  c #471917",
"e  c #561517",
"r  c #690B0F",
"t  c #710F0D",
"y  c #74120D",
"u  c #650B14",
"i  c #6B0B14",
"p  c #650A18",
"a  c #68091E",
"s  c #760E13",
"d  c #6C1213",
"f  c #671618",
"g  c #731212",
"h  c #7B1B14",
"j  c #781A18",
"k  c #4B241A",
"l  c #54261B",
"z  c #68231A",
"x  c #762619",
"c  c #7C301E",
"v  c #481727",
"b  c #4F1426",
"n  c #4C1C35",
"m  c #641E25",
"M  c #5B2827",
"N  c #5B3427",
"B  c #54342C",
"V  c #492236",
"C  c #423639",
"Z  c #652724",
"A  c #772924",
"S  c #673826",
"D  c #72382F",
"F  c #643B31",
"G  c #594B33",
"H  c #694B35",
"J  c #774A30",
"K  c #774B35",
"L  c #725536",
"P  c #5D6C3E",
"I  c #7B653A",
"U  c #091F43",
"Y  c #0B2348",
"T  c #172544",
"R  c #1A364D",
"E  c #1B2C54",
"W  c #0C345A",
"Q  c #153457",
"!  c #232E45",
"~  c #3A2F49",
"^  c #2C394A",
"/  c #363746",
"(  c #3C3E44",
")  c #263753",
"_  c #0D3965",
"`  c #143E63",
"'  c #453647",
"]  c #19435C",
"[  c #3C4145",
"{  c #194269",
"}  c #13496C",
"|  c #164974",
" . c #195378",
".. c #254868",
"X. c #2F4E69",
"o. c #326779",
"O. c #424B4B",
"+. c #46534A",
"@. c #4A574D",
"#. c #4E5353",
"$. c #764A45",
"%. c #546B54",
"&. c #566B54",
"*. c #7A6B42",
"=. c #667846",
"-. c #797A4D",
";. c #627D58",
":. c #4D5262",
">. c #5A5867",
",. c #6F5B66",
"<. c #53616E",
"1. c #68656C",
"2. c #667A6A",
"3. c #676E79",
"4. c #86170A",
"5. c #841C0C",
"6. c #8B1B0B",
"7. c #871812",
"8. c #841B12",
"9. c #8A230B",
"0. c #92280D",
"q. c #9B310D",
"w. c #852214",
"e. c #8C2412",
"r. c #88281B",
"t. c #932913",
"y. c #9B2D12",
"u. c #813A1E",
"i. c #9B3312",
"p. c #99371B",
"a. c #A23515",
"s. c #A33C15",
"d. c #A83D15",
"f. c #A33D1B",
"g. c #842828",
"h. c #883728",
"j. c #9A3D2A",
"k. c #893833",
"l. c #AA450E",
"z. c #AD4A0F",
"x. c #AA4413",
"c. c #AD4A14",
"v. c #A54119",
"b. c #A94418",
"n. c #AF4C1B",
"m. c #B14A1B",
"M. c #B3531A",
"N. c #B7561B",
"B. c #954A28",
"V. c #8E512E",
"C. c #91592C",
"Z. c #8F4E33",
"A. c #8A4837",
"S. c #AF4B24",
"D. c #BC5924",
"F. c #B75729",
"G. c #BE6325",
"H. c #C05E2D",
"J. c #C46526",
"K. c #C5652B",
"L. c #C86C2A",
"P. c #CC722C",
"I. c #C86D31",
"U. c #995649",
"Y. c #A54B40",
"T. c #8F664C",
"R. c #827D48",
"E. c #A56D59",
"W. c #B96B56",
"Q. c #B07566",
"!. c #C3725F",
"~. c #C67B65",
"^. c #66885B",
"/. c #758751",
"(. c #758D54",
"). c #7B9957",
"_. c #7BA65B",
"`. c #71926D",
"'. c #79AA66",
"]. c #7FBA64",
"[. c #848349",
"{. c #87954D",
"}. c #818B52",
"|. c #859955",
" X c #85A55A",
".X c #87A95C",
"XX c #89B75E",
"oX c #83B563",
"OX c #84BA64",
"+X c #89BB63",
"@X c #DB8F78",
"#X c #86C666",
"$X c #8CC565",
"%X c #8CCD67",
"&X c #85C669",
"*X c #89C569",
"=X c #86CA6A",
"-X c #8CCD69",
";X c #94C462",
":X c #91CE66",
">X c #91CE69",
",X c #8ED167",
"<X c #8DD169",
"1X c #8CD66A",
"2X c #92D266",
"3X c #98D466",
"4X c #95D867",
"5X c #9AD967",
"6X c #92D269",
"7X c #98D669",
"8X c #95D868",
"9X c #9BDB69",
"0X c #175A86",
"qX c #1A6588",
"wX c #1A6A92",
"eX c #1A789B",
"rX c #266785",
"tX c #3D7B88",
"yX c #257A9D",
"uX c #257FA1",
"iX c #417A86",
"pX c #5A7289",
"aX c #6A7383",
"sX c #1E849C",
"dX c #1B87A9",
"fX c #6F8391",
"gX c #858B98",
"hX c #86929E",
"jX c #8996A2",
"kX c #A9A3A1",
"lX c #C6CFD4",
"zX c #F5F8F9",
/* pixels */
"7X2X-X<X2X7X6X6X6X<X-X-X&X-X2X<X2X2X-X=X,X6X1X-X-X1X1X6X>X6X>X6X6X6X9X7X<X=X&X=X=X-X-X>X-X2X%X-X2X-X6X-X6X6X6X>X8X1X-X*X",
"2X6X=X<X6X2X>X-X>X2X=X-X&X&X-X-X>X=X&X<X6X6X6X6X6X6X6X>X6X6X>X7X9X>X6X7X6X=X=X=X-X-X&X6X%X<X-X6X6X2X:X2X6X4X4X6X1X6X7X-X",
",X>X<X>X%X<X>X:X%X:X2X6X-X<X-X6X,X=X=X-X1X6X6X7X3X>X>X1X-X-X>X6X6X2X-X>X8X1X6X6X7X6X2X6X<X=X=X-X-X:X:X%X6X2X6X1X<X-X2X6X",
"<X=X-X=X=X,X<X7X-X<X6X2X6X6X<X6X6X1X1X<X<X6X<X6X>X-X-X1X1X1X-X-X7X7X7X6X6X9X6X6X6X-X6X6X<X<X=X-X-X2X%X=X$X:X6X6X1X=X,X2X",
"<X%X%X=X%X%X=X,X-X>X-X<X<X6X3X>X<X-X-X2X6X-X6X-X=X&X%X%X*X-X-X2X9X7X7X6X1X1X6X-X-X>X6X7X7X>X-X-X=X-X%X>X:X2X,X=X<X=X%X%X",
"2X3X2X2X2X:X2X3X2X7X7X<X6X<X=X-X-X%X:X2X>X=X-X1X1X<X-X=X1X1X6X9X;X{.{.{.|.|.oX1X-X6X-X>X*X-X<X-X&X>X>X2X%X6X1X8X6X-X2X-X",
">X6X6X2X2X=X=X2X7X2X>X2X6X<X-X-X>X>X:X:X6X6X=X=X$X%X%X$X-X>X1X$XR.r.9.w.8.x {.6X6X-X1X7X>X-X-X6X6X:X:X>X6X6X6X,X2X>X>X:X",
",X2X:X-X2X%X=X<X2X2X2X6X>X<X-X%X-X>X7X=X%X>X<X.XJ B.h.K XX6X>XL V.F.G.n.i.d /.1X1X1X6X6X7X6X6X7X6X-X%X=X6X2X6X%X=X:X%X-X",
",X,X2X=X:X2X-X>X%X2X2X>X>X2X6X>X-X-X,X,X>X-X_.I j.i.a.t.R./.R.B.D.L.J.M.p.d L [.[.[.[.(.+X-X>X2X=X&X=X:X-X<X6X-X%X-X>X<X",
"=X=X2X2X%X%X:X:X%X-X-X%X%X6X>X-X=X-X2X<X>X+XH x G.P.K.c.9.5.0.H.P.J.c.x.p.h w.r.e.9.9.A  X-X>X3X%X=X2X3X,X<X2X-X=X=X<X1X",
"=X=X,X,X6X2X3X3X,X6X2X2X6X=X%X<X<X-X<X<XoXF j r.n.J.P.J.y.0.d.c.c.m.x.q.0.F.K.G.H.m.t.f  X3X>X2X2X%X,X2X6X<X<X1X=X%X,X1X",
"6X<X=X=X>X6X2X6X6X2X2X=X2X<X<X:X6X=X=X<X'.z i 5.v.N.N.G.0.t.x.x.x.b.i.a.S.P.P.P.D.d.e.f |.>X<X2X%X=X=X2X6X4X6X-X-X#X=X2X",
"6X-X-X=X-X-X-X>X2X3X=X%X2X:X>X>X7X=X<X$X).f t 8.b.x.x.x.0.y.x.l.l.s.9.S.L.L.L.D.d.e.j F _.>X=X<X2X=X<X2X2X>X6X6X:X%X&X-X",
"6X-X2X-X-X-X2X:X:X-X2X%X:X:X:X&X-X6X,X-.Z h p.f.x.l.x.x.d.x.x.x.x.x.d.x.z.c.q.9.6.s H oX&X6X6X>X2X2X,X-X>X>X6X<X2X:X2X>X",
"<X1X6X6X3X>X2X>X-X>X-X,X=X%X=X=X=X=X<XI r 4.a.x.l.x.x.x.l.x.x.x.b.l.l.x.x.x.n.S.S.r.K =X-X=X=X7X,X6X8X6X=X=X%X-X:X-X-X2X",
"=X=X=X-X>X>X2X-X=X%X2X=X=X=X,X3X2X&X'.L y 4.y.b.x.d.a.d.x.x.x.l.l.x.x.x.x.x.D.I.I.v.V. X;X=X=X%X<X,X=X2X%X=X=X6X:X&X&X=X",
"=X=X=X1X-X-X-X1X<X-X<X>X-X<X%X:X,X+XG y 7.6.a.d.x.0.6.6.d.b.x.l.l.d.x.l.l.x.x.M.P.L.F.A  X<X=X<X2X<X=X=X-X-X-X<X=X<X-X=X",
"<X=X<X<X<X-X-X<X:X2X-X>X2X6X-X=X=XXXZ y 6.4.q.x.l.d.y.6.0.q.b.d.x.x.x.N.J.G.f.i.M.N.s.z  X6X3X<X<X<X<X=X2X-X6X%X1X<X<X2X",
"6X6X<X-X1X6X6X1X-X=X&X-X6X1X-X=X3X+XZ y 7.6.y.a.x.x.a.6.6.q.x.M.M.M.c.N.J.P.n.a.i.i.r.f |.6X,X6X-X-X<X<X%X2X1X6X7X6X-X-X",
"6X6X8X6X6X6X=X-X&X&X&X&X-X-X%X%X2XXXZ y 7.7.7.r.v.x.a.6.a.x.c.J.P.L.n.x.c.L.P.D.9.t u M ).6X-X-X6X-X:X-X-X:X,X6X,X6X1X=X",
"<X=X1X1X2X2X2X<X>X-X-X-X1X<X2X%X6XXXZ s 7.d w e j.y.e.6.0.q.d.M.G.P.J.v.0.n.L.G.s.8.D |.#X=X=X=X=X-X%X=X&X2X2X6X1X,X<X=X",
"1X-X2X>X2X-X:X>X>X>X>X>X<X%X%X=X=XoXZ s i v ! ^ F Z m 6.6.t.d.x.M.G.P.f.h i.M.D.b.e.L =X2X,X-X%X=X=X:X=X=X-X<X1X6X<X<X<X",
"%X6X2X6X6X:X:X6X%X6X2X7X%X%X-X,X,X+XH f p 1 ` ` Y R ~ m j r.d.x.l.c.K.p.r 4.y.v.f.h H $X2X<X<X1X=X%X%X#X=X=X<X1X<X<X<X2X",
"-X6X6X6X6X6X>X-X-X<X6X-X>X=X2X6X2X=XXXI k.kX>.Y W 0XrX! 2 v j f.c.x.n.r.u i i g d r H %X2X<X2X1X:X#X-X:X-X1X=X<X2X1X1X1X",
"=X%X=X2X1X2X5X2X6X<X-X-X2X=X2X:X6X>X6XR.Y.~.$.2 Q 0XwX_ W E ' j p.z.x.r.r p k.k.A L (.6X2X:X6X2X>X&X=X2X2X6X1X=X2X6X-X1X",
"=X,X%X%X=X=X:X%X2X-X=X<X%X%X-X-X-X6X<X/.A.!.k.v E | ` W | 0X..n x p.f.x p i Y.W.$. X%X=X=X=X=X=X=X>X%X2X>X2X6X-X=X<X=X-X",
",X%X<X=X:X=X=X:X%X%X-X<X%X<X-X-X6X>X=X*X|.A.j b > Y Y U U U U > v i t i p a r.C.XX*X:X=X%X%X,X2X2X,X%X:X%X,X-X=X=X-X%X=X",
"2X2X,X2X%X%X%X%X%X%X%X:X:X6X<X:X6X<X-X-X.XA a v T _ W : < w b b f s i p u p a K :X:X6X,X2X3X2X3X2X,X=X%X%X,X2X=X-X:X2X>X",
"%X,X2X2X%X:X:X:X,X-X-X=X>X2X>X2X6X<X1X-XOXG m n E  .| : b i h 7.7.h i p i p q H ;X3X,X=X=X6X%X%X6X<X-X-X-X>X2X-X=X<X2X2X",
"2X<X,X2X2X,X3X2X2X2X%X-X-X6X2X:X-X6X-X*X&X'.$.1 Q rXrX: b i i p r r p p p q V @.$X9X2X2X>X=X&X&X=X-X6X-X-X6X6X>X-X-X=X6X",
"2X:X>X%X%X2X>X2X6X6X-X=X-X-X-X>X-X6X>X'.`.kX>.) qX .) 1 q p u u a a a a m ,.3.3.%.XX2X:X:X=X-X%X-X>X6X6X6X6X6X1X2X2X<X1X",
"3X2X%X%X%X:X2X:X=X6X6X-X=X*X:X2X=X<X'.fXhXlXaX} sX_ 2 v n V n n n n b m $.gXjXfX:.2.'.%X-X=X2X6X6X6X-X6X6X>X>X-X-X>X<X3X",
"%X:X,X=X-X>X>X-X-X6X-X%X<X1X6X2X2X*X`.jXlXzXfX| uX_ T / X. . . . .X.^ 1.gXhXhXhXgX:.&.+X-X=X=X-X2X,X,X2X2X:X2X6X=X6X2X2X",
":X=X%X%X=X-X%X>X%X>X7X2X6X6X>X6X>X+X2.kXzXzXaX_ qXW T ^ 6 ] yXsXwX0X .X.<.gXhXhXjX:.%.>X1X<X&X-X2X2X5X=X-X%X>X2X,X=X>X-X",
"2X2X%X&X-X-X=X=X:X-X2X%X<X>X%X%X:X*X`.hXlXlXpX_  .W T / & 6 o.sXeX0X0X` [ pXaXaXaXO.%.>X7X6X6X-X-X-X6X<X-X=X=X#X<X3X%X=X",
"3X>X>X>X-X-X%X:X2X>X-X%X<X2X=X-X=X*X`.1.>.1.X._ | W > / & . 4 o.rX| 0X` T ^ ^ / / ( &.*X6X=X>X-X-X2X5X6X3X3X2X3X1X6X>X6X",
":X:X%X2X2X%X-X:X>X6X-X6X6X6X=X-X,X,X=X=.F Q.3.X.` ) 6 X . . O 5 6 !  . .` Y T 2 v /.#X,X-X%X%X:X&X&X2X3X2X>X>X6X,X<X6X6X",
"%X2X3X3X2X2X:X#X%X,X<X<X-X-X%X%X,X%X|.T.Y.~.U.' ` ` ) T 3 ;   @ @ & ! R T > V K A.*.).,X2X>X:X$X-X&X>X3X3X2X6X<X<X-X=X<X",
"=X=X%X<X7X-X&X%X%X%X>X2X2X-X2X-X%X+XK U.!.!.k.v E | 0X0XqX] ; X . o . . . O $.Q.W.A H =X6X3X:X:X2X%X6X6X4X6X2X=X=X<X<X<X",
"=X#X<X-X2X<X-X:X2X%X%X6X,X-X6X>X,X].B e e e 0 = > { wXeXdXyXrX .T . . . O . * w l w G =X<X3X:X:X=X<X8X6X>X2X-X-X=X,X=X=X",
"#X3X2X%X7X6X6X:X2X2X-X-X-X=X-X-X_.P B k l k w $ < ..yXdXdXdXdXyX| 3 = 8 8 # + o * w N =.].,X<X1X2X3X3X7X>X6X6X<X&X%X6X:X",
":X:X:X2X6X2X2X>X<X2X6X2X6X<X<X-X=.$ N S N N l 9 e >.iXiXo.iXtXiXo.:.m d s p b 9 0 D D k _.=X=X=X-X-X>X>X>X2X-X6X%X-X-X>X",
":X,X=X=X<X%X<X2X3X2X%X%X2X>X<X1X=.- N l 0 0 z g.e.h.V.V.C.C.V.V.V.B.f.v.p.i Y.E.h.~.~.D .X,X1X<X-X*X-X>X7X>X>X3X2X6X-X2X",
"%X2X2X=X-X=X-X<X2X,X2X:X#X%X-X<X].=.l K E.E.B.e.6.s.x.x.x.l.l.q.a.l.x.i.j i g.h.h Z.E.}.+X8X,X1X2X2X>X>X>X6X6X2X2X7X1X6X",
"<X-X,X,X>X-X2X>X,X:X>X:X:X&X=X=X-XOXG T.@X@XU.x 6.i.d.x.l.v.i.6.0.p.f.h u p q q b D -.&X=X6X2X5X>X2X3X>X%X%X%X<X<X2X<X2X",
"<X3X=X=X>X:X>X-X=X=X=X%X-X:X=X<X>X&X&X-.k.k.F F h 5.t.b.c.i.9.x g i d u u q # @ ' ).>X1X=X=X=X6X>X2X>X>X-X<X=X&X=X%X2X3X",
"6X%X2X=X>X>X%X%X=X%X-X:X:X,X%X=X6X*X;.#.F B 5 - 9 z c u.h.x 9 8 8 # # # # # o & G @.^.<X-X-X-X-X=X-X=X-X-X=X=X=X=X%X%X%X",
"6X%X2X6X-X=X-X=X%X%X-X:X-X1X%X,X5X+X#.( ( ( & O $ l N l k k $ o o + @ + +   . & ( ^ &.>X1X1X6X<X=X6X6X2X2X6X>X6X2X-X=X=X",
"2X6X<X=X1X<X-X-X=X1X=X=X<X2X2X,X2X#X@.[ [ ( & O $ 0 $ $ O o   o @ # * * % o   & 7 ( &.:X>X2X6X6X6X6X6X1X1X<X-X6X:X:X%X:X",
"<X=X2X-X=X=X=X=X&X<X1X=X=X%X2X%X=XXX+.7 [ ( , + $ l N N l k * @ o O O + o   , 7 O.[ &.>X2X=X,X4X7X6X6X6X-X-X>X>X:X:X:X:X",
"=X=X%X=X=X=X<X<X%X<X2X%X-X=X3X,X,X#X^.@.( ( 5 & - l l l l k - & & & , , & , 7 ( [ @.^.=X=X6X<X<X6X2X-X=X-X-X-X2X:X:X&X=X",
"<X=X-X=X=X=X=X<X-X-X%X,X=X%X%X=X,X3X:X^.[ [ O.C , - - - - - = 7 O.( ( ( ( ( ( [ O.'.6X-X6X4X7X7X=X6X-X=X=X>X6X>X:X:X-X=X",
"2X2X%X-X1X1X,X,X-X6X-X%X=X=X=X=X,X2X2X*X_.O.( ' C C 7 7 C 7 7 ( ( ( ( ( ( ( / @.'.#X=X=X1X8X6X6X-X6X>X>X&X=X3X>X2X:X2X>X",
"<X>X:X:X6X6X=X,X%X<X1X>X2X%X,X2X,X2X<X6X&X^.^.&.[ [ [ [ ( [ ( [ ( ( ( ( O.;.^.).>X<X2X%X2X6X1X6X<X=X-X>X6X<X-X>X:X:X2X2X",
",X=X#X2X:X6X<X6X,X<X1X<X%X:X2X-X6X6X6X2X2X7X1X'.#.+.+.+.+.+.+.+.+.+.+.+.&.$X=X=X2X-X,X6X<X<X6X8X<X6X6X>X6X>X-X:X:X%X-X:X",
"=X=X#X=X=X=X6X<X7X7X-X%X%X%X=X<X<X-X-X=X=X3X>X&XOXOXOXOXOXOX].].].].].OX].=X%X=X-X%X7X1X3X:X=X-X-X-X1X6X2X6X-X-X=X-X=X&X",
",X=X2X2X1X,X<X6X6X,X=X>X-X=X-X,X:X=X%X=X=X<X,X=X,X<X1X1X-X1X6X<X2X2X%X=X=X<X<X>X2X2X3X2X6X-X-X>X1X-X-X6X6X<X-X,X<X,X=X,X",
",X3X9X1X3X2X6X<X2X,X<X2X,X6X7X7X<X6X=X<X<X6X,X=X,X<X,X<X-X1X1X-X<X<X2X=X&X6X7X<X6X2X3X2X>X-X>X>X>X>X-X=X>X=X-X=X<X,X:X2X",
"=X-X4X2X2X%X>X=X2X,X1X6X<X-X6X6X7X6X%X=X6X:X>X>X=X6X,X=X-X7X3X-X-X6X<X=X%X%X=X6X7X>X>X-X-X-X2X1X6X3X:X2X8X<X,X=X2X:X:X>X",
"6X-X-X6X-X>X2X6X<X7X<X=X-X-X<X6X6X<X,X%X-X6X<X-X-X%X6X6X-X>X<X7X7X2X2X<X-X6X-X2X2X-X2X3X-X>X-X-X<X6X9X6X6X7X6X1X>X:X>X%X"
};
