/* XPM */
static char *result[] = {
/* columns rows colors chars-per-pixel */
"60 60 241 2 ",
"   c #1D0609",
".  c #1E0F19",
"X  c #250809",
"o  c #2B0C0B",
"O  c #350D0E",
"+  c #39140D",
"@  c #270F12",
"#  c #29171B",
"$  c #381713",
"%  c #3A241A",
"&  c #171728",
"*  c #16182A",
"=  c #0C1D35",
"-  c #291928",
";  c #351D25",
":  c #251A33",
">  c #10222C",
",  c #192838",
"<  c #2B252C",
"1  c #302F2F",
"2  c #382828",
"3  c #282935",
"4  c #393539",
"5  c #45150D",
"6  c #4E0F12",
"7  c #471C14",
"8  c #72150C",
"9  c #690D15",
"0  c #740E14",
"q  c #6C1317",
"w  c #7A1314",
"e  c #761818",
"r  c #4A241B",
"t  c #572A1A",
"y  c #51301E",
"u  c #62271C",
"i  c #752419",
"p  c #471A25",
"a  c #561622",
"s  c #751C21",
"d  c #593424",
"f  c #52312E",
"g  c #572737",
"h  c #423A3C",
"j  c #662624",
"k  c #663527",
"l  c #7A3826",
"z  c #7C312C",
"x  c #6A3634",
"c  c #79591D",
"v  c #585632",
"b  c #67462D",
"n  c #76472C",
"m  c #784B38",
"M  c #775735",
"N  c #6C6D3D",
"B  c #111F42",
"V  c #0C2A4B",
"C  c #143150",
"Z  c #2F2C46",
"A  c #2C364C",
"S  c #3C3F44",
"D  c #2C3C56",
"F  c #323954",
"G  c #0E3964",
"H  c #103E6A",
"J  c #4C3A45",
"K  c #1A4659",
"L  c #3C4145",
"P  c #2E4A56",
"I  c #184769",
"U  c #164B71",
"Y  c #195475",
"T  c #214C67",
"R  c #384D62",
"E  c #2A556D",
"W  c #28647B",
"Q  c #444B48",
"!  c #49564A",
"~  c #4B4E58",
"^  c #6D4B4C",
"/  c #76564C",
"(  c #526952",
")  c #5A7754",
"_  c #737348",
"`  c #4F5466",
"'  c #615F6B",
"]  c #586A6D",
"[  c #656C76",
"{  c #727273",
"}  c #87190B",
"|  c #8B1B0C",
" . c #901D0D",
".. c #871B12",
"X. c #8F250B",
"o. c #92230D",
"O. c #952A0D",
"+. c #9B2E0D",
"@. c #9B330E",
"#. c #8B2413",
"$. c #882817",
"%. c #942C12",
"&. c #8C3317",
"*. c #993416",
"=. c #A2380F",
"-. c #A13512",
";. c #A43C14",
":. c #A73C18",
">. c #842824",
",. c #873827",
"<. c #8B3A33",
"1. c #953C34",
"2. c #9C431C",
"3. c #AA450F",
"4. c #A64317",
"5. c #AA4413",
"6. c #AC4A13",
"7. c #AC4B1A",
"8. c #B14D1B",
"9. c #AF5013",
"0. c #B4531B",
"q. c #B8571A",
"w. c #824623",
"e. c #994826",
"r. c #8E4E32",
"t. c #994639",
"y. c #895B37",
"u. c #BB5923",
"i. c #A54F32",
"p. c #86693C",
"a. c #897239",
"s. c #BC622B",
"d. c #C26424",
"f. c #C56A26",
"g. c #C4652A",
"h. c #C56A2B",
"j. c #C96C2A",
"k. c #CC722A",
"l. c #C86A31",
"z. c #8B4F48",
"x. c #A65648",
"c. c #B45947",
"v. c #946644",
"b. c #857C45",
"n. c #8E7957",
"m. c #A66357",
"M. c #B76C53",
"N. c #BA6956",
"B. c #B07667",
"V. c #C9745A",
"C. c #CB7B65",
"Z. c #D47E65",
"A. c #73864A",
"S. c #77954F",
"D. c #668957",
"F. c #6D995B",
"G. c #749B59",
"H. c #75A45E",
"J. c #7EB05D",
"K. c #4C8164",
"L. c #588B63",
"P. c #6B9268",
"I. c #76A867",
"U. c #7BB465",
"Y. c #AC9534",
"T. c #888848",
"R. c #8E934C",
"E. c #879A52",
"W. c #A68D5C",
"Q. c #87A758",
"!. c #87B75E",
"~. c #9A9570",
"^. c #82B362",
"/. c #85BC63",
"(. c #86BB66",
"). c #93B760",
"_. c #D68466",
"`. c #D38C72",
"'. c #E8987A",
"]. c #86C264",
"[. c #8AC465",
"{. c #87C967",
"}. c #8CCD67",
"|. c #85C669",
" X c #89C669",
".X c #86CA6A",
"XX c #8CCD69",
"oX c #90C764",
"OX c #91CE66",
"+X c #91CE69",
"@X c #8ED167",
"#X c #8DD169",
"$X c #8AD469",
"%X c #92D266",
"&X c #98D566",
"*X c #9AD966",
"=X c #92D269",
"-X c #97D668",
";X c #95D969",
":X c #9BDA69",
">X c #8CCC71",
",X c #A0DF69",
"<X c #175883",
"1X c #196688",
"2X c #1A759A",
"3X c #26758C",
"4X c #24799A",
"5X c #197DA1",
"6X c #446D82",
"7X c #646F80",
"8X c #27889B",
"9X c #318195",
"0X c #1D89A8",
"qX c #2285A4",
"wX c #3498AB",
"eX c #578E9C",
"rX c #738992",
"tX c #7AAD9D",
"yX c #569AAA",
"uX c #858889",
"iX c #8D9795",
"pX c #B0978F",
"aX c #8EB28B",
"sX c #8794A1",
"dX c #97ADAA",
"fX c #ABADB0",
"gX c #DA9B82",
"hX c #D3A08A",
"jX c #ECA88C",
"kX c #F4A78C",
"lX c #F2A98B",
"zX c #E1A990",
"xX c #B5BBC4",
"cX c #91C3CB",
"vX c #B7C3C8",
"bX c #CED3D5",
"nX c #CBD6D8",
"mX c #E6D3CB",
"MX c #D8E2E9",
"NX c #EDF1F4",
"BX c #F7F9F9",
/* pixels */
"-X%XXX#X=X-X=X+X=X#XXX X.XXX=X#X%X=XXXXX=X#X#XXX$X=X=X=X=X=X+X=X=X+X:X=X=X>X|..X.X X=XXXXX=X}.XX%X+X#XXX=X=X=X+X;X#X$X X",
"%X=XXX#X=X=X+XXX+XOXXX.X|..XXX}.OX X|.XX=X#X=X=X=X=X#X=X$X=X+X-X,X+X=X:X=X|..X.X XXX{.=X}.}.+X#X=X%XOX%X=X;X;X=X#X=X-X.X",
"@X#X=XXX}.#X#XOX}.%X%X%XXX#XXX=X@X.X.X$X=X=X-X&X=XXX=X=X$XXX+X=X+X=X+X+X=X;X#X#X&X%X-X#X$X.X.XXXXXOXOXXX%X%X=X#XXXXX=X%X",
"#X XXX XXX@X=X-XXX#X=X%X=X=X#X=X#X$X#X#X#X=X#X-X=XXX#X$X=X=XXX.X=X:X-X=X=X:X=X;X=XXX=X=X$X@X@XXX}.}.}.XX{.%X%X=X$X$X@X=X",
"XXOX}.{.}.@X X@X+XXXXX#X#X#X%X=X=X#X+X%X=X].E.T.T.T.R.!..X>X X-X-X-X+X$X$X#X=XXXXX+X=X-X-X+X+X XXXXX}.+XOXOX@XXX#X}. XXX",
"-X&X=X@X}.}.%X&X%X&X-X=X=X#XXXXXXX X}.%X+X!.,.| | X.X.T.XX$X=X:X,X:X=X+X$XXXXX#XXX=XXX+XXX X>XXX XXX=X%XOX=X$X#X=XXX#X}.",
"XX=X=X-X=X X{.=X-X=X=X%X=XXXXX}.+XOXOX}.=X!.l *.9.g.g.i.p.[.#X;X-X-X:X+XXX+X+X=X=XXX=X&X+X XXX=X+X}.+X+X=X#X-X@X@X+XXXOX",
"@X=X}.@X=X}. X$X=X+X%X=X+X=X}.[.Q.Q.R.R.T.b.u *.0.u.k.u.e.p.b.a.a.b.T.E. X=X}.#X$X$X$X=X:X-X+X-X=XXX{.}.=X%X=X}.XXOXOXXX",
"@X}.@X}.+X%X}.XX}.=X%XOX+X%X=XoXp.&.%.&.&.$.i *.;.6.g.j.u.O.| }  . . .,.R.}.@X@X=X%X&X}.+XXX+X%X{..X X}.XX#X=XXXXXXXXX#X",
"{.@X=X}.}.}.OXOXXX+X}.{.}.#X+X(.n %.8.j.j.g.g.+.+.6.6.7.6.:.O.o.:.;.3.;.&._ XXXXXX%XXX#XXXXXOX&X}. X=X&X%X#X%XXX{. X$X#X",
".X.X#X#XOX&X&X&X@X%X%X&X@X X%X/.M $.-.q.f.k.k.q.:.+.;.4.;.+. .o.5.6.5.5.=.w._ {.#X#XXX X&XOX+X%X}.}.@X=X#X$X#X=X X}.#X;X",
"=XXX.X}.+X=X%X=X=X=X#X.X-XXX#X[.S.M #.;.u.j.f.f.7.o.-.5.;.o. . .;.;.3.6.6.*.,.E.|.XX}.OXOX+X#X%X@X}.}.=X@X;X;XXX{.|..X=X",
"=X#XXX XXXXXXX+X%X&X}.{.%X%X=X+XOXE.n | ;.5.5.3.3.:. .-.3.5.O.| | =.3.5.6.q.s.l S.=X#X{.{.{.XX#X@X}.#X=X=X+X=X=X%X}. XXX",
"#XXX-X XXXXX%XOXOX@XOX}.}.OXXX|.XX[.E.l #.*.s.f.q.5.=.=.3.3.;.-.=.4.5.3.q.h.l.$.b.:X=X.XXX#X#X=X#X#X=XXX%X+X#X#X%XOX%X=X",
"#X$X=X=X-X+X%X+XXX#XXX=XXX}.{..X X/.E.n %.7.k.u.8.5.0.0.9.5.;.:.0.0.7.5.q.s.k.*.y.!.#X.XXXXXXX=X#X=X=X+X{. X@XXX%XXXXX@X",
".X.X.XXXXX=X%XXX XXX@X{.|.XXXX-X%XE.e.5.g.k.l.O.+.8.j.k.g.7.O.+.k.k.s.5.X.4.j.j.e.b  X#X%X X XXX@X@X@X@X XXX.X#X}.|.|. X",
".X|.|.#X$X>XXX+X#X%X#XXXXX#XXX[.Q.a.6.g.k.u.-.-.8.j.k.u.7.O. .o.8.g.l.f.+.%.0.0.$.u /.&X=X}.}.#X=X$X X|.XXXX+X$X.XXX$X X",
"$X.X#X#X#XXXXX$XXX}.+X+X-X=XXX/.a.@.9.d.u.;.| -.q.k.g.0.;.| | | %.u.s.u.#.#.*.:.#.j ^.#XOX%X&X#XXX#X$X$X%X+XXX@X$X#X#X%X",
";X=X$XXX#X=X=XXXXX X|.XX#XXX#X/.y.=.3.:. .} ..:.u.j.7.5.:.| } w 9 $.4.:.w 0 | :.$.u ^.&X%X+X=X#X+XXX#X#X}.=X#X#X-X=X#XXX",
"=X=X;X#X=X-X$XXX.X|.|..X}.#X#X!.r.=.=. ...} 0 -.6.6.5.@. ...0 a - a #.2.8 9 8 ..w u !.@XXXXXXXXX+X}.OXXXXX}.@X%X$X=XXX.X",
"$X.X=X#X%X%X%XXXXXXXXXXX#X#X%X/.y.X.&.0 w q 0 *.:.:.%. .| 0 g Z I D g >.0 9 e w 9 j ^.XXXX.X.X{. XXX}.{..X=X#X#X#X}.#X$X",
"$XXX-X%X&XXX}.=X+X+X+X+X$X}.}.].A.N M e s q 9 *.:.:.....} a F <X4X<XD a 9 >.1.e 9 g U.XXXX#XXX$X XXX}..X.X X#X;X;X$XXXXX",
"{.=X=X=X=XOXOX=X+X+X%X-X#XOX}.}.[.[.Q.r.C.m.9 9 8 0 9 9 a : C G H G V : j x.`.1.g D ^.=X%X=X#X#XXX}.}..X.X.X$X#X#X#X#X&X",
"=X%X+X#X=X+X+XXXXX$X%XXXXX X%X=X%X}.).p.C.V.s 6 O O O z z./ z.~ = = = & j c.`.t.J C U.;XOX+X@X=XXX X XOXXX$X#X=X=X$X$X#X",
" X@XXX@X@X#X-X%X#X#XXXXX@X}.=XOXXX=X[.T.B.c.<.f 3 , > / _._.Z.m., > > 2 l i.N.<.S I P.(.+X}.=X%X=X|. X%X=X=X#X.X=X#XXX#X",
"{.@X}.XXXX.X%X}.%X+XXX}.}. XXXXXXX=XXX[.T.i.B.pXtXwXY { _.V.Z.~.yX1X6XfX`.c.z < U 4XE L. X{..X}.{.}.XX%X%X%X$XXXXX#X.X$X",
"$X@X#X}.}.}.{.}.}.XXXX@X@X#X#XXX-X+X.X Xb.i.`.mXcX0X0XrXjX'.'.pXyX5XyXmXhXc.>.: Y 4XI L.XX}.@X@X%X#X}.%X}.}.XXXX.XXX}. X",
"OX@X}.%X}.}.}.}.}.}.}.#X}.=X#XOX-X>X.X|.R.t.N.mXxXeXeXpXjXlXlXpXeXeXdXmX`.z.x Z E 1XY K.(.&X%X=X%X@XXX{.}.$XOXXX X%X%X+X",
"}.@X=X=X}.OXOXOX@XXXXX X+X%XOX=X$XXX#XXX(./ 1.V.`.jXjXjXlXjXlXjXzXzXgXC.t.x J [ R V 4XW L.@X}.}.=X#XXX XXX+XOXXXXXXX#X%X",
"%X@X=XOX=X#X&X%XOX%X}.XXXX=X=XOX+X=XXX(.dXfXpXx.M.`.jXlXlXlXlXlXkX'.V.t.m.7X7X` Z V <XU K..X|.|. X+X=XXX#X=X=X+XXXXXXX#X",
"%X}.+X}.OX%X+X=X#X=XXX.XXXXXXX+X}.OX>XaXbXMXbXB.m.M.C.`.'.'.'.'.C.V.m.z.uXsXsX] D V Y U K.}.XXOX#XXX$X=X=X#X=X$X=X%XXX$X",
"&X%XOX{.}.OX%XOX#X#X=XXX X X+X%X{.{.aXbXNXBXBXbXpX,.,.x._._._.M.>.z z.iXrXsXrXsX[ D U H K. X+X=X=X=XXX=X-X+X+X+X+XXX=X-X",
"OXOX@X}.XXXX+XXXXX=X#X}.=X#X=X=XOX/.iXNXBXNXMXnXfX{ J m._.'.jXpX~ - p ` 7XsXsXsX[ D V R I.$X>X$X=X@X@X}.%X%X=X=XXX#X%X%X",
"}.{.}.{. XXXXX+X}.+X=X%X=X#X=X=XOX XuXvXvXvXvXvXdXrXP ' ~.iXiXrXW : @ 3 ' 7X7X7X` A = ( >X>X.X.X@X%X*X}.XXXX+X%X}.XXXXXX",
"%X%XXX X X$XXX XOX+X%X}.#X%X}.}.@X@XU.{ ' rXvXsXrX7XR W 0X0X8X9XY 3 @   3 F Z Z S F B ) -X=X=X X}.}.=X@X@X X}.|.#X&X}.XX",
"&X+X=XXXXXXX}.OX%X+XXX}.@X=X X X{.}.{.M m.B.{ ~ ~ R 3X8X0X8XaXQ.% @ X   * B : p ^ P.I.(.=X}.@XXX}.%X:X=X&X&X@X%X#X=X#X+X",
"OXOX@X=X%X}.}.OX+X=XXX=X#X=XXX XOXoXE.x.V.m.J Z D Y qX0X4XP T.Y.c $ . B = A ^ z.r./ ].$XXX X}.OX.X X&X=X%XXX=X=X$X=X#X=X",
"OX%X=X&X%X%XOX{.}.@X#X=X#XXX@XXX}.H.y.M.V.t.6 * G <X3X3XW # c Y.R.y , U V J B.N.r.j ^.@X%XOXoX}. X|.XX-X&X%X=XXX#X}.XX$X",
" X X$X#X%XXX X{.}.}.=XOXOX#X%XXX{.A.r 7 6 7 o * G E 3 ; % X o 1 E Y Y <XV * $ 7 7 2 /.%X+X&X%X}.%X}.=X=X-X%X%X.X XXX$X.X",
".X{.}.XX&X#XXXOX%X@X{.=X@XXX%X].S.N d t $ a / p : : @ o . C K Y 2X1X<X<XV *   O $ d _ J.#X&X%XOXXXXX;X=X+X=X@XXX}.$XXXXX",
"[.%X%X@X&X=X=XOXOX%XXXXXXX.XXX^.v d b y 7 k c.i 6   & * C <X5XqXqX3XR R 3 ; r 6 k m b S.#XXX#X;X-X=X&X&X+X-X%XXX.X}.=X@X",
"%XOXOX}.=X%X=X+X#X%X=X%X=X#X}.]._ b y 5 5 6 9 9 5 @ T W 9XqXqXqX3X/ e.e.#.1.V.,.c.'.p.Q.#X X.X$XXX X+X+X+X=X=X=X{.XXXX%X",
"OXXX.X.X@X#X#X=X&X%X}.}.%XXX$X@X/.S.v B.B.x.9 0 $.r.v.n.n.n./ b z.e.;.O.| >.,.w <.W.). X#X#X$XXXXX X X&X&XXX=X+X%X=XXX=X",
"}.%X@X}.XX X}.#X%X@X%XOX X}.XX@X+X[.Q.`._.M.a ..;.d.k.k.k.f.O.8 ;.;.%.8 8 9 a x _ Q. X.X$X=X#X#X+X=X=XOX+X=X=X&X%X-X#X=X",
"#X#X}.@X+X+XOX#X#X}.XX%X}. X.X.XXX.X).y.,.b f i %.6.f.k.f.5.7 5 e X.8 5 o < Q P.|.$X.X X.X=X=X-X+X%X&X+X}. XXXXX=X@X#X%X",
"=X&X{.XX+X+X+XXX{.XX X}.}.OX.X$XXX.X X_ f h h r u l w.n l t + o 6 6 5 o < 4 S ! P.#X=X$X.X X@X=XXX%X+XXXXX$XXX|..X}.%X&X",
"=X}.XXXXXX+XXX{.{.XX%X}.}.#X}.XX+X+X X) L L 4 + + r t t t + X X o o O $ 2 4 S S ( I.%X#X$XXXXX.X XXXXX#XXX XXX.X X}.}.}.",
"=X}.=X#X#X XXXXX@X}. XOXXX#X}.@X=XoXF.! S S h # o o + + + + X   X X $ d O # S S L ) {.-X#X#X=X#XXX=X#X@X=X=X=X=X#X#X X{.",
"=X=X$XXX$X$XXXXX$X.X.X X#X#X@X@X%X!.! S S h $ b m b k r + X X   X r k / + - L L S (  X&X@X@X=X=X=X=X$X=XXX$X=X+XOXOX}.OX",
"XXXX=X.X.X.X.X.X.X$X#XXXXXXX@X}.{.U.! 4 S 1 $ m M n t 7 $ $ - #   $ r d % 1 S L S D.{.&X#X@X@X-X-X=X=X$XXXXX+X+XOXOXOXOX",
".X.X}..X.X.XXX$XXX@X%X}. X{.=X@X}./.D.! S 4 r b n d 5 + 2 h S 4 @ .   . 4 L L L ( U.XXXXXX#X#X#X=X%X#X.XXXXXXX=XOXOX|.XX",
"#XXX.XXXXX.XXX$X}.XXXX@X}.}.@X}.}.&X[.D.Q S 4 r 5 5 + 2 4 S L S S 4 4 4 4 L L ( U.#XXXXX@X;X&X-X X=XXXXXXX+X=X+XOX@X X X",
"=X%X}.}.XX#X#X@XXX=XXX}.XX.X.X}.@X%X%X/.D.! 4 4 2 2 1 4 S L S L L L L L L L ( U..XXXXX{.#X;X=X=XXX=X+XXX|. X-XOXOXOX%X+X",
"#X%X}.%X=X=XXX@X@X#X#X#X@X}.}.=X@X=X#X@X^.D.) ! S S L Q L L L S S L L L ( D.H.}.=XXX@X@X=X$X#X=XXX>XXX=X#X#XXXXX%XOX%X=X",
"}.}. X}.=X#X$XXX%X#X#X#X}.OX}.XX=X=X#X=XOX%X^.! L L L L L L L L S S L L H.OX}.}.=X+X@X@X=X@X=X=X$X=X=X+X=X+XXXOX}.}.}.+X",
".X{.|.{.XX X=X=X-X=X#XXXXX}.}.#XXX@XXXXX X-XXXH.F.F.H.H.F.F.H.F.G.F.F.G.].}.}.{.XX}.;X#X-X%X}.#XXXXX=X=X=X=XXXXX.X#X X X",
"$XXX@X=X@X#X#X=X#X@X@X}.XX XXX#X=X}.XX{.XX$X}.XX$X#X;X$X#X$X=X$X;X%X+X.X.X#X#X+X+X%X&X%X=XXX}.+X#X XXX=X=X=X#X$X$X}.}.}.",
"}.&X:X#X&X%X#X=X=X=X#X%X@X=X;X-X#X=X X$X#X=X}.XX$XXX@X$X.X=X=X>X$X#X=X X|.=X-X=X=X%X&X=X+X X}.+X=X+X}.}.#X XXX{.XX#XOX%X",
"XXXX;X=X%X}.XXXX%X#X#X#X=XXX=X=X=X=XXX.X=X%X+X+XXX%X=X.XXX-X-XXX+X#X@XXX{.}.XX%X&X+XXX+X+XXX=X#X=X&X%X@X;XXX$XXXOXOXOX+X",
"#XXXXX=XXX+XOX=XXX=X$X@XXXXX#X=X=XXX@XXXXX=X+X$XXXXX+X=XXX=XXX=X-X=X=X$X=XXX}.+X=XXX=X&X$X+XXXXX$X=X;X=X&X=X=X=X+X%X+XXX"
};
