/* XPM */
static char *result[] = {
/* columns rows colors chars-per-pixel */
"60 60 240 2 ",
"   c #1E0608",
".  c #180D13",
"X  c #1E1112",
"o  c #270809",
"O  c #230A0C",
"+  c #340B0C",
"@  c #34110D",
"#  c #3C140D",
"$  c #280E11",
"%  c #2A1615",
"&  c #3A1916",
"*  c #372212",
"=  c #131127",
"-  c #0E1C3B",
";  c #1C1934",
":  c #2B162B",
">  c #371529",
",  c #162437",
"<  c #3C2E2D",
"1  c #2B2D34",
"2  c #282C39",
"3  c #3A3335",
"4  c #363539",
"5  c #3B363A",
"6  c #4C0F0F",
"7  c #44140E",
"8  c #590C1B",
"9  c #451C15",
"0  c #571717",
"q  c #720D0E",
"w  c #77150C",
"e  c #660A16",
"r  c #6B0C14",
"t  c #640B19",
"y  c #690C18",
"u  c #720F14",
"i  c #67131A",
"p  c #7B1312",
"a  c #781814",
"s  c #72151A",
"d  c #4A261B",
"f  c #532B1D",
"g  c #583419",
"h  c #652B17",
"j  c #7C241C",
"k  c #4C1C28",
"l  c #551A24",
"z  c #661A23",
"x  c #781C22",
"c  c #512A2D",
"v  c #5B3427",
"b  c #4C3A33",
"n  c #662A27",
"m  c #663B27",
"M  c #783A2A",
"N  c #783C32",
"B  c #4D4327",
"V  c #464A35",
"C  c #7B472B",
"Z  c #734A32",
"A  c #794936",
"S  c #6E5033",
"D  c #76663E",
"F  c #102D4E",
"G  c #1A354B",
"H  c #0B335B",
"J  c #2D364B",
"K  c #373447",
"L  c #3C3F44",
"P  c #0C3966",
"I  c #113966",
"U  c #463849",
"Y  c #5E3947",
"T  c #274243",
"R  c #3C4045",
"E  c #3C4759",
"W  c #305559",
"Q  c #0E4469",
"!  c #144468",
"~  c #184E74",
"^  c #254968",
"/  c #28586F",
"(  c #3B6561",
")  c #444646",
"_  c #424B4A",
"`  c #4C5A4C",
"'  c #414257",
"]  c #584B55",
"[  c #4E6E48",
"{  c #536A52",
"}  c #587853",
"|  c #6E714C",
" . c #625961",
".. c #4B7D62",
"X. c #566575",
"o. c #6D6F71",
"O. c #85180C",
"+. c #8C1C0C",
"@. c #901C0C",
"#. c #841811",
"$. c #911F12",
"%. c #8D210A",
"&. c #92240D",
"*. c #942A0D",
"=. c #992B0C",
"-. c #9F340E",
";. c #872517",
":. c #8D2B14",
">. c #962913",
",. c #88331B",
"<. c #9D3413",
"1. c #9D3716",
"2. c #A1390F",
"3. c #A13611",
"4. c #A43C13",
"5. c #A63D16",
"6. c #852C24",
"7. c #863728",
"8. c #903830",
"9. c #97421E",
"0. c #AA430E",
"q. c #A74315",
"w. c #AA4413",
"e. c #AD4A14",
"r. c #AB461B",
"t. c #B14D1A",
"y. c #AF5016",
"u. c #B3531D",
"i. c #BA591D",
"p. c #BC611E",
"a. c #864B27",
"s. c #884936",
"d. c #8B5031",
"f. c #A74B25",
"g. c #A34C2F",
"h. c #BB5A24",
"j. c #AC553A",
"k. c #8C752A",
"l. c #876739",
"z. c #89753C",
"x. c #BD642A",
"c. c #C26424",
"v. c #C76929",
"b. c #CB722B",
"n. c #914B42",
"m. c #A95447",
"M. c #8C6F4A",
"N. c #976949",
"B. c #B76C55",
"V. c #BA6855",
"C. c #9A6C65",
"Z. c #987975",
"A. c #C76D5A",
"S. c #CA755D",
"D. c #C77964",
"F. c #D17D65",
"G. c #588457",
"H. c #72914B",
"J. c #668859",
"K. c #6D965B",
"L. c #799753",
"P. c #729D5C",
"I. c #7AA75D",
"U. c #7EB35F",
"Y. c #528762",
"T. c #6D936D",
"R. c #73986B",
"E. c #69A067",
"W. c #76A362",
"Q. c #7AAC61",
"!. c #7DB367",
"~. c #A9922B",
"^. c #888646",
"/. c #848B4D",
"(. c #869A55",
"). c #AD9C45",
"_. c #89A85B",
"`. c #8CB95F",
"'. c #90B05C",
"]. c #B38476",
"[. c #8BB263",
"{. c #85B964",
"}. c #85BC64",
"|. c #CF8165",
" X c #D38367",
".X c #DF9678",
"XX c #E4987C",
"oX c #85C266",
"OX c #8AC566",
"+X c #87C967",
"@X c #8CCD67",
"#X c #85C669",
"$X c #89C669",
"%X c #86CA6A",
"&X c #8CCD69",
"*X c #91CE66",
"=X c #91CE69",
"-X c #8ED167",
";X c #8DD169",
":X c #8AD469",
">X c #92D266",
",X c #98D566",
"<X c #9AD966",
"1X c #92D369",
"2X c #97D668",
"3X c #95D869",
"4X c #9BDA69",
"5X c #A0DF69",
"6X c #145785",
"7X c #19678F",
"8X c #2A718E",
"9X c #1C7DA2",
"0X c #707885",
"qX c #3A859F",
"wX c #1C85A7",
"eX c #48888F",
"rX c #72828F",
"tX c #7A8694",
"yX c #89918F",
"uX c #848D95",
"iX c #AC9D95",
"pX c #8E9AA2",
"aX c #9DAAB4",
"sX c #EC9F81",
"dX c #D5A998",
"fX c #EAA186",
"gX c #EEAA89",
"hX c #F1A78A",
"jX c #F1AA8B",
"kX c #EBB79F",
"lX c #DBBDB1",
"zX c #E6CDB9",
"xX c #A9B8C3",
"cX c #BECDD3",
"vX c #C8CED8",
"bX c #C8D5DB",
"nX c #DBE3E7",
"mX c #E5EAEC",
"MX c #ECF2F3",
"NX c #F3F8F6",
/* pixels */
"2X>X&X;X1X2X1X1X1X1X&X$X%X&X;X1X*X1X;X&X:X1X;X&X&X1X;X1X1X1X=X1X1X=X4X1X1X%X#X%X&X$X$X1X&X1XOX&X2X&X;X@X1X1X1X=X3X:X;X$X",
">X1X&X;X1X1X1X$X&X>X&X%X#X%X&X@X&X+X#X&X>X1X1X1X1X1X1X;X1X;X=X4X4X1X1X4X1X%X%X%X&X&X$X1X&X;X1X;X=X>X*X>X1X3X3X1X;X1X2X&X",
"-X;X1X&X@X;X1X@X@X>X>X>X&X;X&X1X:X%X%X&X>X1X3X,X2X1X1X;X;X&X&X1X1X1X;X>X3X1X;X;X>X>X1X;X:X+X%X;X&X*X*X&X1X*X1X;X:X&X>X2X",
";X$X&X$X&X@X1X2X&X;X1X>X1X;X1X1X>X;X;X;X;X:X:X4X1X%X;X:X;X;X&X&X>X<X2X1X3X4X1X1X1X;X;X3X;X-X&X&X@X-X@X&X+X>X>X1X:X%X-X>X",
"&X@X@X+X@X@X$X>X&X=X&X&X&X1X1X1X;X;X1X1X1X&X`.^.^.^.^.^._.&X&X2X3X>X1X;X:X1X1X&X&X=X1X2X1X=X$X$X&X&XOX=X*X*X-X&X;X&X+X$X",
"2X,X1X>X-X@X>X,X>X,X2X1X1X:X&X&XOX{.`.OX`.{./.a +.+.&.&.l.OX&X4X5X4X>X;X;X&X$X:X&X2X&X=X&X&X;X&X$X&X1X1X*X>X:X:X1X&X1X@X",
"=X>X1X>X>X%X+X>X2X1X1X>X1X;X&X&X`.C 7.,.7.7.;.u =.t.x.v.f.C OX1X3X3X3X1X&X=X1X1X1X&X;X2X=X$X&X1X1X@X1X>X1X&X3X>X*X=X=X&X",
"-X-X*X&X1X@X%X:X1X1X*X1X=X1X&X&X_.j +.3.r.r.1.p 3.t.p.b.x.r.z.M.z.z.M./.&X1X*X&X;X;X;X1X2X,X1X4X1X&X&XOX1X>X1X@X:X*X@X1X",
"-X@X-X&X*X>X&X&X*X>X>X1X=X1X1X1X_.z :.e.v.b.h.>.5.5.w.c.v.c.>.+.+.+.+.a._.*X1X=X1X>X>X@X&X&X=X>X@X#X$X@X:X&X>X&X&X;X&X;X",
"+X-X>X&X*X@X*X*X&X&X@XOX@X-X*X=XU.z :.w.e.v.b.c.<.*.r.e.e.e.0.5.0.0.q.1.,.(.$X&X=X>X&X&X=X=X*X,X@X%X>X>X>X;X>X&X$X$X:X;X",
"%X%X;X1X*X>X,X,X-X1X>X2X1X$X@X;XoXH.C :.5.u.i.i.1.2.w.w.w.w.w.w.4.=.>.>.+.a.L.=X&X:X@X&X,X1X&X>X>X@X>X>X;X;X;X;X$X@X:X>X",
";X&X+X&X=X1X>X1X1X>X-X%X1X;X;X>X-X&XD p 3.5.w.w.w.w.w.w.w.w.w.w.4.>.+.+.&.$.a._.$X&X+X*X=X*X1X-X@X+X@X:X;X3X3X&X@X#X%X2X",
"1X;X&X$X&X&X&X=X>X>X@X+X>X>X&X*X>X+XD +.O.3.0.0.w.e.w.w.w.w.w.w.w.q.=.&.5.w.3.,._.>X>X@X+X+X&X;X>X&X&X2X1X=X1X=X-XOX$XOX",
";X&X1X&X&X&X>X*X*X>X*X@X@X*X&X%X{.l.1.4.h.p.u.=.4.u.p.c.i.w.w.w.0.w.3.q.c.c.u.3.d.^.-X%X&X1X;X1X1X;X1X&X*X=X1X;X>X>X>X=X",
";X;X1X1X2X*X>X=X&X;X&X1X&X@X+X[.^.:.5.i.b.c.f.*.e.p.b.v.u.2.w.w.w.w.w.t.c.b.v.u.&.l.;X+X$X&X$X2X;X1X3X;X$X+X+X&X>X&X&X-X",
"%X%X%X&X&X1X1X&X$X&X-X+X#X&X;Xz.;.q.p.b.b.1.&.w.c.b.v.t.-.%.4.w.w.w.w.w.w.c.b.v.>.l.1X:X1X#X&X&X-X@X@X-X&X&X&X:X-X#X#X%X",
"%X%X%X:X%X:X&X&X&X>X;X;X&X;X&Xz.+.4.c.c.<.$.&.e.v.c.y.r.<.O.&.-.y.c.5.=.5.t.h.b.>.l.OX2X2X=X$X;X1X:X$X$X&X&X&X:X+X:X&X%X",
"&X%X:X;X;X&X;X;X&X-X&X1X1X1X;Xl.@.w.t.r.+.#.#.w.h.i.w.1.*.O.#.=.e.b.u.1.3.4.y.p.>.Z K.$X=X1X2X;X&X;X:X:X>X=X1X-X;X;X;X>X",
"4X1X:X&X1X1X;X:X&X$X%X$X1X;X;Xz.+.5.>.#.#.w a q.w.w.5.%.+.#.t ;.e.v.b.h.+.2.w.w.&.c ! W.&X=X;X=X&X=X&X:XOX1X;X1X1X3X;X&X",
"1X1X3X1X1X1X&X&X%X#X#X&XOX&X1XD r q q r r r a q.w.2.%.+.#.8 : 0 =.t.v.h.%.3.w.q.a U 8X/ Y.=X&X&X=X@X1X&X@X-X-X1X;X1X;X%X",
"&X%X1X;X>X>X>X1X=X&X&X&X;X-X1XL.| D | S > 8 u :.>.#.u p l > - l +.=.t.t.+.>.3.r.s U 7XP ..$X%X%X$X&X@X+X%X;X>X1X;X-X;X:X",
";X&X1X1X,X&X*X&X=X=X1X=X:X@X@X@X+XOX3XI.1 l s 0 8 t x t > - ; k a +.-.3.O.O.&.3.y U ~ H ..&X;X;X$X&X@X+X%X$X;X:X:X;X&X&X",
"OX;X1X;X1X*X*X*X&X=X>X2X;X@X@X;X@X@X>X'.N m.d.$ . c V.x > - n < : #.@.#.q #.p i : - F H ..1X;X:X@X@X&X+X&X%X:X;X;X:X1X1X",
"1X1X1X1X1X=X=X&X:X;X1X&X=X$X>X>X>X@X,X'.7.V.C.G X.C.F.x 8 c V.n.l s p u t u u t ; F P H ..=X1X1X&X$X&X&X&X:X&X;X1X;X:X3X",
"&X:X&X:X:X>X2X*X1X;X;X&X@X@X>X&X&X1X;X_.7.A.Z.7XaXdXD.x s g.sXV.;.t y e t y r t ; I 6XP Y.@X1X1X=X#X+X1X1X1X;X$X1X;X:X;X",
"+X-X@X@X@X%X*X@X>X1X&X&X@X$X;X$X&X1X&X_.8.F.iXqXbXzXS.x 8.F.F.j.6.y t y e y y i ; Q wXP ..@X$X@X+X;X&X>X*X>X1X&X$X:X%X&X",
":X@X;X@X@X@X+X@X@XOX@X:X-X:X&X=X2X=X(.N.D.XXdXiXlXkXsXD.S.S.g.m.m.y e r e e n | 2 Q 9XQ ..@X-X>X>X-X@X*X@X-X:X&X&X@X@X$X",
"*X>X@X>X@X@X*X&X@X@X&X&X-X1X1X@X4X&X/.l..XXXjXgXjXhXfXjXXXF.f.V.A.6.s r t n | {.T Q wXP ..,X>X>X>X-X&X+X@X&X1X+X$X>X>X=X",
"@X-X>X>X@X*X*X*X>X@X&X&X&X>X*X1X&X&X&X_.s.F.hXjXgXgXgXgXhXfX XF.S.S.8.r i L.>XOXT ! wXQ ..;XOX-X*X;X&X$X&X*X1X&X&X&X;X1X",
">X;X-X>X;X1X>X>X*X>X@X$X&X1X2X=X;X1X;X}._.N.V.hXgXgXhXfXhXhXfXD.o.o. .] | }.>XOXT H 6XP ..%X%X#X&X;X1X&X;X;X1X=X&X&X&X;X",
">X@X=X@X*X>X=X>X1X;X&X%X&X=X&X=X@X1X;X&X=X/.N.F.F.|.|.sXXXsX].yXtXtXtXrXrX-X-XoXT H 6XP ..%X&X=X&X&X;X1X1X;X1X&X2X*X;X;X",
",X>X>X&XOX*X>X*X;X;X1X$X&X#X@X>X+X+X%X+X1X2X(.6.N 7.s.B.D.B.) uXbXbXbXxXo.!.-XoXG F 6XP Y.$X*X1X1X1X&X1X2X1X1X&X&X=X;X1X",
"*X*X-X@X:X&X=X=X&X1X&X@X1X;X1X1X*X$X*X@X&X2XL.# T / 8XeX0X' 0XaXbXMXNXmXxXtX}.#XT H 6XP ..+X+X:X:X>X@X&X>X*X1X1X@X;X1X>X",
"@X+X@X$X$X&X&X&X&X=X2X>X1X;X1X1X*X=X=X>X&X1XH.X { eXwXwX/ ' tXxXbXmXNXNXnXuXR.&X} W ! ( E.>X$X+X>X>X<X@X>X&X=X>X@X&X&X&X",
">X*X&X$X&X&X@X&X*X&X>X@X1X;XOX>X=X&X*X>X1X#XG.% ).[.8X7X^ ' 0XxXcXvXnXMXmXuXT.&X-XG.F Q.2X>X1X$X;X@X>X-X&X&X+X#X1X>X*X$X",
",X1X1X&X$X&X@X@X>X*X&X@X;X-X&X$X+X+X@X+X1X[ V ~.).k.< ~ ~ U tXpXaXvXpX0X0Xo.R.&X:XG., I.>X@X>X&X@X>X4X1X,X>X>X>X:X1X;X1X",
"*X*X-X>X>X@X@X*X*X1X@X1X;X1X@X$X;X1X&XU.[ 2 J | S g + J G ^ X.X.X.pXZ.C.Y o.}.1X>XQ.} }.;X+X@X*X%X$X>X>X*X=X1X;X-X1X1X1X",
"*X>X,X>X>X>X*X+X+X1X;X;X;X&X-X&X@X=X1XI.X = F ! , X O + 2 ^ K U ]  .Z.V.s L.2X>X>X1X:X1X>X*X*XOX&X$X&X2X,X1X1X;X;X@X&X:X",
"$X+X:X&X2X=X#X$X@X@X1X>X>X&X*X;X@X&X1XI.O @ % X T G O o $ & l g.D.D.XX|.7._.>X&X3X>X>X*X1X,X*X*X>XOX;X1X,X1X-XOX&X%X:X+X",
"%X+X@X&X2X&X&X*X>X>X$X>X-X&X1X&X&X&X1XL.9 M N 6 m _ G . + i n.s.M N s.M./.[.@X1X1X3X>X&X>X>X>X*X&X;X3X1X&X2X1X&X$X-X:X&X",
"OX>X>X-X2X1X1X>X>X@X&X;X&X$X&X@X$X&X&XI.S m.m.r :.A E & 6 s m.N 9 7 # B OX-X>X3X2X&X>X=X&X&X;X1X1X,X,X,X=X,X>X&X#X@X1X*X",
">X*X*X*X2X>X=X&X;X>X1X>X;X;X:X@X>X@X;X&X{.S r 8 y j 9.;.p 8 0 f v m 9 B OX;X=X2X4X2X1X@X&X%X%X:X&X&X=X=X=X1X;X1X&X@X&X1X",
"*X&X%X#X@X;X;X>X>X>X&X*X>X1X&X;X@X>X2X4X$X| k + 6 6 h w #.6.B.A 9 d # B OX;X$X>X>X:X3X;X:X;X:X&X&X$X$X,X1X=X1X1X>X1X;X1X",
"@X>X-X@X&X%X&X1X>X>X>X*XOX@X&X;X@X=X{.W.W.` :   + @ @ w >.g. Xd.9 6 9 V I.+X1X;X&X%X&X%X;X1X1X;X=X1X1X*X=X1X=X,X>X2X:X>X",
";X;X@X-X=X=X*X&X:X@X=X@X@X$X%X&X#X}.} R ) > O       o w q.x.8.:.,.6.b R E I.>X&X%X:X%X$X%X>X3X,X1X*X,X=X@X&X&X&X;X1X;X>X",
"1X>X@X@X=X&X=X&X+X&X$X@X&X@X%X:X{.{ ' 5 % v m f $   o 6 h a.M m h 7 < R R ` J.$X%X-X3X:X%X$X&X>X&X>X=X&X&X&X&X#X+X@X>X>X",
"1X@X&X$X&X=X&X@X+X*X&X*X@X-X@X!.J.R L 3   d v d o     @ * d d f f o < R ) 5 ` P.#X%X>X;X&X&X&X%X&X$X&X;X&X$X&X%X&X@X@X*X",
"1X-X;X1X:X&X$X&X@X@X@X*X&X;X@XJ.L R R 3 X X O O O O O @ @ o o @ # # < L R R R E Q.&X;X1X;X;X1X:X&X=X1X:X>X;X=X1X;X&X+X+X",
"1X1X:X&X:X:X&X&X%X:X&X&X&X;X>XJ.5 R R R 4 4 4 4 4 4 3 & f Z Z v f # < V L R L R _.3X;X>X:X>X1X1X1X1X;X;X:X;X;X1X*X*XOX*X",
"&X&X1X+X%X%X%X%X%X:X:X$X&X-X-XJ.L R R R R R L L R 5 < v m l.Z C v # < R L R R _ !.;X&X1X>X:X>X>X2X1X1X;X&X&X=X=X*X*X*X1X",
"+X&X+X%X%X%X&X;X@X&X>X@X$X+X>XK._ L L L R L L R L < # Z s.A Z m g & 3 R R R ) ` !.;X&X&X&X1X;X;X1X>X;X%X&X&X&X>X*X*X#X&X",
":X&X$X&X%X%X%X;X&X&X@X-X@X@X-XoXP._ L L U L L R R < & m Z m v d 9 5 L R R R { !.&X:X&X&X-X3X2X2X$X1X&X&X$X=X1X=X*X@X$X&X",
">X>X@X@X;X;X;X:X&X1X&X@X&X%X%X@XOXK.` L L R R R R 5 < b b b b b 3 R L L R } W.%X:X+X&X+X:X3X1X1X&X=X1X&X%X&X1X*X>X*X>X=X",
";X>X*X*X1X1X;X:X;X;X;X;X@X@X@X1X&X=XJ.` ` R R R R R R R R L L R R R R ` ` Q.&X:X>X&X;X;X-X3X;X1X;X%X&X=X;X;X&X=X*X>X>X=X",
"@X@X#X@X>X1X;X=X>X;X1X&X&X>X@X;X1X1X@XOX}.{ L R R R L L R R R R R R J.oX}.*X1X@X1X=X-X1X1X;X1X;X;X1X1X1X1X=X&X*X@X@X@X*X",
"%X+X#X+X&X$X;X1X2X1X;X-X&X+X@X&X;X@X@X@X+XU.P.P.K.K.P.P.I.R.P.P.P.P.{.-X$X&X+X%X&X@X2X;X>X>X@X;X&X;X&X1X2X=X&X&X%X&X$X$X",
"%X-X>X1X>X;X1X1X;X>X-X&X@X&X&X1X=X@X$X+X&X:X-X:X;X;X3X:X:X&X1X;X3X>X@XoX%X&X;X=X=X>X,X1X1X;X+X=X;X&X&X;X1X1X&X-X:X&X@X-X",
":X>X4X1X>X@X;X1X>X:X-X1X-X1X2X1X1X1X:X%X;X1X@X$X%X;X:X:X&X1X;X:X:X-X1X+X%X1X2X1X>X>X1X>X1X$X*X=X1X=X&X$X&X&X&X+X:X&X*X>X",
"$X=X3X>X>X*X&X;X-X1X;X1X;X&X1X1X1X1X@X+X1X>X=X1X&X1X>X&X&X1X>X&X=X;X-X:X@X@X$X>X1X=X=X1X&X&X1X;X1X>X>X1X1X;X:X&X1X*X*X=X",
";X&X&X;X&X*X1X;X;X1X&X:X;X&X&X1X1X;X;X&X&X1X=X&X&X@X=X;X=X1X1X1X2X1X1X&X&X;X@X1X,X&X,X>X=X&X&X&X:X>X4X1X2X1X1X1X=X*X*X&X"
};
