/* XPM */
static char *result[] = {
/* columns rows colors chars-per-pixel */
"64 64 194 2 ",
"   c #232617",
".  c #232E16",
"X  c #252E18",
"o  c #2C2D1B",
"O  c #3A221F",
"+  c #322D1A",
"@  c #382C1A",
"#  c #243117",
"$  c #273219",
"%  c #29341B",
"&  c #2E391D",
"*  c #32321F",
"=  c #3C341E",
"-  c #303A1F",
";  c #2C2E21",
":  c #3B2620",
">  c #2F3221",
",  c #323323",
"<  c #353B23",
"1  c #383926",
"2  c #33362A",
"3  c #3A3528",
"4  c #3F3E2B",
"5  c #3E3734",
"6  c #3E3834",
"7  c #452724",
"8  c #422822",
"9  c #4C2D28",
"0  c #433A21",
"q  c #413C2B",
"w  c #53342E",
"e  c #593229",
"r  c #423E37",
"t  c #5B3434",
"y  c #563932",
"u  c #64353A",
"i  c #69383D",
"p  c #364123",
"a  c #394626",
"s  c #41432D",
"d  c #4B412D",
"f  c #454B2C",
"g  c #494E2E",
"h  c #4A502F",
"j  c #444332",
"k  c #494434",
"l  c #494934",
"z  c #444438",
"x  c #4B453C",
"c  c #4F4D3D",
"v  c #50473D",
"b  c #524B3B",
"n  c #4E5332",
"m  c #4F5A39",
"M  c #505734",
"N  c #525A37",
"B  c #5C5A37",
"V  c #55523E",
"C  c #5B523E",
"Z  c #78542D",
"A  c #604E31",
"S  c #4B6331",
"D  c #52633B",
"F  c #57683F",
"G  c #5D713E",
"H  c #4F4740",
"J  c #544D40",
"K  c #5A5641",
"L  c #5C5748",
"P  c #665D48",
"I  c #655E49",
"U  c #675E56",
"Y  c #576541",
"T  c #5A6A43",
"R  c #5E7246",
"E  c #676F44",
"W  c #67604B",
"Q  c #69634F",
"!  c #677447",
"~  c #637549",
"^  c #63794B",
"/  c #727448",
"(  c #6B6550",
")  c #6D635C",
"_  c #716B54",
"`  c #786B52",
"'  c #766C63",
"]  c #797168",
"[  c #8C5C35",
"{  c #896135",
"}  c #99643B",
"|  c #86444D",
" . c #96434D",
".. c #8C4650",
"X. c #984450",
"o. c #A84B58",
"O. c #857455",
"+. c #887155",
"@. c #8B7658",
"#. c #8B7A5B",
"$. c #9C7756",
"%. c #937D5C",
"&. c #A66A43",
"*. c #AC7B46",
"=. c #A97448",
"-. c #B27346",
";. c #887C6B",
":. c #887C71",
">. c #7A984C",
",. c #6E8053",
"<. c #708255",
"1. c #79875B",
"2. c #79885B",
"3. c #7E9A55",
"4. c #7BA050",
"5. c #91825F",
"6. c #889B51",
"7. c #AE844A",
"8. c #B4834A",
"9. c #BB844E",
"0. c #BF8A4F",
"q. c #A78356",
"w. c #BA9059",
"e. c #8AA95D",
"r. c #90A458",
"t. c #858F64",
"y. c #958463",
"u. c #9C8765",
"i. c #9F8965",
"p. c #9C8B69",
"a. c #918676",
"s. c #978B7D",
"d. c #9C9175",
"f. c #A18A66",
"g. c #A4906D",
"h. c #AB946E",
"j. c #B7986A",
"k. c #AB9772",
"l. c #B39F7A",
"z. c #92B168",
"x. c #B4A27C",
"c. c #A6BF76",
"v. c #C08053",
"b. c #C38E52",
"n. c #C7955A",
"m. c #C89C64",
"M. c #CEA166",
"N. c #CCA76A",
"B. c #D5B57C",
"V. c #8B8984",
"C. c #928E86",
"Z. c #9C968A",
"A. c #ADA182",
"S. c #B0A484",
"D. c #B7A887",
"F. c #B6A88A",
"G. c #BAAC8C",
"H. c #BEB08F",
"J. c #BFB690",
"K. c #BBBB9B",
"L. c #C3B48E",
"P. c #CAB98E",
"I. c #C2B392",
"U. c #C5BA93",
"Y. c #C9BD96",
"T. c #C5B79A",
"R. c #CDBE9E",
"E. c #D1BF9B",
"W. c #CDC29A",
"Q. c #D4C39F",
"!. c #DBC799",
"~. c #D6C99D",
"^. c #DCC999",
"/. c #E0CB9A",
"(. c #C4C3A1",
"). c #CECEAB",
"_. c #D7C6A2",
"`. c #D6CDA3",
"'. c #DBCDA4",
"]. c #DDD2A4",
"[. c #DAD6AC",
"{. c #D8D9B1",
"}. c #E3D3A5",
"|. c #E3D7AA",
" X c #E6DAAD",
".X c #E7DCB0",
"XX c #E8DEB1",
"oX c #E1DFB8",
"OX c #DFE6B3",
"+X c #E9E0B4",
"@X c #E1E2BD",
"#X c #EDEAC1",
"$X c #F1EDC4",
"%X c #F3F0C6",
/* pixels */
"_._._._._._._._._._._._._._._._._._._._._._._._._._._._._._._._._._._._._._._._._._._._._._._._._._._._._._._._._._._._._._._._.",
"_._._._._._._._._._._._._._._._._._._._._._._._._._._._._._._._._._._._._._._._._._._._._._._._._._._._._._._._._._._._._._._._.",
"_._._._._._._._._._._._._._._._._._._.R.Q._._._._._._._._._._._._._._._._._._._._._._._._._.Y._._._._._._._._._._._._._._._._._.",
"_._._._._._._._._._._._._._._._._.Q.F.t.J._._._._._._._._._._._._._._._._._._._._._._._._.J.t.F._._._._._._._._._._._._._._._._.",
"_._._._._._._._.R.R.R._._._._._._.I.l T 2.J._._._._._._._._._._._._._._._._.R.R._._._._.I.2.T l J._._._._._._._._._._._._._._._.",
"_._._._._._._.T.C.V.V.T._._._._._.A.1 n R 2.J.Q._._._._._._._._._._._._._.Y.C.C.T._._.J.2.R n 1 A.R._._._._._._._._._.'._._._._.",
"_._._._._._.Q.Z.V.V.V.Z.R._._._.I.j f n N ~ 2.H._._._._._._._._._._._._.R.Z.V.V.Z.W.H.2.^ N n f l I._._._._._._._._._._._._._._.",
"_._._._._._._.R.R.R.R.R._._._._.J.1 f n n R ^ 1.H._._._._._._._._._._._._.(.R.R.Y.J.2.^ R M M f , H._._._._._._._._._._._._._._.",
"_._._._._._._._._._._._._._._._.A., f n n m R ^ 1.J._._._._._._._._._._._._._._.J.2.^ R N n M f , A.Q._._._._._._._._._._._._._.",
"_._._._._._._._._._._._._._._.J.j % n n n n N R ^ 1.J.Y.Y.Y.Y.Y.Y.Y.Y.Y.Y.Y.Y.J.1.^ R m n n n g % r I._._._._._._._._._._._._._.",
"_._._._._._._._._._._._._._._.G.> % h n n n N R R ^ <.<.<.<.^ 1.<.<.^ 1.<.<.<.,.^ ^ R n n n n h o , I._._._._._._._._._._._._._.",
"_._._._._._._._._._._._._._._.H.> $ f n n n n N R R R R R R ~ R ~ R R R R R R ~ ^ R N n n n n f $ > I._._._._._._._._._._._._._.",
"_._._._._._._._._._._._._._._.G.o $ g n n h n N R R N m M M M M m m M M M M M N R R N n n n n h $ > G._._._._._._._._._.'._._._.",
"_._._._._._._._._._._._._._._.H.> $ f n f p n F N m n n M l n M n n M n n n M l n m F M h n n h $ , I._._._._._._._._._._._._._.",
"_._._._._._._._._._._._._._._.H., # % f a D M M n n n n n M n n n n n n n n n M n n M h p h h f X , I._._._._._._._._._._._._._.",
"_._._._._._._._._._._._._._._.H.> # # - D N n M n n n n n n n M n n n n n n n n n n n M D a f % . , G._._._._._._._._._._._._._.",
"_._._._._._._._._._._._._._._.I.q . # p F M n n n n n n M M M N N N M M M m n n n n n n m D & # . 2 F._._._._._._._._._._._._._.",
"_._._._._._._._._._._._._._._._.A.> $ D m h n n n n M N T T T T ~ ! ~ R T T N M n n n n M F p .   ] Z.R._._._._._._._._._._._._.",
"_._._._._._._._._._._._._._._._.H.;   l n n n n m N ! E c z z J ;.5.#.J r l Y T N M n n n N N X ; S.R._._._._._._._._._._._._._.",
"_._._._._._._._._._._._._._._._.A.1 f n n n M N E / 5.5.@.v v #.f.f.i.#.x 5 r z Y T N n n n M s 2 A._._._._._._._._._._._._._._.",
"_._._._._._._._._._._._._._._.I.j d g M n n N / =.=.f.f.f.O.@.g.h.h.h.%.` b r 5 j z Y m n n n n f l I._._._._._._._._._._._._._.",
"_._._._._._._._._._._._._._.~.A.1 f M n n M E &.=.q.f.h.P.W W W.'.'.Y.P K #.H r 5 6 z Y M n n n g 2 A._._._._._._._._._._._._._.",
"_._._._._._._._._._._._._.~.A.l f h h M n M E { } *.7.n.^.W.~.|. X X}.~.W.W.:.) x 5 x T M n n n n f l A._._._._._._._._._._._._.",
"_._._._.R.R._._._._._._._.A.l f h M M h M B / *.*.0.7.7.m.}. X X X X X X X~.I.] U L y.^ n n n n n n f l A.Q._._._._._._._._._._.",
"_._._.T.C.C.T._._._._._.S.j s n M n n n n } -.b.9.A M >.G [.OX X.X X X+X{.^ 3.m I U.~.p.a f n m n n h s k S.Q._._._._._.'._._._.",
"_._.R.Z.V.V.Z.R._._._.T.V X % f g n M f o [ *.8.*.*.6.>.S z.OX X X X XOXz.S 4.z.{.%X X~.@.> f n n h f % o b T._._._._._._._._._.",
"_._._.R.R.R.R._._._._._.S.q * $ % f g f + } 9.b.b.n.N.r.G e.c.[.XXXX[.c.e.G z.+X+X+X|.Q.@.o f g f % $ > j A.Q._._._._._._._._._.",
"_._._._._._._._._._._._.Q.I.A.r * $ $ $ . @ Z *.8.8.M.B.~.].]. X+XOX X].`.~.]. X X|.~.y.1 . $ $ $ > j A.I.Q._._._._._._._._._._.",
"_._._._._._._._._._._._._._.Q.I.x.j > . .   @ } b.M.^.}. X X X~._ _ ~..XOX X|. X|.~.y., . . X % j A.I.Q._._._._._._._._._._._._.",
"_._._._._._._._._._._._._._._._._.J.A.4 > > , q @.L.W.|. X X.X}.~.~.|.|. X X XW.I.y.j , ; , j A.I.Q._._.'._._._._._._._._._._._.",
"_._._._._._._._._._._._._._._._._._.Q.I.J.G.I.A.n l C H.W.W.W.W.W.W.W.W.W.W.J.N l b S.H.G.I.I.Q._._._._._._._._._._._._._._._._.",
"_._._._._._._._._._._._._._._._._._._._._._._._.L.G.d.s < , 3 3 1 , 3 3 , , s d.G.I.Q._._._._._._._._._._._._._._._._._._._._._.",
"'._._._._._._._._._._._._._._._._._._._._._._._.Q.S.s .   7 u t O O t u 7   X j S._._._._._._._._.'._._._._._._._._._._._._._._.",
"_._._._._._._._._._._._._._._._._._._._._._._.Q.S.s . o 9  .| u 9 7 u |  .9 o . q S.Q._._._._._. X$X[._._._._._._._._._._._._._.",
"_._._._._._._._._._._._._.'._._._._._._._._.Q.A.s . . 8 X.o.| e +.+.w | o. .: X . s S.Q._._._.|..XoX$X'._._._._._._._._._._._._.",
"_._._._._._._._._._._._._._._._._._._._._._.I.j X . % 7 X...i y %.%.y i ..X.8 o . . j L._._._.'.'..X%X'._._._._._._._._._._._._.",
"_._._._._._._._._._._._._._._._._._._._._.Q.A., $ $ $ : u u y @.g.g.+.t u u O % $ $ , A.Q._._.E.D.}. X_._._._._._._._._._._._._.",
"_._._._._._._._._._._._._._.T.R._._._._._.I.l f g f % o O w #.k.~.Q.j.&.e O o & f g f k I._._.Y.k.'.}._._._._._._._._._._._._._.",
"_._._._._._._._._._._._._.T.C.C.T._._._.Q.A.1 g n h f $ 3 +.k.^. X|.!.v.} @ # f M n g 3 A._._.I.l.~.D.E._._._._.Q._._._._._._._.",
"_._._._._._._._._._._._.R.Z.V.V.Z.R._._.I.j f n n n f 1 +.k.~. X X X/.n.-.Z @ f h M g f j A.S._ I.Q.E.!._._._.T.Z.T._._._._._._.",
"_._._._._._._._._._._._._.R.R.R.R._._.R.A.3 g n n n , +.k.~. X X X}.M.b.} -.[ @ f n n f o 3 C @.%.` T._._._.R.Z.V.Z.R._._._._._.",
"_._._._._._.'._._._._._._._._._._._._.I.l f h n n f % p.~.|. X X X/.w.8.9.b.{ + f n n n s o O.+.I F._._._._._.R.R.R._._._._._._.",
"_._._._._._._._._._._._._._._._._._._.I.1 g M n n f l Y.}. X X X X}.M.n.8.9.7.0 f n n n g + ` P G._._._._._._._._._._._._._._._.",
"_._._._._._._._._._._._._._._._._._.Q.A., f n n f < H.^.S.'. X.X'.'. X/.m.9.n.q.= g n n g   k S._._._._._._._._._._._._._._._._.",
"_._._._._._._._.R._._._._._._._._._.I.j % g n n f 3 W.'.l.Y.XX@Xx.l.#X.XI.k.!.P.< f n n g $ , I._._._._._._._._._._._._._._._._.",
"_._._._._._._.T.Z.T._._._._._._._.Q.A.% % g n n g 1 W.}.g.W ].#Xg.f.$X`.P g.].W.1 f n n g % % A.Q._._._._._._._._._._._._._._._.",
"_._._._._._.R.Z.V.Z.R._._._._._.Q.S.s . & h n n f < P.|.Y.W ).@XV J OX).Q Y. XW.1 f n n g & # s S.Q._._._._._._._._._._._._._._.",
"_._._._._._._.R.R.R._._._._._._.S.q % & f n n l f 1 w.^.'.p._ K.k l K._ p.'. XQ.d f n n n f % $ 6 A.Q._._._._._._._._._._._._._.",
"_._._._._._._._._._._._._._.Q.S.f % f f n g n g o Z *.j.}.~.p.K q q K p.~. X.X'.#.* g h h n f % % s A._._._._._._._._._._._._._.",
"_._._._._._._._._._._._.Q.I.A.k f h n m h p h g + &.m.^.|. X~.g.u.u.g.~.|. X X'.y.* f h p h n h f & j A.I.Q._._._._._._._._._._.",
"_._._._._._._._._._.Q.I.A.j 3 g n h h n n h n f + $.!. X X X X].'.'.]. X X X.X].y.* h n h n n n h h f 1 k A.L.Q._._._._._._._._.",
"_._._._._._._._._._.S.k 3 f g n h p h n h n n f + y./. X X X X X X.X X'.'. X X'.u.% f n h h n h p l n f f 1 j S.Q._._._._._._._.",
"_._._._._._._._.~.A.l f g n n g h h n h p h n h > u.]. X X X X X X'._.a.a.'. X].y.* f n h p h h h h h n n f f l S._._._._._._._.",
"_._._._._._._._.U.C s g n n f < h n n h h n n f o #.'. X X X XXX].s.:.] :.`. X'.#.1 g n h h h n n h p f n n g s K U._._._._._._.",
"_._._._._._._._._.A.j 1 f f - f n n f < h n n f $ 4 W. X X.X.X#XoXs.:.] ;.W.|.Q.a % g n n h < f n n f & f f 1 j A._._._._._._._.",
"_._._._._._._._._.Q.I.A.j , # % f f % % f f h f $ , U. X X|.~.h.y.H H ) ] a.'.I., $ f g h f % % f f % # , j A.I.T.R._._._._._._.",
"_._._._._._._._._.R._.Q.I.A.r % $ $ . # % % $ $ . o p._.|.'.p.K x k r x ' ;.Y.p.o . # % % $ # . X % > j A.I.Q.T.C.C.T._._._._._.",
"_._._._._._._._.T.Z.T._._.Q.I.A.j , > . . . . . . 1 @.k.~.U.P S.I.I.S.x U ' p.+.1 . . . . # . > , s A.I.Q._.R.Z.V.V.Z.R._._._._.",
"_._._._._._._.R.Z.C.Z.R._._._.Q.I.G.A.j > > , , j d.K p.x.g.v I._._.I.k J U y.K d.r , , > , s A.G.I._._._._._.R.R.R.R._._._._._.",
"_._._._._._._._.R.T.R._._._._._._._.Q.I.H.H.G.I.I.I.( (.{.(.Q I._._.I.( K.).W.U I.I.H.G.H.H.I.Q._._.T.R._._._._._._._._._._._._.",
"_._._._._._._._._._._._._._._._._._._._._._._._._.Q.F.( L ( G._._._._.F.( L ( F._._._._._._._._._.T.C.C.T._._._._._._._._._._._.",
"_._._.'._._._._._._._._._._._._._._._._._._._._._._._.I.I.I._._._._._._.T.J.I._._._._._._._._._.R.Z.V.V.Z.R._._._._._._._._._._.",
"_._._._._._._._._._._._._._._._._._._._._._._._._._._._._._._._._._._._._._._._._._._._._._._._._.R.R.R.R._._._._._._._._._._._.",
"_._._._._._._._._._._._._._._._._._._._._._._._._._._._._._._._._._._._._._._._._._._._._._._._._._._._._._._._._._._._._._._._."
};
