/* XPM */
static char *result[] = {
/* columns rows colors chars-per-pixel */
"60 60 177 2 ",
"   c #381E27",
".  c #3B272A",
"X  c #3E2A2C",
"o  c #441C29",
"O  c #4E1B29",
"+  c #531B2A",
"@  c #5B1B2B",
"#  c #691F2D",
"$  c #711F2D",
"%  c #7B1E2E",
"&  c #412B2C",
"*  c #4F282D",
"=  c #58232D",
"-  c #532B2E",
";  c #41342E",
":  c #453B32",
">  c #543231",
",  c #5C3331",
"<  c #65232C",
"1  c #6B262C",
"2  c #652E2E",
"3  c #6A2C2D",
"4  c #73222D",
"5  c #7A222F",
"6  c #652D30",
"7  c #692D32",
"8  c #752231",
"9  c #7B2331",
"0  c #663432",
"q  c #683432",
"w  c #663934",
"e  c #6A3C35",
"r  c #7B3231",
"t  c #7A3E32",
"y  c #175730",
"u  c #1C5C35",
"i  c #1E5C38",
"p  c #305535",
"a  c #1F6A32",
"s  c #266637",
"d  c #2D7033",
"f  c #3A7934",
"g  c #4B4736",
"h  c #69493A",
"j  c #7D4136",
"k  c #635536",
"l  c #4C7134",
"z  c #407F36",
"x  c #6A6834",
"c  c #756E34",
"v  c #737C33",
"b  c #3D7843",
"n  c #7C7D4D",
"m  c #8E1E32",
"M  c #951D32",
"N  c #9A1C32",
"B  c #A31E34",
"V  c #80242E",
"C  c #842432",
"Z  c #892232",
"A  c #832B31",
"S  c #8D2B32",
"D  c #952A34",
"F  c #833535",
"G  c #8D3E34",
"H  c #903F35",
"J  c #923738",
"K  c #A32B35",
"L  c #A62439",
"P  c #AE263D",
"I  c #B4253D",
"U  c #BC263E",
"Y  c #B52A3B",
"T  c #BB2A3D",
"R  c #A03539",
"E  c #A1393B",
"W  c #B4373C",
"Q  c #C1273D",
"!  c #C4293D",
"~  c #CC2C3D",
"^  c #CF333E",
"/  c #D4333E",
"(  c #DC363E",
")  c #D5393F",
"_  c #DD383E",
"`  c #E0373E",
"'  c #E2393F",
"]  c #874A34",
"[  c #934236",
"{  c #8B7C38",
"}  c #AC2842",
"|  c #BE2640",
" . c #CA3A48",
".. c #D43343",
"X. c #DC3541",
"o. c #DD3A41",
"O. c #E33B41",
"+. c #E83F42",
"@. c #CE414D",
"#. c #DC5656",
"$. c #E74243",
"%. c #E84243",
"&. c #ED4D4E",
"*. c #F44E4C",
"=. c #F6524F",
"-. c #F9534E",
";. c #E25F58",
":. c #F75451",
">. c #FB5651",
",. c #F65D55",
"<. c #FC5A53",
"1. c #F9655A",
"2. c #F76B61",
"3. c #F77365",
"4. c #FA7A66",
"5. c #FC7866",
"6. c #2F8930",
"7. c #418034",
"8. c #599D37",
"9. c #7C9A37",
"0. c #5CA435",
"q. c #64A334",
"w. c #72AE37",
"e. c #4C8940",
"r. c #5B9752",
"t. c #5D9953",
"y. c #7D824E",
"u. c #6B8F51",
"i. c #788951",
"p. c #7A8C52",
"a. c #779A55",
"s. c #6AA558",
"d. c #6EAB5A",
"f. c #76A75A",
"g. c #79A459",
"h. c #7CAC5C",
"j. c #888B53",
"k. c #82A359",
"l. c #82AC5D",
"z. c #89AC5D",
"x. c #85B35D",
"c. c #89B25D",
"v. c #84B95F",
"b. c #92BD5F",
"n. c #87B661",
"m. c #84BA62",
"M. c #8BBE63",
"N. c #FB826C",
"B. c #FC8671",
"V. c #F98A73",
"C. c #F8967B",
"Z. c #85C466",
"A. c #8BC565",
"S. c #87C967",
"D. c #8CCD67",
"F. c #85C669",
"G. c #88C769",
"H. c #86CA6A",
"J. c #8CCD69",
"K. c #91CE66",
"L. c #91CE69",
"P. c #8ED167",
"I. c #87D16A",
"U. c #8DD169",
"Y. c #8FD869",
"T. c #93D266",
"R. c #98D566",
"E. c #95D867",
"W. c #9AD966",
"Q. c #92D269",
"!. c #99D669",
"~. c #95D869",
"^. c #9BDA69",
"/. c #A0DF69",
"(. c #FAAE91",
"). c #F8AF92",
"_. c #FABEA0",
/* pixels */
"!.T.J.U.Q.Q.Q.Q.Q.Q.J.H.H.L.U.U.K.Q.U.G.P.Q.U.J.U.U.Q.Q.Q.Q.L.Q.Q.L.^.Q.Q.H.F.H.G.H.L.L.J.Q.D.J.T.J.U.J.Q.Q.Q.L.Q.Q.U.H.",
"T.Q.J.U.Q.Q.L.J.J.K.J.H.F.F.J.D.L.S.F.U.Q.Q.Q.Q.Q.Q.U.Q.U.Q.L.!.^.Q.Q.^.~.H.F.F.J.J.G.Q.D.D.J.Q.Q.T.K.T.Q.~.~.Q.Y.Q.Q.H.",
"P.U.Q.J.D.U.Q.K.D.T.T.T.J.J.U.Q.P.H.H.J.Q.Q.Q.R.~.L.Q.U.Q.J.J.~.Q.Q.J.T.Q.Y.Q.Q.R.T.Q.U.I.J.J.U.J.K.K.D.T.T.Q.U.J.U.Q.T.",
"U.G.G.J.D.P.U.!.J.U.Q.T.Q.U.Q.Q.U.U.Y.U.I.Q.U.Q.L.H.J.U.U.U.J.H.R.^.Q.Q.~.!.Q.Y.Q.D.U.!.Y.P.H.G.J.K.D.J.D.T.T.Q.I.I.P.Q.",
"J.D.D.S.D.D.H.P.J.L.J.U.I.Q.Q.Q.U.U.L.Q.Q.H.U.U.J.H.D.D.H.J.H.~.~.!.Q.U.Y.Q.Q.J.J.L.L.!.!.L.J.G.G.D.D.L.D.K.P.J.U.J.D.J.",
"R.R.Q.T.D.K.T.R.T.R.!.Q.!.U.J.G.J.D.K.K.L.J.H.Y.U.H.J.J.U.U.Q.^./.!.!.J.U.H.J.I.J.Q.J.L.J.G.U.J.G.J.L.Q.D.T.Y.Y.Q.J.J.K.",
"Q.Q.Q.Q.P.H.D.U.R.Q.Q.Q.Q.J.J.J.L.L.L.D.Q.Q.J.J.U.Y.U.U.D.J.Y.Q.Q.!.~.L.J.J.Q.Q.Y.J.U.!.L.H.J.Q.Q.P.Q.K.Q.K.Q.D.D.L.L.K.",
"P.P.K.D.Q.D.J.J.Q.Q.K.T.J.T.J.J.J.L.T.D.J.L.G.J.D.!.Y.Q.Q.J.Q.!.J.Q.!.L.L.L.K.J.U.U.U.Q.!.!.Q.!.Q.J.G.D.Q.Q.Q.D.J.K.D.J.",
"D.P.T.D.L.T.J.L.K.Q.T.K.L.T.Q.L.J.J.T.Q.T.I.U.D.G.J.J.Q.Q.H.I.Q.Q.J.J.U.J.Q.P.U.L.T.T.T.J.J.L.T.S.H.G.D.J.Q.Q.J.J.J.U.I.",
"S.I.T.D.D.D.K.K.D.J.K.S.D.U.K.L.J.J.Q.J.Q.J.L.T.L.I.J.J.Q.I.J.J.J.J.T.P.~.Q.G.J.L.Q.J.J.L.L.L.R.J.G.T.R.T.U.T.J.G.G.U.Y.",
"H.H.J.Q.K.T.R.R.P.T.Q.T.Q.H.D.J.J.U.U.U.J.U.U.J.U.Q.Q.J.U.L.Q.J.R.R.U.U.U.U.J.J.J.I.D.J.R.K.J.T.D.D.P.Q.Q.I.U.Y.G.J.P.Q.",
"Q.J.H.J.Q.Q.K.Q.Q.Q.P.G.Q.Q.U.K.J.J.I.H.F.J.I.H.Q.Q.L.Q.Q.Q.Q.!.^.Q.T.T.Q.J.Q.!.U.J.S.K.K.L.Q.P.T.D.S.T.U.E.Q.J.D.S.G.Q.",
"Q.U.J.G.J.J.J.L.R.Q.D.S.T.T.Q.L.!.J.U.U.L.J.T.D.Q.T.Q.Q.L.L.U.Q.Q.Q.Q.R.L.L.I.~.Q.Q.Q.S.S.S.J.U.P.J.J.!.T.L.T.L.D.D.G.J.",
"U.J.Q.G.J.U.T.K.K.P.T.D.K.J.J.F.J.U.Q.Q.Q.L.K.T.K.K.J.R.Q.L.Q.I.Q.I.J.J.L.J.J.I.U.~.Q.F.J.T.U.Q.J.Y.U.J.K.L.Q.U.T.T.T.Q.",
"U.U.Q.Q.!.K.T.K.J.J.J.P.J.D.S.H.G.J.J.J.T.K.D.K.K.J.J.Q.Q.J.Q.Q.Q.J.J.T.L.J.Q.J.H.Q.Q.H.G.J.J.!.U.Q.Q.Q.G.D.H.U.K.J.G.P.",
"H.H.H.J.J.Q.Q.J.J.D.P.G.F.J.D.!.R.S.F.G.J.K.D.T.J.U.J.J.J.Z.i.y.y.p.Z.G.I.J.I.J.U.R.Q.U.Q.G.F.D.T.D.U.P.J.G.J.I.P.F.G.H.",
"H.F.H.U.H.I.J.U.J.Q.Y.J.J.U.J.U.D.P.P.J.J.Q.U.U.L.L.J.J.J.n.w < < e M.Q.T.J.U.P.Q.R.J.Q.R.D.J.U.R.I.J.G.J.J.J.J.H.I.J.J.",
"U.I.U.U.U.J.J.U.K.D.J.Q.Q.Y.J.G.G.T.T.P.U.Z.t.t.t.t.r.d.Q.b.w 1 r j n p.D.J.L.K.Q.Z.G.Q.K.T.T.U.U.U.J.I.T.J.Q.D.E.Q.I.Q.",
"~.Q.I.J.Q.Q.Q.U.J.G.G.J.Q.J.L.G.T.K.D.K.Q.d.i i u u y b K.b.q 1 H G 3 e M.J.U.Y.T.S.J.T.Q.J.J.Q.J.J.U.I.D.T.Y.Q.Q.Q.U.G.",
"~.Q.~.U.Q.~.U.H.F.F.F.G.S.L.J.D.K.T.G.J.L.d.i s f 7.z e.s.u.t F H H 1 e m.G.D.I.K.P.D.P.D.L.J.J.L.J.L.J.J.K.P.Q.Y.Q.U.H.",
"H.H.Q.U.T.T.T.U.J.J.J.J.Q.P.P.S.Q.K.L.K.D.d.i d w.w.w.8.u p ] [ [ [ 3 e A.P.S.F.J.T.S.J.D.H.H.H.G.J.D.S.F.Q.T.U.Y.P.U.J.",
"Q.J.Q.Q.T.J.K.L.L.L.Q.L.I.D.D.D.S.D.Q.!.K.d.a d 8.0.w.q.z l ] G F r < q y.k.G.F.D.D.J.G.U.U.I.D.G.J.D.S.H.G.U.Y.U.J.J.U.",
"D.Q.Q.Q.Q.K.K.T.J.L.T.!.U.K.J.P.I.J.T.Q.T.d.i a 6.6.w.w.w.9.] G 3 < < < 1 w n.J.I.H.U.T.T.Q.U.Y.D.D.J.H.J.H.J.Y.I.J.U.Q.",
"L.T.J.Y.Q.L.L.J.U.U.Q.J.J.J.D.R.T.L.R.A.k.y.h k x c { { v c t F 5 5 8 5 S J j.k.D.Q.Y.T.K.J.P.Q.J.G.G.K.U.I.H.Q.Q.Y.Y.Y.",
"J.D.J.P.P.Q.R.T.Q.U.J.J.P.J.T.J.D.Q.T.k.2 S ) / Y Y Y K 1 < 1 1 M M M B / / A 0 v.Q.Y.Q.Q.J.J.T.L.H.G.T.Q.Q.U.J.T.Q.J.Y.",
"D.I.D.J.I.H.D.D.T.J.J.D.D.S.U.G.J.D.k.j.J W %._ ~ ~ Q P Z V 5 5 M N B B / ) K F j.l.G.J.S.D.G.D.G.D.J.T.T.L.U.J.J.U.H.H.",
"I.D.T.D.D.D.S.K.D.D.J.T.P.U.J.L.!.c.0 E ,.,.,.*._ / U T U I N N M N B ..( ( ( / A e c.J.J.D.T.T.T.P.P.K.D.P.J.J.G.I.D.G.",
"K.T.D.P.D.D.D.J.D.D.J.J.D.Q.Q.J.~.l.3 R ,.<.1.1.;.#.@. . . .Y Y Y U  ...+.+.O.( C q c.U.P.R.T.T.T.P.J.S.D.I.P.H.G.T.T.L.",
"D.P.Q.Q.D.K.K.K.P.J.J.J.L.T.K.Q.Q.l.7 E ,.1.N.C._.(.N.N.N.4.,.>.>.>.>.>.<.-.+.) C q x.I.J.U.D.D.Q.U.Q.H.J.L.T.J.J.J.U.Q.",
"T.P.Q.K.Q.Q.T.T.K.T.P.G.J.Q.Q.L.Y.c.7 J =.1.5.V.).(.B.N.4.5.<.<.<.>.>.=.=.&.o./ A 3 c.T.J.H.H.F.G.J.Q.G.T.U.Q.L.J.J.J.U.",
"T.D.L.D.K.T.L.Q.Q.Q.J.H.J.J.J.L.K.c.3 D _ %.<.1.B.V.N.4.1.<.<.<.<.>.+.X.! Q Q | 9 3 c.T.T.G.J.D.U.J.Q.Q.Q.U.Q.J.!.K.U.I.",
"R.T.D.D.D.K.T.K.J.U.Q.G.J.G.D.T.D.z.3 D _ $.>.,.3.3.3.2.:.-.-.-.:.*.o.X.Q U | I 9 , c.P.J.G.D.!.Q.Q.J.L.~.Q.Q.J.J.J.Q.!.",
"K.K.P.D.J.L.J.L.J.Q.P.D.U.U.L.Q.Q.l.7 D X.` ' ' O.O.O.o.` ` ' ` ' X.! ! U U ! I @ & x.U.J.J.H.J.P.P.T.J.T.T.Q.Q.J.I.T.T.",
"D.S.D.S.G.J.J.L.J.L.!.Q.Q.Y.L.Q.Q.z.7 D X.X.` ' O.O.` ` ` ` X.X.( ~ U U U U I P @ X c.~.U.U.G.H.T.T.E.D.K.J.Q.Q.D.J.L.J.",
"R.K.D.G.G.I.D.G.K.D.T.D.U.T.D.K.U.l.7 Z U ^ X.+.-.*.' ` ` ( ! U B B N B I U B M + X n.Q.!.T.Q.J.L.J.T.P.J.J.S.Z.U.R.D.G.",
"T.Q.L.J.J.J.D.K.T.L.J.J.P.Q.G.G.G.n.h F L T _ %.-.*.' ' ` ) I I N M N N I I N C , g m.Q.P.D.P.J.J.T.W.Q.R.R.T.K.Y.Q.L.Q.",
"K.K.P.P.T.D.D.K.L.Q.J.U.U.Q.J.G.U.L.A.p.O 5 _ ' +.O.` ` ` / B B N N N N N M @ * k.D.P.U.J.D.D.D.F.G.T.T.T.J.L.T.I.U.Q.Q.",
"K.T.R.R.T.T.K.S.D.P.Q.Q.U.J.P.J.J.J.Q.a.. 4 ) o.` ` ` ( ( ^ N N N N N N N m O & x.E.Q.Q.T.K.D.K.J.F.J.!.R.Q.Q.U.U.D.J.I.",
"G.D.J.J.Q.J.G.G.D.D.L.K.P.K.T.J.J.L.Q.a.  # | ~ ` ( ` ( ! U N N N N N N N M O . x.!.R.D.L.T.K.K.T.D.Q.Q.^.T.T.H.G.U.I.J.",
"G.H.D.I.R.U.J.K.T.P.J.Q.P.J.Q.J.J.J.Q.a.; 7 } | X.( ( / U P N M N N M N M Z - g v.~.T.J.T.R.K.K.J.J.E.Q.J.Q.J.D.S.P.J.J.",
"D.T.T.D.!.Q.Q.T.T.D.J.J.J.H.J.L.J.J.J.H.m.i.* % ! ! ! Y V 8 $ % M M M M @ - a.A.Q.L.T.J.J.J.U.E.!.Q.R.!.L.!.Q.P.H.D.Q.T.",
"K.K.K.P.Q.T.L.J.U.T.Q.T.Y.J.J.D.T.D.U.J.J.f.X 6 P } I L # < @ # m M M Z * : M.Q.~.!.Q.K.U.G.H.I.J.G.L.L.L.T.D.Q.S.G.J.L.",
"K.J.H.F.P.P.J.R.R.T.D.D.P.L.I.Y.D.K.R.T.L.L.x.p.= @ @ + o o o o O O O > g.x.H.!.Q.E.Q.I.U.Y.I.J.J.G.A.!.Q.L.Q.!.T.Q.J.T.",
"D.T.P.D.J.H.J.Q.T.T.T.K.A.K.J.J.K.T.K.K.T.Q.~.x.; X . . X X X X & X . g A.U.L.Q.D.H.J.H.J.E.U.Q.Q.Q.L.L.K.Q.L.T.T.~.Y.Q.",
"U.J.D.P.L.L.L.J.P.D.L.D.J.S.H.J.G.J.Q.K.T.Q.L.S.x.l.x.h.f.h.h.n.x.h.h.x.D.D.!.H.J.I.J.G.H.Q.Q.E.L.K.!.K.D.J.J.J.Q.Q.U.T.",
"Q.R.D.J.L.L.L.J.J.G.J.D.L.D.H.J.U.G.D.H.J.K.Q.Y.E.J.T.I.J.U.J.Q.T.K.T.I.D.S.D.A.H.I.Q.I.H.G.J.Q.L.Q.L.J.J.J.J.F.S.D.T.T.",
"T.D.J.H.J.L.D.D.S.J.Q.D.K.P.D.J.L.L.D.D.T.Q.J.Q.D.D.D.U.J.J.P.T.J.K.D.S.I.D.Q.Q.J.H.T.Y.J.J.J.G.G.J.J.I.J.H.J.H.G.D.D.K.",
"Q.D.U.Q.J.J.J.S.I.D.G.K.J.U.D.I.Q.R.T.T.T.Q.R.Q.P.Q.D.P.J.L.Q.Q.J.K.J.D.D.P.T.Q.U.G.J.!.I.Y.L.Y.I.L.L.P.T.Q.Q.Q.P.U.G.S.",
"Q.Q.I.J.I.U.J.J.I.I.J.G.U.Q.P.P.P.T.J.J.J.K.R.T.T.K.D.T.Q.L.K.Q.Q.J.J.J.H.J.U.U.Q.~.J.R.U.P.Q.Q.Q.Q.Q.U.I.U.Q.Q.K.K.A.K.",
"J.J.T.J.H.H.H.H.H.I.J.J.J.J.T.D.S.D.D.G.D.Q.T.T.R.T.K.K.K.L.J.H.Q.G.G.H.F.I.G.G.!.U.J.!.P.U.P.R.!.Q.U.U.J.J.J.Q.K.K.D.Q.",
"I.H.S.H.H.H.I.U.D.J.T.D.G.I.T.P.K.P.S.J.D.D.J.R.T.J.G.J.L.J.Y.J.T.K.T.I.J.P.J.H.U.Q.J.J.J.Y.U.Q.Q.Q.J.F.G.L.J.T.K.K.H.G.",
"U.J.G.J.H.J.I.U.J.J.K.U.D.S.D.D.T.R.T.D.D.S.D.T.D.J.S.D.L.Q.Q.J.J.T.K.Q.Q.U.J.I.I.I.J.J.U.E.!.T.G.Q.U.J.J.L.Q.L.K.T.G.J.",
"Q.T.D.D.U.Y.J.I.J.Q.J.D.J.H.D.S.T.T.T.Q.Q.Q.Y.T.G.J.Z.G.U.Q.U.J.Q.J.G.J.Q.K.D.I.J.H.I.D.I.E.Q.Q.J.Q.L.J.H.G.!.D.T.K.T.L.",
"P.Q.K.T.Q.L.J.P.D.U.Y.J.D.J.D.U.P.Q.U.P.Q.Q.J.U.!.L.K.J.J.T.Q.Q.L.L.J.T.L.L.J.D.Q.J.T.J.Q.E.U.U.J.H.L.Q.U.U.J.L.K.T.T.K.",
"D.D.G.D.T.U.Q.J.T.U.Y.U.D.T.T.J.Q.Q.Y.K.Q.!.J.D.!.K.T.Q.J.J.U.U.J.U.S.G.S.T.K.P.T.L.D.U.U.U.Q.E.U.Q.Q.L.Q.L.J.K.P.D.J.D.",
"H.S.Z.H.J.G.Q.Q.Q.!.J.J.J.D.D.I.J.J.U.G.G.R.L.J.K.L.Q.Q.U.J.U.U.I.D.D.D.S.D.S.H.J.D.!.Y.R.Q.J.J.J.U.J.Q.~.U.Q.G.G.J.G.G.",
"I.J.P.Q.Q.P.Y.Q.Q.D.I.L.J.G.J.P.T.D.J.H.J.I.P.J.D.P.Q.U.J.I.Q.I.Q.T.D.Z.H.J.T.L.Q.T.!.T.Q.U.S.L.U.H.H.Q.Q.Q.J.U.I.I.D.K.",
"D.R.^.Y.R.P.U.U.T.P.U.T.U.Q.!.!.U.U.S.I.U.Q.P.G.I.I.P.I.J.U.U.I.U.U.Q.J.H.U.!.U.T.T.Q.K.T.G.L.K.Q.L.D.J.U.G.J.S.I.T.K.T.",
"G.J.!.U.T.K.L.J.T.U.U.Q.Q.J.Q.U.!.Q.J.J.Q.K.Q.J.D.Q.Q.I.J.!.!.J.L.U.D.J.D.D.J.T.Q.L.L.Q.J.J.Q.U.Y.R.T.Q.E.U.J.J.L.K.K.L.",
"Q.J.J.Q.J.J.T.U.P.Q.U.J.J.J.U.Q.Q.U.D.J.J.Q.L.J.J.J.L.Q.J.L.U.Q.!.Q.Q.U.J.J.D.Q.!.J.R.T.L.J.J.J.I.Q.!.Q.Q.!.Q.Q.L.K.K.L."
};
