/* XPM */
static char *result[] = {
/* columns rows colors chars-per-pixel */
"60 60 200 2 ",
"   c #443836",
".  c #493E3B",
"X  c #533D3F",
"o  c #4C423D",
"O  c #4F483F",
"+  c #504A3F",
"@  c #533F41",
"#  c #663447",
"$  c #653C4C",
"%  c #6B3E4E",
"&  c #4F4540",
"*  c #4F4B40",
"=  c #514641",
"-  c #544C44",
";  c #584847",
":  c #584E49",
">  c #555543",
",  c #5F544B",
"<  c #5A5B48",
"1  c #6F404E",
"2  c #604E4F",
"3  c #63554F",
"4  c #6B4252",
"5  c #744756",
"6  c #754D5D",
"7  c #685755",
"8  c #675C54",
"9  c #6B5D54",
"0  c #6E5159",
"q  c #73525C",
"w  c #7A565E",
"e  c #5B6647",
"r  c #5F6A49",
"t  c #64624E",
"y  c #616C49",
"u  c #63754D",
"i  c #65794E",
"p  c #697C4E",
"a  c #696752",
"s  c #6B635A",
"d  c #75685D",
"f  c #6C7854",
"g  c #74725C",
"h  c #7C5665",
"j  c #765961",
"k  c #7E5867",
"l  c #7F5968",
"z  c #756D64",
"x  c #7D6B63",
"c  c #7F616A",
"v  c #7B7867",
"b  c #7E766C",
"n  c #825C6A",
"m  c #836965",
"M  c #81626B",
"N  c #89676E",
"B  c #8B6A6D",
"V  c #8A756B",
"C  c #907A6F",
"Z  c #8A6572",
"A  c #8C6675",
"S  c #8D6B74",
"D  c #936D7C",
"F  c #937475",
"G  c #947D72",
"H  c #987B77",
"J  c #96727C",
"K  c #9B7C7B",
"L  c #98797E",
"P  c #70874E",
"I  c #6D8553",
"U  c #6E8953",
"Y  c #768E5A",
"T  c #6F9055",
"R  c #749657",
"E  c #759957",
"W  c #749759",
"Q  c #759A59",
"!  c #799C5B",
"~  c #7CA45B",
"^  c #7DAB5D",
"/  c #7EB25F",
"(  c #82A15F",
")  c #80AB5C",
"_  c #83B45E",
"`  c #88B75F",
"'  c #86906E",
"]  c #8A8A76",
"[  c #958476",
"{  c #9E857A",
"}  c #968879",
"|  c #918A7E",
" . c #94977D",
".. c #A0877B",
"X. c #A1887C",
"o. c #82B461",
"O. c #85BD63",
"+. c #86C667",
"@. c #8BC564",
"#. c #87CB67",
"$. c #8CCD66",
"%. c #84C669",
"&. c #88C769",
"*. c #86CA6A",
"=. c #8BCD69",
"-. c #91C763",
";. c #91CE66",
":. c #91CF69",
">. c #8ED167",
",. c #8ED169",
"<. c #8ED869",
"1. c #92D266",
"2. c #98D566",
"3. c #9AD967",
"4. c #92D369",
"5. c #95D868",
"6. c #96D869",
"7. c #9BDA69",
"8. c #9D7B84",
"9. c #A07E89",
"0. c #9E8486",
"q. c #978E81",
"w. c #9F9383",
"e. c #A18584",
"r. c #A58E81",
"t. c #A88F8B",
"y. c #A69284",
"u. c #A99486",
"i. c #AB9A87",
"p. c #AB9789",
"a. c #A59A8C",
"s. c #AD9B8C",
"d. c #B19E8E",
"f. c #AA8D93",
"g. c #A69490",
"h. c #AC9B94",
"j. c #B39F90",
"k. c #A5A68E",
"l. c #ADA08A",
"z. c #B2A48E",
"x. c #AAA492",
"c. c #AEAA9A",
"v. c #B4A493",
"b. c #B6A993",
"n. c #B8AC96",
"m. c #B4A59E",
"M. c #B5AD9B",
"N. c #BAAD9A",
"B. c #AFB09E",
"V. c #B1B19F",
"C. c #BEB29E",
"Z. c #B6A8A0",
"A. c #BBAAA4",
"S. c #B5B3A1",
"D. c #BCB4A1",
"F. c #B7B8A5",
"G. c #BBB9A6",
"H. c #BFB1A9",
"J. c #BDBBA9",
"K. c #C0B69E",
"L. c #C0A9A7",
"P. c #C1B6A2",
"I. c #C4BAA6",
"U. c #C8BEA6",
"Y. c #C1B5AA",
"T. c #C5BCA9",
"R. c #C9BDAB",
"E. c #CBBCB4",
"W. c #C4C1AD",
"Q. c #CBC3AD",
"!. c #C6C4B1",
"~. c #CDC5B2",
"^. c #CBCAB5",
"/. c #CDCDB8",
"(. c #D0C4B1",
"). c #D1CCB5",
"_. c #D2CEBA",
"`. c #D3D2BD",
"'. c #DAD1BB",
"]. c #D7D7C1",
"[. c #DDD6C4",
"{. c #DADAC3",
"}. c #DFDFC8",
"|. c #E2DDC5",
" X c #E0DEC8",
".X c #E3E3CD",
"XX c #E9E6CD",
"oX c #ECE8CF",
"OX c #E7E7D0",
"+X c #EAE4D1",
"@X c #E7E8D0",
"#X c #ECEBD4",
"$X c #F0EFD7",
"%X c #F3EFDA",
"&X c #F1F0D7",
"*X c #F4F4DB",
"=X c #F9F7DE",
"-X c #F9F8DF",
";X c #FEFEE4",
":X c #FFFFE9",
/* pixels */
"2.4.=.,.4.4.4.4.4.4.=.&.*.=.4.,.1.1.,.#.4.4.,.=.,.<.5.<.4.2.,.4.2.4.7.6.,.*.%.=.%.=.=.:.=.1.#.=.4.=.$.1.4.,.,.4.<.4.=.&.",
"1.4.=.,.1.4.:.=.=.1.=.*.%.%.&.=.:.&.*.&.o.o.o.o.o.o./ o.o.o.o.O.O.o.o.-.6.*.*.*.&.=.&.4.,.,.=.4.4.1.:.1.4.2.2.4.<.<.4.&.",
">.,.4.=.$.,.:.1.$.1.1.4.=.=.,.4.,.#.*.o.> * O O * - * & O O = - * * o I 4.4.4.4.4.1.4.,.,.#.=.=.=.:.:.$.4.1.,.,.=.,.1.4.",
",.&.&.=.=.,.,.2.$.,.4.1.4.4.4.4.,.,.=./ < - , : : : : : : : : : : : : I :.4.4.4.4.,.,.2.,.>.=.&.$.:.$.$.@.1.4.4.,.,.>.1.",
"=.$.$.#.$.$.#.>.:.=.=.,.,.4.1.4.,.Q < g _.{.{.}.{.}.}.{.{.}.{.{.{.{.}.k.< I 4.,.=.:.4.7.4.4.=.&.&.$.$.:.$.:.>.,.>.=.#.#.",
"2.2.4.1.$.:.1.2.1.3.2.4.4.,.=.#.&.U & s &X:X;X:X;X;X;X:X;X:X;X;X;X:X:XS.@ u %.=.=.2.=.=.&.=.,.=.*.:.:.4.>.4.<.<.4.=.=.:.",
":.4.4.1.>.*.#.4.1.4.4.4.4.=.=.T y  ./._.#X#X#X#X#X#X*X;X;X#X#X#X#X#X$X{.^.x.r u +.=.,.2.:.=.=.4.:.$.:.1.4.$.1.$.1.:.:.=.",
">.>.$.:.4.$.=.=.4.:.1.4.4.4.,.i   a.:X;XOX.XOXOX.XOX&X;X;XOXOXOXOX.XOX%X:X!.. * O.,.4.4.7.2.4.6.4.=.&.$.4.4.4.$.,.$.:.,.",
"$.$.>.=.:.1.$.:.$.1.@.~ W E E ' q.J.;X$X.X}.}.}..X X#X*X&X.X}.}.}.}.}.#X*X].q.] ! Q Q Q R R ) ;.$.*.&.$.=.,.4.=.=.=.=.,.",
"#.>.1.=.$.:.:.;.$.4._ O o . . V.:X%X}.OX{.{.{.{.{.{.}..X.X{.{.{.{.{.{.}.OX#X;X$Xs   o o o . y 2.=.&.1.1.4.,.1.=.#.&.,.<.",
"*.*.,.4.:.1.2.2.@.^ ( v b b V !.;X@X}.}.{.{.{.{.{.].}..X}.{.{.{.{.{.{.{.}.OX;X#Xq.v z z z z Y ( ^ #.1.1.,.,.,.<.&.$.,.4.",
"4.=.#.=.:.4.4.4.^ O s #X*X;X;X#XOX}.{.{.{.{.].{.{.{.].{.{.{.{.{.{.{.{.{.{.}..XOX*X;XOX|..X.XV.O O / >.4.4.5.4.=.$.+.*.4.",
"4.=.=.*.=.=.+.o.( s ] *X;X;X;X@X.X}.{.{.{.].{.{.{.{.{.].{.{.{.].{.{.{.{.{.}..X.X*X;X#X#X@X@XG., , ~ o.` ` @.4.:.$.$.@.&.",
",.=.2.&.=.=.p o v &X*X;X;X@XOX}.{.{.{.{.{.{.{.{.].{.{.{.{.{.{.{.{.{.].{.{.{.{.{..XOX*X;X*X@X^.{ [ , + - + Q <.,.1.1.4.:.",
",.,.4.4.2.:.p . V -X;X;X;XOX.X}.{.].].{.].{.{.{.{.{.{.{.{.{.{.{.{.].].{.].{.{.{..X.X;X;X*X.X).X.[ : o o * W #.=.$.#.=.:.",
"*.*.*.=.=.:.p . b ;X;X#X@X}.}.{.{.{.{.{.{.{.{.].{.{.{.].{.{.{.].{.{.{.{.{.{.{.{.{.}..X.X.X}.Q.X...} } D.~.' r r y p +.%.",
"*.*.*.,.=.*.u . V -X;XXX.X{.].{.{.].{.{.{.].{.{.{.].{.{.{.{.{.{.{.{.{.{.{.{.{.{.{.{.{.`.{.{.Q.X.X.l.b.oX:X| . . . < %.*.",
",.*.,.,.,.=.i . d Q.'.*X&X.X.X}.{.{.{.{.{.{.{.{.{.{.{.].{.].{.{.{.{.`.{.{.{.{.{.{.{.{.}.).K.C.i.i.z.b.oX;X`.M.S.S.k.I p ",
"5.<.,.=.,.4.p . t l.K.-X;X.X.X}.{.{.{.].{.{.{.{.{.{.{.{.].{.].{.{.{.{.{.{.{.{.`.{.{.{.{.Q.l.z.z.z.z.z.XX:X:X:X;X:X{.- . ",
"4.4.4.<.4.5.i . 8 y.v..X#X#X#X.X{.}.{.{.{.{.{.{.{.].{.{.{.{.{.{.{.{.{.{.{.{.{.{.{.`.`./.W.z.b.b.n.K.U..X;X*X-X*X;X].: o ",
"=.*.4.,.1.1.i . 2 D 8.z.K.*X;X$X.X.X.X.X{.{.{.{.{.{.{.{.{.].{.{.{.{.{.`.{.{.{.{.{.{.C.b.b.z.b.C.T.$X-X$X@X}.{.}.OX!.- o ",
",.=.4.4.2.=.i . 2 D J w.s.XX*X#X#X@X@XOX{.{.{.{.{.{.{.{.{.{.{.{.{.{.{.{.{.{.{.{.`.`.n.z.z.b.n.K.T.&X;X#X.X}.{.{..X!.: . ",
"$.1.4.,.1.;.u . 2 D Z % 5 l.n.|.:X;X;X*X@X.X.X.X.X.X}.{.].{.{.].{.{.{.`.{.{.{.`.C.b.z.z.b.K.K.W.U.&X;X#X@X}.{.{.{.J.- . ",
"=.1.:.<.:.:.p . 2 D Z # 1 y.z.[.:X;X;X;X@XOXOX.XOX@X{.{.{.{.{.{.{.{.{.{.{.{.{.`.n.z.z.z.b.K.J.C.T.&X;X#X.X}.{.{.{.J.; o ",
"&.>.=.<.<.:.i . ; 5 % $ % S F j.Q.U.Q.).$X;X*X=X#X.X.X.X}.{.{.{.{.{.{.{.{._.C.C.b.z.n.C.C.C.C.F.G.&X;X#XOX}.{.{.{.J.: . ",
"#.>.$.$.#.*.i o X # # % % h k { z.z.z.K.=X;X:X;X$XOX@X.X.X{.{.{.{.{.`.{.{.^.z.z.z.z.C.P.I.I.D.V.G.&X;X#X.X}.{.{.{.J.: o ",
">.$.,.$.$.$.u . @ # $ 6 6 h n J e.e.e.t.I.R.R.R.J.D.P.L.K.I.I.I.I.I.I.I.I.C.z.b.n.C.C.P.D.C.W.{.}.#X&X.X}.{.{.{.{.J.- o ",
"1.>.=.1.$.$.i o = $ 4 h n k k Z D D D D { ......{ { ....X.l.z.z.l.z.z.z.z.z.z.z.C.D.I.D.D.B.^.;X;X@X.X}.{.].{.{.{.J.- . ",
"$.>.<.1._ ^ y o = $ 4 h n h n A J J J K ....X.X.X.X.....X.b.b.b.b.b.b.b.b.b.b.n.C.P.D.D.G.!.{.;X;X@X.X}.{.{.{.].{.J.: o ",
"1.,.1.,.r O o o X $ 4 h h n n F X.X...X.X...X.......X...y.C.P.K.P.P.P.P.P.C.P.K.I.P.S.V._.;X;X;X;X#X.X{.{.{.{.{.{.J.- o ",
"1.$.O./ g 9 8 t 7 1 4 h n n n F X.X.X.X...X.X.X.X.X.X.r.u.K.P.P.P.P.P.P.P.P.P.P.P.P.C.B.`.;X;X;X;X.X.X{.{.{.{.`._.S.- o ",
"2.` > > W.&X#X#XE.n h n n Z D K X.X...X.X.X.....X...d.D.C.P.P.P.P.P.P.P.P.P.P.P.P.D.F.B.`.;X-X@X.X}.{.{.{.{.{.~.u.G = o ",
":._ O o ^.:X;X:X[.S A A Z D D K ....X...X.X...X.X...s.P.P.T.T.U.I.U.R.P.I.K.P.P.T.T.G.G.`.;X*X.X.X{.{.{.{.{.{.Q.X.C = o ",
":.^ O + J.#X=X;X;X+X+XOX[.8.D J J K X.X...X.X.X.....s.S.J.#X*X*X*X*X*X].V.D.P.I.oX*X*X&X%X@X@X{.{.].{.{.{.{.{.!.r.C = o ",
"3.o.O o G.OX*X;X;X;X:X:X%X9.D D D L X.{ X...X.X.X.{ a.S.J.;X;X;X;X;X:X}.V.V.D.T.*X;X;X;X-X.X.X{.{.{.{.{.{.{.{.!.r.C & o ",
"P Y k.c.`.@X*X:X;X$X&X&X$XE.E.f.D 0.x.a.r.{ X...u.v.D.!._.OX#X#X#X;X;X$X{.}.|. XoX#X;X;X*X.X}.{.{.{.{.{.].R.C.v.X.C = o ",
". z ;X;X#XOX*X:X;XOX.XOX+X;X:XA.A 0.F.c.X.X.X...v.P.~.{.{.{.{.{.{.*X;X:X:X;X;X;X.X{.*X;X*X.X.X{.{.{.{.{.{.m.....X.G = o ",
". s .X$X.X}.#X*X#X.X}.}..X&X%X].A.E.`.^.l.a.X.X.v.P.Q.^.^.).).].{.#X&X#X$X&X$X#X}.{.@X$X@X.X{.{.].R.P.Y.I.p...X...C * o ",
". 9 `.{.{.].}..X}.].{.{.{..X.X*X;X;X:X%XG.M.r...v.P.P.P.P.P.I.`.{.{.{.{.{.{.{.{.{.{.{.{.{.{.{.{.'.p...X.X.X.X...X.C = o ",
". s _.{.{.{.}.OX}.{.{.{.{. X+X%X;X;X;X$X!.F.u.r.v.P.P.P.P.P.I._.]._._._._._._._.)./._.`.`.`.`.]._.u...X...X.X.X.X.C = o ",
". s `.{.{.{.{.{.{.{.{.{.{.{.{..X@X@XoX#X*X&XI.C.C.P.P.P.P.P.P.I.P.d.y.y.r.u.y.y.y.y.y.y.z.I.I.I.P.y...X.X.X.X...X.C = o ",
". s _.{.{.{.{.{.{.{.{.{.].{.{.}..X.X.X@X-X*XQ.P.P.K.I.P.P.P.P.P.P.u.X.r.r.X.......X.....p.K.K.P.K.u.X.X.X.X.X...X.C = o ",
"o s `.{.{.{.{.{.{.{.{.].{.{.{.{.{..X.X.XI.K.K.P.P.P.P.P.P.P.P.P.P.N.N.N.N.v...X.X.X.X.X.r.r.r.r.u.v.N.y...X...X.X.C O . ",
"  s `.{.{.{.{.{.{.].{.{.{.].{.{.{.}.@X'.b.z.C.P.P.P.P.P.P.P.P.P.P.P.P.P.I.v...........{ ........X.N.P.u...X.X.X.X.G O o ",
"o , g.h.h.h.E.{.{.{.{.{.{.{.{.].{._.Q.Q.N.N.P.P.P.P.P.P.P.P.P.P.P.D.D.D.D.M.a.x.R.(.(.(.E.(.(.(.~.I.P.v.j.r...G d d P P ",
"o = h l h h Z.{.{.{.{.{.{.{.{.{.{.W.z.b.K.P.P.P.P.P.P.P.P.P.P.P.P.A.B.B.V.V.S.F.*X;X:X:X;X;X:X:X;X(.P.P.P.d.X.V . < ;.7.",
"o ; n Z j 6 y.W.I.Y.I.Y.I.T.Y.Y.I.C.n.n.P.P.P.P.D.D.D.D.D.D.V.F.G.^.`._.`._.`.`.#X*X*X*X-X*X*X*X$XP.v.C.P.{ x g i U @.$.",
"o ; D D 6 $ B X.X.X.X.X.X.X.X.X...d.P.P.P.P.P.P.S.S.V.V.V.V.V.B.S.#X;X;X;X;X;X;X#X@X@X.X.X.XOX.X Xi...N.I.z . y $.=.=.#.",
"o - n n 5 $ M H H X.X.X...X...X...d.P.P.P.P.D.D.T.^.^.^.!.^.^.^.^.#X;X*X*X*X*X*X.X}..X}..XOXOX#X.Xs.X.X.w.v e U @.:.$.;.",
"o @ $ $ $ 4 q l N ..X.X...X.X.X...d.P.P.P.P.V.V.}.:X;X;X;X;X;X;X;X#X.X@X@X.X{.{.{.{.{.{.}..X#X;X=Xj.{ 7 O W >.>.;.;.:.:.",
"* - $ $ $ % 6 h N ..X.X.X...X.X...d.K.P.P.P.G.F.}.;X;X;X;X;X;X;X;X#X.X@XOX}.{.{.{.{.{.{.{.OX#X;X$Xj.{ 3 o E <.;.:.;.%.&.",
"/ W = = k A 6 4 w ....X.X.X.X.....d.K.P.F.G..X$X#X@X.X.X}.}.}.}.}.{.{.{.{.{.{.{.].{.{.{.}.@X`.v.j.r.{ 3 o E 1.:.:.1.&.=.",
"1.` - O c D j $ 6 ....X.X.X.X.X.{ v.D.D.V.J.*X;X$X.X}.{.{.{.{.{.{.{.{.{.{.{.{.{.{.{.{.{.{..X~.{ ......3 o R 4.>.:.;.1.:.",
"4.@.~ ~ a 2 6 6 h N B ......X.s.n.n.F.J..XoX#X#X.X}.{.{.{.{.{.{.{.{.{.{.{.{.{.{.{.{.{.{.H.0.8.Z B { { 3 . E ,.$.1.1.1.1.",
"$.$.#.$.r . 0 l n h n ..X.....v.P.D.M.W.;X:X#X.X}.{.{.].{.{.{.{.{.{.{.{.{.{.{.{.{.{.{.{.Z.k k l n K X.3 . Q =.:.$.$.$.$.",
"#.#.%.*.U u 8 0 q n M F H p.i.n.P.M.x.M.'.'.~.~.R.T.T.T.T.T.I.Y.H.H.H.H.H.H.H.H.H.H.H.A.0.l j 0 0 x m f i ) ,.=.&.,.&.&.",
"#.,.,.4.1.>.i . ; k n l Z N.I.I.I.v...X.X.X.X.X.X.X.X.X.X.X.X.J D J D 8.D 8.D 8.A 8.l l l l q @ o . O ) 4.,.,.,.,.=.$.$.",
",.2.3.<.5.$.T e t q 0 q j q.a.w.a.[ V V V V V V C V V V V V B N c c c k c c k c l c j q 0 0 9 r y e y ^ 4.&.=.#.#.<.:.1.",
"=.=.2.,.1.:.=.&.~ O o & & & & o = & & & o = & o = o = O o = = o & o & & & o & o & o & @ o & y #.:.1.;.<.4.,.=.$.;.;.1.:.",
",.=.=.4.=.:.:.4.^ - o & o O O O O O + o * O O O O O O O O O O O & O & & o * O O o * & & * o u *.>.1.3.:.2.4.4.<.:.:.:.$."
};
