/* XPM */
static char *result[] = {
/* columns rows colors chars-per-pixel */
"60 60 185 2 ",
"   c #4E2B3C",
".  c #5C2F37",
"X  c #512B3C",
"o  c #4E323A",
"O  c #51343E",
"+  c #56393F",
"@  c #65232B",
"#  c #672529",
"$  c #6E2A2C",
"%  c #732C2E",
"&  c #7A2F2E",
"*  c #662C31",
"=  c #682F31",
"-  c #713732",
";  c #753838",
":  c #185B32",
">  c #2A5733",
",  c #215F3A",
"<  c #1C6533",
"1  c #286835",
"2  c #216039",
"3  c #3E7B34",
"4  c #6C4238",
"5  c #794639",
"6  c #7D523D",
"7  c #466F34",
"8  c #617F3E",
"9  c #757D34",
"0  c #563B41",
"q  c #7D784B",
"w  c #853B31",
"e  c #863B35",
"r  c #8E3E35",
"t  c #903F33",
"y  c #8E4134",
"u  c #864836",
"i  c #8C4D39",
"p  c #914135",
"a  c #984A36",
"s  c #87573A",
"d  c #B2593B",
"f  c #A7683C",
"g  c #B7693D",
"h  c #BB773E",
"j  c #813B51",
"k  c #89424D",
"l  c #885341",
"z  c #8D4259",
"x  c #97445D",
"c  c #966645",
"v  c #9C6444",
"b  c #A36645",
"n  c #B46D41",
"m  c #A67542",
"M  c #B57540",
"N  c #BE7E40",
"B  c #B67A4D",
"V  c #994960",
"C  c #AF4866",
"Z  c #C46B40",
"A  c #D57743",
"S  c #D57A45",
"D  c #DB7A43",
"F  c #DB7848",
"G  c #DB685F",
"H  c #DB5C75",
"J  c #E56C69",
"K  c #E9696E",
"L  c #2D8731",
"P  c #5F823A",
"I  c #50923B",
"U  c #709137",
"Y  c #67A536",
"T  c #72AC36",
"R  c #78A13A",
"E  c #5F9E56",
"W  c #7C864F",
"Q  c #6E8557",
"!  c #728757",
"~  c #748956",
"^  c #7C8953",
"/  c #619E55",
"(  c #6F9C56",
")  c #789458",
"_  c #7D9C5A",
"`  c #6BA859",
"'  c #7DA35E",
"]  c #76B35D",
"[  c #94A93B",
"{  c #848957",
"}  c #829756",
"|  c #8C9757",
" . c #8D9A57",
".. c #8A9958",
"X. c #929B57",
"o. c #BC8446",
"O. c #83A55A",
"+. c #8EA459",
"@. c #83AB5D",
"#. c #8DAC5F",
"$. c #91A156",
"%. c #91A159",
"&. c #84BC65",
"*. c #89BC63",
"=. c #83BF68",
"-. c #92B661",
";. c #C58B40",
":. c #DE8445",
">. c #DE8B45",
",. c #DE8E4C",
"<. c #D79D4A",
"1. c #E18544",
"2. c #E18947",
"3. c #E69547",
"4. c #E89B4B",
"5. c #EDA24D",
"6. c #ECAE4D",
"7. c #F4A74C",
"8. c #F5AD4D",
"9. c #ECB14E",
"0. c #F4B34F",
"q. c #F5BC4E",
"w. c #EDA854",
"e. c #F7AB50",
"r. c #F5AC52",
"t. c #EDB452",
"y. c #F3B554",
"u. c #F4BD51",
"i. c #F5B858",
"p. c #F2BA6D",
"a. c #F4BB71",
"s. c #86C667",
"d. c #8BC666",
"f. c #87C967",
"g. c #8CCD67",
"h. c #85C669",
"j. c #88C769",
"k. c #86CA6A",
"l. c #8CCD69",
"z. c #90C766",
"x. c #91CE66",
"c. c #91CE69",
"v. c #8ED167",
"b. c #87D16A",
"n. c #8DD169",
"m. c #8FD869",
"M. c #93D266",
"N. c #98D566",
"B. c #95D867",
"V. c #9AD966",
"C. c #92D269",
"Z. c #99D669",
"A. c #96D869",
"S. c #9BDA69",
"D. c #A0DF69",
"F. c #EFCE57",
"G. c #F6C754",
"H. c #FBCD54",
"J. c #F8CE5A",
"K. c #FDD354",
"L. c #FCD55B",
"P. c #FDD85C",
"I. c #FBD664",
"U. c #FCD962",
"Y. c #FBDC74",
"T. c #FBDC7A",
"R. c #FDE075",
"E. c #FDE27C",
"W. c #EE5E86",
"Q. c #ED6184",
"!. c #F16086",
"~. c #F26188",
"^. c #F5D881",
"/. c #F8DD90",
"(. c #FDE382",
"). c #FBE48D",
"_. c #FAE694",
"`. c #FBE898",
"'. c #FAEAA7",
"]. c #FBF6DB",
"[. c #FBFAE6",
"{. c #FBF6E9",
"}. c #FCFAEB",
"|. c #FDFCF4",
" X c #FCFEFC",
/* pixels */
"Z.M.l.n.C.C.C.C.C.C.l.h.k.c.v.n.M.M.l.l.M.n.n.l.l.m.n.C.C.c.c.C.C.c.S.Z.b.k.h.k.k.l.l.c.l.M.g.l.C.c.n.C.C.C.n.C.A.m.l.k.",
"M.C.l.n.C.C.c.l.l.M.l.k.h.h.l.l.c.j.h.l.n.n.C.C.C.C.m.C.C.n.c.Z.D.c.Z.Z.Z.k.k.k.j.l.j.C.v.n.l.c.C.M.x.x.c.A.Z.C.m.n.C.k.",
"v.n.C.l.g.n.C.x.g.M.M.M.l.l.n.C.n.k.k.l.C.A.A.N.Z.c.C.n.n.l.c.C.C.C.g.C.C.m.n.C.M.M.C.C.b.k.l.l.l.x.M.l.M.M.n.n.n.l.M.C.",
"n.j.j.l.l.v.n.Z.l.n.C.M.C.n.C.C.n.m.n.n.l.n.n.C.c.k.l.n.n.C.k.l.N.V.C.C.C.S.C.C.C.n.C.C.n.v.l.j.g.g.g.l.d.M.M.C.n.k.v.N.",
"g.g.l.f.l.g.f.M.c.l.l.n.b.C.N.c.n.n.l.C.C.l.C.l.k.k.l.l.k.k.l.Z.Z.Z.C.n.m.m.C.l.l.C.C.Z.C.C.l.l.j.g.g.c.g.M.v.l.b.l.f.f.",
"Z.N.C.M.g.x.M.N.M.N.Z.C.Z.n.k.l.l.f.x.M.C.j.b.n.m.f.l.l.n.m.n.S.D.S.C.n.k.l.l.n.l.C.l.c.d.l.n.k.j.c.c.C.g.C.m.m.C.c.C.c.",
"n.M.C.M.M.j.f.M.N.C.C.C.C.l.l.l.c.c.x.g.n.C.l.l.v.n.n.C.C.l.n.C.C.C.A.c.l.c.c.n.C.l.n.Z.c.k.l.c.C.g.C.x.C.l.M.g.M.c.z.x.",
"v.v.x.n.C.g.j.b.C.c.M.M.l.C.l.l.l.c.N.l.g.c.j.l.v.A.n.C.C.l.C.A.c.C.Z.c.l.c.x.n.m.l.n.C.Z.Z.Z.A.C.l.j.g.M.C.C.v.b.x.l.l.",
"v.v.v.f.x.M.l.l.x.M.M.c.c.C.C.c.l.l.M.n.v.l.b.l.j.l.l.C.m.k.l.m.C.l.l.n.l.Z.n.v.l.M.N.v.l.z.c.M.l.h.j.g.n.n.C.l.l.l.l.n.",
"f.l.M.M.x.g.x.x.l.l.g.g.x.g.x.l.l.l.C.l.C.l.M.M.l.n.l.l.C.l.l.k.l.l.M.v.A.l.j.l.c.M.l.n.c.l.x.Z.l.k.M.N.M.b.M.l.f.j.n.n.",
"k.k.n.n.M.M.M.N.M.C.M.M.C.k.x.n.l.n.n.n.l.n.n.l.C.C.C.l.n.c.C.l.S.N.n.M.n.n.l.l.l.n.l.j.Z.C.g.M.g.l.v.M.v.n.n.C.j.l.n.A.",
"n.l.j.l.c.C.M.C.n.M.n.j.C.n.n.x.l.l.b.k.k.l.v.k.C.C.c.C.C.C.C.Z.V.C.v.M.C.l.C.Z.n.l.f.M.x.x.n.M.v.l.l.v.n.A.A.l.f.s.k.C.",
"C.n.l.j.l.k.l.c.M.N.g.f.M.M.c.x.Z.l.n.n.c.l.M.l.C.c.C.M.c.c.C.n.n.C.M.M.C.l.k.A.C.C.l.f.f.l.l.n.M.l.l.Z.M.C.C.x.M.g.j.l.",
"n.l.C.l.l.l.M.x.x.v.M.g.x.x.l.k.j.C.M.C.C.c.x.M.x.x.c.M.C.c.C.n.n.l.n.l.c.l.l.n.m.Z.C.h.l.C.n.v.v.v.n.l.g.c.C.n.M.x.M.c.",
"n.l.C.C.Z.x.N.c.l.l.n.l.l.l.f.k.l.l.l.l.M.x.g.M.x.l.b.Z.C.g.n.C.Z.n.l.v.C.l.C.l.k.M.n.k.j.l.l.C.v.C.A.C.j.l.l.b.M.g.l.v.",
"k.b.k.l.c.c.C.l.j.l.M.f.h.l.l.M.M.f.k.j.l.x.g.x.l.n.l.l.l.h.) W W ^ &.j.b.l.n.b.n.Z.C.n.M.j.j.l.v.l.g.v.l.j.f.n.g.h.h.k.",
"k.k.k.b.k.b.l.n.n.v.v.l.l.C.l.n.g.v.v.l.l.C.n.n.c.c.d.g.g.*.4 @ * = @.n.C.n.n.M.C.M.x.M.M.g.l.n.N.b.l.j.l.l.c.b.k.n.b.j.",
"n.k.n.n.n.l.l.n.x.x.l.C.C.n.l.j.j.M.M.x.n.s./ / / / E ` M.z.4 # & & q ^ d.l.l.M.c.f.j.C.x.M.N.n.n.n.l.b.M.c.c.v.C.n.n.M.",
"A.C.n.l.C.C.C.n.l.k.h.l.C.n.c.j.M.x.g.l.C.] 2 : : : : 2 x.z.4 # e p $ * O.b.n.n.M.f.l.M.C.g.M.n.l.l.n.b.g.C.n.C.A.n.n.l.",
"A.C.C.m.C.A.n.k.h.h.h.k.l.l.l.g.x.x.l.l.C.] 2 1 3 3 3 E ` ( 5 & r r % * O.k.v.b.x.v.l.n.l.C.j.l.c.l.c.l.g.g.v.C.m.M.n.k.",
"l.k.C.n.M.v.M.n.l.l.j.c.C.v.v.f.C.x.z.M.l.] , 1 Y T T Y 1 > 5 p r p % * @.C.f.h.g.M.l.l.f.k.k.f.j.l.l.f.h.n.M.n.n.v.n.b.",
"n.k.C.Z.N.l.M.n.c.c.c.C.b.l.g.g.f.g.C.N.x.] 2 1 I Y T Y 3 7 u y w w $ * W O.d.f.l.l.j.l.n.v.b.l.j.l.g.f.k.l.n.m.n.n.l.n.",
"g.C.C.n.C.z.x.M.l.c.M.Z.v.g.l.v.n.l.M.C.M.] , < L I Y T T R s t % # # # @ * } b.b.k.v.M.M.C.v.n.l.f.g.j.j.k.n.n.n.b.n.N.",
"n.M.C.n.C.c.c.l.n.n.C.l.C.j.x.C.M.l.N.c.-.O.8 P U U [ [ U 9 u w w w w w i s | #.g.M.n.M.M.l.n.A.x.k.l.x.C.b.b.n.C.n.m.n.",
"j.l.l.v.v.n.B.M.n.n.l.l.v.g.M.x.n.C.C.#.i m F.F.6.6.9.<.- # # # Z F A A t.L.h u +.M.n.n.x.n.n.M.c.h.f.C.C.C.n.j.C.C.b.n.",
"b.v.l.l.l.f.x.g.M.c.l.l.g.f.l.l.l.z.*...b o.L.J.q.q.r.4.i y & w Z D 1.2.q.K.;.f X.*.g.l.l.f.j.g.f.l.l.M.x.M.C.l.j.n.k.l.",
"g.g.M.g.g.l.f.g.l.g.l.v.g.l.n.l.Z.X.i B ^.T.E.Y.H.F.6.7.5.4.:.A F D 4.8.G.K.H.J.o.i %.l.l.g.g.M.M.v.l.x.g.v.n.l.j.l.f.j.",
"M.v.v.v.g.g.x.g.g.g.g.l.M.C.n.c.A. .r B (.)._._.I.Y.J.p.a.p.4.>.,.,.r.i.J.L.K.L.o.y %.n.v.N.M.N.M.M.l.f.g.b.v.k.l.M.M.c.",
"g.v.M.M.g.x.x.x.M.l.l.l.l.M.x.C.m...y B E.'.[.}.}.}.{.{.}.]./.T.T.T.T.T.T.E.U.K.h y $.b.l.n.g.g.l.C.l.j.l.c.C.g.l.l.n.M.",
"M.n.v.x.n.C.M.M.g.M.v.j.l.C.Z.x.n. .r B Y.`.[.}.|. X X|.}.]._.(.(.(.E.E.Y.T.I.H.N y $.B.l.k.h.h.l.n.C.l.x.n.C.c.c.l.l.n.",
"M.g.c.g.x.M.c.M.C.C.l.k.l.c.g.l.v. .p M L.Y._.'.|. X|.}.'._.(.(.(.E.U.P.G.y.0.0.h r $.M.M.j.l.l.l.l.C.C.C.m.C.l.C.M.n.b.",
"N.M.x.g.g.x.C.x.l.n.C.j.l.h.g.M.l...r h K.U.E.`.].[.[.].).E.(.T.E.T.L.H.0.7.8.8.g u $.v.l.k.x.Z.C.C.k.c.Z.C.C.l.l.l.C.Z.",
"x.x.v.l.l.l.c.C.l.n.l.g.n.m.l.C.C...r M H.K.P.U.Y.Y.T.Y.P.P.P.P.P.L.q.0.8.e.r.r.v . O.v.l.k.k.l.v.v.v.l.M.M.C.C.g.l.C.M.",
"g.f.g.f.j.l.l.z.l.C.Z.M.C.C.C.C.c. .r M H.K.K.K.K.K.K.K.K.K.K.K.H.H.y.7.8.8.8.r.v X _ C.n.n.j.f.M.M.V.l.l.g.n.C.g.l.g.l.",
"M.M.l.j.l.l.l.l.x.g.M.g.n.C.g.x.l. .r g y.q.K.L.R.R.K.K.K.K.q.0.3.>.:.1.5.e.3.2.i X _ Z.N.M.C.l.c.l.M.v.g.l.j.s.n.N.x.l.",
"M.c.c.c.l.f.l.g.M.c.l.l.v.M.j.j.j...i n w.0.K.P.E.R.P.K.K.H.0.7.1.D D D 4.e.,.S l 0 _ Z.M.g.v.l.g.M.V.C.N.N.M.M.n.C.n.c.",
"x.M.g.M.M.g.g.M.l.C.g.C.C.n.l.j.n.x.-...6 m J.K.P.P.K.K.K.H.3.1.D D D D 1.2.v ; { *.f.n.l.j.g.g.h.j.M.M.M.c.c.n.b.C.C.C.",
"x.M.M.N.N.M.x.f.g.M.n.n.l.n.v.l.l.n.C.' o 6 J.L.K.K.K.K.K.H.>.A D D F D F F u   _ A.N.n.M.x.g.x.l.h.l.Z.N.M.C.n.n.l.l.b.",
"j.j.v.n.C.l.j.j.g.g.C.M.M.n.x.n.l.l.n.' o 6 i.u.K.K.K.K.q.0.:.D D D J K K K k X _ N.N.g.x.N.x.x.M.g.C.C.A.M.M.f.l.l.b.l.",
"j.f.l.b.N.n.j.x.x.M.j.C.g.l.x.c.n.n.C.' O l w.y.K.K.K.H.0.7.:.D D D K !.!.Q.z O _ Z.M.g.n.N.M.x.l.n.C.C.c.C.l.l.f.v.b.l.",
"g.M.M.g.M.C.C.M.M.v.j.n.l.k.l.g.f.l.l.=._ } c m 0.G.u.9.h g d d G K W.W.C z { @.d.g.M.l.l.l.n.A.C.N.Z.C.c.Z.M.v.s.l.C.x.",
"x.x.x.v.C.N.c.l.n.M.C.M.C.n.l.l.M.l.n.v.n.' 0 5 w.8.r.4.a p p k H ~.W.W.j   ' C.B.Z.C.g.n.j.k.b.l.l.z.c.C.C.C.M.f.l.l.C.",
"x.l.k.f.v.v.n.C.N.M.l.x.v.C.b.n.v.x.N.M.C.d.} { c v v v ; ; ; ; z V x x { ) =.Z.M.C.A.l.v.n.b.n.k.k.l.N.N.l.C.c.M.C.n.M.",
"g.M.v.l.l.j.l.C.M.v.M.x.d.l.l.M.x.x.x.x.C.C.A.d.+ X   X X . X X X X   0 &.m.C.n.b.l.l.k.b.C.C.n.c.Z.c.c.c.C.c.Z.M.A.n.n.",
"C.l.v.n.x.z.C.n.C.g.c.g.g.f.k.k.j.l.C.M.M.C.C.d.) ~ ~ ! Q Q Q ! ~ ~ ! ) *.l.Z.l.k.b.k.k.l.C.M.B.c.M.N.c.g.l.l.l.C.C.n.M.",
"n.N.f.l.c.l.c.l.j.l.f.g.l.x.k.n.n.j.l.j.l.M.n.n.B.n.C.n.l.b.n.N.C.C.C.l.f.f.g.j.l.n.C.b.k.j.g.C.l.C.z.l.l.l.l.h.f.g.M.N.",
"C.v.l.j.l.c.l.f.f.g.l.x.g.v.g.l.c.l.x.g.M.n.l.M.v.l.g.n.c.l.g.M.l.x.g.f.v.v.l.M.n.k.N.n.n.l.l.k.j.l.l.n.l.j.l.k.l.f.g.g.",
"M.g.C.C.n.j.l.l.v.l.l.x.l.n.l.v.Z.M.M.M.M.C.N.v.v.M.l.M.l.C.C.n.l.x.l.l.l.v.M.Z.b.j.b.C.n.C.C.n.l.C.n.v.M.n.c.C.v.n.j.f.",
"n.C.b.l.b.b.l.l.b.b.l.j.l.C.v.v.v.M.c.l.g.x.N.M.x.x.g.M.C.z.M.C.C.l.l.l.k.l.n.n.C.A.l.N.v.n.C.C.C.C.m.m.l.n.C.c.x.x.g.x.",
"l.l.M.k.k.k.k.l.k.b.n.l.l.g.M.l.f.v.g.f.l.x.n.M.Z.M.x.x.C.c.l.l.C.j.j.k.h.b.j.j.C.n.l.Z.n.v.v.B.Z.C.C.l.k.l.c.C.x.x.x.x.",
"l.j.l.k.k.k.l.n.l.l.M.g.l.l.v.v.g.g.f.f.l.g.g.V.M.l.f.j.C.l.n.l.M.x.M.b.l.v.l.k.n.m.l.l.l.n.n.n.C.M.l.k.l.l.l.C.x.x.k.j.",
"b.l.l.l.k.k.k.m.g.l.l.v.f.l.g.l.M.N.M.M.g.g.l.M.l.c.f.g.C.n.C.l.l.M.x.C.C.b.l.n.n.n.l.l.n.B.N.Z.j.C.n.l.j.c.C.c.x.x.j.l.",
"M.M.g.g.n.n.n.b.l.n.l.g.l.k.k.f.v.M.M.C.c.M.C.C.j.l.f.j.n.C.n.n.n.l.j.g.C.x.l.v.l.k.b.j.n.B.C.C.l.C.c.l.j.l.C.x.x.x.M.l.",
"n.C.g.C.C.C.v.v.v.n.C.n.g.g.v.C.v.C.n.v.M.n.n.n.c.x.x.c.n.x.C.n.c.c.l.x.c.c.g.k.C.l.M.v.M.m.n.C.l.k.n.c.n.n.l.c.M.M.M.C.",
"l.g.d.g.M.n.n.l.v.n.n.l.g.x.M.l.C.C.n.M.M.Z.l.g.Z.N.C.Z.j.g.n.n.n.l.f.g.l.M.v.v.M.l.v.n.n.n.C.C.n.C.C.C.Z.C.l.x.g.x.l.g.",
"f.f.s.k.l.j.C.C.Z.Z.n.n.l.g.g.b.n.l.n.j.k.N.c.l.l.g.C.C.l.n.n.b.b.g.f.l.f.g.f.j.n.g.Z.n.N.M.l.n.l.l.l.C.C.C.l.j.j.l.j.k.",
"b.l.C.C.M.n.n.C.n.M.b.l.l.j.l.M.x.l.l.f.l.b.l.l.v.g.A.n.l.l.m.l.N.M.x.s.k.l.n.c.M.M.Z.M.C.n.f.c.n.k.l.C.C.C.l.b.n.b.g.x.",
"g.N.S.n.M.M.n.C.M.v.C.M.C.C.Z.C.n.C.l.b.n.C.v.j.b.b.v.b.l.n.n.n.b.n.C.j.k.M.Z.n.C.M.C.M.C.j.x.c.C.c.l.l.v.j.l.f.b.M.x.M.",
"l.l.B.C.M.g.c.l.v.C.n.C.n.l.C.C.C.M.l.k.C.x.c.c.l.M.n.b.l.Z.Z.l.c.n.b.l.g.g.j.M.Z.c.x.c.l.l.M.n.n.N.M.n.C.C.n.l.x.x.x.c.",
"n.l.l.C.l.x.c.n.v.C.n.b.n.l.l.C.C.v.g.l.C.C.l.n.l.l.c.C.l.C.l.C.Z.C.Z.l.l.v.l.C.C.l.C.N.l.c.l.l.b.M.S.C.A.C.C.C.c.C.C.z."
};
